<svg width="40" height="40" viewBox="0 0 40 40" fill="none" xmlns="http://www.w3.org/2000/svg">
<path d="M29.1671 35C23.8434 35 20.0004 30.6049 20.0005 24.0973C20.0346 14.6421 27.1426 7.95694 37.3969 6.67312C38.3482 6.55402 38.7151 7.8719 37.839 8.26145C33.9043 10.011 31.9171 12.2311 31.6605 14.4286C31.4687 16.0704 32.3612 17.5085 33.4818 17.7778C36.3871 18.476 38.3337 22.094 38.3337 25.8333C38.3337 30.8959 34.2297 35 29.1671 35Z" fill="url(#paint0_linear_206_1119)"/>
<path d="M9.16706 35C3.84338 35 0.000392914 30.6049 0.000520706 24.0973C0.0346146 14.6421 7.14259 7.95694 17.3969 6.67312C18.3482 6.55402 18.7151 7.8719 17.839 8.26145C13.9043 10.011 11.9171 12.2311 11.6605 14.4286C11.4687 16.0704 12.3612 17.5085 13.4818 17.7778C16.3871 18.476 18.3337 22.094 18.3337 25.8333C18.3337 30.8959 14.2297 35 9.16706 35Z" fill="url(#paint1_linear_206_1119)"/>
<defs>
<linearGradient id="paint0_linear_206_1119" x1="38.3359" y1="20.8328" x2="20.0005" y2="20.8328" gradientUnits="userSpaceOnUse">
<stop stop-color="#0568EA"/>
<stop offset="1" stop-color="#08B5F7"/>
</linearGradient>
<linearGradient id="paint1_linear_206_1119" x1="18.3359" y1="20.8328" x2="0.000520706" y2="20.8328" gradientUnits="userSpaceOnUse">
<stop stop-color="#0568EA"/>
<stop offset="1" stop-color="#08B5F7"/>
</linearGradient>
</defs>
</svg>
