<svg xmlns="http://www.w3.org/2000/svg" width="60" height="60" viewBox="0 0 60 60" fill="none"><path d="M44.9999 42.5C44.9999 41.12 43.88 40 42.5 40C41.12 40 40 41.12 40 42.5C40 43.88 41.12 44.9999 42.5 44.9999C43.88 44.9999 44.9999 43.88 44.9999 42.5Z" fill="url(#paint0_linear_133_54)"/><path d="M37.5001 31.2501V26.2501C37.5001 25.5601 36.94 25 36.25 25C35.56 25 35 25.5601 35 26.2501V31.2501C35 31.9401 35.56 32.5002 36.25 32.5002C36.94 32.5002 37.5001 31.9401 37.5001 31.2501Z" fill="url(#paint1_linear_133_54)"/><path d="M42.5001 29.4876V26.2501C42.5001 25.5601 41.94 25 41.25 25C40.56 25 40 25.5601 40 26.2501V29.4876C40 30.1776 40.56 30.7377 41.25 30.7377C41.94 30.7375 42.5001 30.1776 42.5001 29.4876Z" fill="url(#paint2_linear_133_54)"/><path d="M47.5 28.75V26.2501C47.5 25.5601 46.9399 25 46.2499 25C45.5599 25 45 25.5601 45 26.2501V28.75C45 29.44 45.56 30.0001 46.25 30.0001C46.94 30.0001 47.5 29.44 47.5 28.75Z" fill="url(#paint3_linear_133_54)"/><path d="M46.25 32.5C38.6699 32.5 32.5 38.6675 32.5 46.25C32.5 53.8325 38.6699 60.0001 46.25 60.0001C53.83 60.0001 59.9999 53.8326 59.9999 46.2501C59.9999 38.6676 53.8299 32.5 46.25 32.5ZM46.25 57.5001C40.0475 57.5001 35 52.4526 35 46.2501C35 40.0476 40.0475 35.0001 46.25 35.0001C52.4525 35.0001 57.5 40.0476 57.5 46.2501C57.5 52.4526 52.4525 57.5001 46.25 57.5001Z" fill="url(#paint4_linear_133_54)"/><path d="M50 47.5C48.62 47.5 47.5 48.62 47.5 50C47.5 51.38 48.62 52.5 50 52.5C51.38 52.5 52.4999 51.3801 52.4999 50.0001C52.4999 48.6201 51.38 47.5 50 47.5Z" fill="url(#paint5_linear_133_54)"/><path d="M49.3071 40.1304C48.6897 39.8254 47.9397 40.0729 47.6296 40.6905L42.6295 50.6904C42.322 51.3079 42.572 52.0579 43.1896 52.368C43.372 52.458 43.5621 52.5005 43.7496 52.5005C44.2071 52.5005 44.6472 52.248 44.8671 51.808L49.8672 41.8081C50.1747 41.1904 49.9247 40.4404 49.3071 40.1304Z" fill="url(#paint6_linear_133_54)"/><path d="M36.25 5C35.56 5 35 5.56004 35 6.25004V11.2499C35 11.9399 35.56 12.5 36.25 12.5C36.94 12.5 37.5001 11.9399 37.5001 11.2499V6.24992C37.5001 5.55992 36.94 5 36.25 5Z" fill="url(#paint7_linear_133_54)"/><path d="M53.75 17.5C57.1975 17.5 60 14.695 60 11.25V6.24996C60 2.805 57.1975 0 53.75 0H6.24996C2.80254 0 0 2.805 0 6.24996V11.25C0 14.695 2.80254 17.5 6.24996 17.5H22.5V19.9999H6.24996C2.80254 20 0 22.805 0 26.25V31.25C0 34.695 2.80254 37.5 6.24996 37.5H22.5V40H21.25C20.56 40 19.9999 40.56 19.9999 41.25V42.5H18.75C18.06 42.5 17.5 43.0601 17.5 43.7501V45H6.24996C5.55996 45 4.99992 45.56 4.99992 46.25C4.99992 46.94 5.55996 47.5001 6.24996 47.5001H17.5V48.75C17.5 49.44 18.06 50 18.75 50H28.75C29.44 50 30 49.44 30 48.75V43.75C30 43.06 29.44 42.4999 28.75 42.4999H27.4999V41.25C27.4999 40.56 26.9399 40 26.2499 40H24.9998V37.5H31.9098C32.5998 37.5 33.1598 36.94 33.1598 36.25C33.1598 35.56 32.5998 34.9999 31.9098 34.9999H6.24996C4.18242 34.9999 2.49996 33.3175 2.49996 31.2499V26.25C2.49996 24.1825 4.18242 22.5 6.24996 22.5H53.7499C55.8175 22.5 57.4999 24.1825 57.4999 26.25V31.25C57.4999 31.815 57.3574 32.3801 57.0775 32.9325C56.7649 33.5475 57.0124 34.3 57.6274 34.6125C58.2475 34.9275 58.9949 34.68 59.3099 34.0625C59.7674 33.1575 59.9999 32.21 59.9999 31.25V26.25C59.9999 22.805 57.1973 20 53.7499 20H25V17.5001L53.75 17.5ZM26.25 45H27.5V47.5H20V45H21.2501C21.9401 45 22.5001 44.44 22.5001 43.75V42.4999H25.0001V43.75C25 44.44 25.56 45 26.25 45ZM6.24996 15C4.18242 15 2.49996 13.3175 2.49996 11.25V6.24996C2.49996 4.18242 4.18242 2.49996 6.24996 2.49996H53.7499C55.8175 2.49996 57.4999 4.18242 57.4999 6.24996V11.25C57.4999 13.3175 55.8175 15 53.7499 15H6.24996Z" fill="url(#paint8_linear_133_54)"/><path d="M5 28.75C5 30.8176 6.68246 32.5 8.75 32.5C10.8175 32.5 12.5 30.8176 12.5 28.75C12.5 26.6825 10.8175 25 8.75 25C6.68246 25 5 26.6826 5 28.75ZM9.99992 28.75C9.99992 29.44 9.43742 30.0001 8.74988 30.0001C8.06246 30.0001 7.49996 29.44 7.49996 28.75C7.49996 28.06 8.06246 27.5 8.75 27.5C9.43742 27.5001 9.99992 28.06 9.99992 28.75Z" fill="url(#paint9_linear_133_54)"/><path d="M51.25 5C50.56 5 50 5.56004 50 6.25004V11.2499C50 11.9399 50.56 12.5 51.25 12.5C51.94 12.5 52.5001 11.9399 52.5001 11.2499V6.24992C52.5001 5.55992 51.94 5 51.25 5Z" fill="url(#paint10_linear_133_54)"/><path d="M8.75 5C6.68246 5 5 6.68246 5 8.75C5 10.8175 6.68246 12.5 8.75 12.5C10.8175 12.5 12.5 10.8175 12.5 8.75C12.5 6.68246 10.8174 5 8.75 5ZM8.75 9.99992C8.06246 9.99992 7.49996 9.44 7.49996 8.75C7.49996 8.06 8.06246 7.49996 8.75 7.49996C9.43754 7.49996 10 8.06 10 8.75C10 9.44 9.43742 9.99992 8.75 9.99992Z" fill="url(#paint11_linear_133_54)"/><path d="M52.5001 29.4876V26.2501C52.5001 25.5601 51.94 25 51.25 25C50.56 25 50 25.5601 50 26.2501V29.4876C50 30.1776 50.56 30.7377 51.25 30.7377C51.94 30.7375 52.5001 30.1776 52.5001 29.4876Z" fill="url(#paint12_linear_133_54)"/><path d="M46.25 5C45.56 5 45 5.56004 45 6.25004V11.2499C45 11.9399 45.56 12.5 46.25 12.5C46.94 12.5 47.5001 11.9399 47.5001 11.2499V6.24992C47.5 5.55992 46.94 5 46.25 5Z" fill="url(#paint13_linear_133_54)"/><path d="M41.25 5C40.56 5 40 5.56004 40 6.25004V11.2499C40 11.9399 40.56 12.5 41.25 12.5C41.94 12.5 42.5001 11.9399 42.5001 11.2499V6.24992C42.5001 5.55992 41.94 5 41.25 5Z" fill="url(#paint14_linear_133_54)"/><defs><linearGradient id="paint0_linear_133_54" x1="40" y1="42.5" x2="44.9999" y2="42.5" gradientUnits="userSpaceOnUse"><stop stop-color="#0568EA"/><stop offset="1" stop-color="#08B5F7"/></linearGradient><linearGradient id="paint1_linear_133_54" x1="35" y1="28.7501" x2="37.5001" y2="28.7501" gradientUnits="userSpaceOnUse"><stop stop-color="#0568EA"/><stop offset="1" stop-color="#08B5F7"/></linearGradient><linearGradient id="paint2_linear_133_54" x1="40" y1="27.8688" x2="42.5001" y2="27.8688" gradientUnits="userSpaceOnUse"><stop stop-color="#0568EA"/><stop offset="1" stop-color="#08B5F7"/></linearGradient><linearGradient id="paint3_linear_133_54" x1="45" y1="27.5001" x2="47.5" y2="27.5001" gradientUnits="userSpaceOnUse"><stop stop-color="#0568EA"/><stop offset="1" stop-color="#08B5F7"/></linearGradient><linearGradient id="paint4_linear_133_54" x1="32.5" y1="46.2501" x2="59.9999" y2="46.2501" gradientUnits="userSpaceOnUse"><stop stop-color="#0568EA"/><stop offset="1" stop-color="#08B5F7"/></linearGradient><linearGradient id="paint5_linear_133_54" x1="47.5" y1="50" x2="52.4999" y2="50" gradientUnits="userSpaceOnUse"><stop stop-color="#0568EA"/><stop offset="1" stop-color="#08B5F7"/></linearGradient><linearGradient id="paint6_linear_133_54" x1="42.498" y1="46.2503" x2="49.9987" y2="46.2503" gradientUnits="userSpaceOnUse"><stop stop-color="#0568EA"/><stop offset="1" stop-color="#08B5F7"/></linearGradient><linearGradient id="paint7_linear_133_54" x1="35" y1="8.75" x2="37.5001" y2="8.75" gradientUnits="userSpaceOnUse"><stop stop-color="#0568EA"/><stop offset="1" stop-color="#08B5F7"/></linearGradient><linearGradient id="paint8_linear_133_54" x1="0" y1="25" x2="60" y2="25" gradientUnits="userSpaceOnUse"><stop stop-color="#0568EA"/><stop offset="1" stop-color="#08B5F7"/></linearGradient><linearGradient id="paint9_linear_133_54" x1="5" y1="28.75" x2="12.5" y2="28.75" gradientUnits="userSpaceOnUse"><stop stop-color="#0568EA"/><stop offset="1" stop-color="#08B5F7"/></linearGradient><linearGradient id="paint10_linear_133_54" x1="50" y1="8.75" x2="52.5001" y2="8.75" gradientUnits="userSpaceOnUse"><stop stop-color="#0568EA"/><stop offset="1" stop-color="#08B5F7"/></linearGradient><linearGradient id="paint11_linear_133_54" x1="5" y1="8.75" x2="12.5" y2="8.75" gradientUnits="userSpaceOnUse"><stop stop-color="#0568EA"/><stop offset="1" stop-color="#08B5F7"/></linearGradient><linearGradient id="paint12_linear_133_54" x1="50" y1="27.8688" x2="52.5001" y2="27.8688" gradientUnits="userSpaceOnUse"><stop stop-color="#0568EA"/><stop offset="1" stop-color="#08B5F7"/></linearGradient><linearGradient id="paint13_linear_133_54" x1="45" y1="8.75" x2="47.5001" y2="8.75" gradientUnits="userSpaceOnUse"><stop stop-color="#0568EA"/><stop offset="1" stop-color="#08B5F7"/></linearGradient><linearGradient id="paint14_linear_133_54" x1="40" y1="8.75" x2="42.5001" y2="8.75" gradientUnits="userSpaceOnUse"><stop stop-color="#0568EA"/><stop offset="1" stop-color="#08B5F7"/></linearGradient></defs></svg>