<svg xmlns="http://www.w3.org/2000/svg" width="60" height="60" viewBox="0 0 60 60" fill="none"><path d="M51.9947 12.8467C52.3829 13.0078 52.3829 13.0078 52.6172 13.3594C52.6887 14.1875 52.495 14.9339 52.2982 15.7349C52.2474 15.9475 52.2474 15.9475 52.1955 16.1643C52.1028 16.5507 52.0091 16.9368 51.9151 17.3228C51.8165 17.7281 51.7192 18.1337 51.6217 18.5393C51.4578 19.22 51.2932 19.9006 51.1281 20.581C50.8956 21.5388 50.6646 22.4969 50.4338 23.4551C50.254 24.2014 50.0738 24.9476 49.8936 25.6938C49.8647 25.8132 49.8647 25.8132 49.8353 25.935C49.7075 26.4642 49.5793 26.9933 49.451 27.5224C49.4189 27.6549 49.3869 27.7875 49.3539 27.924C49.2037 28.5419 49.0482 29.156 48.8672 29.7656C48.9854 29.7648 49.1035 29.764 49.2252 29.7632C50.3375 29.7561 51.4497 29.7508 52.5619 29.7474C53.1338 29.7456 53.7056 29.7431 54.2774 29.7391C54.8291 29.7353 55.3807 29.7332 55.9323 29.7322C56.143 29.7316 56.3537 29.7303 56.5644 29.7284C56.859 29.7259 57.1535 29.7255 57.4482 29.7257C57.5357 29.7244 57.6232 29.7232 57.7133 29.7219C58.3031 29.7254 58.3031 29.7254 58.5887 29.9291C58.8386 30.3133 58.7909 30.7354 58.711 31.1719C58.5509 31.4908 58.335 31.7365 58.0958 31.9995C57.9652 32.1524 57.8349 32.3056 57.7048 32.4591C57.638 32.5368 57.5711 32.6145 57.5022 32.6946C57.1903 33.0659 56.9038 33.4549 56.6163 33.8452C55.9076 34.7989 55.1777 35.7353 54.4466 36.6718C53.99 37.258 53.5384 37.848 53.086 38.4375C52.8908 38.6914 52.6954 38.9453 52.5001 39.1992C52.4024 39.3261 52.3047 39.4531 52.2071 39.5801C51.2305 40.8496 50.254 42.1191 49.2774 43.3887C49.2291 43.4514 49.1808 43.5142 49.131 43.5789C49.033 43.7064 48.935 43.8338 48.8369 43.9612C48.5984 44.2712 48.3601 44.5812 48.122 44.8915C47.5602 45.6232 46.9953 46.3524 46.4283 47.0801C45.6918 48.0255 44.963 48.9765 44.236 49.9292C43.7892 50.514 43.3397 51.0966 42.8907 51.6797C42.7444 51.8698 42.5981 52.06 42.4519 52.2501C42.3544 52.3768 42.257 52.5035 42.1595 52.6301C41.9076 52.9574 41.6561 53.2849 41.4052 53.6128C41.3535 53.6803 41.3018 53.7479 41.2485 53.8174C41.1053 54.0043 40.9623 54.1912 40.8193 54.3782C40.7294 54.4931 40.6395 54.6081 40.5469 54.7265C40.4728 54.8238 40.4728 54.8238 40.3971 54.923C40.1141 55.2823 39.9965 55.4197 39.5435 55.5469C38.9733 55.5469 38.9733 55.5469 38.6719 55.3125C38.1508 54.4562 38.6819 53.1749 38.8997 52.2675C38.9349 52.1184 38.9702 51.9693 39.0065 51.8156C39.1026 51.4095 39.1994 51.0035 39.2963 50.5976C39.3979 50.1718 39.4988 49.7457 39.5998 49.3197C39.7908 48.5138 39.9826 47.708 40.1746 46.9023C40.3927 45.9864 40.6102 45.0703 40.8276 44.1542C41.1654 42.7304 41.5037 41.3067 41.8426 39.8832C41.876 39.743 41.9094 39.6028 41.9437 39.4583C41.9743 39.33 42.0049 39.2017 42.0363 39.0696C42.0629 38.9582 42.0894 38.8467 42.1167 38.732C42.178 38.4772 42.2407 38.2228 42.3047 37.9687C42.1945 37.97 42.0842 37.9713 41.9706 37.9727C40.9309 37.9846 39.8912 37.9933 38.8514 37.9991C38.3169 38.0021 37.7824 38.0063 37.2479 38.0129C36.7319 38.0193 36.2161 38.0228 35.7001 38.0243C35.5033 38.0254 35.3066 38.0275 35.1099 38.0307C34.834 38.0349 34.5584 38.0355 34.2826 38.0352C34.1608 38.0384 34.1608 38.0384 34.0366 38.0416C33.5893 38.0369 33.4082 37.9765 33.0543 37.6933C32.8126 37.3828 32.8126 37.3828 32.7476 37.0353C32.8284 36.593 32.9854 36.3776 33.2667 36.0278C33.3144 35.9673 33.3621 35.9068 33.4112 35.8445C33.512 35.7168 33.6134 35.5897 33.7154 35.463C33.9544 35.1646 34.1848 34.8597 34.4166 34.5556C34.8877 33.9433 35.3627 33.3341 35.8375 32.7246C36.5746 31.7783 37.3041 30.8264 38.0318 29.8728C38.7407 28.9445 39.4556 28.021 40.1734 27.0996C40.7751 26.3273 41.3718 25.5514 41.9655 24.7729C42.4949 24.0794 43.0304 23.3908 43.5668 22.7028C44.0283 22.1103 44.4861 21.5151 44.9415 20.9179C45.465 20.2314 45.9926 19.5481 46.5235 18.8672C47.2524 17.9321 47.9735 16.9913 48.6928 16.0488C49.1397 15.4634 49.5885 14.8794 50.0391 14.2969C50.1249 14.184 50.2107 14.0712 50.2991 13.9549C50.3801 13.8502 50.4611 13.7455 50.5445 13.6377C50.6141 13.5467 50.6838 13.4558 50.7555 13.3621C51.1549 12.9338 51.4061 12.7469 51.9947 12.8467ZM49.5704 18.0469C48.7874 19.0131 48.0202 19.988 47.2778 20.9858C46.8403 21.5729 46.3922 22.1506 45.9382 22.725C45.5808 23.1773 45.2266 23.632 44.8755 24.0893C44.8273 24.1522 44.7791 24.215 44.7294 24.2798C44.5852 24.4677 44.441 24.6557 44.2969 24.8437C43.6433 25.6958 42.9868 26.5454 42.3267 27.3926C41.5896 28.3388 40.86 29.2907 40.1324 30.2443C39.5589 30.9953 38.9829 31.7444 38.4014 32.4893C37.7091 33.3762 37.0197 34.2649 36.3428 35.1636C36.2821 35.2438 36.2214 35.3241 36.1589 35.4068C35.8731 35.7203 35.8731 35.7203 35.7422 36.0937C35.8425 36.0944 35.9428 36.0951 36.0461 36.0958C36.991 36.1026 37.9359 36.111 38.8808 36.1214C39.3666 36.1266 39.8523 36.1312 40.3381 36.1343C40.807 36.1374 41.2758 36.1421 41.7446 36.148C41.9234 36.15 42.1023 36.1513 42.2811 36.152C42.5317 36.1532 42.7822 36.1565 43.0327 36.1602C43.2466 36.1622 43.2466 36.1622 43.4648 36.1642C43.8678 36.216 44.0078 36.2846 44.2969 36.5625C44.468 37.3378 44.2278 38.1868 44.0406 38.9409C44.0134 39.0552 43.9861 39.1695 43.9581 39.2872C43.8685 39.6615 43.7772 40.0353 43.6858 40.4091C43.6229 40.6708 43.5601 40.9325 43.4975 41.1942C43.3328 41.881 43.1666 42.5674 43 43.2537C42.7334 44.3532 42.4692 45.4533 42.2048 46.5533C42.1125 46.9366 42.0196 47.3197 41.9265 47.7028C41.8696 47.9383 41.8128 48.1738 41.7559 48.4093C41.73 48.5151 41.7042 48.621 41.6775 48.7301C41.5446 49.2826 41.4368 49.8266 41.3672 50.3906C41.788 49.9855 42.1491 49.5688 42.5025 49.1015C42.6055 48.966 42.7085 48.8305 42.8115 48.695C42.8635 48.6263 42.9155 48.5576 42.9691 48.4868C43.2147 48.163 43.4629 47.8413 43.711 47.5195C43.8087 47.3926 43.9063 47.2656 44.004 47.1387C52.793 35.7129 52.793 35.7129 52.9395 35.5224C53.0371 35.3956 53.1347 35.2687 53.2322 35.1418C53.4776 34.8228 53.7231 34.5039 53.969 34.1853C54.4636 33.5443 54.9563 32.9019 55.4444 32.2558C55.5317 32.1404 55.619 32.025 55.709 31.9061C55.9098 31.6791 55.9098 31.6791 55.8985 31.5234C55.7906 31.5227 55.6828 31.522 55.5716 31.5213C54.556 31.5146 53.5403 31.5061 52.5247 31.4958C52.0025 31.4905 51.4804 31.4859 50.9582 31.4828C50.4544 31.4798 49.9506 31.475 49.4469 31.4691C49.2545 31.4672 49.0622 31.4658 48.8698 31.4651C48.6007 31.464 48.3317 31.4607 48.0626 31.4569C47.8327 31.4549 47.8327 31.4549 47.5981 31.453C47.2266 31.4062 47.2266 31.4062 46.9986 31.2859C46.6259 30.5883 46.955 29.6591 47.1351 28.9406C47.1627 28.8267 47.1903 28.7128 47.2188 28.5955C47.2786 28.3497 47.3388 28.1041 47.3995 27.8585C47.4955 27.4702 47.5901 27.0816 47.6844 26.6928C47.8846 25.8687 48.0866 25.0449 48.2886 24.2212C48.5232 23.2645 48.7571 22.3077 48.9894 21.3505C49.0828 20.9671 49.1774 20.584 49.272 20.2009C49.329 19.967 49.3859 19.7331 49.4427 19.4992C49.4694 19.3924 49.4961 19.2855 49.5237 19.1754C49.5472 19.0777 49.5707 18.98 49.5949 18.8793C49.6157 18.7944 49.6366 18.7095 49.6581 18.6221C49.7075 18.3729 49.7075 18.3729 49.5704 18.0469Z" fill="url(#paint0_linear_155_4761)"/><path d="M33.1659 4.61169C33.2587 4.61066 33.3516 4.60963 33.4473 4.60858C33.7533 4.606 34.0592 4.6077 34.3652 4.60969C34.5784 4.60929 34.7916 4.60872 35.0048 4.60799C35.4513 4.60712 35.8977 4.60838 36.3441 4.61112C36.916 4.61445 37.4876 4.61253 38.0594 4.60902C38.4996 4.6069 38.9397 4.60758 39.3798 4.6091C39.5906 4.60949 39.8015 4.60901 40.0123 4.60764C40.3071 4.60615 40.6017 4.60843 40.8966 4.61169C41.0268 4.60991 41.0268 4.60991 41.1597 4.60809C41.6119 4.61734 41.8204 4.67562 42.1831 4.95395C42.4201 5.27115 42.4951 5.38857 42.494 5.77358C42.4956 5.91553 42.4956 5.91553 42.4973 6.06035C42.4944 6.21126 42.4944 6.21126 42.4914 6.36521C42.4914 6.46991 42.4914 6.57462 42.4915 6.68249C42.4908 6.90323 42.4888 7.12397 42.4854 7.34468C42.4805 7.68241 42.4806 8.01987 42.4814 8.35763C42.4801 8.57239 42.4786 8.78716 42.4768 9.00193C42.4768 9.10277 42.4767 9.20361 42.4767 9.3075C42.4685 9.72139 42.4618 10.0033 42.2646 10.3724C41.8456 10.7486 41.3458 10.6778 40.8179 10.6714C40.5351 10.669 40.2523 10.6666 39.9609 10.6641C39.9609 11.3602 39.9609 12.0563 39.9609 12.7734C40.1084 12.7807 40.2558 12.7879 40.4077 12.7954C41.7727 12.9344 43.1254 13.3708 44.414 13.8281C44.4919 13.8544 44.5697 13.8808 44.6499 13.9079C45.0145 14.0438 45.2189 14.1602 45.4619 14.4681C45.6367 14.8874 45.589 15.1528 45.4687 15.5859C45.293 15.8203 45.293 15.8203 45 15.9375C44.2795 15.9292 43.6399 15.7392 42.9712 15.4907C42.1892 15.2152 41.4117 15.0059 40.5981 14.8462C40.5034 14.8276 40.4088 14.8089 40.3112 14.7897C35.7034 13.9256 30.8184 14.9966 26.9437 17.6264C25.5452 18.6133 24.2578 19.6767 23.2113 21.0416C22.8639 21.452 22.5684 21.7621 22.0312 21.8628C21.5503 21.7726 21.3821 21.601 21.0937 21.2109C21.0058 20.8887 21.0058 20.8887 21.0937 20.5078C21.3416 20.1334 21.6252 19.7962 21.914 19.4531C21.9914 19.3371 22.0687 19.2211 22.1484 19.1016C21.6264 18.5795 21.6264 18.5795 21.0937 18.0469C20.9632 18.1605 20.8327 18.2741 20.6982 18.3911C20.3291 18.7124 20.1446 18.8574 19.6435 18.9038C19.2187 18.8672 19.2187 18.8672 18.9331 18.6841C18.6678 18.2702 18.6611 18.0631 18.75 17.5781C18.8964 17.3734 18.8964 17.3734 19.0924 17.1588C19.1668 17.0771 19.2411 16.9954 19.3178 16.9113C19.4428 16.7773 19.4428 16.7773 19.5703 16.6406C19.6601 16.5432 19.7498 16.4457 19.8423 16.3453C20.1362 16.0299 20.4349 15.7198 20.7348 15.4102C20.8852 15.2488 20.8852 15.2488 21.0386 15.0842C21.8737 14.2281 21.8737 14.2281 22.4382 14.2163C22.8515 14.2969 22.8515 14.2969 23.1445 14.4727C23.3424 14.8025 23.4065 15.0704 23.3913 15.4564C23.2548 15.9309 22.8719 16.2199 22.5 16.5234C22.6068 16.6534 22.7144 16.7826 22.8223 16.9116C22.8821 16.9837 22.9419 17.0557 23.0035 17.13C23.2096 17.3507 23.4257 17.5214 23.6719 17.6953C23.7361 17.6328 23.8003 17.5702 23.8664 17.5058C24.7112 16.7118 25.621 16.0823 26.6015 15.4688C26.7319 15.3864 26.8623 15.3041 26.9966 15.2193C29.1463 13.9254 31.6159 13.0877 34.1015 12.7734C34.1015 12.0773 34.1015 11.3813 34.1015 10.6641C33.5494 10.6779 33.5494 10.6779 32.9973 10.6957C32.4812 10.7022 32.1659 10.6299 31.7578 10.3125C31.4518 9.70043 31.6038 8.72153 31.5996 8.03985C31.5976 7.81241 31.5944 7.58497 31.59 7.35755C31.5835 7.02948 31.581 6.70158 31.5793 6.37345C31.5766 6.27211 31.574 6.17077 31.5712 6.06637C31.5716 5.97097 31.5719 5.87558 31.5722 5.7773C31.5713 5.69395 31.5703 5.6106 31.5694 5.52473C31.7979 4.71853 32.4263 4.60159 33.1659 4.61169ZM33.5156 6.56251C33.5156 7.29727 33.5156 8.03204 33.5156 8.78907C35.8359 8.78907 38.1562 8.78907 40.5469 8.78907C40.5469 8.0543 40.5469 7.31954 40.5469 6.56251C38.2265 6.56251 35.9062 6.56251 33.5156 6.56251ZM35.9765 10.6641C35.9765 11.2828 35.9765 11.9016 35.9765 12.5391C36.6726 12.5391 37.3687 12.5391 38.0859 12.5391C38.0859 11.9203 38.0859 11.3016 38.0859 10.6641C37.3898 10.6641 36.6937 10.6641 35.9765 10.6641Z" fill="url(#paint1_linear_155_4761)"/><path d="M37.1778 19.1895C37.3089 19.1885 37.4401 19.1876 37.5752 19.1867C38.2922 19.1884 38.9276 19.2229 39.6095 19.4531C39.9136 19.7849 39.9629 19.9491 39.9537 20.3979C39.8245 20.8028 39.709 20.9506 39.3751 21.2109C39.0219 21.2567 39.0219 21.2567 38.6088 21.2402C38.4571 21.2362 38.3055 21.2322 38.1493 21.2281C38.0695 21.2252 37.9898 21.2223 37.9077 21.2193C36.4324 21.1693 35.0426 21.1988 33.6329 21.6797C33.5058 21.7231 33.5058 21.7231 33.3761 21.7673C32.2253 22.1748 31.2126 22.6994 30.2345 23.4375C30.1237 23.5195 30.013 23.6016 29.8989 23.6861C27.5739 25.4901 26.0882 28.3301 25.7012 31.2305C25.4144 34.4031 26.2183 37.4614 28.2423 39.9609C28.3288 40.0682 28.4154 40.1754 28.5046 40.2859C29.5318 41.4863 30.7869 42.3151 32.1768 43.0467C32.5057 43.2729 32.6452 43.4679 32.8126 43.8281C32.798 44.1921 32.7503 44.4344 32.5709 44.751C32.2034 44.9644 31.8165 44.9308 31.4063 44.8828C31.092 44.7584 30.8309 44.6389 30.5421 44.4727C30.4659 44.4303 30.3898 44.3879 30.3113 44.3442C29.6435 43.9627 29.0532 43.5166 28.4766 43.0078C28.3328 42.887 28.3328 42.887 28.186 42.7638C25.5834 40.5244 23.973 37.2849 23.672 33.8672C23.4476 29.9062 24.6518 26.3991 27.2389 23.4009C29.8138 20.6459 33.4289 19.1632 37.1778 19.1895Z" fill="url(#paint2_linear_155_4761)"/><path d="M12.2077 36.0349C12.4271 36.0333 12.4271 36.0333 12.6509 36.0316C12.8101 36.0328 12.9693 36.0342 13.1285 36.0356C13.2922 36.0356 13.456 36.0354 13.6197 36.0351C13.9625 36.0349 14.3053 36.0364 14.6481 36.0391C15.0871 36.0424 15.526 36.0421 15.965 36.0406C16.303 36.0398 16.641 36.0407 16.979 36.0421C17.1408 36.0427 17.3027 36.0427 17.4645 36.0422C17.6909 36.0419 17.9172 36.0441 18.1435 36.0464C18.3366 36.0473 18.3366 36.0473 18.5335 36.0483C18.9064 36.0991 19.0661 36.1879 19.3358 36.4453C19.4387 36.6669 19.4387 36.6669 19.5024 36.9182C19.5404 37.0588 19.5404 37.0588 19.5792 37.2023C19.6052 37.303 19.6312 37.4036 19.658 37.5073C20.9161 41.997 23.8281 45.9311 27.8867 48.2648C29.7079 49.287 31.5248 50.0155 33.5801 50.4113C34.1753 50.5321 34.6067 50.6352 35.0389 51.0937C35.1861 51.5261 35.1964 51.7106 35.0023 52.1265C34.8045 52.3828 34.8045 52.3828 34.5702 52.5C33.8369 52.54 33.1933 52.4331 32.4828 52.2583C32.3753 52.232 32.2679 52.2056 32.1573 52.1785C27.0037 50.8679 22.5787 47.5759 19.8448 43.0147C19.1772 41.8718 18.627 40.703 18.1639 39.4629C18.1284 39.3679 18.0928 39.2729 18.0562 39.175C18.008 39.0411 18.008 39.0411 17.9588 38.9044C17.9304 38.8255 17.902 38.7466 17.8728 38.6653C17.8123 38.4375 17.8123 38.4375 17.8123 37.9687C17.6976 37.9703 17.6976 37.9703 17.5805 37.9719C16.784 37.9823 15.9875 37.9893 15.1909 37.9945C14.8937 37.9968 14.5964 38 14.2992 38.0041C13.8719 38.0098 13.4446 38.0124 13.0173 38.0145C12.818 38.0181 12.818 38.0181 12.6147 38.0218C11.6918 38.0221 11.6918 38.0221 11.2246 37.7462C10.9991 37.4807 10.9381 37.3749 10.9495 37.0312C10.9494 36.9539 10.9492 36.8766 10.9491 36.7969C11.1335 36.1459 11.593 36.035 12.2077 36.0349Z" fill="url(#paint3_linear_155_4761)"/><path d="M2.41741 23.5374C2.53852 23.5368 2.53852 23.5368 2.66209 23.5361C2.93396 23.5348 3.20582 23.5344 3.47769 23.5339C3.67209 23.5332 3.86648 23.5324 4.06087 23.5316C4.58991 23.5295 5.11895 23.5283 5.64799 23.5273C5.97829 23.5267 6.30859 23.526 6.63889 23.5253C7.67168 23.5231 8.70447 23.5214 9.73726 23.5204C10.9307 23.5193 12.1241 23.5162 13.3175 23.5115C14.2392 23.5079 15.1608 23.5062 16.0825 23.5058C16.6334 23.5055 17.1842 23.5045 17.7351 23.5015C18.2531 23.4988 18.7712 23.4983 19.2892 23.4995C19.4795 23.4996 19.6698 23.4988 19.8601 23.4972C20.1196 23.4951 20.379 23.496 20.6385 23.4975C20.7839 23.4972 20.9292 23.4969 21.0789 23.4967C21.5146 23.5656 21.6489 23.678 21.914 24.0234C22.0238 24.3091 22.0238 24.3091 22.0311 24.6094C21.8411 25.0179 21.7072 25.1769 21.328 25.4297C20.9786 25.4598 20.9786 25.4598 20.5415 25.461C20.4611 25.4615 20.3808 25.4621 20.298 25.4626C20.0281 25.4641 19.7582 25.4639 19.4883 25.4637C19.295 25.4644 19.1018 25.4652 18.9085 25.4661C18.3831 25.4682 17.8577 25.4687 17.3323 25.4689C16.894 25.4691 16.4557 25.4699 16.0174 25.4708C14.9836 25.4727 13.9497 25.4733 12.9158 25.4731C11.8486 25.473 10.7813 25.4754 9.71404 25.4791C8.79833 25.4822 7.88263 25.4834 6.96691 25.4833C6.41972 25.4832 5.87256 25.4839 5.32538 25.4864C4.81086 25.4887 4.2964 25.4887 3.78188 25.487C3.59292 25.4867 3.40395 25.4873 3.21499 25.4887C2.95725 25.4905 2.69967 25.4894 2.44193 25.4876C2.29764 25.4877 2.15335 25.4879 2.00468 25.488C1.56975 25.4183 1.43463 25.3078 1.17177 24.9609C1.03396 24.5291 1.01534 24.3419 1.20839 23.9282C1.55923 23.4734 1.8658 23.5393 2.41741 23.5374Z" fill="url(#paint4_linear_155_4761)"/><path d="M7.74959 29.7351C7.84504 29.7343 7.94048 29.7334 8.03881 29.7326C8.1425 29.7329 8.24619 29.7332 8.35301 29.7335C8.51801 29.7326 8.51801 29.7326 8.68634 29.7316C9.05003 29.73 9.41369 29.7301 9.77737 29.7304C10.0302 29.7299 10.2829 29.7294 10.5357 29.7289C11.0656 29.728 11.5955 29.728 12.1254 29.7287C12.8045 29.7293 13.4836 29.7273 14.1627 29.7246C14.6847 29.7229 15.2068 29.7228 15.7289 29.7232C15.9793 29.7231 16.2296 29.7225 16.48 29.7213C16.8301 29.7199 17.1802 29.7207 17.5303 29.722C17.6854 29.7207 17.6854 29.7207 17.8437 29.7193C18.3994 29.7241 18.7666 29.7574 19.2188 30.1172C19.4486 30.4202 19.4546 30.5611 19.4312 30.9448C19.331 31.3071 19.2731 31.4146 18.9844 31.6406C18.7557 31.6849 18.7557 31.6849 18.4915 31.6853C18.3911 31.6863 18.2907 31.6873 18.1873 31.6883C18.0775 31.6876 17.9677 31.6869 17.8546 31.6861C17.7388 31.6868 17.6229 31.6874 17.5035 31.688C17.1196 31.6896 16.7357 31.6885 16.3518 31.6873C16.0854 31.6876 15.819 31.6879 15.5527 31.6884C14.994 31.6889 14.4353 31.6881 13.8767 31.6865C13.1601 31.6845 12.4436 31.6856 11.727 31.6877C11.1768 31.689 10.6266 31.6886 10.0764 31.6877C9.81218 31.6875 9.54796 31.6877 9.28374 31.6886C8.91451 31.6895 8.54536 31.6881 8.17615 31.6861C8.06661 31.6868 7.95708 31.6876 7.84423 31.6883C7.10793 31.681 7.10793 31.681 6.73219 31.4831C6.47676 31.1911 6.45299 30.9697 6.44531 30.586C6.7138 29.9642 7.08188 29.737 7.74959 29.7351Z" fill="url(#paint5_linear_155_4761)"/><defs><linearGradient id="paint0_linear_155_4761" x1="32.7476" y1="34.1836" x2="58.7752" y2="34.1836" gradientUnits="userSpaceOnUse"><stop stop-color="#0568EA"/><stop offset="1" stop-color="#08B5F7"/></linearGradient><linearGradient id="paint1_linear_155_4761" x1="18.6987" y1="13.235" x2="45.5765" y2="13.235" gradientUnits="userSpaceOnUse"><stop stop-color="#0568EA"/><stop offset="1" stop-color="#08B5F7"/></linearGradient><linearGradient id="paint2_linear_155_4761" x1="23.6455" y1="32.0527" x2="39.9547" y2="32.0527" gradientUnits="userSpaceOnUse"><stop stop-color="#0568EA"/><stop offset="1" stop-color="#08B5F7"/></linearGradient><linearGradient id="paint3_linear_155_4761" x1="10.9482" y1="44.27" x2="35.1488" y2="44.27" gradientUnits="userSpaceOnUse"><stop stop-color="#0568EA"/><stop offset="1" stop-color="#08B5F7"/></linearGradient><linearGradient id="paint4_linear_155_4761" x1="1.06592" y1="24.4928" x2="22.0311" y2="24.4928" gradientUnits="userSpaceOnUse"><stop stop-color="#0568EA"/><stop offset="1" stop-color="#08B5F7"/></linearGradient><linearGradient id="paint5_linear_155_4761" x1="6.44531" y1="30.7041" x2="19.4403" y2="30.7041" gradientUnits="userSpaceOnUse"><stop stop-color="#0568EA"/><stop offset="1" stop-color="#08B5F7"/></linearGradient></defs></svg>