<svg xmlns="http://www.w3.org/2000/svg" width="60" height="60" viewBox="0 0 60 60" fill="none"><path d="M53.75 17.5C57.1975 17.5 60 14.695 60 11.25V6.24996C60 2.805 57.1975 0 53.75 0H6.24996C2.80254 0 0 2.805 0 6.24996V11.25C0 14.695 2.80254 17.5 6.24996 17.5H22.5V19.9999H6.24996C2.80254 20 0 22.805 0 26.25V31.25C0 34.695 2.80254 37.5 6.24996 37.5H22.5V40H21.25C20.56 40 19.9999 40.56 19.9999 41.25V42.5H18.75C18.06 42.5 17.5 43.0601 17.5 43.7501V45H6.24996C5.55996 45 4.99992 45.56 4.99992 46.25C4.99992 46.94 5.55996 47.5001 6.24996 47.5001H17.5V48.75C17.5 49.44 18.06 50 18.75 50H28.75C29.44 50 30 49.44 30 48.75V43.75C30 43.06 29.44 42.4999 28.75 42.4999H27.4999V41.25C27.4999 40.56 26.9399 40 26.2499 40H24.9998V37.5H35.8973C36.5898 37.5 37.1474 36.94 37.1474 36.25C37.1474 35.56 36.5873 34.9999 35.8973 34.9999H6.24996C4.18242 34.9999 2.49996 33.3175 2.49996 31.2499V26.25C2.49996 24.1825 4.18242 22.5 6.24996 22.5H53.7499C55.8175 22.5 57.4999 24.1825 57.4999 26.25V31.25C57.4999 32.76 56.6024 34.115 55.2124 34.7051C54.5774 34.9726 54.28 35.7076 54.5474 36.3425C54.8174 36.98 55.5473 37.275 56.1874 37.0076C58.5025 36.0275 60 33.7675 60 31.25V26.25C60 22.805 57.1975 20 53.75 20H25V17.5001L53.75 17.5ZM26.25 45H27.5V47.5H20V45H21.2501C21.9401 45 22.5001 44.44 22.5001 43.75V42.4999H25.0001V43.75C25 44.44 25.56 45 26.25 45ZM6.24996 15C4.18242 15 2.49996 13.3175 2.49996 11.25V6.24996C2.49996 4.18242 4.18242 2.49996 6.24996 2.49996H53.7499C55.8175 2.49996 57.4999 4.18242 57.4999 6.24996V11.25C57.4999 13.3175 55.8175 15 53.7499 15H6.24996Z" fill="url(#paint0_linear_76_69)"/><path d="M51.2506 38.75C50.5606 38.75 50.0006 39.31 50.0006 40C50.0006 40.69 50.5606 41.2501 51.2506 41.2501C54.6982 41.2501 57.5006 44.0551 57.5006 47.5C57.5006 50.945 54.6981 53.75 51.2506 53.75H49.2682L50.8831 52.135C51.3706 51.6475 51.3706 50.855 50.8831 50.3675C50.3956 49.88 49.6031 49.88 49.1156 50.3675L45.3656 54.1175C45.3556 54.1275 45.3531 54.1425 45.3406 54.1525C45.2407 54.26 45.1531 54.3826 45.0956 54.52C44.9681 54.8275 44.9681 55.1725 45.0956 55.48C45.1306 55.5625 45.1906 55.625 45.2406 55.6975C45.2831 55.76 45.3081 55.8275 45.363 55.8826L49.113 59.6326C49.3605 59.8776 49.6806 60.0001 50.0005 60.0001C50.3204 60.0001 50.6404 59.8776 50.883 59.6326C51.3705 59.1451 51.3705 58.3525 50.883 57.865L49.2682 56.25H51.2506C56.0757 56.25 60.0007 52.325 60.0007 47.4999C60.0007 42.6748 56.0757 38.75 51.2506 38.75Z" fill="url(#paint1_linear_76_69)"/><path d="M51.25 32.5C51.94 32.5 52.5001 31.94 52.5001 31.25V26.25C52.5001 25.56 51.94 25 51.25 25C50.56 25 50 25.56 50 26.25V31.2501C50.0001 31.9401 50.56 32.5 51.25 32.5Z" fill="url(#paint2_linear_76_69)"/><path d="M42.5001 31.2501V26.25C42.5001 25.56 41.94 25 41.25 25C40.56 25 40 25.56 40 26.25V31.2501C40 31.9401 40.56 32.5001 41.25 32.5001C41.94 32.5 42.5001 31.9401 42.5001 31.2501Z" fill="url(#paint3_linear_76_69)"/><path d="M47.2575 40.7001C47.3076 40.6275 47.3676 40.5651 47.4025 40.4826C47.53 40.1751 47.53 39.8301 47.4025 39.5226C47.345 39.3851 47.26 39.2625 47.1575 39.1551C47.1475 39.1451 47.1449 39.1301 47.1325 39.12L43.3825 35.37C42.895 34.8825 42.1025 34.8825 41.615 35.37C41.1275 35.8575 41.1275 36.6501 41.615 37.1376L43.2299 38.7525H41.25C36.4251 38.7525 32.5 42.6775 32.5 47.5026C32.5 52.3276 36.425 56.2526 41.25 56.2526C41.94 56.2526 42.5001 55.6926 42.5001 55.0026C42.5001 54.3126 41.94 53.7525 41.25 53.7525C37.8025 53.7525 35.0001 50.9475 35.0001 47.5026C35.0001 44.0576 37.8026 41.2526 41.25 41.2526H43.2325L41.615 42.8701C41.1275 43.3576 41.1275 44.1502 41.615 44.6377C41.86 44.8777 42.1799 45.0001 42.5 45.0001C42.82 45.0001 43.1399 44.8777 43.385 44.6351L47.135 40.8851C47.19 40.83 47.215 40.7601 47.2575 40.7001Z" fill="url(#paint4_linear_76_69)"/><path d="M36.25 25C35.56 25 35 25.56 35 26.25V31.2501C35 31.9401 35.56 32.5001 36.25 32.5001C36.94 32.5001 37.5001 31.9401 37.5001 31.2501V26.25C37.5001 25.56 36.94 25 36.25 25Z" fill="url(#paint5_linear_76_69)"/><path d="M47.5 31.2501V26.25C47.5 25.56 46.9399 25 46.2499 25C45.5599 25 45 25.56 45 26.25V31.2501C45 31.9401 45.56 32.5001 46.25 32.5001C46.94 32.5001 47.5 31.9401 47.5 31.2501Z" fill="url(#paint6_linear_76_69)"/><path d="M41.25 5C40.56 5 40 5.56004 40 6.25004V11.25C40 11.94 40.56 12.5 41.25 12.5C41.94 12.5 42.5001 11.94 42.5001 11.25V6.24992C42.5001 5.55992 41.94 5 41.25 5Z" fill="url(#paint7_linear_76_69)"/><path d="M46.25 5C45.56 5 45 5.56004 45 6.25004V11.25C45 11.94 45.56 12.5 46.25 12.5C46.94 12.5 47.5001 11.94 47.5001 11.25V6.24992C47.5 5.55992 46.94 5 46.25 5Z" fill="url(#paint8_linear_76_69)"/><path d="M51.25 5C50.56 5 50 5.56004 50 6.25004V11.25C50 11.94 50.56 12.5 51.25 12.5C51.94 12.5 52.5001 11.94 52.5001 11.25V6.24992C52.5001 5.55992 51.94 5 51.25 5Z" fill="url(#paint9_linear_76_69)"/><path d="M36.25 5C35.56 5 35 5.56004 35 6.25004V11.25C35 11.94 35.56 12.5 36.25 12.5C36.94 12.5 37.5001 11.94 37.5001 11.25V6.24992C37.5001 5.55992 36.94 5 36.25 5Z" fill="url(#paint10_linear_76_69)"/><path d="M5 28.75C5 30.8175 6.68246 32.5 8.75 32.5C10.8175 32.5 12.5 30.8175 12.5 28.75C12.5 26.6825 10.8175 25 8.75 25C6.68246 25 5 26.6826 5 28.75ZM9.99992 28.75C9.99992 29.44 9.43742 30 8.74988 30C8.06246 30 7.49996 29.44 7.49996 28.75C7.49996 28.06 8.06246 27.5 8.75 27.5C9.43742 27.5001 9.99992 28.06 9.99992 28.75Z" fill="url(#paint11_linear_76_69)"/><path d="M8.75 5C6.68246 5 5 6.68246 5 8.75C5 10.8175 6.68246 12.5 8.75 12.5C10.8175 12.5 12.5 10.8175 12.5 8.75C12.5 6.68246 10.8174 5 8.75 5ZM8.75 9.99992C8.06246 9.99992 7.49996 9.44 7.49996 8.75C7.49996 8.06 8.06246 7.49996 8.75 7.49996C9.43754 7.49996 10 8.06 10 8.75C10 9.44 9.43742 9.99992 8.75 9.99992Z" fill="url(#paint12_linear_76_69)"/><defs><linearGradient id="paint0_linear_76_69" x1="0" y1="25" x2="60" y2="25" gradientUnits="userSpaceOnUse"><stop stop-color="#0568EA"/><stop offset="1" stop-color="#08B5F7"/></linearGradient><linearGradient id="paint1_linear_76_69" x1="45" y1="49.375" x2="60.0007" y2="49.375" gradientUnits="userSpaceOnUse"><stop stop-color="#0568EA"/><stop offset="1" stop-color="#08B5F7"/></linearGradient><linearGradient id="paint2_linear_76_69" x1="50" y1="28.75" x2="52.5001" y2="28.75" gradientUnits="userSpaceOnUse"><stop stop-color="#0568EA"/><stop offset="1" stop-color="#08B5F7"/></linearGradient><linearGradient id="paint3_linear_76_69" x1="40" y1="28.7501" x2="42.5001" y2="28.7501" gradientUnits="userSpaceOnUse"><stop stop-color="#0568EA"/><stop offset="1" stop-color="#08B5F7"/></linearGradient><linearGradient id="paint4_linear_76_69" x1="32.5" y1="45.6285" x2="47.4981" y2="45.6285" gradientUnits="userSpaceOnUse"><stop stop-color="#0568EA"/><stop offset="1" stop-color="#08B5F7"/></linearGradient><linearGradient id="paint5_linear_76_69" x1="35" y1="28.7501" x2="37.5001" y2="28.7501" gradientUnits="userSpaceOnUse"><stop stop-color="#0568EA"/><stop offset="1" stop-color="#08B5F7"/></linearGradient><linearGradient id="paint6_linear_76_69" x1="45" y1="28.7501" x2="47.5" y2="28.7501" gradientUnits="userSpaceOnUse"><stop stop-color="#0568EA"/><stop offset="1" stop-color="#08B5F7"/></linearGradient><linearGradient id="paint7_linear_76_69" x1="40" y1="8.75" x2="42.5001" y2="8.75" gradientUnits="userSpaceOnUse"><stop stop-color="#0568EA"/><stop offset="1" stop-color="#08B5F7"/></linearGradient><linearGradient id="paint8_linear_76_69" x1="45" y1="8.75" x2="47.5001" y2="8.75" gradientUnits="userSpaceOnUse"><stop stop-color="#0568EA"/><stop offset="1" stop-color="#08B5F7"/></linearGradient><linearGradient id="paint9_linear_76_69" x1="50" y1="8.75" x2="52.5001" y2="8.75" gradientUnits="userSpaceOnUse"><stop stop-color="#0568EA"/><stop offset="1" stop-color="#08B5F7"/></linearGradient><linearGradient id="paint10_linear_76_69" x1="35" y1="8.75" x2="37.5001" y2="8.75" gradientUnits="userSpaceOnUse"><stop stop-color="#0568EA"/><stop offset="1" stop-color="#08B5F7"/></linearGradient><linearGradient id="paint11_linear_76_69" x1="5" y1="28.75" x2="12.5" y2="28.75" gradientUnits="userSpaceOnUse"><stop stop-color="#0568EA"/><stop offset="1" stop-color="#08B5F7"/></linearGradient><linearGradient id="paint12_linear_76_69" x1="5" y1="8.75" x2="12.5" y2="8.75" gradientUnits="userSpaceOnUse"><stop stop-color="#0568EA"/><stop offset="1" stop-color="#08B5F7"/></linearGradient></defs></svg>