<svg xmlns="http://www.w3.org/2000/svg" width="60" height="60" viewBox="0 0 60 60" fill="none"><path d="M5.22073 2.31354C5.30785 2.31313 5.39498 2.31272 5.48474 2.31229C5.77689 2.3112 6.06901 2.31178 6.36116 2.31235C6.57265 2.31191 6.78414 2.31137 6.99563 2.31074C7.577 2.3093 8.15837 2.30934 8.73974 2.30961C9.36668 2.30966 9.99361 2.30837 10.6205 2.30726C11.8489 2.30531 13.0773 2.30466 14.3057 2.30453C15.3041 2.30442 16.3026 2.30394 17.301 2.3032C20.1313 2.30113 22.9615 2.30005 25.7918 2.30023C25.9444 2.30024 26.0971 2.30025 26.2543 2.30026C26.4071 2.30027 26.5599 2.30028 26.7173 2.30029C29.1937 2.30038 31.6701 2.29814 34.1465 2.29483C36.6888 2.29147 39.2311 2.28985 41.7734 2.29005C43.2009 2.29013 44.6283 2.28948 46.0558 2.28696C47.2712 2.28483 48.4866 2.28432 49.702 2.28591C50.3221 2.28668 50.9422 2.28669 51.5622 2.28466C52.1301 2.28281 52.698 2.28315 53.2659 2.28519C53.4711 2.28555 53.6763 2.28512 53.8815 2.28382C55.4684 2.27439 56.5673 2.4585 57.75 3.58926C58.4583 4.35284 58.8568 5.16446 58.8582 6.22057C58.859 6.36167 58.8597 6.50277 58.8605 6.64815C58.86 6.87916 58.86 6.87916 58.8594 7.11484C58.8598 7.28089 58.8604 7.44694 58.861 7.61299C58.8624 8.06877 58.8624 8.52454 58.8621 8.98032C58.8621 9.47209 58.8634 9.96386 58.8645 10.4556C58.8664 11.4189 58.8671 12.3822 58.8672 13.3455C58.8673 14.1287 58.8678 14.9118 58.8686 15.6949C58.8706 17.9156 58.8717 20.1363 58.8715 22.357C58.8715 22.4767 58.8715 22.5964 58.8715 22.7198C58.8715 22.8396 58.8715 22.9595 58.8715 23.083C58.8714 25.0251 58.8736 26.9673 58.8769 28.9094C58.8803 30.904 58.8819 32.8986 58.8817 34.8932C58.8816 36.0128 58.8823 37.1325 58.8848 38.2521C58.8869 39.2055 58.8874 40.1588 58.8858 41.1122C58.8851 41.5984 58.8851 42.0846 58.8871 42.5708C58.8889 43.0164 58.8886 43.462 58.8866 43.9076C58.886 44.1441 58.8878 44.3806 58.8897 44.6172C58.8792 45.9997 58.5408 46.9097 57.5797 47.9067C56.2314 49.1676 54.5684 49.1526 52.824 49.1358C52.6211 49.1352 52.4182 49.1347 52.2153 49.1343C51.6858 49.133 51.1565 49.1296 50.6271 49.1256C50.085 49.122 49.5429 49.1204 49.0008 49.1187C47.9406 49.1149 46.8804 49.1089 45.8203 49.1015C45.7845 49.1938 45.7487 49.2861 45.7118 49.3812C45.5949 49.6655 45.4781 49.8593 45.2874 50.0971C45.2279 50.1714 45.1684 50.2457 45.1071 50.3222C45.0428 50.4004 44.9784 50.4785 44.912 50.559C44.8444 50.6412 44.7768 50.7234 44.7071 50.8082C41.5387 54.6018 37.0838 57.1874 32.1093 57.6562C31.7949 57.6691 31.4834 57.678 31.1691 57.68C31.0824 57.6808 30.9958 57.6816 30.9065 57.6825C30.6287 57.6845 30.351 57.6853 30.0732 57.6855C29.9309 57.6856 29.9309 57.6856 29.7858 57.6857C28.4175 57.6839 27.1143 57.6382 25.7812 57.3046C25.6991 57.2858 25.617 57.2669 25.5325 57.2475C20.9107 56.1804 16.8048 53.2784 14.1796 49.3359C14.1796 49.2585 14.1796 49.1812 14.1796 49.1015C14.0125 49.1027 14.0125 49.1027 13.8421 49.1039C12.7871 49.111 11.7321 49.1163 10.6771 49.1197C10.1349 49.1215 9.59263 49.124 9.05039 49.128C8.5261 49.1319 8.00183 49.1339 7.47753 49.1349C7.27851 49.1355 7.0795 49.1368 6.88049 49.1387C5.14002 49.1547 3.65379 49.0477 2.32126 47.8079C1.27379 46.716 1.10217 45.6348 1.11229 44.1568C1.11175 43.9903 1.11101 43.8239 1.11008 43.6574C1.10813 43.2027 1.10908 42.748 1.11054 42.2933C1.1116 41.8018 1.10996 41.3104 1.10867 40.8189C1.10659 39.8573 1.10704 38.8956 1.1084 37.9339C1.10946 37.1521 1.1096 36.3704 1.10909 35.5886C1.10902 35.4772 1.10895 35.3658 1.10887 35.2511C1.10872 35.0248 1.10857 34.7985 1.10842 34.5722C1.10708 32.4516 1.10861 30.331 1.11113 28.2105C1.11323 26.392 1.11287 24.5736 1.1107 22.7551C1.10819 20.642 1.10721 18.5289 1.10865 16.4157C1.1088 16.1903 1.10894 15.9648 1.10909 15.7394C1.10916 15.6285 1.10923 15.5176 1.10931 15.4033C1.10971 14.6227 1.10903 13.8421 1.10793 13.0615C1.10661 12.1099 1.10697 11.1583 1.10946 10.2067C1.11069 9.72139 1.11118 9.23615 1.10963 8.75087C1.10823 8.30615 1.10901 7.8615 1.11149 7.41678C1.11226 7.18074 1.11074 6.9447 1.10912 6.70866C1.12102 5.32654 1.46158 4.42148 2.41739 3.42172C3.24289 2.65606 4.08853 2.30673 5.22073 2.31354ZM3.44187 4.64532C1.62361 6.66073 2.57807 10.3856 2.57807 12.539C20.6765 12.539 38.7749 12.539 57.4218 12.539C57.8452 8.92909 57.8452 8.92909 56.7187 4.80462C55.8295 3.92177 55.0002 3.73555 53.7571 3.73486C53.6735 3.73466 53.5899 3.73445 53.5038 3.73424C53.2236 3.73369 52.9435 3.73398 52.6633 3.73427C52.4604 3.73405 52.2576 3.73378 52.0547 3.73346C51.4972 3.73275 50.9396 3.73276 50.3821 3.7329C49.7808 3.73292 49.1795 3.73228 48.5782 3.73172C47.4002 3.73075 46.2221 3.73043 45.044 3.73036C44.0866 3.7303 43.1291 3.73006 42.1716 3.72969C39.4574 3.72866 36.7433 3.72812 34.0291 3.72821C33.8096 3.72821 33.8096 3.72821 33.5857 3.72822C33.4392 3.72823 33.2926 3.72823 33.1417 3.72824C30.7668 3.72828 28.3918 3.72716 26.0169 3.72551C23.5788 3.72383 21.1407 3.72302 18.7027 3.72312C17.3337 3.72316 15.9647 3.72284 14.5957 3.72157C13.4302 3.72051 12.2647 3.72025 11.0991 3.72105C10.5045 3.72143 9.90981 3.72144 9.31515 3.72042C8.77062 3.7195 8.22609 3.71967 7.68156 3.72069C7.48473 3.72087 7.28789 3.72065 7.09106 3.72C5.10603 3.67402 5.10603 3.67402 3.44187 4.64532ZM2.57807 14.0624C2.57323 19.1067 2.5684 24.151 2.56342 29.3481C2.56128 30.9414 2.55915 32.5347 2.55695 34.1763C2.55617 35.6033 2.55617 35.6033 2.5557 37.0303C2.55548 37.6664 2.55462 38.3025 2.55332 38.9386C2.55167 39.75 2.55123 40.5613 2.55156 41.3727C2.55149 41.6705 2.55103 41.9682 2.55012 42.266C2.54896 42.6684 2.54924 43.0707 2.54988 43.4731C2.5492 43.5895 2.54852 43.7058 2.54781 43.8257C2.55278 44.9876 2.70803 45.9921 3.51557 46.8749C4.29155 47.4487 4.99979 47.5931 5.95422 47.5914C6.03202 47.5914 6.10983 47.5914 6.19 47.5914C6.44553 47.5913 6.70105 47.5904 6.95657 47.5895C7.1344 47.5893 7.31222 47.5891 7.49005 47.589C7.95684 47.5886 8.42364 47.5874 8.89043 47.5861C9.36726 47.5849 9.84408 47.5844 10.3209 47.5838C11.2556 47.5825 12.1903 47.5805 13.1249 47.5781C12.8632 46.7737 12.8632 46.7737 12.5596 45.9846C12.5058 45.8549 12.5058 45.8549 12.4509 45.7225C12.4147 45.6363 12.3785 45.5502 12.3412 45.4614C12.2849 45.326 12.2849 45.326 12.2275 45.1878C12.1363 44.9688 12.0448 44.75 11.9531 44.5312C11.8059 44.5282 11.6588 44.5251 11.5072 44.522C9.13024 44.4515 9.13024 44.4515 8.31522 43.7347C7.4136 42.7754 7.32803 41.9122 7.32782 40.6361C7.32648 40.4118 7.32648 40.4118 7.32512 40.183C7.32385 39.8673 7.32336 39.5516 7.32404 39.2359C7.32473 38.8344 7.32116 38.433 7.31641 38.0316C7.31263 37.6449 7.31316 37.2582 7.31317 36.8714C7.31125 36.7288 7.30933 36.5862 7.30735 36.4393C7.31513 35.4714 7.47414 34.6536 8.13776 33.9128C8.9978 33.1493 9.90018 33.0368 10.9936 32.9809C11.086 32.9758 11.1783 32.9708 11.2735 32.9656C11.5 32.9532 11.7265 32.9414 11.9531 32.9296C11.9801 32.8643 12.0071 32.7989 12.035 32.7316C14.1913 27.5459 17.4851 23.464 22.7783 21.2402C27.4553 19.3597 32.8046 19.3989 37.4487 21.35C42.1735 23.4083 45.7068 27.144 47.6724 31.9019C47.8039 32.2427 47.9305 32.5834 48.0468 32.9296C48.2421 32.9362 48.2421 32.9362 48.4414 32.9429C51.0022 33.0475 51.0022 33.0475 51.8384 33.8782C52.6133 34.7756 52.7046 35.7128 52.6949 36.8591C52.6955 37.0081 52.6961 37.1571 52.6966 37.3107C52.697 37.6244 52.6963 37.9378 52.6935 38.2514C52.6902 38.6502 52.6921 39.0487 52.6956 39.4475C52.6983 39.8322 52.6964 40.217 52.6949 40.6017C52.6961 40.7433 52.6973 40.8848 52.6985 41.0306C52.685 42.019 52.5072 42.8326 51.8289 43.5831C51.0528 44.3304 50.1353 44.4668 49.1015 44.4946C48.9995 44.4986 48.8976 44.5026 48.7925 44.5067C48.544 44.5163 48.2954 44.5239 48.0468 44.5312C47.8508 44.9948 47.6558 45.4587 47.4609 45.9228C47.405 46.055 47.3491 46.1871 47.2915 46.3233C47.2386 46.4495 47.1858 46.5756 47.1313 46.7056C47.0822 46.8222 47.0331 46.9388 46.9825 47.0589C46.8611 47.3295 46.8611 47.3295 46.8749 47.5781C47.8957 47.5862 48.9165 47.5925 49.9373 47.5963C50.4114 47.5981 50.8854 47.6006 51.3595 47.6046C51.8177 47.6084 52.2758 47.6105 52.734 47.6114C52.9082 47.6121 53.0823 47.6133 53.2564 47.6152C54.4571 47.6279 55.5496 47.586 56.5347 46.8255C57.3691 45.9869 57.4345 44.9746 57.4369 43.856C57.4366 43.7389 57.4363 43.6219 57.4359 43.5013C57.436 43.3755 57.4361 43.2498 57.4362 43.1202C57.4364 42.6981 57.4358 42.276 57.4351 41.854C57.4351 41.5465 57.4351 41.239 57.4352 40.9315C57.4352 40.1915 57.4347 39.4514 57.4339 38.7114C57.4331 37.8552 57.433 36.9989 57.4329 36.1427C57.4323 33.8827 57.4307 31.6227 57.4291 29.3627C57.4267 24.3136 57.4243 19.2645 57.4218 14.0624C39.3234 14.0624 21.2249 14.0624 2.57807 14.0624ZM26.1181 23.1738C25.0544 24.2784 23.2031 26.6082 23.2031 28.2421C23.6644 28.3186 24.1258 28.3939 24.5873 28.4692C24.7163 28.4905 24.8452 28.5119 24.978 28.5339C26.4434 28.7717 27.7929 28.8281 29.2968 28.8281C29.2968 26.3917 29.2968 23.9554 29.2968 21.4452C28.0755 21.4452 26.9594 22.3617 26.1181 23.1738ZM30.7031 21.4452C30.7031 23.8816 30.7031 26.3179 30.7031 28.8281C31.8693 28.8281 32.9388 28.8185 34.0795 28.6669C34.2 28.6521 34.3205 28.6373 34.4446 28.6221C35.2341 28.5223 36.0154 28.3924 36.7968 28.2421C36.066 25.6843 34.455 23.2548 32.1844 21.8408C31.6786 21.5774 31.2757 21.4452 30.7031 21.4452ZM18.4716 25.6567C18.3721 25.7376 18.3721 25.7376 18.2706 25.8202C18.1108 25.9555 17.9606 26.102 17.8124 26.2499C17.8124 26.366 17.8124 26.482 17.8124 26.6015C19.2622 27.1508 19.2622 27.1508 20.7275 27.6562C20.8503 27.6961 20.8503 27.6961 20.9756 27.7368C21.3047 27.788 21.4853 27.7851 21.7968 27.6562C21.9595 27.368 22.077 27.1131 22.1923 26.8066C22.2625 26.6344 22.3331 26.4624 22.4043 26.2907C22.4396 26.2046 22.4749 26.1185 22.5113 26.0298C22.9876 24.9105 23.6423 23.9328 24.3749 22.9687C24.4928 22.8056 24.6101 22.6421 24.7265 22.478C24.8038 22.3692 24.8812 22.2604 24.9609 22.1484C22.6836 22.1484 20.1326 24.2858 18.4716 25.6567ZM35.039 22.1484C35.1308 22.2668 35.2227 22.3852 35.3173 22.5073C36.3915 23.9547 37.2278 25.4096 37.9703 27.0534C38.082 27.2961 38.1994 27.5351 38.3203 27.7734C39.1089 27.699 39.8277 27.4531 40.5761 27.2021C40.7036 27.1608 40.8311 27.1196 40.9625 27.0771C41.0845 27.0365 41.2066 26.9958 41.3323 26.954C41.4431 26.9173 41.5539 26.8806 41.668 26.8428C41.9522 26.719 42.1056 26.6011 42.3046 26.3671C40.3787 24.5198 37.7598 22.5123 35.039 22.1484ZM16.4062 27.7734C16.1989 27.9996 16.0347 28.2097 15.8642 28.4618C15.814 28.5343 15.7637 28.6068 15.7119 28.6815C14.2803 30.6694 14.2803 30.6694 13.5937 32.9296C15.8367 32.9296 18.0796 32.9296 20.3906 32.9296C20.7807 31.12 20.7807 31.12 21.0937 29.2968C20.2697 28.9807 19.4355 28.7034 18.5964 28.4303C18.1341 28.2781 17.6813 28.1248 17.2379 27.9235C16.8682 27.7435 16.8682 27.7435 16.4062 27.7734ZM42.5985 27.962C42.4466 28.0219 42.4466 28.0219 42.2917 28.083C42.1848 28.1259 42.0779 28.1687 41.9677 28.2128C40.997 28.5934 40.0345 28.9213 39.0234 29.1796C38.9133 29.611 38.9089 29.9061 39.0188 30.3364C39.0451 30.4424 39.0714 30.5483 39.0984 30.6575C39.1269 30.7668 39.1553 30.8761 39.1845 30.9887C39.2393 31.2058 39.294 31.4229 39.3484 31.6401C39.3731 31.7358 39.3978 31.8315 39.4232 31.9301C39.5 32.2602 39.5536 32.5953 39.6093 32.9296C41.8523 32.9296 44.0953 32.9296 46.4062 32.9296C46.1773 32.2429 45.9592 31.6195 45.6371 30.9814C45.5975 30.9023 45.5578 30.8231 45.5169 30.7416C45.0637 29.862 44.516 29.049 43.9453 28.2421C43.8856 28.1485 43.8259 28.0548 43.7644 27.9583C43.7081 27.8973 43.6517 27.8363 43.5937 27.7734C43.1635 27.7734 42.9815 27.8079 42.5985 27.962ZM22.6171 29.6484C22.499 30.1071 22.3822 30.5662 22.2656 31.0253C22.232 31.1555 22.1985 31.2858 22.1639 31.4199C22.1164 31.608 22.1164 31.608 22.0678 31.7999C22.0384 31.9152 22.0089 32.0306 21.9785 32.1495C21.8981 32.4844 21.8981 32.4844 21.914 32.9296C24.3503 32.9296 26.7867 32.9296 29.2968 32.9296C29.2968 32.0788 29.2968 31.2281 29.2968 30.3515C28.8828 30.3195 28.8828 30.3195 28.4605 30.287C26.5026 30.1331 24.5562 29.9693 22.6171 29.6484ZM36.4457 29.7427C34.5343 30.0618 32.6373 30.2413 30.7031 30.3515C30.7031 31.2023 30.7031 32.0531 30.7031 32.9296C33.1394 32.9296 35.5757 32.9296 38.0859 32.9296C38.0003 32.0872 38.0003 32.0872 37.8291 31.2849C37.803 31.1878 37.777 31.0908 37.7501 30.9908C37.7231 30.8934 37.6962 30.796 37.6684 30.6957C37.641 30.5943 37.6136 30.4929 37.5853 30.3883C37.5185 30.1415 37.4507 29.8949 37.3828 29.6484C37.0531 29.6484 36.7697 29.6866 36.4457 29.7427ZM9.09662 35.1049C8.82412 35.5137 8.77374 35.723 8.77012 36.2105C8.76899 36.3326 8.76787 36.4547 8.76671 36.5804C8.76621 36.7129 8.76571 36.8453 8.7652 36.9817C8.76453 37.1176 8.76386 37.2535 8.76318 37.3934C8.76207 37.6815 8.7613 37.9695 8.76085 38.2576C8.75972 38.6977 8.75608 39.1377 8.75238 39.5777C8.75162 39.8574 8.751 40.1371 8.75055 40.4168C8.7491 40.5483 8.74766 40.6798 8.74617 40.8153C8.73891 41.7342 8.73891 41.7342 9.14057 42.539C9.83964 43.0456 10.3994 43.0738 11.2474 43.0641C11.4401 43.0647 11.4401 43.0647 11.6367 43.0653C12.0666 43.0661 12.4964 43.0635 12.9262 43.061C13.2346 43.0608 13.543 43.0609 13.8514 43.0612C14.515 43.0614 15.1786 43.0599 15.8422 43.0573C16.8017 43.0535 17.7611 43.0523 18.7206 43.0517C20.2774 43.0507 21.8341 43.0475 23.3909 43.0431C24.9029 43.0388 26.4149 43.0355 27.9269 43.0335C28.0201 43.0334 28.1134 43.0333 28.2094 43.0331C28.6772 43.0325 29.145 43.0319 29.6128 43.0313C33.4919 43.0265 37.3709 43.0178 41.2499 43.0077C41.2499 40.1847 41.2499 37.3617 41.2499 34.4531C37.3077 34.4453 33.3655 34.4388 29.4233 34.4351C28.9579 34.4347 28.4924 34.4342 28.027 34.4338C27.9344 34.4337 27.8417 34.4336 27.7462 34.4335C26.246 34.4319 24.7457 34.4292 23.2454 34.4259C21.706 34.4226 20.1666 34.4207 18.6272 34.42C17.6773 34.4195 16.7274 34.418 15.7775 34.4151C15.0491 34.413 14.3207 34.4128 13.5923 34.4133C13.2935 34.4132 12.9947 34.4125 12.6959 34.4112C12.2882 34.4094 11.8806 34.4098 11.4729 34.4108C11.2952 34.4092 11.2952 34.4092 11.1139 34.4077C10.3022 34.4129 9.67476 34.4811 9.09662 35.1049ZM42.7734 34.4531C42.7734 37.2761 42.7734 40.0992 42.7734 43.0077C43.9553 43.0174 45.1372 43.0271 46.3549 43.037C46.7268 43.0413 47.0986 43.0456 47.4817 43.05C47.7777 43.0513 48.0736 43.0525 48.3695 43.0535C48.5222 43.0559 48.6749 43.0583 48.8322 43.0608C49.9334 43.0661 49.9334 43.0661 50.8593 42.539C51.336 41.9147 51.2637 41.1852 51.2617 40.4333C51.2623 40.2981 51.2629 40.1629 51.2635 40.0236C51.2643 39.7384 51.2641 39.4531 51.2631 39.1679C51.2621 38.7319 51.2655 38.2961 51.2692 37.8602C51.2694 37.5826 51.2694 37.3051 51.269 37.0275C51.2703 36.8975 51.2716 36.7675 51.273 36.6335C51.2665 35.9087 51.2294 35.4722 50.7421 34.9218C50.235 34.4622 49.7732 34.4384 49.106 34.4398C48.9633 34.4398 48.8206 34.4398 48.6735 34.4398C48.5241 34.4404 48.3747 34.441 48.2208 34.4416C48.0141 34.4418 48.0141 34.4418 47.8033 34.442C47.2888 34.4426 46.7743 34.4442 46.2597 34.4457C45.1092 34.4482 43.9587 34.4506 42.7734 34.4531ZM13.5937 44.5312C13.6466 44.7153 13.7001 44.8993 13.7539 45.0831C13.7836 45.1856 13.8133 45.288 13.844 45.3936C14.0049 45.8854 14.2353 46.3323 14.4799 46.787C14.5306 46.8823 14.5813 46.9775 14.6335 47.0756C15.4405 48.607 15.4405 48.607 16.6406 49.8046C16.9254 49.7463 16.9254 49.7463 17.2325 49.6133C17.35 49.5673 17.4675 49.5213 17.5886 49.4739C17.7132 49.4235 17.8378 49.3731 17.9662 49.3212C18.9992 48.9173 20.017 48.5523 21.0937 48.2812C21.01 47.4892 20.8545 46.7221 20.6835 45.9448C20.6571 45.8214 20.6307 45.6981 20.6034 45.571C20.5779 45.454 20.5524 45.337 20.5261 45.2165C20.5029 45.1101 20.4797 45.0038 20.4558 44.8942C20.4135 44.6517 20.4135 44.6517 20.2734 44.5312C20.0648 44.5202 19.8558 44.5174 19.6469 44.5179C19.4463 44.5179 19.4463 44.5179 19.2417 44.5179C19.0234 44.5188 19.0234 44.5188 18.8008 44.5197C18.6527 44.5199 18.5046 44.5201 18.352 44.5202C17.9576 44.5208 17.5632 44.5218 17.1689 44.5231C16.7667 44.5243 16.3646 44.5249 15.9624 44.5255C15.1728 44.5268 14.3833 44.5287 13.5937 44.5312ZM21.914 44.5312C21.9995 45.3736 21.9995 45.3736 22.1708 46.1759C22.2099 46.3215 22.2099 46.3215 22.2498 46.47C22.2767 46.5674 22.3037 46.6648 22.3315 46.7651C22.3589 46.8665 22.3863 46.9679 22.4146 47.0725C22.4814 47.3193 22.5492 47.5659 22.6171 47.8124C23.4499 47.744 24.2735 47.6482 25.1 47.5268C26.4954 47.3281 27.8916 47.2168 29.2968 47.1093C29.2968 46.2585 29.2968 45.4077 29.2968 44.5312C26.8605 44.5312 24.4242 44.5312 21.914 44.5312ZM30.7031 44.5312C30.7031 45.382 30.7031 46.2327 30.7031 47.1093C30.9564 47.1306 31.2097 47.1519 31.4707 47.1739C33.1194 47.3151 34.7581 47.4567 36.3885 47.7479C36.7303 47.8019 37.0382 47.8265 37.3828 47.8124C37.4789 47.4636 37.574 47.1144 37.6684 46.7651C37.6954 46.6677 37.7223 46.5704 37.7501 46.47C37.7762 46.373 37.8022 46.2759 37.8291 46.1759C37.853 46.0882 37.8769 46.0004 37.9016 45.91C37.9956 45.4559 38.0347 44.992 38.0859 44.5312C35.6496 44.5312 33.2132 44.5312 30.7031 44.5312ZM39.7265 44.5312C39.5115 45.1761 39.342 45.8122 39.1845 46.4721C39.1576 46.5814 39.1307 46.6907 39.103 46.8033C39.0777 46.9093 39.0523 47.0152 39.0261 47.1244C39.0031 47.22 38.98 47.3155 38.9563 47.414C38.9038 47.7087 38.8975 47.9825 38.9062 48.2812C39.1233 48.343 39.1233 48.343 39.3447 48.4062C40.7144 48.8031 42.0392 49.2657 43.3593 49.8046C44.2718 48.9157 44.9091 47.9257 45.5053 46.809C45.5546 46.7178 45.6039 46.6265 45.6546 46.5325C45.7016 46.4423 45.7485 46.3521 45.7969 46.2592C45.8588 46.1408 45.8588 46.1408 45.922 46.02C46.1234 45.5386 46.2562 45.031 46.4062 44.5312C44.2019 44.5312 41.9976 44.5312 39.7265 44.5312ZM30.7031 48.6327C30.7031 51.1077 30.7031 53.5827 30.7031 56.1327C33.2094 55.3809 34.6222 53.7752 35.8519 51.543C36.4981 50.4881 36.4981 50.4881 36.7968 49.3359C35.7194 49.0595 34.6587 48.8927 33.5522 48.7866C33.4068 48.7714 33.2614 48.7562 33.1116 48.7406C32.2965 48.659 31.5294 48.6327 30.7031 48.6327ZM26.4477 48.7866C26.2316 48.8073 26.2316 48.8073 26.0112 48.8284C25.0538 48.927 24.1353 49.0968 23.2031 49.3359C23.4208 50.0498 23.6854 50.7071 24.038 51.3647C24.0838 51.4505 24.1295 51.5363 24.1766 51.6246C24.6035 52.4055 25.1015 53.0985 25.664 53.789C25.7225 53.8666 25.7809 53.9443 25.8412 54.0243C26.6573 55.0673 27.8224 55.7188 29.0624 56.1327C29.1398 56.1327 29.2171 56.1327 29.2968 56.1327C29.2968 53.6577 29.2968 51.1827 29.2968 48.6327C28.3251 48.6327 27.4094 48.6861 26.4477 48.7866ZM38.3203 49.6874C38.2938 49.7492 38.2674 49.811 38.2402 49.8747C37.4665 51.6711 36.6532 53.333 35.3727 54.8235C35.1415 55.0854 35.1415 55.0854 34.9218 55.4296C37.409 55.1365 40.4352 53.179 42.0556 51.3061C42.1789 51.1429 42.1789 51.1429 42.3046 50.9765C41.388 50.5933 40.4698 50.234 39.5214 49.9365C39.4419 49.9113 39.3624 49.8861 39.2804 49.8602C38.9468 49.7579 38.6714 49.6874 38.3203 49.6874ZM20.3466 50.0024C20.2412 50.0339 20.1358 50.0654 20.0272 50.0979C19.2254 50.3424 18.4577 50.6263 17.6953 50.9765C19.376 53.0499 22.3862 55.0874 25.0781 55.4296C24.9781 55.2952 24.878 55.161 24.7778 55.0268C24.7131 54.9399 24.6485 54.8531 24.5819 54.7636C24.4522 54.5934 24.3195 54.4254 24.1827 54.261C23.0662 52.9071 22.3455 51.2976 21.6796 49.6874C21.2235 49.6874 20.7807 49.8723 20.3466 50.0024Z" fill="url(#paint0_linear_158_5300)"/><path d="M39.0295 5.84218C39.1519 5.84134 39.2743 5.8405 39.4004 5.83964C39.5346 5.83933 39.6688 5.83901 39.8071 5.83869C39.9485 5.83792 40.09 5.83715 40.2357 5.83635C40.7048 5.83404 41.174 5.83267 41.6431 5.8315C41.8049 5.83103 41.9666 5.83055 42.1283 5.83006C42.8884 5.82783 43.6486 5.82616 44.4087 5.82518C45.2848 5.82404 46.161 5.82095 47.0371 5.81622C47.7151 5.81268 48.3931 5.81095 49.071 5.81056C49.4756 5.81028 49.8801 5.80924 50.2846 5.80629C50.7365 5.80304 51.1884 5.80354 51.6403 5.80435C51.8399 5.8021 51.8399 5.8021 52.0435 5.7998C52.8835 5.80532 53.568 5.90459 54.2012 6.49365C54.7275 7.08519 54.9018 7.6215 54.8798 8.39819C54.7759 9.18519 54.3504 9.69106 53.7519 10.1803C53.3763 10.4321 53.0447 10.4449 52.6065 10.447C52.4831 10.4478 52.3598 10.4487 52.2327 10.4495C52.0973 10.4498 51.962 10.4502 51.8226 10.4505C51.68 10.4513 51.5374 10.452 51.3906 10.4528C50.9176 10.4551 50.4446 10.4565 49.9717 10.4577C49.8086 10.4581 49.6456 10.4586 49.4826 10.4591C48.7163 10.4613 47.9501 10.463 47.1838 10.464C46.3006 10.4651 45.4173 10.4682 44.5341 10.473C43.8506 10.4765 43.1672 10.4782 42.4838 10.4786C42.0759 10.4789 41.6681 10.4799 41.2603 10.4829C40.8048 10.4861 40.3493 10.4856 39.8937 10.4848C39.6925 10.4871 39.6925 10.4871 39.4872 10.4894C38.5172 10.4831 37.8836 10.3113 37.163 9.65337C36.7596 9.0127 36.5933 8.33839 36.7528 7.58794C37.0363 6.81486 37.3693 6.38823 38.0859 5.97662C38.4347 5.86034 38.6653 5.84389 39.0295 5.84218ZM38.3202 7.73443C38.193 7.95037 38.193 7.95037 38.203 8.20318C38.4103 8.63649 38.4103 8.63649 38.789 8.9063C38.975 8.91814 39.1615 8.92264 39.3479 8.92355C39.4658 8.92439 39.5838 8.92523 39.7054 8.92609C39.9002 8.92656 39.9002 8.92656 40.099 8.92705C40.3037 8.9282 40.3037 8.9282 40.5125 8.92938C40.9655 8.9317 41.4185 8.93306 41.8716 8.93423C42.0259 8.9347 42.1802 8.93518 42.3393 8.93567C43.0716 8.93791 43.8039 8.93957 44.5363 8.94055C45.3819 8.9417 46.2276 8.94478 47.0732 8.94952C47.7267 8.95305 48.3801 8.95479 49.0336 8.95517C49.424 8.95545 49.8144 8.95673 50.2048 8.95945C50.6402 8.96229 51.0756 8.96219 51.5111 8.96138C51.7052 8.96363 51.7052 8.96363 51.9033 8.96593C52.022 8.96511 52.1406 8.9643 52.2628 8.96346C52.4173 8.96388 52.4173 8.96388 52.5748 8.96431C52.9445 8.88679 53.0861 8.72739 53.3202 8.43755C53.3983 8.14458 53.3983 8.14458 53.3202 7.85162C53.0863 7.56236 52.9443 7.4026 52.5755 7.32421C52.4728 7.32418 52.3702 7.32416 52.2644 7.32413C52.1461 7.32298 52.0278 7.32183 51.9059 7.32064C51.7769 7.32177 51.6478 7.3229 51.5148 7.32407C51.3783 7.32344 51.2419 7.32281 51.1012 7.32215C50.6495 7.32069 50.1978 7.32263 49.746 7.32473C49.4325 7.32471 49.119 7.32454 48.8055 7.32421C48.1482 7.3239 47.491 7.32547 46.8337 7.32819C46.074 7.33131 45.3144 7.33151 44.5547 7.33014C43.8237 7.32887 43.0926 7.3296 42.3615 7.33126C42.0505 7.33179 41.7395 7.33183 41.4285 7.33137C40.9942 7.33103 40.56 7.33296 40.1256 7.33552C39.9966 7.33499 39.8675 7.33446 39.7345 7.33392C39.6162 7.33508 39.4979 7.33624 39.3761 7.33743C39.2734 7.33772 39.1707 7.338 39.065 7.3383C38.7298 7.39242 38.569 7.50742 38.3202 7.73443Z" fill="url(#paint1_linear_158_5300)"/><path d="M47.8784 35.7057C48.5347 36.1059 49.0601 36.6578 49.3359 37.3829C49.4795 38.06 49.4847 38.6126 49.2773 39.2726C49.1911 39.5572 49.1911 39.5572 49.2188 39.8439C49.4628 40.1594 49.722 40.393 50.0345 40.6404C50.2734 40.8985 50.2734 40.8985 50.3188 41.2634C50.2734 41.6017 50.2734 41.6017 50.0903 41.8873C49.8047 42.0704 49.8047 42.0704 49.4238 42.0997C48.879 41.9181 48.6497 41.6426 48.2918 41.2052C48.0546 40.9776 48.0546 40.9776 47.7168 41.0437C47.5322 41.0878 47.5322 41.0878 47.3438 41.1329C45.5127 41.2625 45.5127 41.2625 44.7656 40.6642C44.0146 39.9624 43.71 39.3733 43.667 38.3424C43.685 37.535 43.8462 36.9261 44.399 36.3237C45.3448 35.4547 46.6619 35.1322 47.8784 35.7057ZM45.3516 37.6173C45.1624 37.9956 45.1646 38.3802 45.2344 38.7892C45.4378 39.1437 45.6839 39.4241 46.0547 39.6095C46.5359 39.641 46.871 39.6553 47.3218 39.485C47.6808 39.167 47.7993 38.8978 47.9297 38.4376C47.8626 37.9511 47.7351 37.6739 47.4536 37.2731C47.0445 36.9858 46.8057 36.9466 46.3152 36.9728C45.8729 37.0723 45.6616 37.2918 45.3516 37.6173Z" fill="url(#paint2_linear_158_5300)"/><path d="M15.271 6.04975C15.8143 6.36038 16.1338 6.75778 16.4428 7.3022C16.6372 8.0622 16.591 8.71215 16.2034 9.39967C15.8465 9.90261 15.3685 10.2789 14.7656 10.4296C13.9725 10.519 13.3037 10.4559 12.6562 9.96089C12.0562 9.30419 11.9094 8.71445 11.921 7.83457C11.9783 7.23626 12.1766 6.7859 12.6232 6.37889C13.4148 5.79023 14.3514 5.62843 15.271 6.04975ZM13.6669 7.56587C13.4363 7.85322 13.4363 7.85322 13.4838 8.27632C13.5556 8.70173 13.5556 8.70173 13.9453 8.9062C14.2332 8.97458 14.2332 8.97458 14.5312 8.9062C14.8246 8.66148 14.8246 8.66148 15 8.32026C14.9918 7.97721 14.93 7.80277 14.7363 7.52192C14.3405 7.25337 14.0542 7.31111 13.6669 7.56587Z" fill="url(#paint3_linear_158_5300)"/><path d="M22.3021 6.18679C22.5892 6.39208 22.7771 6.61948 22.9686 6.91417C23.0375 7.01931 23.0375 7.01931 23.1078 7.12658C23.3762 7.84926 23.3583 8.41847 23.0868 9.12792C22.8301 9.66516 22.5313 9.99084 22.0092 10.298C21.2741 10.5149 20.5961 10.56 19.8852 10.2394C19.2985 9.90157 18.9683 9.50176 18.706 8.86974C18.5541 7.97362 18.6956 7.30355 19.2187 6.56261C20.1005 5.726 21.2402 5.58089 22.3021 6.18679ZM20.4125 7.63927C20.1247 7.93974 20.1247 7.93974 20.1562 8.27648C20.3118 8.6586 20.3118 8.6586 20.6249 8.90636C21.0404 8.92514 21.0404 8.92514 21.4452 8.78917C21.706 8.5401 21.706 8.5401 21.7968 8.20324C21.6918 7.75171 21.6032 7.64452 21.2108 7.38292C20.7342 7.33496 20.7342 7.33496 20.4125 7.63927Z" fill="url(#paint4_linear_158_5300)"/><path d="M8.7891 6.21085C9.31864 6.65615 9.67591 7.09686 9.76413 7.79837C9.79458 8.53317 9.71865 9.13573 9.25785 9.72647C8.59751 10.3283 8.0076 10.4726 7.12375 10.4621C6.48439 10.3985 6.07064 10.0918 5.64701 9.61661C5.18033 8.96326 5.05012 8.41201 5.15628 7.6171C5.40897 6.81453 5.8741 6.35137 6.59916 5.93985C7.39145 5.73717 8.06898 5.80924 8.7891 6.21085ZM6.87748 7.58048C6.66133 7.83687 6.66133 7.83687 6.62113 8.14444C6.66324 8.45026 6.66324 8.45026 6.86283 8.71573C7.15018 8.94642 7.15018 8.94642 7.57328 8.89883C7.99869 8.82705 7.99869 8.82705 8.20316 8.43741C8.19359 8.01884 8.19359 8.01884 8.08597 7.6171C7.6203 7.30665 7.34298 7.24078 6.87748 7.58048Z" fill="url(#paint5_linear_158_5300)"/><defs><linearGradient id="paint0_linear_158_5300" x1="1.10718" y1="29.9846" x2="58.8897" y2="29.9846" gradientUnits="userSpaceOnUse"><stop stop-color="#0568EA"/><stop offset="1" stop-color="#08B5F7"/></linearGradient><linearGradient id="paint1_linear_158_5300" x1="36.6929" y1="8.14458" x2="54.8816" y2="8.14458" gradientUnits="userSpaceOnUse"><stop stop-color="#0568EA"/><stop offset="1" stop-color="#08B5F7"/></linearGradient><linearGradient id="paint2_linear_158_5300" x1="43.667" y1="38.7587" x2="50.3188" y2="38.7587" gradientUnits="userSpaceOnUse"><stop stop-color="#0568EA"/><stop offset="1" stop-color="#08B5F7"/></linearGradient><linearGradient id="paint3_linear_158_5300" x1="11.9204" y1="8.13862" x2="16.5547" y2="8.13862" gradientUnits="userSpaceOnUse"><stop stop-color="#0568EA"/><stop offset="1" stop-color="#08B5F7"/></linearGradient><linearGradient id="paint4_linear_158_5300" x1="18.6484" y1="8.14321" x2="23.3" y2="8.14321" gradientUnits="userSpaceOnUse"><stop stop-color="#0568EA"/><stop offset="1" stop-color="#08B5F7"/></linearGradient><linearGradient id="paint5_linear_158_5300" x1="5.12158" y1="8.14647" x2="9.77002" y2="8.14647" gradientUnits="userSpaceOnUse"><stop stop-color="#0568EA"/><stop offset="1" stop-color="#08B5F7"/></linearGradient></defs></svg>