<svg xmlns="http://www.w3.org/2000/svg" width="62" height="62" viewBox="0 0 62 62" fill="none"><path d="M30.9776 0.948732C31.1624 0.950191 31.1624 0.950191 31.3508 0.951679C33.7799 1.0043 35.518 2.21588 37.4061 3.61217C37.8517 3.93894 38.3037 4.25661 38.7559 4.57422C38.9139 4.68529 39.0718 4.79637 39.2297 4.90747C39.3283 4.9767 39.3283 4.9767 39.4289 5.04732C39.6715 5.21875 39.6715 5.21875 39.84 5.36115C40.3866 5.80002 40.7847 5.88869 41.4755 5.87639C41.5703 5.87705 41.6651 5.87771 41.7628 5.8784C42.0741 5.87997 42.3851 5.87753 42.6964 5.87519C42.9139 5.87583 43.1315 5.87678 43.3491 5.87803C43.9205 5.88071 44.492 5.88022 45.0635 5.87875C45.9781 5.87661 46.8926 5.87778 47.8072 5.88178C48.1258 5.8825 48.4443 5.88095 48.7628 5.87921C48.9591 5.87955 49.1555 5.87998 49.3518 5.88051C49.4396 5.87942 49.5274 5.87833 49.6179 5.87721C50.3583 5.88278 50.8941 6.05926 51.4781 6.53711C52.1606 7.37124 52.124 8.07979 52.075 9.11615C52.0685 9.40026 52.0626 9.68438 52.0572 9.96851C52.0476 10.4134 52.0348 10.857 52.0118 11.3014C51.8731 12.932 51.8731 12.932 52.4236 14.405C52.9442 14.8809 53.5283 15.2033 54.1609 15.5069C54.5788 15.7211 54.9393 15.998 55.3087 16.2856C55.9786 16.7844 56.6595 17.2659 57.3448 17.7432C58.1395 18.2972 58.9313 18.8548 59.7179 19.4204C59.8064 19.4838 59.895 19.5471 59.9862 19.6124C60.0682 19.6715 60.1502 19.7307 60.2347 19.7917C60.3063 19.8432 60.3779 19.8947 60.4517 19.9478C60.9863 20.3664 60.9863 20.3664 61.0438 20.7422C61.0439 20.8583 61.044 20.9744 61.0442 21.0941C61.0452 21.2281 61.0461 21.3621 61.0472 21.5002C61.0465 21.6481 61.0458 21.796 61.045 21.9483C61.0455 22.1065 61.0462 22.2647 61.0469 22.4229C61.0486 22.8585 61.0481 23.2942 61.0473 23.7298C61.0467 24.1993 61.0482 24.6688 61.0494 25.1383C61.0514 26.0585 61.0515 26.9788 61.0509 27.8991C61.0504 28.6471 61.0506 29.3952 61.0512 30.1432C61.0513 30.2496 61.0514 30.3559 61.0515 30.4655C61.0516 30.6816 61.0518 30.8976 61.052 31.1137C61.0536 33.1416 61.053 35.1695 61.0516 37.1974C61.0505 39.0526 61.052 40.9078 61.0548 42.763C61.0576 44.6672 61.0588 46.5715 61.058 48.4758C61.0576 49.5451 61.0579 50.6144 61.0599 51.6838C61.0616 52.5944 61.0617 53.5051 61.0597 54.4157C61.0587 54.8803 61.0584 55.3449 61.0602 55.8095C61.0618 56.2351 61.0613 56.6606 61.059 57.0862C61.0584 57.3125 61.06 57.5389 61.0617 57.7652C61.0535 58.7307 60.9332 59.3747 60.275 60.1165C60.1442 60.2275 60.1442 60.2275 60.0108 60.3408C59.924 60.4167 59.8371 60.4925 59.7476 60.5706C59.1695 60.9859 58.6461 61.034 57.9496 61.0302C57.855 61.0306 57.7604 61.031 57.663 61.0314C57.3448 61.0325 57.0266 61.0319 56.7084 61.0313C56.4785 61.0318 56.2485 61.0323 56.0186 61.033C55.3858 61.0344 54.7529 61.0344 54.12 61.0341C53.4379 61.034 52.7558 61.0353 52.0737 61.0364C50.7368 61.0384 49.4 61.039 48.0632 61.0392C46.9769 61.0393 45.8905 61.0398 44.8041 61.0405C44.4915 61.0407 44.1788 61.0409 43.8662 61.0411C43.7885 61.0412 43.7108 61.0412 43.6307 61.0413C41.4444 61.0427 39.2581 61.0436 37.0718 61.0435C36.9893 61.0435 36.9069 61.0435 36.8219 61.0435C36.4041 61.0435 35.9862 61.0435 35.5683 61.0435C35.4439 61.0435 35.4439 61.0435 35.3169 61.0434C35.149 61.0434 34.9812 61.0434 34.8134 61.0434C32.2022 61.0433 29.591 61.045 26.9798 61.0482C24.0467 61.0518 21.1135 61.0539 18.1803 61.0536C16.6271 61.0536 15.0739 61.0542 13.5206 61.0567C12.1983 61.0589 10.8759 61.0594 9.55354 61.0578C8.87867 61.057 8.20382 61.057 7.52895 61.059C6.91126 61.0609 6.2936 61.0605 5.67591 61.0585C5.45235 61.0581 5.22877 61.0586 5.00521 61.0599C4.70138 61.0615 4.39768 61.0603 4.09386 61.0583C4.00699 61.0595 3.92013 61.0607 3.83064 61.0619C3.01141 61.0507 2.30146 60.7311 1.7247 60.1431C1.66111 60.0807 1.59751 60.0183 1.53199 59.954C0.919165 59.1302 0.948412 58.332 0.951018 57.3383C0.950193 57.1796 0.949217 57.0209 0.948104 56.8623C0.945504 56.4274 0.945095 55.9926 0.94506 55.5578C0.944649 55.0884 0.942233 54.619 0.9401 54.1496C0.935836 53.124 0.934196 52.0984 0.933087 51.0728C0.932381 50.4324 0.93112 49.7919 0.929747 49.1515C0.926026 47.378 0.922895 45.6044 0.922158 43.8309C0.922086 43.6607 0.922084 43.6607 0.922011 43.4872C0.921916 43.2572 0.921823 43.0273 0.921729 42.7974C0.921681 42.6833 0.921634 42.5691 0.921586 42.4515C0.921538 42.3373 0.921491 42.223 0.921442 42.1053C0.920564 40.2523 0.915349 38.3993 0.908242 36.5464C0.901004 34.6435 0.897271 32.7407 0.897099 30.8379C0.896923 29.7697 0.895252 28.7015 0.889739 27.6333C0.885065 26.724 0.883604 25.8148 0.886338 24.9056C0.887637 24.4417 0.88742 23.9779 0.883119 23.514C0.879217 23.0892 0.879655 22.6646 0.883527 22.2398C0.884469 22.0136 0.880796 21.7874 0.876953 21.5612C0.891848 20.5959 0.891847 20.5959 1.20097 20.1863C1.43675 19.976 1.67114 19.8026 1.93711 19.6328C2.0798 19.5302 2.22235 19.4274 2.36465 19.3243C2.50986 19.2264 2.65544 19.1291 2.80136 19.0322C3.49194 18.566 4.17156 18.0876 4.84482 17.5967C5.65956 17.0038 6.4845 16.4282 7.3194 15.8641C7.49451 15.7455 7.66746 15.6237 7.83845 15.4992C8.08728 15.3366 8.30708 15.2229 8.57596 15.104C9.0755 14.858 9.49024 14.6071 9.78867 14.125C10.073 13.0815 9.96454 11.9499 9.92783 10.8804C9.9195 10.4369 9.91349 9.99357 9.90898 9.55009C9.90545 9.2751 9.89932 9.00012 9.89024 8.72526C9.86884 7.82513 9.93649 7.25162 10.5211 6.53711C11.1881 5.99136 11.7811 5.87013 12.6269 5.89538C12.7197 5.89664 12.8124 5.89789 12.908 5.89918C13.1083 5.90194 13.3086 5.90543 13.5089 5.90957C13.8281 5.91557 14.1471 5.91832 14.4663 5.92004C15.3736 5.92496 16.2806 5.93107 17.1876 5.95037C20.3163 6.1482 20.3163 6.1482 23.0369 4.87489C23.1739 4.74053 23.3083 4.60358 23.4395 4.46365C23.6883 4.20769 23.9696 4.02102 24.2686 3.82807C24.3563 3.7684 24.444 3.70873 24.5344 3.64725C24.6183 3.5906 24.7022 3.53395 24.7887 3.47559C25.3612 3.08769 25.9295 2.69725 26.4879 2.28906C27.837 1.34443 29.3434 0.931969 30.9776 0.948732ZM28.773 3.46094C28.6291 3.52552 28.6291 3.52552 28.4824 3.5914C27.3233 4.1718 26.1749 5.00437 25.2574 5.92188C29.0473 5.92188 32.8371 5.92188 36.7418 5.92188C36.3595 5.53956 36.073 5.25577 35.6445 4.96195C35.5502 4.89722 35.4558 4.83249 35.3586 4.76579C35.2616 4.70016 35.1645 4.63452 35.0645 4.5669C34.9688 4.50081 34.8731 4.43472 34.7745 4.36662C33.5559 3.5364 32.5032 3.06159 31.0142 3.07276C30.9215 3.07342 30.8287 3.07408 30.7331 3.07476C30.0299 3.08934 29.4199 3.16934 28.773 3.46094ZM12.0152 8.03125C11.979 11.2869 11.9427 14.5426 11.9054 17.897C11.8894 18.9232 11.8733 19.9494 11.8569 21.0066C11.851 21.9303 11.851 21.9303 11.8474 22.854C11.8458 23.2641 11.8393 23.6737 11.8296 24.0837C11.6507 26.4308 11.6507 26.4308 12.3951 28.5509C12.7455 28.8959 13.1192 29.1434 13.5578 29.3626C13.8865 29.5366 14.153 29.7752 14.4322 30.0186C14.5849 30.1423 14.5849 30.1423 14.7407 30.2685C15.1055 30.5667 15.4649 30.8706 15.8238 31.1758C16.3919 31.6586 16.9662 32.133 17.5445 32.6035C17.9142 32.9076 18.2791 33.2167 18.6436 33.5269C19.0852 33.9024 19.5296 34.2727 19.984 34.6328C20.5058 35.0463 21.0137 35.4745 21.5207 35.9059C21.9229 36.2477 22.3284 36.5848 22.7379 36.918C23.2113 37.3033 23.679 37.6946 24.1441 38.0898C24.8212 38.6645 25.5044 39.2306 26.1949 39.7891C26.3281 39.8995 26.4613 40.01 26.5945 40.1205C28.263 41.488 29.8863 42.0928 32.0543 41.8984C33.6342 41.587 34.7917 40.6241 35.9709 39.597C36.2429 39.3625 36.5214 39.1363 36.8004 38.9102C37.2738 38.5248 37.7415 38.1335 38.2066 37.7383C38.7655 37.2637 39.3292 36.7957 39.8976 36.3325C41.0201 35.417 42.1385 34.4969 43.242 33.5585C43.7336 33.141 44.2323 32.7328 44.7325 32.3257C45.0994 32.024 45.4619 31.7177 45.8238 31.4102C46.3912 30.928 46.9647 30.4542 47.5423 29.9842C47.9891 29.6168 48.4301 29.2429 48.8705 28.8677C49.1432 28.6357 49.4076 28.4157 49.7082 28.2201C50.0167 27.9724 50.0167 27.9724 50.0561 27.5843C50.0555 27.4378 50.055 27.2914 50.0544 27.1404C50.0549 27.0589 50.0554 26.9773 50.0559 26.8933C50.0569 26.6192 50.0537 26.3453 50.0505 26.0711C50.0503 25.8716 50.0504 25.6721 50.0507 25.4726C50.0508 24.9379 50.0474 24.4034 50.0433 23.8687C50.04 23.3672 50.0398 22.8657 50.0394 22.3641C50.0363 20.897 50.0281 19.43 50.0206 17.9629C50.0085 14.6855 49.9964 11.408 49.984 8.03125C37.4543 8.03125 24.9246 8.03125 12.0152 8.03125ZM8.96103 17.3257C8.31193 17.8174 7.65655 18.2955 6.98349 18.7539C6.90778 18.8055 6.83207 18.8572 6.75406 18.9104C6.59799 19.0168 6.4419 19.1232 6.2858 19.2295C5.8355 19.5373 5.38726 19.8479 4.94003 20.1602C4.85424 20.2193 4.76845 20.2784 4.68005 20.3394C4.60058 20.395 4.52112 20.4507 4.43924 20.5081C4.36894 20.5569 4.29864 20.6058 4.22621 20.6561C4.01375 20.8172 4.01375 20.8172 3.8121 21.1563C4.67195 21.8981 5.53466 22.6344 6.41632 23.3503C6.7821 23.6502 7.14306 23.9554 7.50351 24.2617C7.99519 24.6786 8.48728 25.0948 8.983 25.5068C9.08482 25.5917 9.18663 25.6766 9.29153 25.7641C9.55181 25.9807 9.55181 25.9807 9.90585 26.0781C9.90585 22.9844 9.90585 19.8906 9.90585 16.7031C9.60276 16.7031 9.20694 17.1377 8.96103 17.3257ZM52.0933 16.7031C52.0933 19.7969 52.0933 22.8906 52.0933 26.0781C52.5738 25.8379 52.9325 25.5428 53.3311 25.1919C53.4787 25.0636 53.6264 24.9354 53.7742 24.8074C53.8471 24.7442 53.9199 24.6811 53.9949 24.616C54.3788 24.2862 54.7729 23.9691 55.1659 23.6501C55.5344 23.3478 55.8978 23.0399 56.2608 22.731C56.8929 22.1933 57.5352 21.6698 58.1871 21.1563C57.7203 20.6584 57.2123 20.2685 56.6563 19.8745C56.5652 19.8093 56.474 19.7441 56.3801 19.677C56.0846 19.4661 55.7883 19.2563 55.4918 19.0469C55.3894 18.9745 55.2869 18.9022 55.1814 18.8276C54.6849 18.4774 54.1877 18.1282 53.6896 17.7802C53.6103 17.7249 53.5311 17.6695 53.4494 17.6125C53.0003 17.3051 52.5462 17.005 52.0933 16.7031ZM3.10898 23.3828C3.10898 34.675 3.10898 45.9672 3.10898 57.6016C3.61686 57.2984 3.61686 57.2984 4.0657 56.9451C4.13116 56.8883 4.19662 56.8314 4.26406 56.7728C4.33244 56.7128 4.40083 56.6527 4.47128 56.5908C4.61844 56.4632 4.76568 56.3356 4.91303 56.2081C4.98518 56.1457 5.05733 56.0832 5.13166 56.0188C5.50496 55.6982 5.88713 55.3887 6.26892 55.0784C7.39111 54.1656 8.50723 53.2456 9.60917 52.3085C10.1008 51.891 10.5995 51.4828 11.0997 51.0757C11.4665 50.774 11.8291 50.4677 12.191 50.1602C12.7499 49.6855 13.3136 49.2176 13.882 48.7544C15.0045 47.8389 16.1229 46.9188 17.2263 45.9804C17.7179 45.5629 18.2167 45.1547 18.7169 44.7476C19.0837 44.4459 19.4463 44.1396 19.8082 43.832C20.3753 43.3502 20.9483 42.8766 21.5257 42.407C21.9802 42.0331 22.4284 41.6519 22.8754 41.269C23.1543 41.0313 23.4286 40.813 23.734 40.6094C23.734 40.532 23.734 40.4547 23.734 40.375C23.5573 40.2139 23.3724 40.0617 23.1847 39.9136C23.067 39.8195 22.9493 39.7254 22.8281 39.6284C22.7653 39.5783 22.7026 39.5281 22.6379 39.4765C22.3149 39.2152 21.9993 38.9453 21.6832 38.6758C21.2181 38.2805 20.7504 37.8892 20.2769 37.5039C19.7373 37.0647 19.2058 36.6168 18.6757 36.1663C18.1722 35.7392 17.6621 35.321 17.15 34.9043C16.7803 34.6003 16.4154 34.2911 16.0509 33.981C15.6093 33.6054 15.1649 33.2351 14.7105 32.875C14.1887 32.4615 13.6808 32.0333 13.1738 31.602C12.7716 31.2602 12.3661 30.923 11.9566 30.5898C11.417 30.1506 10.8855 29.7028 10.3554 29.2523C9.85193 28.8252 9.34175 28.4069 8.82965 27.9902C8.46001 27.6862 8.09507 27.377 7.73056 27.0669C7.19764 26.6137 6.6572 26.1723 6.1087 25.738C5.74561 25.4448 5.3904 25.1431 5.03525 24.8403C4.13503 23.9191 4.13503 23.9191 3.10898 23.3828ZM58.0846 23.9614C57.9439 24.0814 57.8032 24.2014 57.6625 24.3212C57.5922 24.3811 57.5219 24.4409 57.4495 24.5026C57.0772 24.8178 56.6985 25.125 56.3203 25.4331C55.1978 26.3486 54.0794 27.2687 52.976 28.2071C52.4844 28.6246 51.9856 29.0328 51.4854 29.4399C51.1186 29.7416 50.756 30.0479 50.3941 30.3555C49.826 30.8383 49.2517 31.3127 48.6734 31.7832C48.3038 32.0873 47.9388 32.3964 47.5743 32.7065C47.0411 33.16 46.5002 33.6015 45.9515 34.0363C45.5272 34.3788 45.1125 34.7322 44.6973 35.0855C44.295 35.4273 43.8895 35.7645 43.4801 36.0977C43.0066 36.483 42.5389 36.8743 42.0738 37.2695C41.5069 37.7513 40.934 38.2248 40.3567 38.6941C39.8984 39.0713 39.4466 39.4562 38.9963 39.8428C38.5248 40.2452 38.5248 40.2452 38.2652 40.375C38.4104 40.8104 38.5805 40.9134 38.939 41.1953C39.0557 41.2884 39.1723 41.3814 39.2924 41.4773C39.3544 41.5267 39.4165 41.5761 39.4804 41.627C39.8029 41.8874 40.1178 42.1568 40.4332 42.4258C40.8982 42.8211 41.366 43.2123 41.8394 43.5977C42.3129 43.983 42.7806 44.3743 43.2457 44.7695C43.9225 45.3444 44.6074 45.9086 45.2965 46.4688C46.0518 47.0827 46.8005 47.7034 47.5422 48.3336C47.9426 48.6733 48.3463 49.0084 48.7535 49.3398C49.2931 49.779 49.8246 50.2269 50.3548 50.6774C50.8582 51.1045 51.3684 51.5228 51.8805 51.9395C52.2501 52.2435 52.6151 52.5527 52.9796 52.8628C53.4212 53.2384 53.8655 53.6086 54.3199 53.9688C54.7743 54.3289 55.2186 54.6992 55.6602 55.0747C57.1797 56.6361 57.1797 56.6361 58.8902 57.6016C58.8902 46.3094 58.8902 35.0172 58.8902 23.3828C58.6124 23.3828 58.2963 23.7792 58.0846 23.9614ZM24.5689 42.5942C23.9381 43.1457 23.3008 43.686 22.6495 44.2133C22.282 44.5139 21.9202 44.8207 21.5587 45.1284C21.0254 45.5819 20.4846 46.0234 19.9359 46.4582C19.5115 46.8007 19.0969 47.1541 18.6816 47.5074C18.2794 47.8492 17.8739 48.1864 17.4644 48.5195C16.991 48.9049 16.5233 49.2962 16.0582 49.6914C15.49 50.1742 14.9158 50.6486 14.3375 51.1192C13.9678 51.4232 13.6029 51.7324 13.2384 52.0425C12.7051 52.496 12.1642 52.9375 11.6156 53.3723C11.1912 53.7147 10.7766 54.0682 10.3613 54.4215C9.95909 54.7633 9.5536 55.1004 9.14413 55.4336C8.60521 55.8723 8.07415 56.3194 7.54494 56.7696C7.02763 57.2089 6.50223 57.6375 5.97275 58.0621C5.66723 58.3216 5.38461 58.6072 5.10117 58.8906C22.1941 58.8906 39.2871 58.8906 56.898 58.8906C56.4165 58.4075 56.4165 58.4075 55.9157 57.9513C55.8449 57.8899 55.7741 57.8284 55.7012 57.7652C55.6272 57.7015 55.5533 57.6379 55.4771 57.5723C55.3994 57.5051 55.3217 57.438 55.2417 57.3688C54.6971 56.9 54.1449 56.4416 53.5866 55.9893C53.2219 55.6911 52.8624 55.3872 52.5035 55.082C51.9446 54.6074 51.3809 54.1394 50.8125 53.6762C49.69 52.7608 48.5716 51.8407 47.4682 50.9022C46.9766 50.4847 46.4778 50.0766 45.9776 49.6694C45.6108 49.3678 45.2482 49.0614 44.8863 48.7539C44.3274 48.2793 43.7638 47.8113 43.1953 47.3481C42.0729 46.4327 40.9547 45.5126 39.8512 44.5744C39.3584 44.1559 38.8591 43.7459 38.3577 43.3376C37.7764 42.8622 37.2007 42.3801 36.6246 41.8984C36.3278 42.0736 36.0357 42.252 35.7489 42.4432C33.7581 43.7704 31.5742 44.2358 29.2056 43.8142C27.8845 43.4939 26.7115 42.8737 25.6547 42.0234C25.2488 41.7121 24.8767 42.3232 24.5689 42.5942Z" fill="url(#paint0_linear_137_6)"/><path d="M38.2655 13.7147C38.423 13.8499 38.5793 13.9866 38.7342 14.1249C38.8186 14.1915 38.9031 14.2581 38.9901 14.3268C40.8994 15.8853 41.9611 18.2818 42.2498 20.6874C42.4358 23.5011 41.7629 26.0138 39.9061 28.1874C38.9916 29.1593 37.8094 29.7649 36.4733 29.8537C35.1912 29.8866 34.3687 29.734 33.4173 28.8576C33.2264 28.6561 33.2264 28.6561 32.992 28.3046C32.9237 28.357 32.8555 28.4094 32.7851 28.4634C31.2417 29.6015 29.7271 29.9806 27.8358 29.828C26.6453 29.6151 25.6703 28.9814 24.9207 28.0336C24.0016 26.6125 23.9101 24.8696 24.2249 23.2509C24.4029 22.4999 24.6702 21.8401 25.0233 21.1561C25.0724 21.0516 25.1215 20.9471 25.172 20.8394C26.0152 19.1384 27.5565 17.6864 29.3592 17.0546C30.4052 16.712 31.8879 16.8264 32.8748 17.289C33.4616 17.6257 33.9974 18.0263 34.5155 18.4608C34.5354 18.3888 34.5553 18.3167 34.5759 18.2425C34.8046 17.4797 34.8046 17.4797 35.0721 17.1644C35.464 17.0011 35.7359 16.9956 36.1561 17.0546C36.5003 17.2743 36.5003 17.2743 36.742 17.6405C36.8402 18.4345 36.6939 19.2187 36.5319 19.9939C36.5099 20.1034 36.4879 20.213 36.4652 20.3259C36.4185 20.5569 36.3713 20.7878 36.3236 21.0187C36.2525 21.363 36.1829 21.7075 36.1137 22.0522C35.8635 23.2879 35.5956 24.5168 35.2811 25.7379C35.1413 26.2982 35.0741 26.7894 35.1014 27.3671C35.5434 27.6617 35.9965 27.6583 36.5076 27.6015C37.5825 27.3817 38.2068 26.8445 38.8074 25.9462C39.9911 23.9885 40.3506 21.9295 39.8086 19.7005C39.1471 17.6739 37.9296 15.9481 36.0052 14.9577C33.6085 13.7983 30.8983 13.8611 28.4128 14.7049C25.4971 15.7552 23.1822 18.0164 21.7667 20.7391C20.8269 22.7738 20.6841 24.8375 21.3648 26.9794C22.1809 29.1947 23.6593 30.7365 25.7864 31.7236C26.7045 32.1179 27.68 32.3261 28.6561 32.5233C28.7911 32.5508 28.9262 32.5783 29.0653 32.6066C32.4837 33.2068 36.2244 32.9079 39.203 30.9999C39.936 30.4655 40.5833 29.8921 41.1553 29.1871C41.4062 28.9004 41.5488 28.8903 41.9349 28.8539C42.4344 28.8962 42.6037 29.01 42.953 29.3593C43.1309 29.7151 43.1283 29.8971 43.0701 30.2968C41.7769 32.5439 39.0708 33.8825 36.6541 34.5521C33.3953 35.3465 30.0284 35.2146 26.7811 34.3983C26.6557 34.3669 26.6557 34.3669 26.5278 34.3348C24.7404 33.8689 23.2314 33.0646 21.8592 31.8202C21.7865 31.7584 21.7139 31.6966 21.639 31.633C19.8512 30.0111 18.8348 27.3892 18.6951 25.0233C18.6903 24.9463 18.6855 24.8692 18.6805 24.7899C18.5807 21.4831 20.076 18.5514 22.2781 16.1761C26.2192 12.0512 33.3245 9.98549 38.2655 13.7147ZM27.6266 20.9488C27.4477 21.2072 27.2874 21.4687 27.1326 21.7421C27.0798 21.8336 27.0269 21.9252 26.9724 22.0195C26.3215 23.225 25.9779 24.5153 26.3416 25.8583C26.5634 26.5276 26.8119 27.0363 27.4329 27.4037C28.2576 27.8085 29.0652 27.8549 29.9575 27.6248C30.8642 27.2835 31.5125 26.7793 32.1717 26.078C32.2749 25.9736 32.3781 25.8692 32.4844 25.7617C33.1693 24.9877 33.4941 24.2484 33.7391 23.2435C33.7665 23.1364 33.7939 23.0293 33.8221 22.9189C34.0233 21.9542 33.7668 21.2961 33.2561 20.4759C32.6691 19.7573 32.1333 19.1438 31.1706 19.0033C29.661 18.9654 28.5492 19.7959 27.6266 20.9488Z" fill="url(#paint1_linear_137_6)"/><defs><linearGradient id="paint0_linear_137_6" x1="0.876953" y1="31.0051" x2="61.0617" y2="31.0051" gradientUnits="userSpaceOnUse"><stop stop-color="#0568EA"/><stop offset="1" stop-color="#08B5F7"/></linearGradient><linearGradient id="paint1_linear_137_6" x1="18.6758" y1="23.4248" x2="43.1055" y2="23.4248" gradientUnits="userSpaceOnUse"><stop stop-color="#0568EA"/><stop offset="1" stop-color="#08B5F7"/></linearGradient></defs></svg>