<svg xmlns="http://www.w3.org/2000/svg" width="60" height="60" viewBox="0 0 60 60" fill="none"><path d="M24.3472 37.8382C26.0678 38.4631 27.7767 39.0179 29.5584 39.4418C31.0471 39.802 32.2131 40.1065 33.128 41.4166C33.7198 42.4753 33.7174 43.5045 33.3986 44.6484C34.3912 44.1701 35.3409 43.6422 36.2843 43.0737C36.5638 42.9065 36.8436 42.7397 37.1234 42.5729C37.1939 42.5308 37.2645 42.4888 37.3371 42.4454C38.1783 41.9442 39.0265 41.4554 39.8759 40.9683C40.527 40.5948 41.1763 40.2186 41.8223 39.8364C44.453 38.2857 44.453 38.2857 45.8204 37.8516C45.9121 37.8212 46.0038 37.7908 46.0983 37.7595C47.2139 37.4505 48.649 37.4139 49.6876 37.9687C50.6362 38.5464 51.0862 39.2213 51.4821 40.2392C51.6891 41.3306 51.624 42.4034 51.0641 43.3818C50.3507 44.4063 49.2264 44.994 48.1788 45.6299C48.0447 45.7118 47.9105 45.7938 47.7764 45.8758C47.498 46.046 47.2196 46.216 46.941 46.3858C46.2806 46.7886 45.6222 47.1945 44.9635 47.6001C44.8365 47.6782 44.7095 47.7564 44.5786 47.8369C43.8004 48.3158 43.023 48.796 42.2462 49.2773C41.0844 49.9973 39.9205 50.7138 38.7562 51.4297C38.1568 51.7984 37.5577 52.1675 36.9587 52.5369C36.3893 52.888 35.8192 53.238 35.249 53.5879C34.962 53.7645 34.6757 53.9422 34.3896 54.1205C32.3555 55.3801 30.3829 55.9809 27.9964 55.4463C27.5456 55.3372 27.098 55.2168 26.6507 55.0939C26.3432 55.0096 26.0352 54.9277 25.7269 54.8463C24.623 54.5532 23.5222 54.2499 22.4238 53.9372C21.7886 53.7564 21.1526 53.5785 20.5161 53.402C20.0448 53.2711 19.5749 53.1364 19.1055 52.9989C18.7389 52.8927 18.3709 52.792 18.0031 52.6904C17.8049 52.6305 17.8049 52.6305 17.6026 52.5694C16.9111 52.3842 16.4993 52.3323 15.8452 52.6565C15.6782 52.7566 15.5126 52.8593 15.3517 52.9687C15.3517 53.4031 15.4896 53.589 15.7033 53.9648C16.0648 54.6707 16.1822 55.2311 16.0548 56.0156C15.6601 57.1375 14.6741 57.5966 13.6964 58.1543C13.5679 58.2289 13.4393 58.3035 13.3069 58.3804C12.593 58.7921 12.0707 59.0812 11.2355 59.1138C11.1095 59.1209 10.9835 59.128 10.8537 59.1353C10.1023 59.0063 9.59289 58.6565 9.14191 58.0411C8.90592 57.6533 8.68762 57.2584 8.47426 56.8579C8.39343 56.7109 8.31234 56.564 8.23102 56.4172C8.06526 56.1172 7.90087 55.8166 7.73766 55.5152C7.38673 54.8678 7.0255 54.2262 6.66518 53.584C6.59863 53.4646 6.53207 53.3453 6.4635 53.2223C5.99424 52.382 5.51227 51.5499 5.02455 50.7202C4.43405 49.7157 3.86622 48.7014 3.31412 47.6753C2.89994 46.9083 2.46589 46.1556 2.0064 45.4148C1.48142 44.5495 1.2978 43.7688 1.52358 42.7734C2.05406 41.7321 3.07577 41.241 4.05776 40.6934C4.17921 40.6243 4.30066 40.5553 4.4258 40.4842C5.22115 40.0372 5.8594 39.7103 6.79701 39.8437C7.72775 40.1161 8.16851 40.613 8.65096 41.4345C8.7892 41.7187 8.7892 41.7187 8.7892 41.9531C8.86554 41.9091 8.94189 41.865 9.02054 41.8196C9.25303 41.6855 9.48552 41.5514 9.718 41.4173C9.99023 41.2602 10.2624 41.1032 10.5347 40.9461C11.1793 40.574 11.8241 40.2021 12.4692 39.8308C12.6737 39.713 12.8783 39.5952 13.0829 39.4773C13.3388 39.3299 13.5948 39.1826 13.8509 39.0353C14.4065 38.7151 14.9596 38.392 15.5073 38.0585C18.6139 36.1888 21.1459 36.6723 24.3472 37.8382ZM14.4005 41.0289C13.5546 41.5315 12.6996 42.0186 11.8459 42.508C11.17 42.8966 10.5017 43.2923 9.84389 43.7109C10.5658 45.0916 11.3296 46.4473 12.0993 47.8017C12.3113 48.1754 12.5224 48.5496 12.7333 48.9239C12.8026 49.0469 12.8719 49.1699 12.9433 49.2966C13.0767 49.5333 13.2101 49.7701 13.3433 50.007C13.4035 50.1137 13.4637 50.2203 13.5257 50.3302C13.5786 50.4241 13.6315 50.518 13.686 50.6148C13.8042 50.818 13.9323 51.0154 14.0626 51.2109C14.6004 51.0631 15.0031 50.8387 15.4542 50.522C16.0969 50.1829 16.6681 50.2996 17.3382 50.4856C17.429 50.5096 17.5198 50.5336 17.6134 50.5584C17.9133 50.638 18.2127 50.7196 18.5121 50.8012C18.723 50.8576 18.9338 50.9139 19.1448 50.9701C19.7013 51.1186 20.2573 51.2689 20.8133 51.4195C21.3696 51.5699 21.9264 51.7187 22.4832 51.8676C23.987 52.2703 25.4908 52.6733 26.9914 53.0882C27.172 53.138 27.172 53.138 27.3562 53.1888C27.5638 53.2463 27.7712 53.3042 27.9786 53.3626C29.7048 53.8416 31.0705 53.662 32.6345 52.8105C32.9449 52.632 33.2527 52.4498 33.5597 52.2656C33.6723 52.1986 33.7848 52.1316 33.9008 52.0626C34.7083 51.5795 35.5061 51.0822 36.2995 50.5764C37.0138 50.1216 37.7353 49.6794 38.4596 49.2407C39.3945 48.6743 40.3243 48.1005 41.2501 47.5195C42.2819 46.8723 43.319 46.2346 44.3603 45.6028C45.3358 45.0107 46.3078 44.4134 47.2757 43.8089C47.5929 43.6111 47.9114 43.4175 48.2361 43.2321C48.829 42.885 49.252 42.6055 49.51 41.9504C49.6482 41.4206 49.6213 41.0349 49.4313 40.5249C49.1579 40.1007 48.8491 39.8346 48.3986 39.6094C45.7765 39.318 43.2555 41.2952 41.1194 42.5723C40.4288 42.9832 39.7337 43.3864 39.039 43.7904C38.4285 44.1456 37.8191 44.5021 37.2113 44.8617C37.0244 44.9719 37.0244 44.9719 36.8338 45.0842C36.5978 45.2234 36.3621 45.3631 36.1267 45.5033C33.948 46.7849 31.9881 47.2055 29.4966 46.6791C29.3967 46.6585 29.2968 46.6379 29.1939 46.6167C28.1346 46.3928 27.0892 46.1183 26.0449 45.833C25.7244 45.7455 25.4035 45.6592 25.0826 45.5731C24.8762 45.5173 24.6698 45.4615 24.4635 45.4056C24.3688 45.3801 24.274 45.3545 24.1765 45.3282C22.9122 44.9818 22.9122 44.9818 22.6906 44.6191C22.6005 44.2227 22.6082 43.9811 22.7345 43.5937C22.9542 43.3594 22.9542 43.3594 23.3204 43.2422C24.5035 43.3358 25.6889 43.7558 26.8288 44.0698C27.1245 44.1507 27.4203 44.2315 27.7161 44.3122C27.8989 44.3622 28.0816 44.4123 28.2643 44.4625C29.6306 44.8582 29.6306 44.8582 30.9889 44.5825C31.3579 44.2315 31.4998 43.9657 31.6408 43.4766C31.6408 42.909 31.5199 42.524 31.1278 42.1014C30.5292 41.6346 29.6135 41.5302 28.8912 41.3563C26.2861 40.7242 23.7476 39.8246 21.2417 38.877C18.7876 38.0624 16.414 39.8295 14.4005 41.0289ZM5.9256 41.9569C5.81527 42.0191 5.70494 42.0813 5.59126 42.1454C5.47132 42.2129 5.35138 42.2804 5.2278 42.35C5.10272 42.4221 4.97764 42.4941 4.84877 42.5684C4.65979 42.6737 4.65979 42.6737 4.467 42.7812C3.78361 43.1134 3.78361 43.1134 3.39858 43.7109C3.52469 44.0176 3.52469 44.0176 3.72221 44.3509C3.83089 44.5443 3.83089 44.5443 3.94177 44.7417C4.02191 44.8815 4.10207 45.0213 4.18227 45.1611C4.26375 45.3051 4.34514 45.4492 4.42643 45.5934C4.63065 45.9548 4.83626 46.3154 5.04244 46.6758C5.20647 46.9626 5.36976 47.2498 5.53313 47.5369C5.76012 47.9353 5.98787 48.3331 6.21611 48.7308C6.58578 49.3753 6.95168 50.0219 7.31703 50.6689C7.38018 50.7807 7.44332 50.8925 7.50838 51.0077C7.89587 51.6939 8.28286 52.3804 8.66975 53.0669C8.85944 53.4029 9.04995 53.7384 9.24056 54.0738C9.48789 54.5094 9.73087 54.9471 9.97115 55.3866C10.085 55.5914 10.1988 55.7962 10.3126 56.001C10.3633 56.0958 10.414 56.1906 10.4663 56.2883C10.5389 56.4175 10.5389 56.4175 10.6129 56.5494C10.6542 56.6249 10.6954 56.7004 10.7379 56.7782C10.9718 57.0329 11.143 57.0529 11.4845 57.0703C11.7842 56.9674 11.7842 56.9674 12.0759 56.7906C12.1846 56.7289 12.2932 56.6672 12.4051 56.6036C12.517 56.5377 12.6289 56.4717 12.7443 56.4038C12.858 56.3401 12.9718 56.2765 13.089 56.2109C13.6625 55.9193 13.6625 55.9193 14.0525 55.44C14.0659 55.1164 13.9745 54.9539 13.8159 54.6721C13.7593 54.57 13.7028 54.4679 13.6445 54.3627C13.5506 54.1984 13.5506 54.1984 13.4547 54.0308C13.3907 53.9162 13.3266 53.8016 13.2606 53.6835C13.0608 53.3271 12.8589 52.972 12.6564 52.6172C12.5968 52.5122 12.5372 52.4072 12.4758 52.299C12.1883 51.7925 11.8993 51.2869 11.609 50.782C11.2349 50.1308 10.865 49.4772 10.4957 48.8232C10.4007 48.655 10.4007 48.655 10.3037 48.4833C9.98513 47.9193 9.66703 47.355 9.3495 46.7903C9.0357 46.2326 8.72064 45.6757 8.40439 45.1194C8.26353 44.8716 8.1229 44.6237 7.98245 44.3757C7.75935 43.9825 7.53473 43.5903 7.30971 43.1982C7.2403 43.0755 7.1709 42.9528 7.09939 42.8263C7.03435 42.7137 6.96931 42.6011 6.9023 42.485C6.8451 42.385 6.78791 42.2849 6.72898 42.1818C6.48177 41.8419 6.31152 41.7934 5.9256 41.9569Z" fill="url(#paint0_linear_158_5310)"/><path d="M35.6252 1.33118C36.5799 1.53537 37.5111 1.8031 38.4377 2.10949C38.5362 2.14207 38.6347 2.17464 38.7362 2.2082C41.7727 3.23783 44.5688 4.81734 46.9924 6.91418C47.0839 6.99273 47.1754 7.07129 47.2698 7.15222C47.5734 7.41904 47.8696 7.69205 48.1642 7.96887C48.2295 8.03016 48.2948 8.09146 48.362 8.15461C49.5219 9.25307 50.5172 10.4199 51.4455 11.7189C51.4972 11.7901 51.549 11.8612 51.6023 11.9346C54.7381 16.277 56.2951 21.6569 56.2575 26.9825C56.257 27.1271 56.2564 27.2717 56.2559 27.4206C56.2545 27.7726 56.2526 28.1247 56.2502 28.4767C56.3826 28.4734 56.3826 28.4734 56.5177 28.47C56.6337 28.4683 56.7496 28.4666 56.8691 28.4648C57.0414 28.4615 57.0414 28.4615 57.2172 28.4581C57.6788 28.4847 57.9102 28.6299 58.2424 28.9454C58.5238 29.345 58.591 29.5922 58.6159 30.0807C58.4876 30.7953 57.9805 31.3234 57.5392 31.8751C57.4379 32.0048 57.3367 32.1347 57.2357 32.2647C57.0203 32.5413 56.8036 32.8167 56.5857 33.0914C56.3615 33.3742 56.1391 33.6583 55.9183 33.9438C54.1276 36.2545 54.1276 36.2545 53.5549 36.4454C52.8717 36.5099 52.5727 36.3861 52.0314 35.9767C51.7517 35.681 51.7517 35.681 51.4821 35.3468C51.4326 35.2859 51.3831 35.225 51.3322 35.1623C51.1734 34.966 51.0162 34.7684 50.8595 34.5704C50.7812 34.4719 50.7812 34.4719 50.7014 34.3713C50.3779 33.9634 50.0571 33.5534 49.7371 33.1428C49.5652 32.9231 49.3922 32.7043 49.2189 32.4858C49.1613 32.4129 49.1036 32.3401 49.0442 32.2651C48.9348 32.1269 48.8252 31.9888 48.7154 31.8509C47.7252 30.5974 47.7252 30.5974 47.6955 29.8829C47.8163 29.2909 48.065 28.9883 48.5158 28.5939C48.7977 28.4529 48.9787 28.4649 49.2922 28.4694C49.3879 28.4704 49.4837 28.4715 49.5824 28.4726C49.6925 28.4746 49.6925 28.4746 49.8049 28.4767C49.7434 24.9166 49.4031 21.6439 47.8127 18.3986C47.7742 18.3183 47.7357 18.238 47.696 18.1553C46.8276 16.359 45.6778 14.7985 44.297 13.3595C44.1942 13.2492 44.0913 13.1389 43.9853 13.0253C41.8996 10.8295 39.2861 9.32127 36.4455 8.32043C36.3638 8.29116 36.282 8.2619 36.1978 8.23174C34.9704 7.80214 33.7307 7.60209 32.44 7.454C32.3146 7.4378 32.1893 7.4216 32.0601 7.4049C31.9482 7.39206 31.8363 7.37922 31.721 7.36599C31.272 7.22291 31.0956 7.06449 30.8205 6.67981C30.737 6.28102 30.7411 5.89174 30.7468 5.4855C30.7465 5.37039 30.7462 5.25528 30.7459 5.13669C30.746 4.89389 30.7476 4.65108 30.7505 4.4083C30.7545 4.03659 30.7529 3.66521 30.7507 3.2935C30.7515 3.05737 30.7526 2.82124 30.7541 2.58511C30.7532 2.41847 30.7532 2.41847 30.7523 2.24847C30.766 1.48294 30.766 1.48294 31.0367 1.10221C32.1265 0.391951 34.4465 1.09642 35.6252 1.33118ZM32.8127 2.92981C32.8127 3.74192 32.8127 4.55403 32.8127 5.39074C32.9956 5.42352 33.1785 5.45631 33.367 5.49008C38.001 6.34991 41.9452 8.20015 45.3517 11.4845C45.4486 11.5739 45.5454 11.6634 45.6452 11.7555C49.1032 15.0415 51.4722 20.2125 51.6915 24.9796C51.697 25.2335 51.6992 25.4871 51.6995 25.7411C51.6999 25.8333 51.7003 25.9256 51.7007 26.0206C51.7013 26.214 51.7016 26.4074 51.7016 26.6008C51.7018 26.8939 51.704 27.187 51.7062 27.4801C51.7065 27.6695 51.7067 27.8589 51.7069 28.0482C51.7077 28.1343 51.7085 28.2204 51.7094 28.3091C51.7068 28.9231 51.6512 29.5346 51.4455 30.1173C51.1919 30.2972 51.1919 30.2972 50.9035 30.359C50.8077 30.3821 50.7119 30.4052 50.6133 30.429C50.5031 30.4488 50.5031 30.4488 50.3908 30.4689C50.5899 30.9316 50.8982 31.3027 51.2111 31.692C51.3267 31.8374 51.4422 31.9828 51.5576 32.1283C51.6459 32.2393 51.6459 32.2393 51.736 32.3526C52.0209 32.7133 52.301 33.0777 52.5807 33.4425C52.6316 33.5087 52.6824 33.575 52.7348 33.6432C52.852 33.796 52.969 33.9488 53.0861 34.1017C53.5729 33.6348 53.9971 33.1333 54.4191 32.6075C54.4859 32.5247 54.5527 32.442 54.6215 32.3567C55.4962 31.4715 55.4962 31.4715 56.0158 30.4689C55.9085 30.456 55.8013 30.4432 55.6908 30.43C55.5515 30.4114 55.4122 30.3928 55.2687 30.3737C55.0607 30.3471 55.0607 30.3471 54.8485 30.3201C54.4924 30.2345 54.4924 30.2345 54.258 29.8829C54.242 29.5766 54.2392 29.2832 54.2474 28.9775C54.2502 28.7908 54.2528 28.6041 54.2554 28.4175C54.2571 28.3195 54.2588 28.2216 54.2606 28.1207C54.3666 21.3169 52.2009 15.2185 47.5563 10.2028C47.4909 10.1321 47.4255 10.0615 47.3582 9.98866C43.6169 6.02627 38.2013 3.49113 32.8127 2.92981Z" fill="url(#paint1_linear_158_5310)"/><path d="M35.5838 12.6646C36.9557 13.847 38.0354 15.3759 38.2031 17.2267C38.3155 19.0549 38.0514 20.8728 36.8243 22.3065C36.4391 22.7372 36.0336 23.1462 35.625 23.5548C35.7454 23.6129 35.8658 23.6711 35.9898 23.731C37.4858 24.461 38.8171 25.2688 40.0781 26.3673C40.15 26.4292 40.2219 26.4912 40.296 26.555C42.3233 28.4374 43.7609 31.4489 43.8647 34.2115C43.8564 34.5426 43.8319 34.6804 43.6743 34.9806C43.246 35.3613 42.7305 35.2903 42.1916 35.2892C42.0474 35.2896 42.0474 35.2896 41.9003 35.29C41.5769 35.2907 41.2536 35.2906 40.9303 35.2906C40.6989 35.2909 40.4676 35.2913 40.2362 35.2917C39.6069 35.2928 38.9777 35.2931 38.3484 35.2931C37.8236 35.2932 37.2988 35.2937 36.774 35.2941C35.5362 35.295 34.2984 35.2953 33.0606 35.2952C31.7824 35.2952 30.5043 35.2964 29.2261 35.2983C28.1298 35.2998 27.0334 35.3004 25.9371 35.3003C25.2818 35.3003 24.6266 35.3007 23.9714 35.3019C23.3553 35.303 22.7392 35.303 22.1231 35.3022C21.8968 35.3021 21.6704 35.3023 21.444 35.303C21.1355 35.3039 20.827 35.3034 20.5185 35.3025C20.4285 35.3031 20.3384 35.3037 20.2457 35.3043C19.8092 35.3015 19.4666 35.2932 19.1016 35.0392C18.6863 34.4575 18.8888 33.7104 18.9844 33.047C19.6031 29.9264 21.4107 27.037 24.0234 25.1954C25.0231 24.5496 26.0918 24.0167 27.1875 23.5548C27.1307 23.5105 27.0739 23.4663 27.0154 23.4207C25.5615 22.2268 24.687 20.6225 24.4922 18.7501C24.3375 16.8834 24.9058 15.038 26.1166 13.6065C28.5433 10.9055 32.684 10.3978 35.5838 12.6646ZM27.7734 14.7657C26.8846 15.8862 26.3619 17.1942 26.4844 18.6329C26.7334 19.9936 27.3486 21.2356 28.4985 22.046C29.6857 22.8011 30.969 23.177 32.3657 22.8929C33.7247 22.5179 34.8328 21.8073 35.555 20.5802C36.2293 19.3019 36.415 18.1043 36.0278 16.692C35.5785 15.3598 34.7589 14.3923 33.5229 13.7403C31.5378 12.8091 29.3497 13.2245 27.7734 14.7657ZM23.2444 28.6381C22.2171 29.8708 21.0937 31.6475 21.0937 33.2813C27.9 33.2813 34.7062 33.2813 41.7187 33.2813C41.3509 31.9286 41.3509 31.9286 40.8105 30.6739C40.7498 30.5559 40.7498 30.5559 40.6877 30.4355C40.3249 29.7522 39.9009 29.1628 39.375 28.5938C39.2714 28.4795 39.1677 28.3651 39.061 28.2473C37.1286 26.1792 34.492 25.0019 31.6602 24.9056C28.3745 24.8722 25.4291 26.1809 23.2444 28.6381Z" fill="url(#paint2_linear_158_5310)"/><path d="M16.6405 5.03902C17.1507 5.47122 17.4587 5.96712 17.7831 6.54048C17.8327 6.62709 17.8824 6.71369 17.9336 6.80292C18.037 6.98352 18.1401 7.16433 18.2428 7.34534C18.3953 7.61192 18.5514 7.87607 18.7087 8.13991C18.8055 8.30497 18.9022 8.47007 18.9989 8.63521C19.0446 8.71094 19.0903 8.78667 19.1375 8.86469C19.4036 9.32661 19.5447 9.66328 19.453 10.1953C19.1464 10.6831 18.7421 10.9853 18.2811 11.3232C16.6024 12.5857 15.2447 14.069 13.9809 15.7415C13.7432 16.0461 13.6485 16.1616 13.2585 16.2345C12.5453 16.2126 11.9348 15.7532 11.3377 15.4028C11.1499 15.2957 11.1499 15.2957 10.9583 15.1865C8.65777 13.8657 8.65777 13.8657 8.32016 13.3593C8.22547 12.4554 8.75376 11.8561 9.29262 11.1748C9.66172 10.7224 10.0449 10.2829 10.4295 9.8437C10.498 9.76213 10.5664 9.68056 10.6369 9.59651C14.6783 4.80818 14.6783 4.80818 16.6405 5.03902ZM15.0658 8.13716C14.9913 8.20151 14.9169 8.26586 14.8402 8.33217C14.6895 8.46274 14.5389 8.59348 14.3885 8.72441C14.2113 8.87854 14.0335 9.03185 13.8554 9.18498C12.706 10.1917 11.7135 11.3314 10.7811 12.539C11.1359 12.9228 11.5057 13.1924 11.953 13.4619C12.1342 13.5738 12.1342 13.5738 12.3192 13.688C12.6367 13.8588 12.6367 13.8588 12.907 13.7677C13.1743 13.5542 13.3578 13.3251 13.5643 13.0517C14.5784 11.779 15.7655 10.535 17.1092 9.60933C16.9299 9.11092 16.6777 8.67269 16.3988 8.22505C16.3561 8.15503 16.3134 8.08502 16.2695 8.01288C16.1623 7.83963 16.0503 7.66947 15.9373 7.49995C15.6462 7.49995 15.2891 7.94366 15.0658 8.13716Z" fill="url(#paint3_linear_158_5310)"/><path d="M5.86637 27.4727C5.98136 27.472 6.09636 27.4713 6.21484 27.4705C6.45785 27.4697 6.70086 27.4701 6.94386 27.4716C7.31533 27.4732 7.68646 27.4692 8.05791 27.4647C8.29419 27.4646 8.53048 27.4648 8.76676 27.4654C8.87761 27.4638 8.98847 27.4623 9.10268 27.4607C9.62286 27.468 9.88482 27.4854 10.3191 27.7912C10.5744 28.1651 10.6445 28.4052 10.6994 28.8524C10.7192 28.9948 10.7389 29.1373 10.7592 29.284C10.7883 29.5116 10.7883 29.5116 10.818 29.7437C11.0934 31.6767 11.6025 33.5123 12.4514 35.2783C12.6025 35.6736 12.558 35.9351 12.422 36.3282C11.9642 36.7513 11.4929 37.0655 10.9489 37.3732C10.8782 37.4135 10.8075 37.4537 10.7346 37.4952C10.5113 37.622 10.2875 37.7478 10.0636 37.8736C9.91266 37.9592 9.76175 38.0449 9.61088 38.1306C9.2207 38.3518 8.83031 38.5724 8.43763 38.7891C8.3535 38.8364 8.26938 38.8838 8.18271 38.9325C7.81069 39.0908 7.52928 39.0083 7.14856 38.9063C5.29743 36.9677 4.73368 33.2481 4.33606 30.7032C4.31371 30.5651 4.29135 30.427 4.26832 30.2848C4.21225 29.829 4.18872 29.3822 4.18226 28.9234C4.17886 28.8416 4.17546 28.7598 4.17196 28.6755C4.16746 28.3121 4.18532 28.0605 4.3827 27.7509C4.85347 27.4239 5.30582 27.4698 5.86637 27.4727ZM6.21106 29.5313C6.55245 31.9779 7.12449 34.2838 8.08606 36.5625C8.58667 36.3834 9.02278 36.1272 9.47034 35.8448C9.54036 35.8011 9.61038 35.7575 9.68252 35.7125C9.85375 35.6056 10.0246 35.4982 10.1954 35.3907C10.1492 35.2344 10.1028 35.0781 10.0563 34.9219C10.0241 34.8135 9.99193 34.705 9.95878 34.5932C9.87959 34.3352 9.79665 34.0782 9.71067 33.8224C9.24534 32.4161 8.95643 30.9837 8.672 29.5313C7.85989 29.5313 7.04778 29.5313 6.21106 29.5313Z" fill="url(#paint4_linear_158_5310)"/><path d="M8.06629 14.8164C8.50835 14.9318 8.8674 15.1597 9.25047 15.4027C9.42375 15.5092 9.5971 15.6155 9.77049 15.7218C9.85901 15.7766 9.94754 15.8315 10.0387 15.888C10.3152 16.0562 10.5947 16.2172 10.8764 16.3764C10.9672 16.4281 11.058 16.4797 11.1516 16.533C11.3262 16.6321 11.5013 16.7305 11.6768 16.8279C11.9878 17.0068 12.2565 17.1639 12.4772 17.4508C12.6398 18.0937 12.5124 18.5297 12.2314 19.1161C11.4544 20.8228 10.9567 22.7074 10.729 24.5667C10.7124 24.7016 10.6958 24.8365 10.6787 24.9755C10.6669 25.0942 10.6551 25.2129 10.643 25.3353C10.5091 25.7931 10.3399 25.9581 9.96092 26.2499C9.57247 26.3349 9.19274 26.3293 8.79637 26.3236C8.62803 26.324 8.62803 26.324 8.45628 26.3244C8.21949 26.3243 7.98269 26.3228 7.74592 26.3198C7.38398 26.3158 7.02239 26.3174 6.66044 26.3197C6.43004 26.3189 6.19963 26.3178 5.96922 26.3163C5.8613 26.3168 5.75337 26.3174 5.64218 26.318C5.15068 26.309 4.87275 26.2906 4.44352 26.0337C4.04056 25.581 4.14572 25.0548 4.17021 24.4829C4.3595 21.9005 5.04561 19.3943 5.99119 16.9921C6.02779 16.899 6.06438 16.8059 6.10209 16.71C6.95173 14.6413 6.95173 14.6413 8.06629 14.8164ZM8.08592 17.2265C7.14635 19.5004 6.46634 21.8057 6.21092 24.2577C7.02303 24.2577 7.83514 24.2577 8.67186 24.2577C8.71446 24.0538 8.75706 23.8498 8.80095 23.6397C9.10893 22.1943 9.43655 20.783 9.93757 19.3917C10.0527 19.0578 10.1383 18.7458 10.1953 18.3983C9.95395 18.2464 9.71221 18.0951 9.4702 17.9442C9.36857 17.8801 9.36857 17.8801 9.26489 17.8147C8.88247 17.577 8.51007 17.3782 8.08592 17.2265Z" fill="url(#paint5_linear_158_5310)"/><path d="M28.147 0.900761C28.2288 0.897363 28.3106 0.893964 28.3949 0.890462C28.7582 0.885967 29.0099 0.903831 29.3194 1.1012C29.6465 1.57198 29.6006 2.02433 29.5976 2.58487C29.5984 2.69987 29.5991 2.81487 29.5998 2.93335C29.6007 3.17635 29.6003 3.41936 29.5988 3.66236C29.5972 4.03384 29.6012 4.40497 29.6056 4.77642C29.6058 5.0127 29.6055 5.24898 29.605 5.48526C29.6065 5.59612 29.6081 5.70697 29.6097 5.82119C29.6023 6.34556 29.5861 6.60318 29.2735 7.03874C28.9259 7.27893 28.7241 7.35435 28.3081 7.40055C28.1851 7.41616 28.0621 7.43178 27.9354 7.44787C27.8046 7.46262 27.6738 7.47736 27.5391 7.49256C25.6445 7.74557 23.8615 8.18985 22.1265 8.99997C21.6966 9.18325 21.3697 9.29641 20.9106 9.18445C20.3267 8.85502 20.0313 8.24739 19.7086 7.67887C19.6682 7.60798 19.6278 7.53709 19.5861 7.46405C19.4583 7.23944 19.3312 7.01444 19.2041 6.78943C19.1179 6.63796 19.0317 6.48652 18.9455 6.3351C18.7226 5.94292 18.4999 5.55068 18.2813 5.15613C18.2338 5.07192 18.1864 4.98772 18.1376 4.90096C17.9796 4.52905 18.0621 4.24756 18.1641 3.86707C20.1027 2.01593 23.8223 1.45218 26.3672 1.05457C26.5053 1.03221 26.6433 1.00986 26.7856 0.986821C27.2414 0.930757 27.6882 0.907223 28.147 0.900761ZM20.5078 4.80457C20.6869 5.30518 20.9432 5.74128 21.2256 6.18885C21.2692 6.25886 21.3129 6.32888 21.3579 6.40102C21.4647 6.57226 21.5722 6.74314 21.6797 6.91394C21.7531 6.88861 21.8265 6.86328 21.9021 6.83718C23.7615 6.20223 25.6048 5.73291 27.5391 5.39051C27.5391 4.5784 27.5391 3.76629 27.5391 2.92957C25.2039 2.92957 22.626 3.88703 20.5078 4.80457Z" fill="url(#paint6_linear_158_5310)"/><path d="M6.10474 43.4284C6.32812 43.4764 6.32812 43.4764 6.62109 43.6522C6.86941 44.0661 6.89044 44.412 6.79688 44.8827C6.61377 45.1757 6.61377 45.1757 6.32812 45.3514C5.92529 45.4174 5.92529 45.4174 5.50781 45.3514C5.11093 45.0643 4.94684 44.8986 4.85596 44.4139C4.99806 43.6561 5.35832 43.3741 6.10474 43.4284Z" fill="url(#paint7_linear_158_5310)"/><defs><linearGradient id="paint0_linear_158_5310" x1="1.42871" y1="47.9716" x2="51.5901" y2="47.9716" gradientUnits="userSpaceOnUse"><stop stop-color="#0568EA"/><stop offset="1" stop-color="#08B5F7"/></linearGradient><linearGradient id="paint1_linear_158_5310" x1="30.7441" y1="18.6274" x2="58.6159" y2="18.6274" gradientUnits="userSpaceOnUse"><stop stop-color="#0568EA"/><stop offset="1" stop-color="#08B5F7"/></linearGradient><linearGradient id="paint2_linear_158_5310" x1="18.8501" y1="23.2687" x2="43.8647" y2="23.2687" gradientUnits="userSpaceOnUse"><stop stop-color="#0568EA"/><stop offset="1" stop-color="#08B5F7"/></linearGradient><linearGradient id="paint3_linear_158_5310" x1="8.30908" y1="10.599" x2="19.481" y2="10.599" gradientUnits="userSpaceOnUse"><stop stop-color="#0568EA"/><stop offset="1" stop-color="#08B5F7"/></linearGradient><linearGradient id="paint4_linear_158_5310" x1="4.17139" y1="33.2409" x2="12.5462" y2="33.2409" gradientUnits="userSpaceOnUse"><stop stop-color="#0568EA"/><stop offset="1" stop-color="#08B5F7"/></linearGradient><linearGradient id="paint5_linear_158_5310" x1="4.13965" y1="20.5364" x2="12.5489" y2="20.5364" gradientUnits="userSpaceOnUse"><stop stop-color="#0568EA"/><stop offset="1" stop-color="#08B5F7"/></linearGradient><linearGradient id="paint6_linear_158_5310" x1="18.0493" y1="5.05943" x2="29.6097" y2="5.05943" gradientUnits="userSpaceOnUse"><stop stop-color="#0568EA"/><stop offset="1" stop-color="#08B5F7"/></linearGradient><linearGradient id="paint7_linear_158_5310" x1="4.85596" y1="44.4114" x2="6.84817" y2="44.4114" gradientUnits="userSpaceOnUse"><stop stop-color="#0568EA"/><stop offset="1" stop-color="#08B5F7"/></linearGradient></defs></svg>