<svg xmlns="http://www.w3.org/2000/svg" width="60" height="60" viewBox="0 0 60 60" fill="none"><path d="M31.8112 2.15147C32.5184 2.60771 33.1324 3.18137 33.7498 3.74998C33.8194 3.81371 33.8889 3.87744 33.9606 3.9431C34.2257 4.18639 34.4907 4.42985 34.7531 4.67604C34.9253 4.83738 35.0993 4.99683 35.2733 5.15623C35.3683 5.25798 35.4632 5.35972 35.5611 5.46455C36.0855 5.89491 36.6916 5.82084 37.3397 5.81201C37.4762 5.81248 37.6127 5.81296 37.7533 5.81345C38.0491 5.8141 38.3449 5.81339 38.6407 5.8115C39.1086 5.80852 39.5764 5.809 40.0442 5.81055C40.9525 5.81297 41.8608 5.81114 42.7691 5.80874C43.9261 5.80579 45.0831 5.80428 46.2401 5.80756C46.78 5.80891 47.3198 5.8065 47.8598 5.80341C48.1418 5.80371 48.4239 5.80412 48.7059 5.80469C48.8346 5.80317 48.9633 5.80167 49.0959 5.80011C49.2139 5.80089 49.3318 5.80168 49.4534 5.80248C49.5557 5.80216 49.6581 5.80183 49.7635 5.80149C50.1307 5.87867 50.2706 6.04443 50.5076 6.32811C50.6433 6.59943 50.6375 6.74753 50.6339 7.04913C50.633 7.15112 50.6321 7.25311 50.6312 7.3582C50.6297 7.47039 50.6281 7.58258 50.6266 7.69817C50.6243 7.94278 50.6221 8.1874 50.6199 8.43202C50.6186 8.56224 50.6173 8.69247 50.6159 8.82664C50.6088 9.66039 50.6087 10.4942 50.6074 11.3279C50.6058 12.0606 50.6018 12.7931 50.5923 13.5257C50.5832 14.2342 50.5811 14.9424 50.5836 15.651C50.5833 15.9204 50.5805 16.1899 50.5752 16.4593C50.4859 17.9708 50.4859 17.9708 51.0487 19.3125C51.3805 19.6464 51.7527 19.9017 52.1483 20.1562C52.3119 20.2949 52.4738 20.4358 52.6317 20.581C52.7045 20.6442 52.7773 20.7073 52.8523 20.7724C53.2285 21.1014 53.5983 21.4376 53.9692 21.7726C54.2342 22.0102 54.5015 22.2447 54.7703 22.478C55.6085 23.2095 55.6085 23.2095 55.7811 23.5547C55.7924 23.7212 55.7964 23.8882 55.7968 24.0551C55.7973 24.1608 55.7978 24.2664 55.7984 24.3753C55.7983 24.5505 55.7983 24.5505 55.7983 24.7293C55.7987 24.8529 55.7992 24.9764 55.7996 25.1037C55.8009 25.5205 55.8014 25.9373 55.8018 26.354C55.8025 26.6518 55.8033 26.9495 55.8041 27.2473C55.8064 28.1432 55.8076 29.039 55.8087 29.9349C55.8092 30.357 55.8098 30.7791 55.8104 31.2013C55.8124 32.6051 55.8141 34.009 55.815 35.4129C55.8152 35.7774 55.8154 36.1418 55.8157 36.5063C55.8157 36.5969 55.8158 36.6875 55.8158 36.7808C55.8168 38.2461 55.8198 39.7114 55.8236 41.1767C55.8275 42.682 55.8296 44.1872 55.8299 45.6925C55.8302 46.5373 55.8312 47.3821 55.8342 48.2268C55.837 49.0224 55.8374 49.8179 55.8362 50.6135C55.8362 50.9048 55.8369 51.1961 55.8385 51.4874C55.8578 55.1822 55.8578 55.1822 54.492 56.7187C53.2644 57.9251 51.8617 58.213 50.1986 58.1994C50.0167 58.2001 49.8347 58.201 49.6528 58.2022C49.1562 58.2046 48.6598 58.2034 48.1633 58.2016C47.6265 58.2002 47.0897 58.2023 46.5528 58.2039C45.5026 58.2065 44.4524 58.206 43.4021 58.2043C42.5483 58.2029 41.6945 58.2028 40.8406 58.2034C40.7189 58.2035 40.5972 58.2036 40.4719 58.2037C40.2246 58.2038 39.9774 58.204 39.7301 58.2042C37.4137 58.2059 35.0973 58.204 32.7809 58.2008C30.7949 58.1982 28.8089 58.1987 26.8229 58.2014C24.5146 58.2045 22.2063 58.2057 19.8979 58.2039C19.6516 58.2038 19.4053 58.2036 19.159 58.2034C18.9772 58.2033 18.9772 58.2033 18.7918 58.2031C17.9393 58.2026 17.0869 58.2035 16.2345 58.2048C15.1951 58.2065 14.1557 58.206 13.1164 58.2029C12.5864 58.2014 12.0566 58.2008 11.5266 58.2027C11.0408 58.2045 10.5551 58.2035 10.0694 58.2004C9.89431 58.1997 9.71925 58.2001 9.5442 58.2015C7.97626 58.2133 6.65017 57.8415 5.50763 56.7187C4.04372 55.0718 4.15094 53.1573 4.15977 51.0844C4.15933 50.7872 4.15868 50.4901 4.15785 50.1929C4.15639 49.4728 4.1571 48.7527 4.15887 48.0326C4.16085 47.1934 4.16047 46.3541 4.16003 45.5148C4.15934 44.0176 4.16099 42.5204 4.16389 41.0232C4.1667 39.5711 4.16752 38.1191 4.16629 36.6671C4.16496 35.0835 4.16473 33.4999 4.16642 31.9163C4.1666 31.7475 4.16678 31.5787 4.16696 31.4099C4.16704 31.3268 4.16713 31.2438 4.16722 31.1583C4.16778 30.5734 4.16756 29.9886 4.16706 29.4037C4.16643 28.6173 4.16769 27.8309 4.17022 27.0444C4.17088 26.7556 4.17093 26.4667 4.17035 26.1778C4.16965 25.7842 4.17111 25.3907 4.17313 24.9971C4.17243 24.8822 4.17172 24.7673 4.171 24.6489C4.17752 23.9531 4.25296 23.5226 4.7601 23.0118C4.83034 22.9541 4.90059 22.8964 4.97296 22.8369C5.39524 22.4807 5.80506 22.1131 6.21075 21.7383C6.59743 21.3821 6.9853 21.0279 7.38263 20.6836C7.48308 20.5914 7.48308 20.5914 7.58556 20.4974C7.85138 20.2734 7.85138 20.2734 8.19933 20.0508C8.71701 19.6767 9.15711 19.3374 9.33773 18.703C9.46429 17.8596 9.43022 17.0078 9.41235 16.1577C9.41176 15.8821 9.41183 15.6066 9.41252 15.3311C9.41273 14.6089 9.40477 13.887 9.39485 13.1649C9.38415 12.2856 9.3824 11.4063 9.3801 10.527C9.37825 9.84344 9.37482 9.15999 9.36646 8.47644C9.36533 8.3511 9.3642 8.22575 9.36304 8.09661C9.36092 7.86266 9.35791 7.62872 9.35384 7.3948C9.35311 7.29149 9.35239 7.18819 9.35164 7.08176C9.35046 6.99226 9.34929 6.90277 9.34807 6.81056C9.3794 6.51989 9.45255 6.34007 9.60919 6.09373C9.9904 5.83959 10.0882 5.83096 10.5274 5.8354C10.7026 5.83623 10.7026 5.83623 10.8813 5.83708C11.0093 5.83885 11.1373 5.84062 11.2692 5.84245C11.549 5.8443 11.8288 5.84615 12.1086 5.848C12.3317 5.85012 12.3317 5.85012 12.5593 5.85228C13.0249 5.85618 13.4904 5.85788 13.9561 5.85854C14.0741 5.85873 14.0741 5.85873 14.1945 5.85892C14.3555 5.85917 14.5164 5.85942 14.6774 5.85965C15.7611 5.86139 16.8447 5.86506 17.9283 5.87661C18.6596 5.88438 19.3907 5.88752 20.122 5.88545C20.5085 5.88455 20.8945 5.88664 21.281 5.893C23.1089 5.99823 23.1089 5.99823 24.7191 5.29174C24.9811 5.03065 25.2058 4.74716 25.4295 4.45311C25.5869 4.30735 25.7473 4.16463 25.9129 4.0283C26.1626 3.81372 26.4052 3.59639 26.6435 3.36912C28.016 2.07331 29.9752 1.27808 31.8112 2.15147ZM27.0701 5.74217C27.0701 5.78084 27.0701 5.81952 27.0701 5.85936C29.0037 5.85936 30.9373 5.85936 32.9295 5.85936C32.2734 5.03919 31.3793 4.03693 30.3033 3.80675C28.9466 3.71448 27.9659 4.85312 27.0701 5.74217ZM11.367 7.85155C11.3332 11.2039 11.2993 14.5563 11.2645 18.0102C11.2495 19.067 11.2346 20.1238 11.2192 21.2126C11.2137 22.1636 11.2137 22.1636 11.2104 23.1145C11.2089 23.5368 11.2028 23.9587 11.1938 24.3808C11.1825 24.9209 11.1792 25.4604 11.1815 26.0005C11.181 26.1978 11.1778 26.395 11.1714 26.5922C11.1453 27.4403 11.1378 28.1505 11.7273 28.8095C12.0695 29.1465 12.4336 29.4481 12.8166 29.7376C13.0573 29.9206 13.2815 30.1194 13.5057 30.3223C13.5768 30.3836 13.648 30.4449 13.7213 30.5081C13.9876 30.7401 14.248 30.978 14.5091 31.2158C14.9048 31.5736 15.3083 31.9153 15.7249 32.2485C16.4357 32.823 17.0953 33.4479 17.7601 34.0745C18.1261 34.4192 18.4994 34.7536 18.8803 35.0816C19.1525 35.3178 19.4198 35.5592 19.6873 35.8008C20.314 36.3658 20.9463 36.9233 21.5884 37.4707C22.3549 38.1244 23.1118 38.7847 23.8543 39.4656C24.1008 39.6904 24.3498 39.911 24.6019 40.1294C25.0014 40.4764 25.3917 40.833 25.7811 41.1914C26.3212 41.6879 26.865 42.1783 27.4217 42.6562C27.5329 42.7546 27.6441 42.8529 27.7586 42.9542C28.8413 43.9001 28.8413 43.9001 30.2269 44.187C31.3948 43.9652 32.2804 42.898 33.1093 42.114C33.3966 41.8449 33.6942 41.5881 33.992 41.3306C34.2512 41.1043 34.5058 40.8733 34.7606 40.6421C35.2321 40.2161 35.7121 39.8014 36.1961 39.3896C36.7936 38.8809 37.3781 38.3606 37.9543 37.8279C38.3443 37.4672 38.7401 37.1147 39.1414 36.7666C39.417 36.5256 39.6889 36.2805 39.9608 36.0351C40.385 35.6523 40.8127 35.274 41.2439 34.899C41.5148 34.6606 41.7813 34.4177 42.0482 34.1748C42.4439 33.8169 42.8473 33.4753 43.264 33.1421C43.9748 32.5676 44.6344 31.9427 45.2992 31.3161C45.665 30.9716 46.0381 30.6373 46.4189 30.3094C46.7873 29.9897 47.1475 29.6607 47.5088 29.333C47.8123 29.0625 47.8123 29.0625 48.0181 28.9512C48.2966 28.7789 48.4497 28.6336 48.6326 28.3594C48.7568 27.7067 48.7363 27.0592 48.7258 26.397C48.7255 26.1916 48.7256 25.9862 48.7261 25.7807C48.7262 25.2313 48.7215 24.6819 48.7157 24.1325C48.711 23.6167 48.7108 23.1009 48.7102 22.5851C48.7059 21.0772 48.6945 19.5694 48.6839 18.0615C48.667 14.6922 48.6501 11.3229 48.6326 7.85155C36.335 7.85155 24.0373 7.85155 11.367 7.85155ZM50.6248 21.5625C50.6248 23.1867 50.6248 24.8109 50.6248 26.4844C51.2158 26.0949 51.2158 26.0949 51.739 25.6531C51.8435 25.5554 51.8435 25.5554 51.95 25.4558C52.0203 25.3891 52.0905 25.3225 52.1629 25.2539C52.2341 25.1873 52.3052 25.1207 52.3785 25.052C52.7375 24.715 53.0917 24.3742 53.4373 24.0234C52.5493 23.1141 51.6437 22.3267 50.6248 21.5625ZM8.73761 22.2583C8.41165 22.5552 8.08566 22.8516 7.7557 23.1441C7.65192 23.2361 7.54814 23.3281 7.44122 23.4228C7.34575 23.5071 7.25028 23.5914 7.15191 23.6783C6.89349 23.9092 6.89349 23.9092 6.6795 24.2578C7.06941 24.6102 7.46022 24.9615 7.85138 25.3125C7.98303 25.4314 7.98303 25.4314 8.11734 25.5528C8.19634 25.6234 8.27535 25.6939 8.35675 25.7666C8.42639 25.8291 8.49603 25.8917 8.56778 25.9561C8.83739 26.1796 8.83739 26.1796 9.37481 26.4844C9.37481 24.9375 9.37481 23.3906 9.37481 21.7969C9.13188 21.7969 8.90243 22.1079 8.73761 22.2583ZM6.21075 26.4844C6.20005 29.9429 6.19176 33.4014 6.18681 36.8599C6.18623 37.2685 6.18562 37.6772 6.185 38.0858C6.18488 38.1672 6.18476 38.2485 6.18463 38.3323C6.18259 39.6482 6.1789 40.9641 6.17459 42.28C6.1702 43.6309 6.16763 44.9819 6.16665 46.3329C6.16604 47.0914 6.1646 47.8499 6.16119 48.6084C6.158 49.3227 6.15703 50.037 6.15773 50.7512C6.1576 51.013 6.15667 51.2748 6.15487 51.5366C6.15253 51.895 6.15311 52.2532 6.15438 52.6115C6.15302 52.7144 6.15165 52.8172 6.15024 52.9231C6.15858 53.7937 6.37581 54.5915 6.93539 55.2722C7.02255 55.3435 7.10972 55.4148 7.19952 55.4883C7.32981 55.5988 7.32981 55.5988 7.46273 55.7117C8.19987 56.2188 9.01677 56.2645 9.8918 56.2651C10.1119 56.2656 10.1119 56.2656 10.3364 56.2662C10.4977 56.266 10.659 56.2659 10.8202 56.2657C10.9928 56.2659 11.1653 56.2661 11.3378 56.2665C11.8109 56.2672 12.284 56.2672 12.7571 56.267C13.2677 56.267 13.7784 56.2676 14.289 56.2682C15.289 56.2692 16.289 56.2695 17.2889 56.2696C18.1018 56.2696 18.9146 56.2699 19.7275 56.2702C22.0324 56.2713 24.3373 56.2718 26.6422 56.2717C26.7664 56.2717 26.8906 56.2717 27.0186 56.2717C27.2052 56.2717 27.2052 56.2717 27.3955 56.2717C29.4116 56.2716 31.4277 56.2728 33.4438 56.2744C35.5143 56.2761 37.5848 56.2769 39.6553 56.2768C40.8175 56.2768 41.9798 56.2771 43.1421 56.2783C44.1316 56.2794 45.121 56.2797 46.1105 56.2789C46.6152 56.2785 47.1199 56.2785 47.6246 56.2795C48.087 56.2804 48.5493 56.2803 49.0116 56.2792C49.1786 56.2791 49.3455 56.2793 49.5125 56.2799C50.862 56.2849 51.9362 56.2534 52.9686 55.3125C53.7199 54.5408 53.8413 53.667 53.8312 52.6397C53.8315 52.5274 53.8318 52.4151 53.8321 52.2994C53.8326 51.925 53.8307 51.5506 53.8288 51.1761C53.8287 50.907 53.8287 50.6378 53.8289 50.3687C53.829 49.6392 53.827 48.9098 53.8245 48.1804C53.8223 47.4176 53.8221 46.6549 53.8217 45.8921C53.8207 44.6122 53.8185 43.3324 53.8154 42.0525C53.8122 40.7346 53.8097 39.4166 53.8082 38.0987C53.8081 38.0174 53.808 37.9361 53.8079 37.8523C53.8074 37.4443 53.807 37.0364 53.8066 36.6284C53.8029 33.2471 53.7967 29.8657 53.7889 26.4844C53.7331 26.5323 53.6774 26.5803 53.62 26.6297C53.5466 26.6927 53.4731 26.7558 53.3975 26.8208C53.3248 26.8833 53.2522 26.9457 53.1773 27.0101C52.917 27.2313 52.6501 27.4436 52.3826 27.6562C51.6658 28.2396 50.9977 28.8706 50.3254 29.5042C49.9591 29.8492 49.5855 30.1841 49.2039 30.5122C48.9388 30.7426 48.6799 30.9793 48.4202 31.2158C48.0245 31.5736 47.621 31.9153 47.2044 32.2485C46.4936 32.823 45.834 33.4479 45.1692 34.0745C44.8032 34.4192 44.43 34.7536 44.049 35.0816C43.7768 35.3178 43.5095 35.5592 43.242 35.8008C42.8178 36.1836 42.3901 36.5619 41.9589 36.9369C41.688 37.1753 41.4215 37.4182 41.1546 37.6611C40.7538 38.0234 40.3452 38.3701 39.9241 38.7085C39.1612 39.3249 38.4486 39.9928 37.7342 40.664C38.0104 41.0217 38.2822 41.3397 38.6277 41.6308C38.9988 41.9481 39.3643 42.2701 39.7264 42.5976C40.3502 43.16 40.979 43.7157 41.6192 44.2593C42.4557 44.9705 43.2727 45.6974 44.0765 46.4451C44.6121 46.9415 45.1629 47.4182 45.7194 47.8908C46.4909 48.547 47.2491 49.2133 47.9904 49.9035C48.3947 50.28 48.8043 50.6483 49.2222 51.0095C49.6011 51.3402 49.9722 51.6796 50.3442 52.018C50.6244 52.2726 50.6244 52.2726 50.9457 52.5023C51.2279 52.7493 51.2937 52.8384 51.3279 53.2031C51.3279 53.6719 51.3279 53.6719 51.2034 53.9575C50.8868 54.2129 50.6792 54.2498 50.2733 54.2578C49.653 54.0102 49.2359 53.6302 48.7645 53.1738C48.619 53.0358 48.4734 52.8978 48.3278 52.76C48.2587 52.6943 48.1896 52.6286 48.1184 52.5609C47.8254 52.2847 47.522 52.0215 47.2172 51.7584C46.9438 51.5206 46.675 51.278 46.4061 51.0351C45.9818 50.6523 45.5541 50.274 45.123 49.899C44.8521 49.6606 44.5855 49.4177 44.3187 49.1748C43.9229 48.8169 43.5195 48.4753 43.1028 48.1421C42.392 47.5676 41.7324 46.9426 41.0676 46.3161C40.7012 45.9711 40.3277 45.6362 39.9461 45.3081C39.681 45.0777 39.4221 44.841 39.1624 44.6045C38.6492 44.1408 38.1189 43.7028 37.5813 43.2678C37.1125 42.8819 36.6606 42.478 36.2108 42.0703C35.7961 42.4245 35.3825 42.7796 34.973 43.1396C34.7996 43.291 34.6263 43.4424 34.4529 43.5937C34.392 43.6473 34.331 43.701 34.2681 43.7562C31.5868 46.1093 31.5868 46.1093 29.7805 46.0716C28.2786 45.9696 27.2842 45.1436 26.2283 44.1412C25.9594 43.8861 25.6875 43.6387 25.4075 43.396C24.9031 42.9585 24.4045 42.5145 23.9061 42.0703C23.3669 42.3587 22.9601 42.7359 22.5218 43.1543C22.3752 43.2923 22.2286 43.4303 22.0819 43.5681C22.0121 43.6338 21.9423 43.6995 21.8703 43.7672C21.5753 44.0426 21.2715 44.3071 20.9658 44.5706C20.6996 44.8026 20.4391 45.0405 20.178 45.2783C19.7823 45.6361 19.3789 45.9778 18.9622 46.311C18.2514 46.8855 17.5918 47.5104 16.927 48.137C16.561 48.4817 16.1878 48.8161 15.8069 49.1441C15.5346 49.3803 15.2673 49.6217 14.9998 49.8633C14.5756 50.2461 14.1479 50.6244 13.7167 50.9994C13.4458 51.2378 13.1793 51.4807 12.9124 51.7236C12.3959 52.1902 11.8632 52.6324 11.3208 53.0685C11.0404 53.2997 10.7756 53.5412 10.5101 53.789C10.1424 54.1117 9.88301 54.2804 9.37481 54.2578C9.04522 54.1406 9.04522 54.1406 8.78888 53.9062C8.65901 53.468 8.60844 53.2145 8.81314 52.7984C9.03905 52.4775 9.27669 52.2446 9.57257 51.9873C9.67695 51.8957 9.78133 51.8042 9.88888 51.7099C9.98994 51.6226 10.091 51.5353 10.1951 51.4453C10.3514 51.3086 10.5077 51.1719 10.6639 51.0351C10.7388 50.9699 10.8137 50.9046 10.8909 50.8374C11.1689 50.5931 11.4438 50.3456 11.7186 50.0976C12.1428 49.7148 12.5705 49.3365 13.0017 48.9615C13.2726 48.7231 13.5391 48.4802 13.806 48.2373C14.2017 47.8794 14.6051 47.5378 15.0218 47.2046C15.7326 46.6301 16.3922 46.0051 17.057 45.3786C17.423 45.0339 17.7962 44.6995 18.1772 44.3715C18.4494 44.1353 18.7167 43.8939 18.9842 43.6523C19.3335 43.3371 19.6841 43.0238 20.0389 42.7148C20.4 42.3999 20.7585 42.0823 21.1155 41.7627C21.2558 41.6371 21.2558 41.6371 21.3989 41.5091C21.6958 41.2349 21.9815 40.9515 22.2654 40.664C21.2982 39.7606 20.3287 38.865 19.3197 38.0081C18.5481 37.3517 17.7898 36.6853 17.0483 35.9949C16.6435 35.618 16.2333 35.2494 15.8151 34.8875C15.5406 34.6481 15.2702 34.4043 14.9998 34.1601C14.376 33.5977 13.7472 33.0421 13.107 32.4985C12.3358 31.8428 11.5782 31.1769 10.8374 30.487C10.4326 30.1102 10.0223 29.7416 9.60415 29.3797C9.32963 29.1403 9.05926 28.8965 8.78888 28.6523C8.36068 28.266 7.92993 27.8831 7.49478 27.5047C7.3302 27.3612 7.16641 27.2167 7.00314 27.0717C6.91809 26.9963 6.83304 26.9209 6.74542 26.8432C6.66823 26.7745 6.59103 26.7058 6.5115 26.635C6.35241 26.472 6.35241 26.472 6.21075 26.4844Z" fill="url(#paint0_linear_194_707)"/><path d="M17.5709 16.8586C17.7357 16.858 17.7357 16.858 17.9038 16.8575C18.2742 16.8565 18.6446 16.8563 19.015 16.8561C19.2796 16.8556 19.5442 16.855 19.8088 16.8544C20.5294 16.8528 21.25 16.8521 21.9705 16.8516C22.4203 16.8512 22.8701 16.8507 23.32 16.8502C24.565 16.8488 25.81 16.8476 27.0551 16.8472C27.1348 16.8472 27.2145 16.8471 27.2966 16.8471C27.3765 16.8471 27.4564 16.8471 27.5388 16.847C27.7007 16.847 27.8626 16.8469 28.0245 16.8469C28.1049 16.8468 28.1852 16.8468 28.2679 16.8468C29.5694 16.8463 30.8709 16.8443 32.1724 16.8416C33.5082 16.8388 34.8439 16.8374 36.1797 16.8372C36.9299 16.8371 37.68 16.8364 38.4302 16.8343C39.1357 16.8323 39.8412 16.8321 40.5467 16.8331C40.8059 16.8332 41.0652 16.8327 41.3244 16.8315C41.6777 16.8301 42.0311 16.8307 42.3844 16.832C42.4874 16.831 42.5904 16.8301 42.6966 16.8291C43.2473 16.8336 43.6166 16.8658 44.0625 17.2266C44.2464 17.5944 44.2209 17.8756 44.1797 18.2813C43.9472 18.6042 43.7611 18.8285 43.3615 18.921C43.0712 18.943 42.7862 18.9453 42.4951 18.9416C42.3284 18.943 42.3284 18.943 42.1584 18.9444C41.7858 18.9467 41.4134 18.9449 41.0408 18.943C40.7738 18.9438 40.5068 18.9449 40.2398 18.9461C39.5144 18.9488 38.7891 18.9478 38.0637 18.9459C37.3051 18.9444 36.5465 18.9458 35.7879 18.9467C34.4323 18.9479 33.0767 18.946 31.7211 18.9431C30.492 18.9404 29.263 18.9409 28.034 18.9436C26.6066 18.9467 25.1793 18.9479 23.7519 18.9462C22.9963 18.9453 22.2408 18.9451 21.4853 18.9471C20.775 18.9488 20.0648 18.9476 19.3546 18.9442C19.0937 18.9434 18.8328 18.9437 18.5719 18.9449C18.2161 18.9465 17.8606 18.9445 17.5049 18.9416C17.4012 18.9429 17.2976 18.9442 17.1907 18.9456C16.6793 18.9374 16.4683 18.9144 16.0487 18.5957C15.8203 18.2813 15.8203 18.2813 15.7544 17.8638C15.8295 17.4046 15.9252 17.2705 16.2891 16.9922C16.6852 16.7941 17.1352 16.8581 17.5709 16.8586Z" fill="url(#paint1_linear_194_707)"/><path d="M17.5047 25.4725C17.6714 25.4711 17.6714 25.4711 17.8414 25.4697C18.214 25.4674 18.5864 25.4692 18.959 25.4711C19.226 25.4703 19.493 25.4692 19.7599 25.4679C20.4853 25.4653 21.2107 25.4663 21.9361 25.4682C22.6947 25.4697 23.4533 25.4683 24.2118 25.4674C25.5675 25.4662 26.9231 25.468 28.2787 25.471C29.5077 25.4736 30.7367 25.4732 31.9658 25.4705C33.3931 25.4673 34.8205 25.4662 36.2479 25.4679C37.0034 25.4688 37.7589 25.4689 38.5145 25.467C39.2247 25.4653 39.9349 25.4665 40.6452 25.4699C40.9061 25.4707 41.167 25.4704 41.4279 25.4691C41.7836 25.4675 42.1392 25.4695 42.4949 25.4725C42.5985 25.4712 42.7022 25.4699 42.809 25.4685C43.3206 25.4767 43.5311 25.4993 43.9501 25.8189C44.1795 26.1328 44.1795 26.1328 44.26 26.543C44.1723 26.9896 44.0527 27.1422 43.6978 27.4182C43.2762 27.6483 42.8418 27.6182 42.3717 27.6111C42.2614 27.6118 42.151 27.6124 42.0374 27.6131C41.6681 27.6146 41.299 27.612 40.9297 27.6093C40.6649 27.6095 40.4 27.61 40.1351 27.6107C39.416 27.6119 38.6969 27.6094 37.9779 27.6062C37.2258 27.6034 36.4737 27.6037 35.7217 27.6037C34.4589 27.6032 33.1962 27.6004 31.9334 27.5961C30.6341 27.5918 29.3349 27.5893 28.0356 27.5889C27.9155 27.5889 27.9155 27.5889 27.793 27.5889C27.6731 27.5888 27.6731 27.5888 27.5508 27.5888C27.3899 27.5888 27.229 27.5887 27.068 27.5887C26.9887 27.5886 26.9093 27.5886 26.8276 27.5886C25.5144 27.5882 24.2013 27.5857 22.8881 27.5833C22.4397 27.5825 21.9913 27.5821 21.5429 27.5818C20.839 27.5811 20.1351 27.5792 19.4312 27.5763C19.1725 27.5754 18.9138 27.5749 18.6551 27.5749C18.3028 27.5747 17.9505 27.5732 17.5981 27.5712C17.4951 27.5715 17.392 27.5718 17.2859 27.572C17.1915 27.5712 17.0971 27.5704 16.9999 27.5695C16.9186 27.5693 16.8372 27.5691 16.7535 27.5688C16.4745 27.5328 16.2926 27.4538 16.0545 27.3047C15.7615 26.8652 15.7573 26.6533 15.8201 26.1328C16.3033 25.4641 16.7405 25.4628 17.5047 25.4725Z" fill="url(#paint2_linear_194_707)"/><path d="M17.2452 29.8092C17.3424 29.8083 17.4396 29.8075 17.5398 29.8066C17.8661 29.8046 18.1922 29.8067 18.5184 29.8088C18.7521 29.8082 18.9858 29.8074 19.2194 29.8063C19.8545 29.8041 20.4896 29.8056 21.1247 29.8079C21.7887 29.8099 22.4527 29.8088 23.1167 29.8082C24.2319 29.8077 25.3471 29.8096 26.4623 29.8128C27.7523 29.8166 29.0424 29.8166 30.3325 29.8146C31.5725 29.8127 32.8125 29.8135 34.0525 29.8155C34.5807 29.8163 35.1089 29.8162 35.6371 29.8153C36.2588 29.8144 36.8805 29.8158 37.5023 29.819C37.7308 29.8199 37.9592 29.8199 38.1877 29.819C38.499 29.818 38.8102 29.8199 39.1216 29.8225C39.2579 29.821 39.2579 29.821 39.397 29.8195C39.8109 29.826 40.0356 29.8502 40.3682 30.1063C40.5617 30.3722 40.6104 30.4954 40.6053 30.8203C40.6071 30.9363 40.6071 30.9363 40.6089 31.0547C40.515 31.4084 40.3679 31.5345 40.0779 31.7578C39.7441 31.8041 39.4554 31.8216 39.1216 31.8181C38.9758 31.8193 38.9758 31.8193 38.827 31.8206C38.5008 31.8227 38.1746 31.8215 37.8484 31.8203C37.6147 31.8211 37.381 31.8221 37.1474 31.8234C36.5123 31.826 35.8772 31.8256 35.2421 31.8246C34.7124 31.824 34.1826 31.8249 33.6529 31.8257C32.4034 31.8277 31.154 31.8273 29.9045 31.8253C28.6145 31.8233 27.3244 31.8252 26.0343 31.829C24.9275 31.8321 23.8208 31.833 22.714 31.832C22.0525 31.8314 21.3912 31.8317 20.7297 31.8341C20.108 31.8362 19.4863 31.8355 18.8645 31.8326C18.636 31.832 18.4076 31.8325 18.1791 31.8339C17.8677 31.8358 17.5566 31.8341 17.2452 31.8314C17.1543 31.8328 17.0635 31.8342 16.9698 31.8356C16.5215 31.8278 16.3289 31.7958 15.9984 31.4822C15.7788 31.0999 15.7477 30.9031 15.8201 30.4687C16.1849 29.8337 16.5611 29.7987 17.2452 29.8092Z" fill="url(#paint3_linear_194_707)"/><path d="M23.2316 12.5085C23.3601 12.5078 23.3601 12.5078 23.4911 12.5071C23.7782 12.5059 24.0652 12.5064 24.3523 12.5068C24.5581 12.5063 24.7639 12.5057 24.9697 12.505C25.5287 12.5035 26.0878 12.5034 26.6468 12.5037C27.1134 12.5038 27.5799 12.5032 28.0465 12.5027C29.147 12.5014 30.2476 12.5013 31.3481 12.502C32.4839 12.5027 33.6197 12.5013 34.7554 12.4988C35.7303 12.4967 36.7051 12.496 37.6799 12.4964C38.2623 12.4966 38.8446 12.4963 39.427 12.4947C39.9746 12.4932 40.5221 12.4934 41.0697 12.495C41.2708 12.4953 41.4718 12.4949 41.6728 12.494C41.9471 12.4927 42.2214 12.4937 42.4957 12.4952C42.6493 12.4952 42.8028 12.4951 42.961 12.4951C43.3893 12.5423 43.6061 12.6298 43.9453 12.8906C44.2202 13.3029 44.2476 13.4599 44.1797 13.9453C43.8684 14.3471 43.694 14.5131 43.188 14.6046C43.0295 14.6077 42.8709 14.6075 42.7123 14.6048C42.6246 14.6057 42.5368 14.6065 42.4464 14.6074C42.1529 14.6094 41.8596 14.6073 41.5661 14.6052C41.3554 14.6058 41.1448 14.6066 40.9342 14.6077C40.3626 14.6099 39.791 14.6084 39.2193 14.6061C38.6213 14.6041 38.0233 14.6052 37.4253 14.6058C36.4211 14.6063 35.417 14.6044 34.4129 14.6012C33.2515 14.5974 32.0901 14.5974 30.9287 14.5994C29.8119 14.6013 28.695 14.6005 27.5782 14.5985C27.1027 14.5977 26.6272 14.5978 26.1517 14.5987C25.5919 14.5996 25.0323 14.5982 24.4726 14.595C24.267 14.5942 24.0614 14.5941 23.8558 14.595C23.5755 14.596 23.2953 14.5941 23.015 14.5915C22.8925 14.593 22.8925 14.593 22.7675 14.5945C22.3785 14.5878 22.1789 14.5546 21.8668 14.3146C21.6229 13.9859 21.5708 13.7679 21.5625 13.3593C21.7021 13.036 21.8157 12.84 22.1087 12.6416C22.4904 12.4988 22.8241 12.5091 23.2316 12.5085Z" fill="url(#paint4_linear_194_707)"/><path d="M17.2694 21.1373C17.398 21.136 17.398 21.136 17.5292 21.1348C17.816 21.1327 18.1025 21.1348 18.3893 21.137C18.5951 21.1363 18.8009 21.1355 19.0067 21.1344C19.5653 21.1322 20.1238 21.1338 20.6824 21.1361C21.2669 21.138 21.8514 21.1369 22.4359 21.1364C23.4175 21.1358 24.3991 21.1377 25.3807 21.141C26.5156 21.1447 27.6504 21.1447 28.7854 21.1427C29.877 21.1408 30.9687 21.1416 32.0604 21.1436C32.525 21.1444 32.9896 21.1443 33.4542 21.1434C34.0014 21.1425 34.5484 21.144 35.0956 21.1472C35.2964 21.148 35.4972 21.148 35.698 21.1471C35.9721 21.1461 36.2461 21.148 36.5202 21.1506C36.7503 21.1511 36.7503 21.1511 36.985 21.1516C37.4497 21.2208 37.6433 21.3464 37.969 21.6797C38.1139 22.1054 38.1266 22.2939 37.9397 22.705C37.7346 22.9687 37.7346 22.9687 37.3831 23.2031C37.0138 23.2336 37.0138 23.2336 36.5484 23.2352C36.4628 23.2358 36.3773 23.2365 36.2891 23.2371C36.0017 23.2388 35.7143 23.2389 35.4269 23.239C35.2211 23.2399 35.0153 23.2409 34.8096 23.242C34.25 23.2445 33.6905 23.2456 33.1309 23.2462C32.7815 23.2466 32.432 23.2473 32.0826 23.2481C30.8639 23.251 29.6453 23.2525 28.4266 23.253C27.2899 23.2534 26.1533 23.2569 25.0167 23.2618C24.0414 23.2659 23.066 23.2677 22.0907 23.2678C21.508 23.2679 20.9252 23.2689 20.3425 23.2722C19.7944 23.2753 19.2464 23.2755 18.6983 23.2737C18.4971 23.2734 18.2959 23.2742 18.0947 23.2761C17.82 23.2785 17.5456 23.2773 17.2709 23.2751C17.1172 23.2754 16.9636 23.2756 16.8052 23.2758C16.3029 23.1842 16.1298 23.0161 15.8206 22.6172C15.7473 22.207 15.7473 22.207 15.8206 21.7968C16.2624 21.2273 16.5598 21.1376 17.2694 21.1373Z" fill="url(#paint5_linear_194_707)"/><path d="M41.8947 21.145C42.1265 21.1408 42.1265 21.1408 42.363 21.1365C42.5118 21.1368 42.6606 21.137 42.8139 21.1372C42.9495 21.1371 43.0851 21.1371 43.2247 21.137C43.7048 21.2331 43.8803 21.4169 44.1799 21.7969C44.2425 22.2429 44.245 22.4993 44.0261 22.8955C43.4902 23.4116 42.5421 23.2346 41.8508 23.2397C41.7008 23.2431 41.5508 23.2465 41.3962 23.25C41.1794 23.2515 41.1794 23.2515 40.9581 23.253C40.826 23.2547 40.6938 23.2564 40.5576 23.2582C40.1166 23.1911 39.9237 23.0451 39.6096 22.7344C39.5317 22.4744 39.5317 22.4744 39.5363 22.207C39.5348 22.1188 39.5333 22.0306 39.5317 21.9397C39.8352 20.9258 41.0666 21.1381 41.8947 21.145Z" fill="url(#paint6_linear_194_707)"/><path d="M17.9739 12.5098C18.0959 12.5074 18.218 12.505 18.3437 12.5025C19.4727 12.4967 19.4727 12.4967 19.9221 12.8906C20.1055 13.2574 20.121 13.6654 20.0393 14.0625C19.7816 14.394 19.6418 14.5184 19.2236 14.5938C18.7922 14.5979 18.3613 14.6009 17.9299 14.5972C17.7795 14.6 17.629 14.6028 17.474 14.6057C17.3296 14.6054 17.1852 14.6052 17.0364 14.605C16.9043 14.6051 16.7723 14.6051 16.6363 14.6052C16.2893 14.5313 16.2893 14.5313 16.0119 14.2598C15.761 13.8475 15.7515 13.5998 15.8205 13.125C16.3809 12.3907 17.1304 12.5139 17.9739 12.5098Z" fill="url(#paint7_linear_194_707)"/><defs><linearGradient id="paint0_linear_194_707" x1="4.15479" y1="29.995" x2="55.8424" y2="29.995" gradientUnits="userSpaceOnUse"><stop stop-color="#0568EA"/><stop offset="1" stop-color="#08B5F7"/></linearGradient><linearGradient id="paint1_linear_194_707" x1="15.7544" y1="17.8885" x2="44.2093" y2="17.8885" gradientUnits="userSpaceOnUse"><stop stop-color="#0568EA"/><stop offset="1" stop-color="#08B5F7"/></linearGradient><linearGradient id="paint2_linear_194_707" x1="15.7876" y1="26.5413" x2="44.26" y2="26.5413" gradientUnits="userSpaceOnUse"><stop stop-color="#0568EA"/><stop offset="1" stop-color="#08B5F7"/></linearGradient><linearGradient id="paint3_linear_194_707" x1="15.7852" y1="30.8204" x2="40.6089" y2="30.8204" gradientUnits="userSpaceOnUse"><stop stop-color="#0568EA"/><stop offset="1" stop-color="#08B5F7"/></linearGradient><linearGradient id="paint4_linear_194_707" x1="21.5625" y1="13.5511" x2="44.211" y2="13.5511" gradientUnits="userSpaceOnUse"><stop stop-color="#0568EA"/><stop offset="1" stop-color="#08B5F7"/></linearGradient><linearGradient id="paint5_linear_194_707" x1="15.7656" y1="22.2054" x2="38.0788" y2="22.2054" gradientUnits="userSpaceOnUse"><stop stop-color="#0568EA"/><stop offset="1" stop-color="#08B5F7"/></linearGradient><linearGradient id="paint6_linear_194_707" x1="39.5317" y1="22.1935" x2="44.2166" y2="22.1935" gradientUnits="userSpaceOnUse"><stop stop-color="#0568EA"/><stop offset="1" stop-color="#08B5F7"/></linearGradient><linearGradient id="paint7_linear_194_707" x1="15.7837" y1="13.5535" x2="20.0865" y2="13.5535" gradientUnits="userSpaceOnUse"><stop stop-color="#0568EA"/><stop offset="1" stop-color="#08B5F7"/></linearGradient></defs></svg>