<svg xmlns="http://www.w3.org/2000/svg" width="60" height="60" viewBox="0 0 60 60" fill="none"><path d="M17.7294 4.80173C18.9621 5.72296 20.0281 6.87738 21.1148 7.96147C21.4086 8.25414 21.7036 8.54552 21.9987 8.83692C22.1883 9.02582 22.3779 9.2148 22.5675 9.40386C22.6544 9.48934 22.7413 9.57483 22.8309 9.66291C24.301 11.1392 25.1425 12.8096 25.2394 14.9048C25.1941 16.8862 24.3768 18.4524 23.0261 19.8482C22.4936 20.4109 22.2502 20.799 22.2292 21.5845C22.2248 21.6901 22.2204 21.7957 22.2159 21.9045C22.3415 22.8135 22.9628 23.571 23.4816 24.3018C23.5534 24.4035 23.6252 24.5052 23.6992 24.6099C25.0831 26.5541 26.5521 28.4842 28.2716 30.1465C28.4847 30.3596 28.6779 30.5827 28.8722 30.813C29.2654 31.2692 29.698 31.664 30.1498 32.0613C30.4274 32.307 30.6988 32.5579 30.969 32.8114C31.7115 33.5048 32.4899 34.1393 33.2974 34.7552C33.445 34.8679 33.5923 34.981 33.7392 35.0945C34.6226 35.777 35.5204 36.4318 36.4528 37.0459C36.5741 37.127 36.5741 37.127 36.6978 37.2098C37.3909 37.6577 38.0553 37.9458 38.9009 37.8049C39.5091 37.6261 39.9562 37.2996 40.3516 36.8102C40.6585 36.4317 41.0154 36.1621 41.4259 35.9033C41.4977 35.8581 41.5695 35.8129 41.6434 35.7662C43.248 34.7938 45.0963 34.599 46.9113 35.0249C47.9792 35.3492 48.8572 35.8098 49.6629 36.5785C49.7269 36.6386 49.7908 36.6986 49.8566 36.7605C50.0749 36.9667 50.2917 37.1745 50.508 37.3828C50.5888 37.4607 50.6697 37.5385 50.753 37.6187C51.295 38.1423 51.8325 38.6704 52.3674 39.2012C52.5538 39.3857 52.7408 39.5695 52.9284 39.7526C54.7714 41.5523 56.2737 43.2318 56.3088 45.9375C56.299 46.8994 56.1652 47.7425 55.7814 48.6328C55.7171 48.7899 55.7171 48.7899 55.6514 48.9501C55.177 49.9502 54.3978 50.7041 53.6301 51.4837C53.4694 51.6474 53.3115 51.8138 53.1543 51.9809C50.8064 54.4389 47.5344 56.1661 44.1016 56.2779C40.0446 56.3472 37.1397 55.0489 33.8673 52.7344C33.7795 52.6724 33.6917 52.6104 33.6012 52.5465C31.5524 51.0954 29.5567 49.5723 27.6197 47.9751C27.4412 47.8283 27.2616 47.6828 27.0819 47.5374C25.8063 46.5053 24.5708 45.4273 23.3705 44.3087C23.0418 44.0025 22.7099 43.7024 22.3683 43.4107C21.9237 43.027 21.5138 42.6107 21.1016 42.193C20.7963 41.8851 20.4863 41.5899 20.1564 41.3086C19.3047 40.5794 18.5248 39.7699 17.798 38.9173C17.5216 38.6086 17.2285 38.3182 16.9338 38.0274C16.4971 37.5959 16.0785 37.1563 15.6799 36.6893C15.4252 36.3948 15.1614 36.1093 14.8976 35.8228C14.4206 35.2998 13.9687 34.7622 13.5243 34.2114C13.2074 33.8246 12.8812 33.4468 12.5539 33.0689C11.9243 32.3385 11.3213 31.5912 10.733 30.8273C10.5999 30.6546 10.4664 30.4821 10.3327 30.3098C9.33923 29.0293 8.38552 27.7319 7.48048 26.3873C7.21095 25.9874 6.93122 25.5969 6.64323 25.21C4.77908 22.6644 3.69823 19.9684 3.71354 16.7871C3.7142 16.6428 3.71486 16.4985 3.71554 16.3498C3.76644 12.525 5.4958 9.43255 8.16406 6.78385C8.37255 6.57636 8.57874 6.36676 8.78487 6.15694C11.1715 3.75545 14.7393 2.69772 17.7294 4.80173ZM11.9533 6.21095C11.8639 6.26428 11.7744 6.3176 11.6823 6.37255C8.79233 8.27128 6.71755 11.2097 5.85954 14.5313C5.29608 17.5102 5.90316 20.5139 7.58073 23.02C7.73275 23.2411 7.88669 23.4607 8.0421 23.6794C8.20747 23.9121 8.37055 24.1464 8.53333 24.381C10.794 27.6255 13.2095 30.7594 15.8278 33.7239C16.0152 33.9389 16.2002 34.1554 16.3844 34.373C16.9597 35.0518 17.5321 35.719 18.1734 36.3372C18.387 36.5509 18.5838 36.7713 18.7799 37.001C19.205 37.4903 19.6531 37.9512 20.112 38.4087C20.1945 38.4912 20.2769 38.5738 20.3619 38.6589C20.5349 38.832 20.7082 39.005 20.8815 39.1779C21.1445 39.4403 21.4068 39.7032 21.6691 39.9662C21.8385 40.1356 22.0079 40.3048 22.1774 40.4741C22.2546 40.5515 22.3318 40.6289 22.4113 40.7087C22.8629 41.158 23.3267 41.5865 23.8097 42.0019C24.163 42.3085 24.5027 42.6293 24.8439 42.9492C25.4211 43.4873 26.0013 44.0191 26.6017 44.5313C26.7687 44.6749 26.7687 44.6749 26.9391 44.8215C27.7259 45.4953 28.5286 46.1445 29.346 46.7807C29.6269 46.9996 29.9053 47.2211 30.1819 47.4454C31.9747 48.8989 33.8463 50.2474 35.7423 51.5625C35.8185 51.6157 35.8946 51.6689 35.973 51.7237C38.7887 53.685 41.7651 54.7074 45.2341 54.1814C47.5852 53.7445 49.5438 52.5869 51.2505 50.9312C51.388 50.7979 51.5263 50.6654 51.6652 50.5335C53.5533 48.755 53.5533 48.755 54.3701 46.3568C54.3943 44.9044 53.8506 43.6426 52.8671 42.5863C52.6454 42.3623 52.4225 42.1408 52.1971 41.9206C52.0768 41.8007 51.9565 41.6806 51.8364 41.5604C51.5863 41.3109 51.3351 41.0625 51.0829 40.8151C50.7617 40.4999 50.4429 40.1824 50.1248 39.864C49.8774 39.6167 49.629 39.3703 49.3804 39.1242C49.2626 39.0075 49.1449 38.8905 49.0275 38.7734C47.8891 37.6403 46.8762 36.9086 45.2419 36.7529C43.7506 36.829 42.5557 37.4372 41.5358 38.5108C40.6946 39.3909 39.6476 39.8041 38.4422 39.8598C34.3984 39.7668 29.8532 34.6592 27.1437 31.9629C27.0671 31.8868 26.9904 31.8107 26.9115 31.7323C26.3939 31.2131 25.9078 30.6729 25.4298 30.1172C25.3172 29.9889 25.2044 29.8608 25.0916 29.7327C23.8234 28.2815 22.7011 26.7471 21.6213 25.1514C21.5412 25.0344 21.4612 24.9174 21.3788 24.7969C20.5239 23.5176 19.9714 22.2829 20.237 20.7202C20.513 19.5822 21.12 18.8895 21.9142 18.0469C22.7875 17.099 23.2762 15.973 23.2321 14.6668C23.0398 12.9813 22.1176 11.8478 20.9502 10.6842C20.8336 10.5668 20.7172 10.4493 20.6007 10.3317C20.3578 10.0871 20.1141 9.84338 19.8697 9.60024C19.5596 9.29151 19.2523 8.98021 18.9456 8.6681C18.7061 8.42515 18.465 8.18387 18.2234 7.94302C18.1096 7.82902 17.9962 7.71449 17.8835 7.59936C16.8964 6.59397 15.7714 5.74483 14.3145 5.70787C13.4263 5.70024 12.7178 5.71141 11.9533 6.21095Z" fill="url(#paint0_linear_194_716)"/><path d="M40.437 6.51672C42.3361 7.38602 44.0643 8.43151 45.7032 9.72656C45.81 9.8107 45.9168 9.89484 46.0268 9.98153C47.1769 10.9052 48.2733 11.8728 49.2188 13.0078C49.3566 13.1612 49.3566 13.1612 49.4971 13.3177C52.7515 16.97 54.8969 21.7369 55.4297 26.6016C55.4426 26.7114 55.4554 26.8212 55.4686 26.9344C55.5396 27.6394 55.5676 28.347 55.5835 29.0552C55.5888 29.1821 55.5888 29.1821 55.5941 29.3116C55.5988 29.7368 55.5596 29.9794 55.3354 30.3447C54.9809 30.6771 54.7386 30.7031 54.2578 30.7031C53.9124 30.5454 53.7255 30.4587 53.5547 30.1172C53.5341 29.9009 53.5198 29.6841 53.5085 29.4672C53.1157 22.6651 50.5213 16.7264 45.3983 12.1495C41.3034 8.70407 36.4229 6.78462 31.0739 6.53228C30.9923 6.52833 30.9107 6.52437 30.8265 6.5203C30.6198 6.512 30.4129 6.50796 30.206 6.50436C29.8012 6.4304 29.6643 6.29732 29.4141 5.97656C29.2797 5.55541 29.2598 5.35928 29.4361 4.95117C31.159 2.81242 38.4834 5.65587 40.437 6.51672Z" fill="url(#paint1_linear_194_716)"/><path d="M33.6328 12.4219C37.0952 13.1696 39.9099 14.7747 42.5391 17.1094C42.6156 17.1773 42.6922 17.2453 42.7711 17.3154C45.6347 20.0225 47.634 24.2267 47.8254 28.1549C47.8322 28.4283 47.8342 28.7012 47.8345 28.9746C47.8359 29.067 47.8373 29.1595 47.8388 29.2547C47.841 30.0998 47.841 30.0998 47.5781 30.4687C47.2693 30.7089 47.0961 30.7029 46.6992 30.6958C46.188 30.5589 46.0909 30.4509 45.8203 30C45.7432 29.6115 45.7287 29.2232 45.7104 28.8281C45.4168 24.6106 43.5476 20.8532 40.4252 18.0112C38.0437 15.9528 34.9611 14.6173 31.8251 14.3577C31.7146 14.3486 31.6042 14.3394 31.4904 14.3299C31.2728 14.3131 31.055 14.2984 30.8371 14.2862C30.2272 14.2423 29.8483 14.1835 29.4141 13.7109C29.2691 13.2852 29.2565 13.0966 29.4433 12.6855C30.2272 11.6777 32.5266 12.2022 33.6328 12.4219Z" fill="url(#paint2_linear_194_716)"/><path d="M33.3825 20.3043C36.0813 21.2346 38.1036 23.1749 39.353 25.708C39.9396 27.099 40.275 28.6064 40.0781 30.1172C39.9172 30.4165 39.8229 30.5472 39.5078 30.6738C39.05 30.7308 38.8545 30.7421 38.4448 30.4981C38.0804 30.1005 38.0683 29.7433 38.0222 29.2209C37.927 28.1914 37.7087 27.3101 37.2656 26.3672C37.2223 26.2738 37.1789 26.1805 37.1342 26.0843C36.2216 24.2968 34.6848 23.0603 32.8125 22.3828C32.0924 22.1543 31.4062 22.0216 30.6519 21.98C30.2278 21.9506 30.0111 21.9197 29.6265 21.7236C29.3402 21.3485 29.2969 21.0948 29.2969 20.625C29.9106 19.2806 32.2327 19.953 33.3825 20.3043Z" fill="url(#paint3_linear_194_716)"/><defs><linearGradient id="paint0_linear_194_716" x1="3.71338" y1="29.9766" x2="56.3088" y2="29.9766" gradientUnits="userSpaceOnUse"><stop stop-color="#0568EA"/><stop offset="1" stop-color="#08B5F7"/></linearGradient><linearGradient id="paint1_linear_194_716" x1="29.3086" y1="17.437" x2="55.5945" y2="17.437" gradientUnits="userSpaceOnUse"><stop stop-color="#0568EA"/><stop offset="1" stop-color="#08B5F7"/></linearGradient><linearGradient id="paint2_linear_194_716" x1="29.3042" y1="21.3933" x2="47.8392" y2="21.3933" gradientUnits="userSpaceOnUse"><stop stop-color="#0568EA"/><stop offset="1" stop-color="#08B5F7"/></linearGradient><linearGradient id="paint3_linear_194_716" x1="29.2969" y1="25.2651" x2="40.1346" y2="25.2651" gradientUnits="userSpaceOnUse"><stop stop-color="#0568EA"/><stop offset="1" stop-color="#08B5F7"/></linearGradient></defs></svg>