<svg xmlns="http://www.w3.org/2000/svg" width="60" height="60" viewBox="0 0 60 60" fill="none"><g clip-path="url(#clip0_194_721)"><path d="M40.7464 3.77883C41.0382 4.03627 41.3207 4.30085 41.6015 4.5703C41.7048 4.66623 41.8081 4.76215 41.9146 4.86098C44.8976 7.71334 46.6623 11.8408 46.7815 15.9618C46.8126 18.1879 46.5562 20.277 45.8202 22.3828C45.7786 22.5025 45.7786 22.5025 45.7362 22.6246C44.9835 24.7302 43.7028 26.5708 42.4959 28.4375C42.1675 28.9475 41.8568 29.4493 41.6015 30C41.7265 30.0472 41.7265 30.0472 41.8541 30.0953C42.1961 30.238 42.5103 30.4033 42.8338 30.5841C42.9596 30.6542 43.0854 30.7243 43.215 30.7965C43.3496 30.8721 43.4843 30.9476 43.623 31.0254C43.7648 31.1047 43.9067 31.1839 44.0486 31.2632C44.3405 31.4262 44.6323 31.5895 44.924 31.7529C45.4414 32.0427 45.9598 32.3307 46.4782 32.6186C46.7186 32.7529 46.9585 32.8883 47.1977 33.0247C47.81 33.3737 48.4243 33.7066 49.0566 34.0178C49.1833 34.0834 49.3099 34.149 49.4404 34.2167C49.6774 34.3395 49.9173 34.4571 50.1604 34.5676C51.2691 35.159 51.5241 36.1466 51.9097 37.2695C52.0788 37.7535 52.2636 38.2309 52.448 38.7092C52.5998 39.1037 52.7498 39.4989 52.8992 39.8943C52.951 40.0315 53.0028 40.1686 53.0562 40.3099C53.1095 40.4509 53.1628 40.592 53.2177 40.7373C53.3306 41.0357 53.4436 41.3341 53.5566 41.6325C53.7614 42.1733 53.9661 42.7141 54.1707 43.255C54.6995 44.6527 55.2294 46.05 55.7595 47.4472C55.9199 47.8699 56.0802 48.2926 56.2406 48.7153C56.9199 50.5063 57.5996 52.2971 58.2799 54.0877C58.3752 54.3386 58.4706 54.5896 58.5659 54.8405C58.6551 55.0754 58.7443 55.3103 58.8336 55.5451C58.9165 55.7635 58.9994 55.9818 59.0822 56.2002C59.2532 56.6507 59.4251 57.1006 59.6032 57.5483C59.6566 57.6832 59.7101 57.818 59.7651 57.957C59.8323 58.1234 59.8323 58.1234 59.9008 58.2932C60.0597 58.7748 60.0648 59.1459 59.9999 59.6484C59.8242 59.8824 59.7123 59.9826 59.4289 60.0598C58.5693 60.0856 58.0078 59.7242 57.2973 59.2749C57.0476 59.123 56.7976 58.9715 56.5475 58.8203C56.4205 58.7431 56.2935 58.6659 56.1626 58.5864C55.5693 58.2333 54.9621 57.9077 54.353 57.583C53.375 57.0587 52.4068 56.5207 51.4451 55.9672C50.5306 55.4412 49.6107 54.9253 48.6894 54.4113C48.0611 54.0605 47.4342 53.7077 46.8095 53.3505C46.6863 53.2803 46.5632 53.21 46.4363 53.1376C46.2017 53.0036 45.9674 52.8691 45.7333 52.7342C45.6283 52.6743 45.5233 52.6144 45.4151 52.5526C45.3233 52.4999 45.2315 52.4471 45.1369 52.3927C44.882 52.2653 44.698 52.175 44.414 52.1484C44.1223 52.259 44.1223 52.259 43.8221 52.4423C43.7053 52.5089 43.5886 52.5754 43.4683 52.644C43.2802 52.754 43.2802 52.754 43.0883 52.8662C42.9576 52.9411 42.827 53.0159 42.6923 53.093C42.4209 53.2485 42.1498 53.4045 41.8791 53.5612C41.3005 53.8951 40.7186 54.2228 40.1366 54.5508C39.9145 54.6765 39.6923 54.8022 39.4701 54.928C38.756 55.3316 38.0401 55.7324 37.3241 56.1328C36.4924 56.598 35.6612 57.064 34.8317 57.533C34.6101 57.6582 34.3885 57.7832 34.1667 57.9079C33.5839 58.2361 33.0048 58.5696 32.4293 58.9105C32.3083 58.9813 32.1873 59.052 32.0627 59.1249C31.8316 59.2603 31.6013 59.3971 31.3722 59.5358C30.368 60.1199 30.368 60.1199 29.7865 60.0711C29.1673 59.8986 28.6238 59.5473 28.0737 59.2236C27.9338 59.1433 27.7937 59.0631 27.6536 58.9832C27.3654 58.8184 27.0777 58.6527 26.7905 58.4862C26.1508 58.1163 25.5041 57.7591 24.8583 57.3999C23.8718 56.8479 22.889 56.2896 21.9083 55.7271C20.9898 55.201 20.0668 54.683 19.1412 54.1695C18.5344 53.832 17.9329 53.4889 17.3386 53.1299C17.227 53.0633 17.1154 52.9966 17.0004 52.928C16.7903 52.8021 16.5813 52.6743 16.3737 52.5444C16.28 52.4887 16.1864 52.4329 16.0899 52.3755C16.0091 52.3258 15.9283 52.2761 15.8451 52.2249C15.3753 52.0863 14.9996 52.3244 14.5805 52.534C14.4801 52.591 14.3797 52.6481 14.2762 52.7069C14.1614 52.7717 14.0466 52.8365 13.9283 52.9033C13.8058 52.9732 13.6833 53.0432 13.5571 53.1152C13.2928 53.2648 13.0285 53.4143 12.7642 53.5638C12.6968 53.6021 12.6294 53.6403 12.56 53.6797C12.1104 53.9349 11.6596 54.1877 11.2078 54.4391C10.0008 55.1107 8.80034 55.7912 7.60979 56.4917C6.55225 57.1138 5.4823 57.7077 4.39921 58.2842C3.86251 58.5711 3.33315 58.8626 2.81609 59.1838C2.72688 59.2389 2.63767 59.294 2.54575 59.3508C2.38385 59.4521 2.22312 59.5553 2.06401 59.6609C1.51984 60.0013 0.992174 60.1413 0.351492 60C0.12351 59.8186 0.01352 59.7117 -0.0483398 59.4237C-0.0439752 58.6973 0.12768 58.1186 0.396353 57.448C0.438724 57.338 0.481096 57.228 0.524752 57.1147C0.665598 56.7501 0.80886 56.3866 0.952078 56.0229C1.05283 55.7632 1.15338 55.5035 1.25374 55.2436C1.46704 54.6917 1.68112 54.1401 1.89564 53.5886C2.38943 52.3167 2.87109 51.0402 3.35364 49.764C3.62454 49.0478 3.89624 48.332 4.16787 47.6161C4.27516 47.3333 4.38245 47.0504 4.48973 46.7676C4.56826 46.5606 4.56826 46.5606 4.64838 46.3494C4.75132 46.078 4.85426 45.8066 4.95719 45.5352C5.51805 44.0566 6.07954 42.5781 6.64269 41.1003C6.90278 40.4172 7.1611 39.7335 7.41801 39.0492C7.57984 38.6188 7.74265 38.1887 7.90565 37.7586C7.9809 37.5594 8.05571 37.36 8.13004 37.1605C8.2312 36.889 8.33389 36.6181 8.43697 36.3473C8.46592 36.2684 8.49487 36.1895 8.5247 36.1082C8.81157 35.3641 9.2062 35.0406 9.89266 34.6664C10.0189 34.5971 10.145 34.5277 10.2751 34.4562C10.4107 34.3827 10.5463 34.3092 10.686 34.2334C10.8282 34.1555 10.9703 34.0774 11.1124 33.9993C11.4051 33.8385 11.6979 33.678 11.9909 33.5177C12.6397 33.1622 13.2852 32.8007 13.9306 32.439C14.0498 32.3722 14.1691 32.3055 14.292 32.2368C14.8834 31.9054 15.4733 31.5716 16.061 31.2337C16.2299 31.1366 16.2299 31.1366 16.4021 31.0376C16.6133 30.9159 16.8243 30.7939 17.0351 30.6714C17.1291 30.6172 17.223 30.563 17.3199 30.5072C17.4013 30.4599 17.4826 30.4127 17.5665 30.364C17.8371 30.2214 18.1127 30.1091 18.3984 30C17.9375 29.1286 17.4407 28.2924 16.9042 27.4658C15.3137 24.9822 14.0885 22.7135 13.4765 19.8047C13.4475 19.668 13.4185 19.5313 13.3886 19.3904C12.6651 15.2555 13.7122 10.7133 16.0693 7.25143C16.6426 6.47011 17.2644 5.74298 17.9296 5.03905C18.023 4.93678 18.1163 4.83452 18.2125 4.72915C20.343 2.47955 23.0753 1.19177 26.0156 0.351554C26.1 0.327044 26.1844 0.302534 26.2713 0.277281C31.2092 -1.07622 36.899 0.58191 40.7464 3.77883ZM19.1051 6.50999C16.4119 9.32289 15.0393 13.1421 15.0761 17.0114C15.1793 20.7924 16.7705 23.7708 18.7814 26.8735C19.0843 27.3423 19.3825 27.814 19.6801 28.2861C19.7364 28.3753 19.7928 28.4645 19.8508 28.5565C20.3213 29.3022 20.7881 30.0502 21.2548 30.7983C21.8882 31.8135 22.5276 32.8246 23.1714 33.8332C23.7501 34.7409 24.3205 35.6536 24.8899 36.5671C25.4438 37.4547 26.0043 38.338 26.5673 39.2198C27.1721 40.1683 27.7684 41.122 28.3625 42.0772C28.556 42.3879 28.7502 42.6981 28.9452 43.0078C28.9934 43.0844 29.0415 43.161 29.0912 43.2399C29.312 43.5943 29.312 43.5943 29.6484 43.8281C30.1461 43.8861 30.1461 43.8861 30.5685 43.6542C30.9146 43.2488 31.1856 42.8091 31.4648 42.3559C31.5905 42.1544 31.7162 41.9528 31.842 41.7512C31.9059 41.6483 31.9698 41.5455 32.0356 41.4394C32.3312 40.9646 32.6305 40.4921 32.9296 40.0195C33.0468 39.834 33.164 39.6484 33.2812 39.4629C33.9843 38.3496 33.9843 38.3496 34.16 38.0714C34.2775 37.8854 34.395 37.6994 34.5124 37.5134C34.8008 37.0567 35.0893 36.6 35.3782 36.1436C36.0253 35.1208 36.6689 34.0958 37.3095 33.0688C38.018 31.9334 38.7341 30.803 39.4537 29.6745C39.9319 28.9245 40.408 28.1731 40.8814 27.42C41.1504 26.9925 41.4224 26.567 41.6953 26.142C44.1803 22.2529 45.6031 18.1876 44.5999 13.5289C43.6631 9.62113 41.3641 6.27084 37.9687 4.10155C37.8401 4.01862 37.7116 3.93569 37.5791 3.85024C31.5519 0.189123 23.9535 1.60648 19.1051 6.50999ZM17.552 32.5534C17.4249 32.6243 17.2979 32.6952 17.1671 32.7683C17.0282 32.8465 16.8893 32.9247 16.7504 33.0029C16.6078 33.0828 16.4652 33.1626 16.3226 33.2424C16.0276 33.4074 15.7329 33.5727 15.4382 33.7383C15.0246 33.9707 14.6104 34.2022 14.1961 34.4334C13.3079 34.9271 13.3079 34.9271 12.4256 35.4309C12.0702 35.625 12.0702 35.625 11.6536 35.8023C10.7483 36.2046 10.291 36.6375 9.91601 37.5636C9.75979 37.9762 9.61839 38.393 9.47747 38.811C9.39549 39.0397 9.3129 39.2682 9.22976 39.4965C9.05316 39.9832 8.87949 40.4709 8.70774 40.9594C8.30081 42.1106 7.86243 43.2501 7.428 44.3912C7.18003 45.044 6.93455 45.6977 6.68877 46.3513C6.14602 47.7932 5.59875 49.2333 5.05056 50.6731C4.255 52.7627 3.46342 54.8533 2.69524 56.9531C3.15154 56.7818 3.56895 56.5709 3.99529 56.3351C4.06319 56.2977 4.13108 56.2602 4.20103 56.2216C4.42196 56.0996 4.6426 55.9771 4.86321 55.8545C5.01751 55.769 5.17181 55.6836 5.32612 55.5982C6.29902 55.0589 7.26752 54.5122 8.23189 53.9578C9.01982 53.505 9.81207 53.0604 10.6054 52.6172C10.8509 52.4794 11.0964 52.3416 11.3419 52.2038C11.8247 51.9332 12.3091 51.666 12.7949 51.4009C13.0197 51.2766 13.2444 51.1522 13.4692 51.0278C13.5732 50.972 13.6773 50.9162 13.7846 50.8587C13.8797 50.8056 13.9749 50.7525 14.073 50.6978C14.1978 50.6297 14.1978 50.6297 14.3252 50.5602C14.7677 50.1959 14.8278 49.5725 14.939 49.0356C14.9547 48.9608 14.9704 48.8861 14.9865 48.809C15.0202 48.6476 15.0537 48.4862 15.087 48.3247C15.1397 48.0689 15.1932 47.8133 15.2467 47.5577C15.3797 46.9232 15.5115 46.2885 15.6432 45.6537C15.7547 45.1165 15.8666 44.5794 15.9793 44.0424C16.0319 43.7909 16.0837 43.5393 16.1355 43.2876C16.1679 43.1331 16.2002 42.9787 16.2327 42.8242C16.2606 42.6896 16.2885 42.555 16.3173 42.4164C16.3958 42.1108 16.4745 41.8686 16.6406 41.6016C16.998 41.4229 17.3018 41.4568 17.6952 41.4844C17.8944 41.6341 17.8944 41.6341 18.0468 41.8359C18.1361 42.7668 17.9154 43.6355 17.7136 44.5409C17.6793 44.6985 17.6451 44.8561 17.6111 45.0138C17.5218 45.4259 17.4314 45.8377 17.3406 46.2495C17.195 46.9104 17.051 47.5716 16.9076 48.2329C16.8574 48.4631 16.8065 48.6931 16.7556 48.9231C16.7251 49.0628 16.6946 49.2025 16.6632 49.3464C16.6226 49.5305 16.6226 49.5305 16.5812 49.7184C16.5095 50.0616 16.5095 50.0616 16.5234 50.5078C16.6122 50.5566 16.701 50.6054 16.7926 50.6557C18.632 51.6672 20.4671 52.6854 22.2926 53.722C22.8447 54.0355 23.3974 54.3481 23.9501 54.6606C24.0592 54.7224 24.1683 54.7841 24.2807 54.8477C25.2807 55.4128 26.283 55.9739 27.286 56.5335C27.4024 56.5986 27.5188 56.6636 27.6388 56.7306C27.7926 56.8164 27.7926 56.8164 27.9494 56.904C28.1549 57.0207 28.3576 57.1423 28.5581 57.2673C28.8101 57.4413 28.8101 57.4413 29.0624 57.4219C29.0869 55.8908 29.1056 54.3598 29.1171 52.8287C29.1226 52.1176 29.13 51.4068 29.142 50.6958C29.1535 50.0097 29.1598 49.3237 29.1625 48.6375C29.1644 48.3757 29.1682 48.1139 29.1739 47.8522C29.1816 47.4854 29.1827 47.1191 29.1822 46.7523C29.1879 46.59 29.1879 46.59 29.1937 46.4245C29.1891 46.1114 29.1741 45.879 29.0624 45.5859C28.8098 45.3503 28.5604 45.1881 28.2579 45.0222C27.9447 44.8477 27.7914 44.6543 27.6077 44.3491C27.5461 44.2495 27.4845 44.15 27.4211 44.0474C27.3585 43.9412 27.2959 43.835 27.2314 43.7256C27.1624 43.613 27.0935 43.5005 27.0224 43.3845C26.8765 43.1463 26.7314 42.9075 26.5872 42.6683C26.2276 42.0741 25.8572 41.4868 25.4882 40.8984C25.3405 40.6616 25.1928 40.4248 25.0451 40.188C24.5641 39.4184 24.0763 38.6532 23.588 37.8883C22.9943 36.957 22.4084 36.0211 21.8245 35.0837C21.3509 34.3238 20.8726 33.5671 20.3906 32.8125C20.1125 33.0906 20.0949 33.2324 20.0168 33.6128C19.9922 33.7306 19.9675 33.8483 19.9421 33.9696C19.9162 34.0973 19.8903 34.225 19.8637 34.3565C19.8073 34.6255 19.7509 34.8944 19.6945 35.1633C19.6065 35.5884 19.5189 36.0135 19.4315 36.4386C19.347 36.8483 19.2611 37.2577 19.1752 37.6671C19.1495 37.794 19.1239 37.921 19.0975 38.0518C19.0724 38.1707 19.0474 38.2895 19.0216 38.412C19.0002 38.5162 18.9788 38.6203 18.9568 38.7276C18.8542 39.066 18.7215 39.3222 18.5156 39.6094C18.1378 39.7299 17.9173 39.7634 17.5414 39.6313C17.3437 39.4922 17.3437 39.4922 17.2265 39.2578C17.1849 38.4368 17.3025 37.7107 17.4828 36.9118C17.5089 36.7921 17.5349 36.6725 17.5617 36.5492C17.6442 36.1701 17.7282 35.7913 17.8124 35.4126C17.8964 35.0317 17.9801 34.6508 18.0632 34.2697C18.1148 34.0334 18.167 33.7972 18.2197 33.5611C18.2432 33.4543 18.2666 33.3475 18.2908 33.2374C18.322 33.0969 18.322 33.0969 18.3539 32.9537C18.4116 32.662 18.4116 32.662 18.3984 32.2266C18.0556 32.2266 17.8503 32.3861 17.552 32.5534ZM41.6015 32.2266C41.6824 33.1372 41.8596 34.0151 42.051 34.9085C42.0853 35.0705 42.1196 35.2325 42.1538 35.3945C42.2463 35.8316 42.3395 36.2685 42.4328 36.7054C42.5305 37.1638 42.6278 37.6223 42.7252 38.0808C42.8887 38.85 43.0525 39.6191 43.2167 40.3882C43.4063 41.2767 43.5951 42.1653 43.7836 43.054C43.9458 43.8185 44.1083 44.5828 44.2712 45.3471C44.3684 45.803 44.4654 46.2589 44.562 46.7149C44.6528 47.1432 44.7442 47.5714 44.8359 47.9996C44.8854 48.2313 44.9344 48.4631 44.9833 48.6949C45.0131 48.8332 45.0428 48.9715 45.0734 49.114C45.099 49.234 45.1246 49.3539 45.1509 49.4775C45.3079 50.1259 45.3079 50.1259 45.7467 50.5962C45.8624 50.6578 45.978 50.7194 46.0972 50.7829C46.2912 50.8882 46.2912 50.8882 46.4891 50.9956C46.6299 51.0698 46.7707 51.144 46.9115 51.2183C47.0564 51.2963 47.2012 51.3746 47.3459 51.4531C47.6377 51.6113 47.9299 51.7688 48.2223 51.926C48.7794 52.2279 49.3291 52.542 49.8779 52.8589C51.002 53.5046 52.1323 54.1389 53.2644 54.7705C53.7243 55.0273 54.1832 55.2856 54.6409 55.5461C54.8454 55.6624 55.05 55.7784 55.2546 55.8944C55.5132 56.041 55.7715 56.1882 56.0294 56.336C56.1454 56.4016 56.2614 56.4672 56.3808 56.5347C56.4831 56.593 56.5854 56.6513 56.6907 56.7114C56.9576 56.8611 56.9576 56.8611 57.3046 56.8359C57.2817 56.7755 57.2587 56.7151 57.2351 56.6529C57.164 56.466 57.093 56.2791 57.022 56.0921C56.9362 55.8663 56.8504 55.6405 56.7646 55.4148C56.5181 54.7663 56.2717 54.1178 56.0253 53.4693C55.5701 52.2713 55.1149 51.0734 54.6595 49.8755C54.4801 49.4035 54.3007 48.9316 54.1214 48.4596C54.0314 48.2229 53.9414 47.9862 53.8514 47.7496C53.3172 46.3442 52.7837 44.9386 52.2513 43.5325C52.1633 43.3 52.0752 43.0676 51.9871 42.8351C51.9582 42.7587 51.9293 42.6823 51.8995 42.6036C51.8413 42.45 51.7831 42.2964 51.7249 42.1428C51.5834 41.7694 51.442 41.3959 51.3008 41.0224C51.2473 40.8809 51.1938 40.7394 51.1386 40.5936C51.0867 40.4561 51.0347 40.3186 50.9811 40.1769C50.8802 39.9111 50.7786 39.6455 50.6764 39.3802C50.4701 38.8452 50.2668 38.3125 50.0937 37.7657C49.7832 36.8159 49.4323 36.3343 48.5321 35.8663C48.3986 35.8036 48.265 35.7409 48.1274 35.6763C47.9866 35.605 47.8461 35.5332 47.7059 35.4609C47.4173 35.3124 47.1277 35.1666 46.8369 35.0225C46.1599 34.6839 45.5043 34.3067 44.8461 33.9331C44.606 33.7986 44.3658 33.6642 44.1256 33.5298C43.7281 33.3066 43.3318 33.0816 42.9372 32.8532C42.8596 32.8084 42.782 32.7635 42.7021 32.7172C42.506 32.6034 42.3103 32.4887 42.1146 32.374C41.8539 32.2083 41.8539 32.2083 41.6015 32.2266ZM39.6093 32.8125C39.4918 32.9842 39.3803 33.16 39.271 33.3371C39.2005 33.4507 39.13 33.5644 39.0574 33.6815C38.9809 33.8056 38.9044 33.9297 38.8256 34.0576C38.6646 34.3172 38.5034 34.5768 38.3422 34.8363C38.3012 34.9024 38.2601 34.9686 38.2178 35.0368C37.8197 35.6778 37.4152 36.3146 37.0092 36.9507C36.8731 37.1641 36.737 37.3776 36.6009 37.5911C36.5354 37.6938 36.4699 37.7965 36.4024 37.9023C36.1057 38.3682 35.8101 38.8348 35.5151 39.3018C35.459 39.3904 35.403 39.4791 35.3452 39.5705C34.9408 40.2113 34.5401 40.8543 34.1399 41.4978C33.8439 41.9731 33.5462 42.4474 33.248 42.9213C33.1213 43.1234 32.9952 43.3258 32.8698 43.5287C32.7183 43.7738 32.5644 44.0172 32.4096 44.2602C32.3276 44.3912 32.2455 44.5222 32.161 44.6571C31.8851 44.9878 31.7632 45.0643 31.3949 45.2423C31.1086 45.418 30.965 45.5079 30.8521 45.8277C30.8218 46.1351 30.8214 46.4302 30.831 46.7389C30.8309 46.8545 30.8307 46.97 30.8306 47.089C30.8312 47.4703 30.8385 47.8511 30.8459 48.2323C30.8476 48.4968 30.849 48.7613 30.8499 49.0258C30.8535 49.7216 30.8627 50.4172 30.8731 51.1129C30.8827 51.8229 30.8869 52.533 30.8917 53.2432C30.9017 54.6362 30.9177 56.029 30.9374 57.4219C31.3666 57.2823 31.7547 57.1427 32.1446 56.9147C32.285 56.8333 32.285 56.8333 32.4282 56.7504C32.5284 56.6916 32.6286 56.6328 32.7319 56.5723C32.9529 56.4443 33.174 56.3164 33.3952 56.1887C33.5685 56.0883 33.5685 56.0883 33.7454 55.986C34.3398 55.6442 34.9384 55.3099 35.537 54.9756C35.7203 54.8731 35.7203 54.8731 35.9072 54.7686C36.407 54.4892 36.907 54.21 37.407 53.9307C38.8094 53.1474 40.2102 52.3616 41.6032 51.5617C42.2247 51.2051 42.8492 50.8542 43.4765 50.5078C43.3884 49.6593 43.2152 48.8351 43.0378 48.0013C43.0046 47.8441 42.9715 47.6869 42.9384 47.5298C42.8489 47.1053 42.759 46.6809 42.6689 46.2565C42.5936 45.9015 42.5186 45.5465 42.4435 45.1915C42.2665 44.3539 42.0891 43.5164 41.9114 42.6789C41.7283 41.816 41.5458 40.953 41.3636 40.09C41.2068 39.3475 41.0498 38.6052 40.8924 37.8629C40.7986 37.4201 40.7049 36.9774 40.6114 36.5346C40.5236 36.1184 40.4354 35.7023 40.3468 35.2862C40.2991 35.0614 40.2517 34.8365 40.2044 34.6115C40.1756 34.4768 40.1469 34.3421 40.1173 34.2034C40.0802 34.0286 40.0802 34.0286 40.0425 33.8503C39.9562 33.4964 39.8462 33.1563 39.7265 32.8125C39.6878 32.8125 39.6491 32.8125 39.6093 32.8125Z" fill="url(#paint0_linear_194_721)"/><path d="M35.6007 8.65995C35.8511 8.85208 36.0903 9.05032 36.3281 9.25779C36.4405 9.34737 36.5529 9.43695 36.6687 9.52925C38.5158 11.0718 39.5333 13.5077 39.7522 15.8616C39.9167 18.3609 39.2683 20.9267 37.6007 22.8424C37.5288 22.9228 37.4569 23.0031 37.3828 23.0859C37.3115 23.18 37.2402 23.2741 37.1667 23.3711C35.8263 24.9665 33.5812 26.1332 31.5234 26.3672C28.7339 26.5718 26.1102 26.1878 23.9053 24.3443C23.8283 24.2771 23.7512 24.2099 23.6718 24.1406C23.5582 24.05 23.4446 23.9593 23.3276 23.8659C21.9621 22.726 20.933 20.8186 20.5078 19.1015C20.4841 19.012 20.4603 18.9224 20.4359 18.8301C19.8723 16.3188 20.3821 13.6826 21.6797 11.4844C21.9673 11.0674 22.279 10.6889 22.6172 10.3125C22.709 10.1916 22.8008 10.0708 22.8955 9.94627C26.1055 6.43049 31.7411 6.03653 35.6007 8.65995ZM24.9389 10.7007C24.7491 10.8818 24.561 11.0649 24.375 11.25C24.2929 11.3279 24.2109 11.4059 24.1264 11.4862C22.7629 12.8789 22.1633 14.7703 22.0971 16.6845C22.1504 18.827 22.9506 20.7634 24.4922 22.2656C24.6088 22.388 24.6088 22.388 24.7279 22.5128C26.121 23.882 28.1861 24.607 30.1172 24.6094C32.4165 24.4735 34.4124 23.54 35.9779 21.8587C37.3883 20.253 37.9729 18.1748 37.872 16.0631C37.7123 14.17 36.8649 12.4486 35.5078 11.1328C35.4232 11.0485 35.3386 10.9642 35.2514 10.8774C32.4192 8.19688 27.8673 8.13046 24.9389 10.7007Z" fill="url(#paint1_linear_194_721)"/><path d="M33.6923 11.6139C34.9435 12.565 35.8455 13.8993 36.1643 15.4537C36.4067 17.3572 36.0936 19.0489 34.9173 20.5856C33.8959 21.7803 32.5398 22.7354 30.9277 22.8723C28.8069 22.9307 27.1484 22.6201 25.5249 21.145C24.2365 19.7744 23.7106 18.1085 23.7561 16.2506C23.8888 14.5187 24.6451 13.1397 25.8985 11.9531C28.1111 10.1111 31.3184 9.97967 33.6923 11.6139ZM26.7252 13.8446C25.8506 14.9205 25.5637 15.963 25.6641 17.3438C25.8904 18.6308 26.6052 19.6328 27.6563 20.3906C28.7584 21.0499 30.0365 21.1824 31.2882 20.8965C32.498 20.4423 33.4765 19.5936 34.0224 18.4149C34.4663 17.2125 34.4938 16.0689 33.9844 14.8828C33.3786 13.7334 32.4399 12.8813 31.2003 12.4709C29.4919 12.1524 27.9123 12.5383 26.7252 13.8446Z" fill="url(#paint2_linear_194_721)"/></g><defs><linearGradient id="paint0_linear_194_721" x1="-0.0483398" y1="29.9467" x2="60.0389" y2="29.9467" gradientUnits="userSpaceOnUse"><stop stop-color="#0568EA"/><stop offset="1" stop-color="#08B5F7"/></linearGradient><linearGradient id="paint1_linear_194_721" x1="20.2085" y1="16.6872" x2="39.7769" y2="16.6872" gradientUnits="userSpaceOnUse"><stop stop-color="#0568EA"/><stop offset="1" stop-color="#08B5F7"/></linearGradient><linearGradient id="paint2_linear_194_721" x1="23.7534" y1="16.6764" x2="36.2407" y2="16.6764" gradientUnits="userSpaceOnUse"><stop stop-color="#0568EA"/><stop offset="1" stop-color="#08B5F7"/></linearGradient><clipPath id="clip0_194_721"><rect width="60" height="60" fill="white"/></clipPath></defs></svg>