<svg xmlns="http://www.w3.org/2000/svg" width="26" height="26" viewBox="0 0 26 26" fill="none"><path d="M4.7842 1.51015L2.69748 3.59687C0.989387 5.30496 0.520006 7.89344 1.51959 10.0925C4.4185 16.4701 9.52987 21.5815 15.9075 24.4804C18.1066 25.48 20.695 25.0106 22.4031 23.3025L24.4899 21.2158C25.1701 20.5356 25.1701 19.4328 24.4899 18.7526L21.6827 15.9455C21.1526 15.4154 20.3428 15.2839 19.6722 15.6192L18.1143 16.3981C16.7732 17.0687 15.1535 16.8058 14.0933 15.7456L10.2544 11.9067C9.19415 10.8465 8.93131 9.22678 9.60186 7.88567L10.3808 6.3278C10.7161 5.65725 10.5846 4.84739 10.0545 4.31727L7.24741 1.51015C6.56721 0.829951 5.4644 0.829951 4.7842 1.51015Z" stroke="url(#paint0_linear_101_235)" stroke-linejoin="round"/><defs><linearGradient id="paint0_linear_101_235" x1="1" y1="13" x2="25" y2="13" gradientUnits="userSpaceOnUse"><stop stop-color="#0568EA"/><stop offset="1" stop-color="#08B5F7"/></linearGradient></defs></svg>