<svg xmlns="http://www.w3.org/2000/svg" width="40" height="40" viewBox="0 0 40 40" fill="none"><path d="M40 27.5C40 26.1216 38.8784 25 37.5 25H12.5C11.1216 25 10 26.1216 10 27.5V30.8334C10 31.475 10.25 32.0567 10.65 32.5C10.25 32.9434 10 33.525 10 34.1666V37.5C10 38.8784 11.1216 40 12.5 40H37.5C38.8784 40 40 38.8784 40 37.5V34.1666C40 33.525 39.75 32.9433 39.35 32.5C39.75 32.0566 40 31.475 40 30.8334V27.5ZM38.3334 37.5C38.3334 37.96 37.9584 38.3334 37.5 38.3334H12.5C12.0416 38.3334 11.6666 37.96 11.6666 37.5V34.1666C11.6666 33.7066 12.0416 33.3333 12.5 33.3333H37.5C37.9584 33.3333 38.3334 33.7066 38.3334 34.1666V37.5ZM38.3334 30.8334C38.3334 31.2934 37.9584 31.6667 37.5 31.6667H12.5C12.0416 31.6667 11.6666 31.2934 11.6666 30.8334V27.5C11.6666 27.04 12.0416 26.6666 12.5 26.6666H37.5C37.9584 26.6666 38.3334 27.04 38.3334 27.5V30.8334Z" fill="currentColor"/><path d="M35.8334 28.3334H29.1667C28.7067 28.3334 28.3334 28.7067 28.3334 29.1667C28.3334 29.6267 28.7067 30.0001 29.1667 30.0001H35.8334C36.2934 30.0001 36.6667 29.6267 36.6667 29.1667C36.6666 28.7067 36.2934 28.3334 35.8334 28.3334Z" fill="white"/><path d="M35.8334 35H29.1667C28.7067 35 28.3334 35.3734 28.3334 35.8334C28.3334 36.2934 28.7067 36.6667 29.1667 36.6667H35.8334C36.2934 36.6667 36.6667 36.2934 36.6667 35.8334C36.6667 35.3734 36.2934 35 35.8334 35Z" fill="currentColor"/><path d="M14.1666 35C13.7066 35 13.3333 35.3734 13.3333 35.8334C13.3333 36.2934 13.7066 36.6667 14.1666 36.6667C14.6266 36.6667 15 36.2934 15 35.8334C15 35.3734 14.6266 35 14.1666 35Z" fill="currentColor"/><path d="M14.1666 28.3334C13.7066 28.3334 13.3333 28.7067 13.3333 29.1667C13.3333 29.6267 13.7066 30.0001 14.1666 30.0001C14.6266 30.0001 15 29.6267 15 29.1667C15 28.7067 14.6266 28.3334 14.1666 28.3334Z" fill="currentColor"/><path d="M10.16 22.42C10.08 21.6234 10.0616 20.81 10.0416 20H18.3333V22.5C18.3333 22.96 18.7066 23.3334 19.1666 23.3334C19.6266 23.3334 20 22.96 20 22.5V20H28.2934C28.2734 20.7934 28.255 21.5884 28.1767 22.37C28.1317 22.8284 28.4684 23.235 28.9251 23.28C29.3751 23.3166 29.7917 22.99 29.8367 22.5316C29.9184 21.6983 29.9384 20.8466 29.9601 20H36.6317C36.5934 20.7934 36.5217 21.5834 36.3801 22.355C36.2951 22.8084 36.5951 23.2434 37.0467 23.3266C37.4884 23.41 37.9334 23.11 38.0167 22.6583C38.2284 21.5166 38.3351 20.3416 38.3351 19.1666C38.335 8.59836 29.7366 0 19.1684 0C8.60336 0 0.00835938 8.59164 0.00164062 19.155C0.00164062 19.16 0 19.1634 0 19.1666C0 19.1716 0.00164062 19.175 0.00164062 19.1783C0.005 24.925 2.55336 30.3184 6.99836 33.975C7.15172 34.1034 7.34 34.165 7.52672 34.165C7.76508 34.165 8.00508 34.0616 8.17172 33.8584C8.46508 33.5034 8.41508 32.9784 8.05836 32.685C7.07836 31.8784 6.20336 30.975 5.43336 30H7.5C7.96 30 8.33336 29.6266 8.33336 29.1666C8.33336 28.7066 7.96 28.3333 7.5 28.3333H4.26C2.72664 25.8434 1.85836 22.9834 1.71664 20H8.375C8.39664 20.8634 8.41836 21.7316 8.50336 22.5816C8.545 23.0133 8.90672 23.3333 9.33 23.3333C9.35664 23.3333 9.385 23.3316 9.415 23.3316C9.87164 23.2866 10.205 22.8766 10.16 22.42ZM36.6284 18.3334H29.9767C29.9067 15.3084 29.4701 12.48 28.7217 10H34.0501C35.5634 12.4466 36.4834 15.2866 36.6284 18.3334ZM32.8884 8.33336H28.155C27.2466 5.95172 26.0366 3.98 24.62 2.545C27.9184 3.63 30.78 5.66664 32.8884 8.33336ZM20 1.75164C22.515 2.20828 24.7684 4.70164 26.2966 8.33328H20V1.75164ZM20 10H26.9166C27.7316 12.4616 28.2316 15.3084 28.3116 18.3334H20V10ZM18.3334 1.75164V8.33328H12.0367C13.565 4.70164 15.8184 2.20836 18.3334 1.75164ZM8.35664 18.3334H1.71164C1.85664 15.2866 2.77664 12.4466 4.29 10H9.61164C8.86336 12.48 8.42664 15.3084 8.35664 18.3334ZM5.45164 8.33336C7.55828 5.67 10.4166 3.635 13.71 2.54836C12.295 3.98336 11.0866 5.95336 10.1784 8.33336H5.45164ZM11.4166 10H18.3333V18.3334H10.0234C10.1016 15.3084 10.6034 12.4616 11.4166 10Z" fill="currentColor"/></svg>