<svg xmlns="http://www.w3.org/2000/svg" width="40" height="40" viewBox="0 0 40 40" fill="none"><path d="M40 26.6666C40 22.29 25 22.29 25 26.6666C25 26.6966 25.0166 26.7216 25.0184 26.7516C25.015 26.7833 25 26.8116 25 26.845V36.4884C25 38.9016 28.8884 40 32.5 40C36.1116 40 40 38.9016 40 36.4884V26.845C40 26.8116 39.985 26.7834 39.9816 26.7516C39.9834 26.7216 40 26.6966 40 26.6666ZM38.3334 36.4884C38.3334 37.24 36.0617 38.3334 32.5 38.3334C28.9383 38.3334 26.6666 37.24 26.6666 36.4884V35.4217C28.1133 36.2367 30.305 36.6667 32.5 36.6667C34.695 36.6667 36.8866 36.2367 38.3334 35.4217V36.4884ZM38.3334 33.155C38.3334 33.805 36.1184 35 32.5 35C28.8816 35 26.6666 33.805 26.6666 33.155V32.2066C28.1133 33.0216 30.305 33.4516 32.5 33.4516C34.695 33.4516 36.8866 33.0216 38.3334 32.2066V33.155ZM38.3334 29.94C38.3334 30.59 36.1184 31.785 32.5 31.785C28.8816 31.785 26.6666 30.59 26.6666 29.94V28.8184C28.1134 29.5916 30.305 30 32.5 30C34.695 30 36.8866 29.5916 38.3334 28.8184V29.94ZM32.5 28.3334C28.7116 28.3334 26.6666 27.15 26.6666 26.6667C26.6666 26.1834 28.7116 25.0001 32.5 25.0001C36.2884 25.0001 38.3334 26.1834 38.3334 26.6667C38.3334 27.15 36.2884 28.3334 32.5 28.3334Z" fill="currentColor"/><path d="M22.5 28.3334H20V20H28.3134C28.3067 20.255 28.3067 20.5134 28.295 20.7666C28.2734 21.225 28.6284 21.6166 29.0884 21.6383C29.5267 21.6783 29.9384 21.3049 29.96 20.8449C29.9734 20.5666 29.9734 20.2816 29.98 19.9999H36.6284C36.6167 20.2533 36.6167 20.5083 36.595 20.7583C36.5534 21.2166 36.8916 21.6216 37.35 21.6633C37.7966 21.7083 38.215 21.3666 38.255 20.9083C38.3066 20.3349 38.3334 19.7533 38.3334 19.1666C38.3334 8.59836 29.735 0 19.1666 0C8.59828 0 0 8.59836 0 19.1666C0 29.7349 8.59836 38.3333 19.1666 38.3333C19.755 38.3333 20.3366 38.3066 20.9116 38.2549C21.37 38.2133 21.7083 37.8083 21.6666 37.3499C21.625 36.8916 21.2183 36.5583 20.7616 36.5949C20.5116 36.6166 20.2533 36.6166 20 36.6299V30H22.5C22.96 30 23.3334 29.6266 23.3334 29.1666C23.3334 28.7066 22.96 28.3334 22.5 28.3334ZM36.625 18.3334H29.9766C29.9066 15.3084 29.47 12.48 28.7216 10H34.045C35.5584 12.4466 36.48 15.2866 36.625 18.3334ZM32.885 8.33336H28.155C27.2484 5.95336 26.0384 3.98336 24.625 2.55C27.9184 3.635 30.7766 5.67 32.885 8.33336ZM20 1.75164C22.515 2.20828 24.7684 4.70164 26.2966 8.33328H20V1.75164ZM20 10H26.9166C27.7316 12.4616 28.2316 15.3084 28.3116 18.3334H20V10ZM13.7084 2.55C12.295 3.98336 11.085 5.95336 10.1784 8.33336H5.44836C7.55664 5.67 10.415 3.635 13.7084 2.55ZM4.28836 10H9.61172C8.86336 12.48 8.42672 15.3084 8.35672 18.3334H1.70836C1.85336 15.2866 2.775 12.4466 4.28836 10ZM1.70836 20H8.35672C8.42672 23.025 8.86336 25.8534 9.61172 28.3334H4.28836C2.775 25.8866 1.85336 23.0466 1.70836 20ZM5.44836 30H10.1784C11.085 32.38 12.295 34.35 13.7084 35.7834C10.415 34.6984 7.55664 32.6634 5.44836 30ZM18.3334 36.585C15.8184 36.1284 13.5634 33.6334 12.035 30H18.3334V36.585ZM18.3334 28.3334H11.4167C10.6016 25.8716 10.1016 23.025 10.0234 20H18.3334V28.3334ZM18.3334 18.3334H10.0234C10.1017 15.3084 10.6034 12.4617 11.4167 10H18.3334V18.3334ZM18.3334 8.33336H12.0367C13.5651 4.70172 15.8184 2.20836 18.3334 1.75172V8.33336Z" fill="currentColor"/></svg>