<svg xmlns="http://www.w3.org/2000/svg" width="40" height="40" viewBox="0 0 40 40" fill="none"><path d="M4.16664 28.3334C3.70664 28.3334 3.33328 28.7067 3.33328 29.1667C3.33328 29.6267 3.70664 30.0001 4.16664 30.0001C4.62664 30.0001 5 29.6267 5 29.1667C5 28.7067 4.62664 28.3334 4.16664 28.3334Z" fill="currentColor"/><path d="M4.16664 35C3.70664 35 3.33328 35.3734 3.33328 35.8334C3.33328 36.2934 3.70664 36.6667 4.16664 36.6667C4.62664 36.6667 5 36.2934 5 35.8334C5 35.3734 4.62664 35 4.16664 35Z" fill="currentColor"/><path d="M7.5 23.3334C7.96 23.3334 8.33336 22.96 8.33336 22.4934V14.16C8.33336 12.7816 9.455 11.66 10.8334 11.66H17.155L16.9116 11.9034C16.5866 12.2284 16.5866 12.7567 16.9116 13.0817C17.2366 13.4067 17.765 13.4067 18.09 13.0817L19.7516 11.4201C19.7683 11.4034 19.785 11.3851 19.8016 11.3667C19.91 11.2384 19.975 11.0851 19.9933 10.9267C19.9983 10.8784 19.9999 10.8284 19.9966 10.7801C19.985 10.5867 19.905 10.3951 19.7583 10.2451C19.7566 10.2434 19.7566 10.2434 19.7566 10.2434L18.09 8.57679C17.765 8.25179 17.2366 8.25179 16.9116 8.57679C16.75 8.74015 16.6683 8.95343 16.6683 9.16679C16.6683 9.38015 16.7483 9.59343 16.9116 9.75679L17.155 10.0001H10.8334C8.53672 10.0001 6.66672 11.8701 6.66672 14.1668V22.5C6.66664 22.96 7.04 23.3334 7.5 23.3334Z" fill="currentColor"/><path d="M25.8334 35H19.1667C18.7067 35 18.3334 35.3734 18.3334 35.8334C18.3334 36.2934 18.7067 36.6667 19.1667 36.6667H25.8334C26.2934 36.6667 26.6667 36.2934 26.6667 35.8334C26.6667 35.3734 26.2934 35 25.8334 35Z" fill="currentColor"/><path d="M37.5 20.0067C37.04 20.0067 36.6666 20.38 36.6666 20.84V30.84C36.6666 31.3 36.2933 31.6734 35.8333 31.6734H34.5116L34.755 31.43C35.08 31.105 35.08 30.5767 34.755 30.2517C34.43 29.9267 33.9016 29.9267 33.5766 30.2517L31.915 31.9133C31.8984 31.9299 31.8816 31.9483 31.865 31.9667C31.7566 32.095 31.6916 32.2483 31.6734 32.4067C31.6684 32.455 31.6667 32.505 31.67 32.5533C31.6816 32.7467 31.7616 32.9383 31.9084 33.0883C31.91 33.0899 31.91 33.0899 31.91 33.0899L33.5766 34.7566C33.74 34.9182 33.9533 34.9999 34.1666 34.9999C34.38 34.9999 34.5933 34.9266 34.755 34.7633C34.9166 34.5999 34.9984 34.3867 34.9984 34.1733C34.9984 33.9599 34.9184 33.7467 34.755 33.5833L34.5116 33.3399H35.8333C37.2116 33.3399 38.3333 32.2183 38.3333 30.8399V20.8399C38.3334 20.38 37.96 20.0067 37.5 20.0067Z" fill="currentColor"/><path d="M40 9.16664C40 4.11164 35.8883 0 30.8333 0C25.7783 0 21.6666 4.11164 21.6666 9.16664C21.6666 14.2216 25.7783 18.3333 30.8333 18.3333C35.8883 18.3333 40 14.2216 40 9.16664ZM38.3333 9.16664C38.3333 9.83664 37.055 10.6966 34.8933 11.215C34.9617 10.5366 35 9.85 35 9.16664C35 8.48328 34.9616 7.79664 34.8933 7.11828C37.055 7.63664 38.3333 8.49664 38.3333 9.16664ZM37.7866 6.39164C36.9033 5.94 35.8166 5.59828 34.635 5.365C34.4016 4.18336 34.06 3.09664 33.6083 2.21336C35.5116 2.975 37.025 4.48836 37.7866 6.39164ZM30.8333 1.66664C31.5033 1.66664 32.3633 2.945 32.8817 5.10664C32.2033 5.03836 31.5166 5 30.8333 5C30.1501 5 29.4633 5.03836 28.785 5.10664C29.3033 2.945 30.1633 1.66664 30.8333 1.66664ZM23.3333 9.16664C23.3333 8.49664 24.6117 7.63664 26.7733 7.11828C26.705 7.79664 26.6667 8.48328 26.6667 9.16664C26.6667 9.85 26.7051 10.5366 26.7733 11.215C24.6116 10.6966 23.3333 9.83664 23.3333 9.16664ZM23.88 11.9416C24.7633 12.3933 25.85 12.735 27.0316 12.9683C27.265 14.1499 27.6083 15.2366 28.0583 16.1199C26.155 15.3584 24.6416 13.8434 23.88 11.9416ZM27.0316 5.365C25.85 5.59836 24.7633 5.94 23.88 6.39164C24.6416 4.48828 26.1566 2.975 28.0583 2.21328C27.6083 3.09664 27.265 4.18336 27.0316 5.365ZM30.8333 16.6666C30.1633 16.6666 29.3033 15.3883 28.785 13.2266C29.4633 13.295 30.15 13.3333 30.8333 13.3333C31.5167 13.3333 32.2033 13.2949 32.8817 13.2266C32.3633 15.3884 31.5033 16.6666 30.8333 16.6666ZM33.18 11.5134C32.4533 11.6034 31.6833 11.6667 30.8333 11.6667C29.9833 11.6667 29.2133 11.6034 28.4867 11.5134C28.3967 10.7867 28.3333 10.0167 28.3333 9.16672C28.3333 8.31672 28.3967 7.54672 28.4867 6.82008C29.2133 6.73008 29.9833 6.66672 30.8333 6.66672C31.6833 6.66672 32.4533 6.73008 33.18 6.82008C33.27 7.54672 33.3333 8.31672 33.3333 9.16672C33.3333 10.0167 33.27 10.7866 33.18 11.5134ZM33.6083 16.12C34.06 15.2366 34.4017 14.15 34.635 12.9684C35.8166 12.735 36.9033 12.3917 37.7866 11.9417C37.025 13.8434 35.5116 15.3584 33.6083 16.12Z" fill="currentColor"/><path d="M27.5 25H2.5C1.12164 25 0 26.1216 0 27.5V30.8334C0 31.475 0.25 32.0566 0.65 32.5C0.25 32.9434 0 33.525 0 34.1666V37.5C0 38.8784 1.12164 40 2.5 40H27.5C28.8784 40 30 38.8784 30 37.5V34.1666C30 33.525 29.75 32.9433 29.35 32.5C29.75 32.0566 30 31.475 30 30.8334V27.5C30 26.1216 28.8784 25 27.5 25ZM28.3334 37.5C28.3334 37.96 27.96 38.3334 27.5 38.3334H2.5C2.04 38.3334 1.66664 37.96 1.66664 37.5V34.1666C1.66664 33.7066 2.04 33.3333 2.5 33.3333H27.5C27.96 33.3333 28.3334 33.7066 28.3334 34.1666V37.5ZM28.3334 30.8334C28.3334 31.2934 27.96 31.6667 27.5 31.6667H2.5C2.04 31.6667 1.66664 31.2934 1.66664 30.8334V27.5C1.66664 27.04 2.04 26.6666 2.5 26.6666H27.5C27.96 26.6666 28.3334 27.04 28.3334 27.5V30.8334Z" fill="currentColor"/><path d="M25.8334 28.3334H19.1667C18.7067 28.3334 18.3334 28.7067 18.3334 29.1667C18.3334 29.6267 18.7067 30.0001 19.1667 30.0001H25.8334C26.2934 30.0001 26.6667 29.6267 26.6667 29.1667C26.6667 28.7067 26.2934 28.3334 25.8334 28.3334Z" fill="currentColor"/></svg>