<svg xmlns="http://www.w3.org/2000/svg" width="19" height="19" viewBox="0 0 19 19" fill="none"><circle cx="9.33333" cy="9.33333" r="8.33333" stroke="url(#paint0_linear_7_87)" stroke-linejoin="round"/><path d="M11.1851 7.48125V7.48125C11.1851 6.4585 10.356 5.62939 9.3333 5.62939H9.19821C8.25007 5.62939 7.48145 6.39801 7.48145 7.34616V7.34616C7.48145 7.99642 7.84884 8.59087 8.43045 8.88167L10.2361 9.78452C10.8178 10.0753 11.1851 10.6698 11.1851 11.32V11.32C11.1851 12.2682 10.4165 13.0368 9.46839 13.0368H9.3333C8.31055 13.0368 7.48145 12.2077 7.48145 11.185V11.185" stroke="url(#paint1_linear_7_87)" stroke-linejoin="round"/><path d="M9.3335 5.62968V3.77783" stroke="url(#paint2_linear_7_87)" stroke-linejoin="round"/><path d="M9.3335 14.889V13.0371" stroke="url(#paint3_linear_7_87)" stroke-linejoin="round"/><defs><linearGradient id="paint0_linear_7_87" x1="1" y1="9.33333" x2="17.6667" y2="9.33333" gradientUnits="userSpaceOnUse"><stop stop-color="#0568EA"/><stop offset="1" stop-color="#08B5F7"/></linearGradient><linearGradient id="paint1_linear_7_87" x1="7.48145" y1="9.3331" x2="11.1851" y2="9.3331" gradientUnits="userSpaceOnUse"><stop stop-color="#0568EA"/><stop offset="1" stop-color="#08B5F7"/></linearGradient><linearGradient id="paint2_linear_7_87" x1="9.3335" y1="4.70376" x2="10.3335" y2="4.70376" gradientUnits="userSpaceOnUse"><stop stop-color="#0568EA"/><stop offset="1" stop-color="#08B5F7"/></linearGradient><linearGradient id="paint3_linear_7_87" x1="9.3335" y1="13.963" x2="10.3335" y2="13.963" gradientUnits="userSpaceOnUse"><stop stop-color="#0568EA"/><stop offset="1" stop-color="#08B5F7"/></linearGradient></defs></svg>