<svg width="50" height="50" viewBox="0 0 50 50" fill="none" xmlns="http://www.w3.org/2000/svg">
<g clip-path="url(#clip0_188_810)">
<path d="M32.8073 0.0610862C32.8885 0.0615406 32.9697 0.0619949 33.0533 0.0624631C34.2309 0.0701829 35.377 0.102465 36.5244 0.390676C36.6045 0.410078 36.6847 0.42948 36.7673 0.44947C39.1076 1.0288 41.3631 2.01463 43.2627 3.51568C43.3425 3.57572 43.4223 3.63577 43.5045 3.69764C44.919 4.79804 46.1916 6.11416 47.1689 7.61724C47.2069 7.67516 47.245 7.73308 47.2842 7.79276C48.8826 10.2576 50.0029 13.1903 50.0208 16.1549C50.0215 16.2312 50.0222 16.3074 50.0229 16.386C50.0451 19.5644 50.0451 19.5644 49.708 20.8985C49.6875 20.9813 49.6671 21.064 49.646 21.1493C49.3948 22.1429 49.1064 23.0814 48.6341 23.9941C48.3816 24.8243 48.7238 25.795 48.8973 26.6235C48.9434 26.8441 48.9887 27.0648 49.0339 27.2856C49.1622 27.9127 49.2914 28.5396 49.4222 29.1662C49.5025 29.5515 49.5816 29.937 49.66 30.3226C49.6897 30.468 49.72 30.6134 49.7507 30.7586C50.2128 32.9435 50.2128 32.9435 49.8361 33.7525C49.5393 34.0574 49.2846 34.2528 48.8572 34.3174C48.0001 34.3132 47.1997 34.179 46.3647 34.0031C46.1234 33.9523 45.8818 33.9031 45.6402 33.8543C45.1281 33.7505 44.6165 33.6448 44.1049 33.5389C43.5094 33.4157 42.9138 33.2933 42.3177 33.1727C42.0806 33.1243 41.8439 33.0746 41.6071 33.0248C41.4612 32.9951 41.3153 32.9655 41.1694 32.9359C41.072 32.9149 41.072 32.9149 40.9726 32.8934C40.278 32.7558 39.7473 32.89 39.1123 33.1727C37.5714 33.82 35.9402 34.1571 34.2783 34.2774C34.2698 34.3734 34.2614 34.4695 34.2527 34.5685C33.9704 37.4747 32.9689 40.3025 31.2509 42.6758C31.1789 42.7758 31.1069 42.8757 31.0327 42.9787C29.6892 44.8021 28.0858 46.2609 26.1728 47.461C26.0702 47.5271 25.9676 47.5932 25.8619 47.6613C24.1742 48.6921 22.2525 49.3511 20.3134 49.7071C20.1756 49.7338 20.1756 49.7338 20.0349 49.7611C19.1061 49.9249 18.1897 49.9412 17.2495 49.939C17.1678 49.939 17.0862 49.939 17.0021 49.939C15.6647 49.9356 14.3883 49.8403 13.0869 49.5118C13.0106 49.493 12.9344 49.4742 12.8559 49.4548C12.2389 49.2984 11.635 49.1239 11.0552 48.8587C10.9653 48.8176 10.9653 48.8176 10.8736 48.7757C10.7128 48.6998 10.5541 48.6196 10.3956 48.539C9.55225 48.2844 8.57665 48.625 7.73444 48.7987C7.51056 48.8448 7.28654 48.8902 7.06246 48.9354C6.42604 49.0637 5.78979 49.1929 5.15385 49.3236C4.76289 49.404 4.37169 49.4831 3.98032 49.5614C3.83273 49.5912 3.68523 49.6215 3.53782 49.6522C1.33015 50.112 1.33015 50.112 0.525838 49.7376C0.220602 49.4404 0.0253804 49.1858 -0.0390625 48.7579C-0.0348711 47.9064 0.0981606 47.1132 0.275203 46.2842C0.326001 46.0462 0.375195 45.808 0.42403 45.5696C0.527786 45.0645 0.63351 44.5598 0.739461 44.0552C0.862688 43.4678 0.985082 42.8802 1.10564 42.2922C1.15399 42.0584 1.20371 41.8248 1.2535 41.5913C1.2832 41.4474 1.31284 41.3035 1.3424 41.1595C1.36864 41.0348 1.39488 40.91 1.42191 40.7815C1.48431 40.2811 1.4271 39.8263 1.22622 39.3635C1.19817 39.2965 1.17012 39.2294 1.14122 39.1603C1.11136 39.0898 1.0815 39.0192 1.05074 38.9466C0.79016 38.3032 0.578091 37.6609 0.409871 36.9874C0.381405 36.8752 0.381405 36.8752 0.352364 36.7607C0.0425953 35.4676 -0.0389436 34.1909 -0.0356859 32.8675C-0.0356328 32.786 -0.0355797 32.7046 -0.035525 32.6207C-0.0277439 30.0179 0.530066 27.6376 1.66109 25.293C1.69 25.2327 1.7189 25.1723 1.74869 25.1102C2.60757 23.3446 3.79556 21.889 5.17672 20.5079C5.23412 20.4471 5.29152 20.3863 5.35067 20.3236C7.92138 17.6302 12.0189 15.8706 15.7236 15.7227C15.7309 15.6219 15.7382 15.521 15.7457 15.4172C16.1036 11.1888 18.2154 7.07745 21.4243 4.29082C23.46 2.58652 25.7088 1.29748 28.2846 0.604299C28.3508 0.586447 28.417 0.568595 28.4853 0.550202C29.9202 0.191008 31.3311 0.0462608 32.8073 0.0610862ZM22.7548 7.22661C22.5161 7.47873 22.2921 7.74 22.0712 8.00786C21.978 8.11757 21.978 8.11757 21.8828 8.2295C20.587 9.78997 19.6882 11.6289 19.1416 13.5743C19.1209 13.6456 19.1002 13.7169 19.0789 13.7904C18.5101 15.8325 18.5046 18.3595 19.0439 20.4102C19.0601 20.4759 19.0764 20.5416 19.0931 20.6093C19.6316 22.7677 20.6544 24.8236 22.1689 26.4649C22.2262 26.527 22.2834 26.589 22.3424 26.653C23.7239 28.13 25.2028 29.2553 27.0517 30.0782C27.1688 30.1312 27.2859 30.1842 27.4065 30.2388C30.1592 31.413 33.5384 31.7048 36.4267 30.8594C36.5022 30.8375 36.5777 30.8155 36.6556 30.7929C37.5475 30.5262 38.3995 30.1989 39.2381 29.7951C40.0471 29.5176 40.891 29.7781 41.7021 29.9439C41.8338 29.9702 41.9655 29.9965 42.0973 30.0227C42.442 30.0914 42.7865 30.161 43.131 30.2308C43.6839 30.3427 44.2371 30.4534 44.7904 30.5639C44.9832 30.6026 45.1759 30.6416 45.3686 30.6808C45.5437 30.7159 45.5437 30.7159 45.7223 30.7519C45.8251 30.7727 45.9279 30.7935 46.0339 30.8149C46.2948 30.8678 46.2948 30.8678 46.583 30.8594C46.4751 30.0406 46.3202 29.2341 46.155 28.4253C46.1227 28.2672 46.1227 28.2672 46.0899 28.106C45.9996 27.6647 45.909 27.2235 45.8176 26.7824C45.7503 26.4574 45.684 26.1321 45.6178 25.8069C45.5867 25.6587 45.5867 25.6587 45.555 25.5075C45.2738 24.1166 45.2738 24.1166 45.5614 23.5158C45.5937 23.4451 45.6259 23.3744 45.6592 23.3016C45.6941 23.2276 45.7291 23.1537 45.7651 23.0774C46.0685 22.3973 46.3187 21.7188 46.5219 21.0022C46.5452 20.9215 46.5684 20.8408 46.5924 20.7577C46.9122 19.5958 47.0103 18.4664 47.0041 17.2669C47.0039 17.1956 47.0038 17.1244 47.0036 17.051C46.9991 15.9944 46.9516 14.9915 46.6806 13.9649C46.6633 13.8971 46.6461 13.8293 46.6283 13.7595C45.6995 10.1624 43.4168 7.05782 40.2338 5.12967C34.5763 1.80744 27.4652 2.57513 22.7548 7.22661ZM7.12984 22.8516C7.05985 22.9166 6.98986 22.9815 6.91774 23.0485C4.66456 25.1935 3.16766 28.4888 3.01099 31.5925C2.96837 34.0344 2.96837 34.0344 3.4189 36.4258C3.44087 36.5013 3.46284 36.5769 3.48547 36.6547C3.75211 37.5466 4.07943 38.3987 4.4832 39.2373C4.7591 40.0415 4.50203 40.8742 4.33443 41.6798C4.30808 41.8093 4.28181 41.9389 4.25561 42.0685C4.1869 42.4074 4.11734 42.7461 4.04754 43.0848C3.93563 43.6285 3.82495 44.1725 3.71443 44.7165C3.67577 44.906 3.63668 45.0955 3.59757 45.285C3.56238 45.4571 3.56238 45.4571 3.52648 45.6327C3.49525 45.7844 3.49525 45.7844 3.46339 45.939C3.41043 46.1968 3.41043 46.1968 3.4189 46.4844C4.27517 46.3829 5.1159 46.2289 5.96026 46.0564C6.11817 46.0242 6.11817 46.0242 6.27927 45.9913C6.71927 45.9011 7.15915 45.8104 7.59891 45.7191C7.92332 45.6518 8.24792 45.5855 8.57256 45.5193C8.67104 45.4986 8.76953 45.4778 8.871 45.4564C9.62656 45.3032 10.2783 45.1965 11.009 45.5124C11.1092 45.5546 11.2094 45.5967 11.3126 45.64C11.4167 45.685 11.5208 45.7301 11.6281 45.7764C12.5274 46.1504 13.3986 46.4871 14.3564 46.6797C14.4374 46.6966 14.5185 46.7135 14.602 46.7309C15.4384 46.89 16.2613 46.91 17.1091 46.9056C17.1803 46.9054 17.2516 46.9052 17.325 46.905C18.3819 46.9006 19.3841 46.8522 20.4111 46.5821C20.4768 46.5658 20.5425 46.5496 20.6102 46.5329C24.2848 45.6161 27.3911 43.2331 29.3611 40.0124C30.4097 38.2394 31.0171 36.3202 31.2509 34.2774C30.776 34.1808 30.3011 34.0857 29.8239 34.0016C28.0097 33.674 26.3226 33.1194 24.708 32.2266C24.6443 32.1917 24.5807 32.1567 24.5151 32.1207C23.4303 31.5215 23.4303 31.5215 23.1586 31.2904C22.9044 31.1221 22.7607 31.1157 22.4579 31.1154C22.3586 31.1146 22.2594 31.1138 22.1571 31.113C22.0488 31.1136 21.9405 31.1142 21.8288 31.1148C21.7143 31.1143 21.5998 31.1138 21.4818 31.1132C21.168 31.112 20.8543 31.1121 20.5406 31.1126C20.2119 31.1128 19.8833 31.1111 19.5547 31.1095C18.7192 31.1058 17.8836 31.1046 17.0481 31.1036C16.1463 31.1025 15.2446 31.101 14.3428 31.0967C14.0158 31.0952 13.6888 31.0943 13.3618 31.0948C12.9971 31.0953 12.6324 31.094 12.2677 31.0923C12.1596 31.0929 12.0514 31.0935 11.94 31.0941C11.0237 31.0868 11.0237 31.0868 10.6455 30.7618C10.3686 30.4039 10.3124 30.1357 10.3159 29.6876C10.3147 29.5395 10.3147 29.5395 10.3136 29.3885C10.371 28.9654 10.5111 28.7179 10.8483 28.4554C11.2227 28.2783 11.5633 28.2774 11.9691 28.2781C12.052 28.2771 12.135 28.2761 12.2204 28.2751C12.4936 28.2722 12.7668 28.2713 13.04 28.2704C13.2297 28.2687 13.4195 28.267 13.6093 28.2651C14.1081 28.2604 14.6069 28.2575 15.1057 28.255C15.615 28.2521 16.1243 28.2475 16.6336 28.2431C17.6323 28.2347 18.6311 28.2281 19.6298 28.2227C19.4393 27.8997 19.2381 27.5956 19.0136 27.295C17.4655 25.2077 16.5227 22.8527 16.0166 20.3126C15.9928 20.1934 15.9928 20.1934 15.9685 20.0719C15.882 19.6321 15.8004 19.1917 15.7236 18.7501C12.5232 18.7501 9.35193 20.7075 7.12984 22.8516Z" fill="white"/>
<path d="M34.8642 9.08199C35.0022 9.15657 35.0022 9.15657 35.143 9.23267C36.277 9.90144 36.8934 10.8043 37.3197 12.0437C37.6194 13.3302 37.4447 14.6637 36.7501 15.7898C36.0937 16.6934 35.3939 17.2239 34.3759 17.6757C34.375 17.7466 34.374 17.8175 34.3731 17.8906C34.3678 18.2137 34.3597 18.5367 34.3515 18.8598C34.3501 18.9714 34.3487 19.0829 34.3473 19.1978C34.3166 20.2519 34.3166 20.2519 33.8876 20.7031C33.3776 21.0992 32.8472 21.0716 32.2274 20.996C31.7867 20.7873 31.5494 20.5612 31.3485 20.1171C31.2136 19.4695 31.2291 18.8168 31.2274 18.1584C31.2265 17.9398 31.2234 17.7213 31.2204 17.5027C31.2075 15.7749 31.2075 15.7749 31.7758 15.1916C32.1845 14.9483 32.5358 14.8405 33.0026 14.7644C33.4981 14.6698 33.7393 14.5294 34.0829 14.1601C34.3369 13.7445 34.3452 13.2667 34.2782 12.7929C34.046 12.3196 33.7635 12.0657 33.3017 11.8164C32.8553 11.6708 32.5583 11.7414 32.1324 11.8965C31.7025 12.1467 31.4796 12.3903 31.3336 12.8688C31.3069 13.004 31.2814 13.1395 31.257 13.2751C31.1246 13.8968 31.0008 14.2754 30.4696 14.6484C29.9675 14.8158 29.42 14.834 28.9254 14.6362C28.5157 14.285 28.2531 14.041 28.1621 13.5059C28.1759 12.6749 28.2375 11.9884 28.6142 11.2304C28.6544 11.1473 28.6947 11.0643 28.7362 10.9787C29.3355 9.86858 30.291 9.18534 31.4649 8.77872C32.5565 8.52233 33.8676 8.5432 34.8642 9.08199Z" fill="white"/>
<path d="M11.6481 34.4348C11.8006 34.4333 11.8006 34.4333 11.9563 34.4318C12.1221 34.4325 12.1221 34.4325 12.2913 34.4332C12.4085 34.4325 12.5258 34.4318 12.6466 34.4311C12.9674 34.4297 13.2882 34.4295 13.609 34.4301C13.8772 34.4304 14.1453 34.4298 14.4135 34.4292C15.0463 34.4278 15.6791 34.428 16.3119 34.4291C16.964 34.4302 17.616 34.4288 18.2681 34.4262C18.8287 34.424 19.3893 34.4234 19.9499 34.424C20.2843 34.4243 20.6188 34.4241 20.9533 34.4224C21.3264 34.4209 21.6995 34.422 22.0726 34.4236C22.1829 34.4227 22.2933 34.4217 22.407 34.4208C23.0086 34.4264 23.3736 34.4559 23.8289 34.8633C24.225 35.3733 24.1974 35.9036 24.1219 36.5234C23.908 36.9748 23.6818 37.1781 23.2429 37.4023C22.9954 37.4395 22.9954 37.4395 22.7285 37.4402C22.5759 37.4416 22.5759 37.4416 22.4202 37.4431C22.3097 37.4427 22.1991 37.4422 22.0852 37.4418C21.968 37.4424 21.8507 37.4431 21.7299 37.4438C21.4091 37.4453 21.0883 37.4454 20.7675 37.4449C20.4993 37.4446 20.2312 37.4452 19.963 37.4458C19.3302 37.4471 18.6974 37.447 18.0646 37.4459C17.4125 37.4448 16.7605 37.4461 16.1084 37.4487C15.5478 37.4509 14.9872 37.4516 14.4267 37.451C14.0922 37.4507 13.7577 37.4509 13.4232 37.4526C13.0501 37.454 12.6771 37.453 12.3039 37.4513C12.1936 37.4523 12.0832 37.4532 11.9695 37.4542C11.368 37.4485 11.0029 37.4191 10.5476 37.0117C10.1515 36.5017 10.1791 35.9713 10.2547 35.3515C10.5468 34.7348 10.9641 34.4366 11.6481 34.4348Z" fill="white"/>
<path d="M33.3983 22.7539C33.849 22.9674 34.0554 23.193 34.2772 23.6328C34.3581 24.1746 34.3479 24.6554 34.1124 25.1526C33.8095 25.4719 33.5561 25.66 33.1148 25.726C32.5144 25.7267 32.0982 25.7272 31.6405 25.293C31.2606 24.7616 31.2703 24.2658 31.3475 23.6328C31.7734 22.7338 32.4853 22.6426 33.3983 22.7539Z" fill="white"/>
</g>
<defs>
<clipPath id="clip0_188_810">
<rect width="50" height="50" fill="white"/>
</clipPath>
</defs>
</svg>
