<svg width="24" height="24" viewBox="0 0 24 24" fill="none" xmlns="http://www.w3.org/2000/svg">
<path d="M4.53716 1.25873C4.5803 1.25856 4.62344 1.25839 4.66789 1.25821C4.81335 1.25769 4.9588 1.25751 5.10425 1.25734C5.20818 1.25704 5.31211 1.25673 5.41604 1.2564C5.69903 1.25558 5.98203 1.25509 6.26503 1.2547C6.44172 1.25446 6.61841 1.25418 6.79509 1.25388C7.28423 1.25309 7.77336 1.25241 8.26249 1.25207C8.38944 1.25198 8.5164 1.25189 8.64336 1.2518C8.67491 1.25177 8.70647 1.25175 8.73898 1.25173C9.25015 1.25134 9.76131 1.25015 10.2725 1.24863C10.7972 1.24708 11.3219 1.24625 11.8466 1.24608C12.1413 1.24597 12.4359 1.24555 12.7306 1.24438C13.0077 1.24329 13.2849 1.24308 13.5621 1.24357C13.6638 1.24359 13.7656 1.24329 13.8674 1.24265C14.0063 1.24182 14.1451 1.24215 14.284 1.24277C14.3445 1.242 14.3445 1.242 14.4062 1.24121C14.7371 1.24477 14.9288 1.37005 15.1619 1.60223C15.1906 1.63055 15.2192 1.65886 15.2487 1.68804C15.2791 1.71856 15.3095 1.74907 15.3409 1.78051C15.3737 1.81308 15.4065 1.84565 15.4403 1.87921C15.5481 1.98639 15.6556 2.09392 15.7631 2.20148C15.8381 2.27633 15.9131 2.35117 15.9882 2.426C16.1452 2.58263 16.3019 2.73943 16.4586 2.89636C16.6595 3.09747 16.8608 3.29803 17.0623 3.49846C17.2173 3.65275 17.372 3.80737 17.5265 3.96208C17.6007 4.03618 17.6749 4.11017 17.7492 4.18405C17.853 4.28726 17.9564 4.39091 18.0596 4.49469C18.0904 4.52511 18.1212 4.55553 18.1529 4.58687C18.3734 4.80996 18.4817 4.97782 18.48 5.29996C18.48 5.34593 18.48 5.3919 18.48 5.43926C18.4795 5.48829 18.479 5.53732 18.4785 5.58784C18.4783 5.66381 18.4783 5.66381 18.4781 5.74132C18.4776 5.90275 18.4764 6.06417 18.4752 6.22559C18.4747 6.33518 18.4743 6.44477 18.4739 6.55436C18.4729 6.8227 18.4713 7.09104 18.4693 7.35938C18.5561 7.36935 18.5561 7.36935 18.6446 7.37951C19.8354 7.52895 20.9489 8.3163 21.6788 9.24024C22.5287 10.4278 22.9107 11.8018 22.6963 13.2576C22.4663 14.5933 21.7282 15.8416 20.6197 16.6377C20.5441 16.6864 20.4679 16.7343 20.3912 16.7813C20.3508 16.8079 20.3104 16.8346 20.2687 16.862C19.733 17.1992 19.1321 17.3999 18.5162 17.5313C18.5158 17.5726 18.5158 17.5726 18.5154 17.6148C18.5124 17.9022 18.5084 18.1897 18.5039 18.4771C18.5024 18.5843 18.5011 18.6915 18.5 18.7987C18.4984 18.953 18.496 19.1073 18.4933 19.2616C18.493 19.3094 18.4927 19.3571 18.4924 19.4063C18.4872 19.658 18.475 19.8477 18.3287 20.0625C18.1541 20.1789 18.0648 20.1671 17.8565 20.1654C17.8244 20.1653 17.7924 20.1651 17.7594 20.165C17.6571 20.1645 17.555 20.1633 17.4527 20.1621C17.3834 20.1616 17.314 20.1612 17.2446 20.1608C17.0748 20.1598 16.9049 20.1582 16.735 20.1563C16.7354 20.1845 16.7358 20.2128 16.7362 20.2419C16.7404 20.5362 16.7432 20.8304 16.7453 21.1247C16.7462 21.2345 16.7475 21.3443 16.7491 21.4541C16.7514 21.612 16.7525 21.7699 16.7533 21.9278C16.7543 21.9768 16.7552 22.0259 16.7562 22.0764C16.7563 22.4179 16.7563 22.4179 16.6459 22.6002C16.494 22.7349 16.4093 22.7403 16.21 22.7407C16.1581 22.7409 16.1061 22.7411 16.0526 22.7413C15.995 22.7413 15.9374 22.7413 15.8781 22.7413C15.787 22.7415 15.787 22.7415 15.6939 22.7418C15.5246 22.7423 15.3554 22.7424 15.1861 22.7426C15.0037 22.7428 14.8213 22.7432 14.639 22.7436C14.1983 22.7445 13.7577 22.745 13.317 22.7454C13.1096 22.7456 12.9022 22.7459 12.6949 22.7461C12.0058 22.7469 11.3167 22.7476 10.6276 22.7479C10.4487 22.748 10.2698 22.7481 10.0909 22.7482C10.0242 22.7483 10.0242 22.7483 9.95615 22.7483C9.2355 22.7487 8.51485 22.7499 7.79419 22.7514C7.05479 22.7529 6.31539 22.7538 5.57598 22.7539C5.16064 22.754 4.74531 22.7544 4.32997 22.7556C3.97632 22.7567 3.62268 22.757 3.26903 22.7566C3.08852 22.7564 2.90803 22.7565 2.72753 22.7574C2.53198 22.7583 2.33647 22.7579 2.14093 22.7572C2.05505 22.758 2.05505 22.758 1.96743 22.7588C1.58386 22.7559 1.58386 22.7559 1.39612 22.6451C1.25438 22.4774 1.26026 22.3733 1.25993 22.156C1.25982 22.125 1.25971 22.094 1.2596 22.0621C1.25928 21.9573 1.25931 21.8525 1.25932 21.7476C1.25917 21.6721 1.259 21.5966 1.2588 21.5211C1.25833 21.3128 1.25816 21.1045 1.25803 20.8962C1.25785 20.6718 1.2574 20.4475 1.25699 20.2231C1.25607 19.681 1.25559 19.1388 1.25518 18.5966C1.25497 18.3415 1.25472 18.0864 1.25447 17.8313C1.25368 16.9837 1.253 16.1361 1.25266 15.2885C1.25257 15.0684 1.25248 14.8484 1.25239 14.6283C1.25235 14.5463 1.25235 14.5463 1.25232 14.4626C1.25193 13.576 1.25074 12.6893 1.24922 11.8027C1.24767 10.8932 1.24682 9.98366 1.24668 9.07412C1.24657 8.56315 1.24616 8.05218 1.24497 7.54122C1.24395 7.10617 1.24357 6.67112 1.24403 6.23607C1.24424 6.01399 1.24415 5.79191 1.24324 5.56983C1.24242 5.36665 1.24246 5.16348 1.24319 4.96029C1.2433 4.88667 1.24309 4.81304 1.24254 4.73942C1.24184 4.63953 1.24228 4.53971 1.24302 4.43982C1.24297 4.38428 1.24293 4.32875 1.24288 4.27153C1.27102 4.09487 1.32991 4.01732 1.45372 3.89063C1.56808 3.83345 1.64118 3.83811 1.76896 3.83844C1.81494 3.83844 1.86092 3.83844 1.90829 3.83845C1.95805 3.83869 2.0078 3.83893 2.05907 3.83918C2.10992 3.83925 2.16077 3.83931 2.21316 3.83938C2.37603 3.83964 2.5389 3.84023 2.70177 3.84083C2.812 3.84106 2.92223 3.84128 3.03246 3.84147C3.30309 3.84199 3.57372 3.84277 3.84435 3.84376C3.84393 3.8155 3.84352 3.78725 3.84309 3.75814C3.83894 3.46386 3.83611 3.1696 3.83405 2.8753C3.83311 2.7655 3.83183 2.65569 3.8302 2.54589C3.82793 2.38799 3.82686 2.23013 3.82604 2.07221C3.82507 2.02318 3.8241 1.97415 3.82311 1.92363C3.823 1.58215 3.823 1.58215 3.93338 1.39979C4.12121 1.2333 4.29733 1.25868 4.53716 1.25873ZM4.73497 2.15626C4.73497 7.80235 4.73497 13.4484 4.73497 19.2656C8.95794 19.2656 13.1809 19.2656 17.5318 19.2656C17.5318 18.7088 17.5318 18.1519 17.5318 17.5781C17.339 17.5622 17.339 17.5622 17.1422 17.5459C15.7336 17.4058 14.4595 16.7766 13.5506 15.6779C13.1062 15.1152 12.7992 14.4708 12.61 13.7813C12.595 13.7304 12.5801 13.6796 12.5647 13.6273C12.2322 12.2923 12.5031 10.8773 13.1901 9.70606C13.3709 9.40907 13.5836 9.1533 13.8287 8.90626C13.8664 8.86662 13.9041 8.82698 13.943 8.78614C13.9826 8.74843 14.0223 8.71073 14.0631 8.67188C14.0929 8.64179 14.1227 8.6117 14.1534 8.5807C15.0805 7.68625 16.2838 7.3791 17.5318 7.26563C17.5318 6.70876 17.5318 6.15188 17.5318 5.57813C17.3073 5.57638 17.0828 5.57463 16.8514 5.57282C16.7092 5.5714 16.5669 5.56994 16.4246 5.56834C16.1988 5.56579 15.973 5.56339 15.7472 5.56189C15.5651 5.56067 15.3831 5.55878 15.201 5.55642C15.1316 5.55564 15.0621 5.5551 14.9927 5.55481C14.8954 5.55436 14.7981 5.55304 14.7008 5.55152C14.6177 5.55074 14.6177 5.55074 14.533 5.54995C14.3779 5.52951 14.3131 5.50071 14.2037 5.39063C13.8626 4.3674 14.1263 3.23471 14.11 2.15626C11.0162 2.15626 7.92247 2.15626 4.73497 2.15626ZM15.0006 2.81251C15.0006 3.43126 15.0006 4.05001 15.0006 4.68751C15.6193 4.68751 16.2381 4.68751 16.8756 4.68751C16.654 4.42692 16.654 4.42692 16.4212 4.18013C16.3904 4.14919 16.3596 4.11824 16.3278 4.08636C16.2956 4.05422 16.2634 4.02208 16.2302 3.98896C16.1963 3.95509 16.1625 3.92122 16.1277 3.88632C16.0568 3.8154 15.9858 3.74454 15.9148 3.67373C15.8056 3.56478 15.6967 3.45558 15.5877 3.34635C15.5187 3.27734 15.4496 3.20834 15.3805 3.13935C15.3478 3.10654 15.3151 3.07374 15.2814 3.03994C15.2514 3.01003 15.2213 2.98012 15.1903 2.9493C15.1638 2.92281 15.1373 2.89632 15.1099 2.86902C15.0557 2.80727 15.0557 2.80727 15.0006 2.81251ZM2.15685 4.73438C2.15685 10.3805 2.15685 16.0266 2.15685 21.8438C6.67372 21.8438 11.1906 21.8438 15.8443 21.8438C15.8443 21.2869 15.8443 20.73 15.8443 20.1563C15.698 20.1558 15.5516 20.1553 15.4007 20.1548C14.0589 20.1503 12.7171 20.1457 11.3752 20.1407C11.1994 20.1401 11.0236 20.1394 10.8479 20.1388C10.8129 20.1387 10.7779 20.1385 10.7418 20.1384C10.1748 20.1364 9.60779 20.1344 9.04078 20.1326C8.45918 20.1307 7.87757 20.1286 7.29597 20.1264C6.93696 20.125 6.57795 20.1238 6.21893 20.1227C5.94385 20.1219 5.66878 20.1208 5.3937 20.1197C5.2807 20.1192 5.16769 20.1189 5.05469 20.1186C4.9008 20.1182 4.74692 20.1175 4.59303 20.1168C4.52546 20.1167 4.52546 20.1167 4.45652 20.1167C4.39473 20.1163 4.39473 20.1163 4.33169 20.1159C4.29616 20.1158 4.26063 20.1156 4.22403 20.1155C4.12077 20.1091 4.03504 20.0993 3.9381 20.0625C3.88991 19.9179 3.88513 19.8189 3.88472 19.6674C3.88447 19.6142 3.88421 19.561 3.88395 19.5062C3.8839 19.4475 3.88385 19.3889 3.88381 19.3284C3.88359 19.2656 3.88336 19.2029 3.88311 19.1401C3.88247 18.9673 3.88212 18.7944 3.88182 18.6216C3.88144 18.4353 3.8808 18.2491 3.88019 18.0628C3.87917 17.74 3.87832 17.4172 3.87759 17.0944C3.87652 16.6276 3.8752 16.1609 3.87382 15.6941C3.87159 14.9369 3.86956 14.1797 3.86766 13.4225C3.86582 12.6868 3.86387 11.9511 3.8618 11.2155C3.86167 11.1701 3.86155 11.1248 3.86141 11.0781C3.86077 10.8507 3.86013 10.6233 3.85948 10.3959C3.85414 8.50874 3.84915 6.62156 3.84435 4.73438C3.28747 4.73438 2.7306 4.73438 2.15685 4.73438ZM14.2728 9.69709C13.5481 10.6101 13.2195 11.7327 13.3131 12.8906C13.3783 13.3826 13.5165 13.8511 13.735 14.2969C13.7556 14.34 13.7763 14.3832 13.7976 14.4276C13.9693 14.7643 14.1876 15.0462 14.4381 15.3281C14.4821 15.3781 14.4821 15.3781 14.5271 15.429C15.2247 16.1722 16.2953 16.655 17.3129 16.6987C18.5539 16.7269 19.6417 16.3419 20.5614 15.4914C21.3842 14.6924 21.8291 13.5715 21.859 12.4336C21.8399 11.4199 21.5029 10.3349 20.775 9.60059C20.7256 9.55617 20.6759 9.51215 20.6256 9.46876C20.5869 9.42912 20.5483 9.38948 20.5084 9.34864C19.7059 8.56618 18.6945 8.16932 17.5787 8.13868C16.2764 8.17444 15.1307 8.72242 14.2728 9.69709Z" fill="url(#paint0_linear_290_681)"/>
<path d="M19.7822 10.6406C19.9227 10.7124 19.9933 10.7638 20.0477 10.9142C20.083 11.0947 20.0837 11.1696 19.9853 11.3329C19.8721 11.4897 19.7479 11.6254 19.6109 11.7609C19.585 11.7869 19.559 11.8129 19.5323 11.8397C19.4473 11.9249 19.3619 12.0098 19.2765 12.0947C19.2171 12.1541 19.1576 12.2134 19.0983 12.2729C18.9741 12.3969 18.8498 12.5208 18.7254 12.6446C18.5658 12.8034 18.4064 12.9626 18.2472 13.1219C18.1247 13.2443 18.0021 13.3667 17.8795 13.489C17.8207 13.5477 17.7619 13.6064 17.7031 13.6651C17.6212 13.7469 17.5391 13.8285 17.457 13.9101C17.4327 13.9345 17.4083 13.9589 17.3832 13.984C17.2276 14.1382 17.1359 14.2113 16.917 14.2266C16.7387 14.2215 16.6535 14.1947 16.5229 14.0733C16.4907 14.0435 16.4585 14.0137 16.4253 13.983C16.2186 13.7834 16.0129 13.5831 15.8097 13.3799C15.7328 13.3031 15.6556 13.2268 15.5783 13.1504C15.529 13.1012 15.4798 13.0521 15.4305 13.0029C15.3961 12.969 15.3961 12.969 15.361 12.9344C15.201 12.7733 15.1085 12.6528 15.0742 12.4278C15.0964 12.2696 15.1402 12.1714 15.2504 12.054C15.3775 11.9668 15.4851 11.9577 15.6367 11.9716C15.7694 12.0046 15.8273 12.0495 15.9273 12.1417C15.9596 12.1714 15.9919 12.201 16.0251 12.2315C16.194 12.3933 16.3601 12.5574 16.5244 12.7237C16.5585 12.7579 16.5926 12.7922 16.6277 12.8276C16.7106 12.911 16.7933 12.9945 16.876 13.0781C17.1414 12.859 17.3844 12.6223 17.6266 12.3779C17.6956 12.3083 17.7648 12.2388 17.8341 12.1693C17.9807 12.0222 18.1271 11.8749 18.2734 11.7276C18.444 11.5559 18.6146 11.3843 18.7854 11.213C18.8536 11.1445 18.9216 11.0759 18.9897 11.0072C19.0308 10.9659 19.072 10.9246 19.1144 10.882C19.1507 10.8455 19.187 10.809 19.2243 10.7713C19.391 10.6146 19.5621 10.6116 19.7822 10.6406Z" fill="url(#paint1_linear_290_681)"/>
<path d="M7.18604 6.39157C7.23964 6.39116 7.29325 6.39075 7.34848 6.39033C7.52567 6.3893 7.70281 6.38998 7.88 6.39077C8.00312 6.39062 8.12624 6.39039 8.24935 6.39009C8.50738 6.38967 8.76538 6.39023 9.02341 6.39135C9.32145 6.39262 9.61946 6.39221 9.91751 6.39092C10.2046 6.38972 10.4916 6.38985 10.7787 6.39054C10.9007 6.39069 11.0227 6.3905 11.1447 6.38996C11.3151 6.38936 11.4855 6.39027 11.656 6.39157C11.7065 6.3911 11.757 6.39063 11.8091 6.39014C12.1507 6.39499 12.1507 6.39499 12.3341 6.53238C12.4361 6.6777 12.4679 6.75987 12.4679 6.93753C12.3766 7.18727 12.3766 7.18727 12.2424 7.27292C12.1254 7.31806 12.0376 7.32457 11.9124 7.32506C11.8667 7.32546 11.821 7.32586 11.774 7.32627C11.7242 7.32623 11.6744 7.32619 11.6231 7.32614C11.5704 7.32646 11.5177 7.32677 11.4634 7.3271C11.289 7.32799 11.1146 7.32817 10.9402 7.32827C10.8192 7.32857 10.6981 7.32889 10.577 7.32922C10.3231 7.32978 10.0692 7.32996 9.81535 7.3299C9.52208 7.32984 9.22882 7.33083 8.93555 7.33231C8.65318 7.33369 8.37082 7.33402 8.08845 7.33397C7.9684 7.33408 7.84836 7.33449 7.72832 7.33522C7.56055 7.33613 7.39282 7.33587 7.22505 7.3353C7.15049 7.33609 7.15049 7.33609 7.07442 7.3369C6.73761 7.334 6.73761 7.334 6.55534 7.22321C6.4192 7.07034 6.4114 6.96087 6.39648 6.7579C6.49281 6.35894 6.85524 6.38847 7.18604 6.39157Z" fill="url(#paint2_linear_290_681)"/>
<path d="M7.18646 3.81345C7.24007 3.81304 7.29368 3.81263 7.34891 3.8122C7.5261 3.81117 7.70324 3.81186 7.88043 3.81265C8.00355 3.81249 8.12666 3.81226 8.24978 3.81197C8.5078 3.81154 8.76581 3.8121 9.02383 3.81322C9.32188 3.8145 9.61989 3.81408 9.91793 3.81279C10.205 3.8116 10.492 3.81173 10.7791 3.81241C10.9011 3.81257 11.0231 3.81238 11.1451 3.81183C11.3156 3.81124 11.486 3.81214 11.6564 3.81345C11.7069 3.81297 11.7575 3.8125 11.8095 3.81201C12.1512 3.81687 12.1512 3.81687 12.3345 3.95425C12.4365 4.09957 12.4683 4.18174 12.4683 4.3594C12.3771 4.60917 12.3771 4.60917 12.2428 4.69478C12.126 4.73988 12.0382 4.74656 11.9131 4.74725C11.8447 4.74795 11.8447 4.74795 11.7749 4.74867C11.7252 4.7487 11.6755 4.74873 11.6242 4.74876C11.5716 4.74915 11.519 4.74954 11.4648 4.74995C11.2906 4.75108 11.1165 4.75149 10.9423 4.7518C10.8214 4.75222 10.7004 4.75264 10.5794 4.75308C10.3257 4.75385 10.072 4.75421 9.81835 4.75435C9.52545 4.75452 9.23257 4.75592 8.93967 4.75788C8.65756 4.75971 8.37545 4.76024 8.09332 4.76029C7.97345 4.76049 7.85358 4.76107 7.73371 4.76205C7.56605 4.76331 7.39846 4.76308 7.2308 4.7625C7.15649 4.76354 7.15649 4.76354 7.08068 4.7646C6.70509 4.76086 6.70509 4.76086 6.5313 4.62214C6.41881 4.49709 6.38371 4.45385 6.38922 4.28909C6.38904 4.25477 6.38886 4.22045 6.38867 4.18508C6.51065 3.78711 6.83824 3.81018 7.18646 3.81345Z" fill="url(#paint3_linear_290_681)"/>
<path d="M9.61035 11.625C9.74496 11.7379 9.75108 11.8131 9.78027 11.9883C9.77367 12.1609 9.72261 12.2395 9.60675 12.3654C9.57692 12.398 9.54709 12.4305 9.51636 12.4641C9.37153 12.6165 9.22512 12.7669 9.07623 12.9153C9.02888 12.9627 9.02888 12.9627 8.98058 13.0111C8.91458 13.0771 8.84852 13.1431 8.78241 13.209C8.68092 13.3103 8.57969 13.4117 8.47849 13.5133C8.41408 13.5776 8.34966 13.642 8.28522 13.7063C8.25495 13.7367 8.22467 13.7671 8.19348 13.7984C8.15144 13.8402 8.15144 13.8402 8.10855 13.8828C8.08394 13.9074 8.05932 13.932 8.03396 13.9573C7.89582 14.0827 7.75451 14.0926 7.57404 14.0903C7.32202 14.0318 7.15946 13.8208 6.98535 13.6406C6.92073 13.5775 6.92073 13.5775 6.8548 13.5132C6.40964 13.0776 6.40964 13.0776 6.40234 12.8261C6.40697 12.6595 6.42142 12.6115 6.5166 12.4658C6.66025 12.373 6.76073 12.3351 6.93317 12.3459C7.09316 12.3929 7.19384 12.4931 7.31091 12.6084C7.38964 12.6858 7.46894 12.756 7.55387 12.8262C7.59829 12.8629 7.64271 12.8996 7.68848 12.9375C7.72676 12.8982 7.76505 12.8589 7.8045 12.8185C7.94711 12.6725 8.09035 12.5271 8.23379 12.3819C8.2957 12.319 8.35744 12.256 8.419 12.1928C8.50769 12.1018 8.59698 12.0115 8.6864 11.9212C8.72729 11.8789 8.72729 11.8789 8.769 11.8357C9.03232 11.5722 9.24589 11.4737 9.61035 11.625Z" fill="url(#paint4_linear_290_681)"/>
<path d="M9.51465 15C9.6582 15.0938 9.6582 15.0938 9.74902 15.2344C9.78041 15.3939 9.79289 15.4601 9.74902 15.6094C9.68582 15.6982 9.68582 15.6982 9.60412 15.7872C9.57434 15.8198 9.54456 15.8524 9.51388 15.886C9.37064 16.0376 9.22619 16.1876 9.07922 16.3356C9.04799 16.3671 9.01676 16.3986 8.98458 16.431C8.91917 16.4969 8.85371 16.5626 8.78818 16.6284C8.68808 16.7289 8.58849 16.83 8.48889 16.931C8.42496 16.9953 8.36099 17.0595 8.297 17.1237C8.26745 17.1538 8.2379 17.1839 8.20746 17.2149C8.02113 17.4003 7.87582 17.5281 7.60156 17.5342C7.37736 17.4594 7.24432 17.3199 7.07715 17.1563C7.05221 17.132 7.02727 17.1077 7.00157 17.0826C6.41449 16.5091 6.41449 16.5091 6.40625 16.248C6.40753 16.0889 6.41029 16.0454 6.50879 15.9141C6.69098 15.7855 6.80554 15.7679 7.03027 15.7969C7.13257 15.8668 7.21844 15.9441 7.30731 16.0303C7.38679 16.1071 7.46699 16.1778 7.55202 16.2481C7.59641 16.2848 7.64079 16.3215 7.68652 16.3594C7.74293 16.3026 7.74293 16.3026 7.80047 16.2447C7.94004 16.1043 8.07976 15.964 8.21953 15.8238C8.28 15.7631 8.34042 15.7023 8.40081 15.6416C8.48761 15.5542 8.57457 15.467 8.66156 15.3798C8.68852 15.3526 8.71548 15.3254 8.74325 15.2973C8.99607 15.0445 9.15757 14.9406 9.51465 15Z" fill="url(#paint5_linear_290_681)"/>
<path d="M6.95607 8.97041C7.01551 8.96982 7.07494 8.96923 7.13619 8.96863C7.20065 8.9692 7.26512 8.96983 7.32959 8.97051C7.39607 8.97047 7.46254 8.97036 7.52902 8.97017C7.66808 8.97003 7.80711 8.97072 7.94616 8.97201C8.12424 8.97361 8.30225 8.97333 8.48033 8.97245C8.61751 8.97195 8.75466 8.97237 8.89183 8.97308C8.95749 8.97332 9.02314 8.9733 9.0888 8.973C9.18056 8.97275 9.27233 8.97384 9.36409 8.97499C9.41626 8.97528 9.46843 8.97557 9.52218 8.97587C9.6871 9.00537 9.74191 9.05784 9.84454 9.18749C9.91044 9.36861 9.90897 9.52 9.83575 9.69726C9.71541 9.83835 9.62087 9.88511 9.43555 9.90284C9.36229 9.90316 9.36229 9.90316 9.28755 9.90349C9.23201 9.90394 9.17647 9.90438 9.11925 9.90484C9.02953 9.90478 9.02953 9.90478 8.93799 9.90472C8.87638 9.90492 8.81478 9.90512 8.75131 9.90532C8.621 9.90567 8.4907 9.90566 8.36039 9.90541C8.19373 9.90514 8.0271 9.90594 7.86044 9.90702C7.70107 9.90788 7.5417 9.90771 7.38232 9.90764C7.3226 9.90808 7.26288 9.90851 7.20135 9.90895C7.11782 9.90852 7.11782 9.90852 7.0326 9.90807C6.98373 9.9081 6.93485 9.90813 6.88449 9.90816C6.7287 9.88772 6.64215 9.84302 6.51642 9.74999C6.41741 9.60148 6.40713 9.50942 6.39648 9.33434C6.47055 9.05155 6.68958 8.97064 6.95607 8.97041Z" fill="url(#paint6_linear_290_681)"/>
<defs>
<linearGradient id="paint0_linear_290_681" x1="1.24219" y1="12" x2="22.7549" y2="12" gradientUnits="userSpaceOnUse">
<stop stop-color="#0568EA"/>
<stop offset="1" stop-color="#08B5F7"/>
</linearGradient>
<linearGradient id="paint1_linear_290_681" x1="15.0742" y1="12.4265" x2="20.0694" y2="12.4265" gradientUnits="userSpaceOnUse">
<stop stop-color="#0568EA"/>
<stop offset="1" stop-color="#08B5F7"/>
</linearGradient>
<linearGradient id="paint2_linear_290_681" x1="6.39648" y1="6.86333" x2="12.4679" y2="6.86333" gradientUnits="userSpaceOnUse">
<stop stop-color="#0568EA"/>
<stop offset="1" stop-color="#08B5F7"/>
</linearGradient>
<linearGradient id="paint3_linear_290_681" x1="6.38867" y1="4.28812" x2="12.4683" y2="4.28812" gradientUnits="userSpaceOnUse">
<stop stop-color="#0568EA"/>
<stop offset="1" stop-color="#08B5F7"/>
</linearGradient>
<linearGradient id="paint4_linear_290_681" x1="6.40234" y1="12.8221" x2="9.78027" y2="12.8221" gradientUnits="userSpaceOnUse">
<stop stop-color="#0568EA"/>
<stop offset="1" stop-color="#08B5F7"/>
</linearGradient>
<linearGradient id="paint5_linear_290_681" x1="6.40625" y1="16.2589" x2="9.77743" y2="16.2589" gradientUnits="userSpaceOnUse">
<stop stop-color="#0568EA"/>
<stop offset="1" stop-color="#08B5F7"/>
</linearGradient>
<linearGradient id="paint6_linear_290_681" x1="6.39648" y1="9.43879" x2="9.89239" y2="9.43879" gradientUnits="userSpaceOnUse">
<stop stop-color="#0568EA"/>
<stop offset="1" stop-color="#08B5F7"/>
</linearGradient>
</defs>
</svg>
