<svg xmlns="http://www.w3.org/2000/svg" width="76" height="76" viewBox="0 0 76 76" fill="none"><path d="M41.0089 1.76785C41.6301 2.47779 42.4703 2.94706 43.3887 3.09698C44.3071 3.2469 45.2479 3.06835 46.0532 2.59126C46.544 2.29933 47.0893 2.11667 47.6535 2.05516C48.2178 1.99365 48.7883 2.05467 49.328 2.23424C49.8677 2.41382 50.3645 2.70793 50.7861 3.09745C51.2077 3.48696 51.5446 3.96315 51.775 4.49504C52.1511 5.36865 52.8098 6.08228 53.6397 6.51533C54.4695 6.94839 55.4197 7.07431 56.3296 6.87183C56.8852 6.75081 57.4594 6.7509 58.015 6.8721C58.5705 6.9933 59.0951 7.2329 59.5546 7.57538C60.014 7.91785 60.3982 8.35555 60.6822 8.8601C60.9662 9.36464 61.1437 9.92478 61.2031 10.5042C61.2976 11.4521 61.7075 12.3377 62.3638 13.0121C63.0202 13.6864 63.8829 14.1082 64.8069 14.2066C65.3719 14.2659 65.9184 14.4467 66.4108 14.7371C66.9031 15.0275 67.3302 15.4211 67.6644 15.8922C67.9985 16.3633 68.232 16.9013 68.3499 17.4712C68.4677 18.041 68.4671 18.63 68.3482 19.1996C68.1508 20.133 68.2736 21.1076 68.6958 21.9588C69.1179 22.81 69.8137 23.4856 70.6654 23.8715C71.1852 24.1071 71.6507 24.4525 72.0316 24.8851C72.4125 25.3177 72.7002 25.8279 72.8758 26.3823C73.0515 26.9366 73.1113 27.5228 73.0512 28.1024C72.9911 28.6821 72.8125 29.2422 72.5271 29.7463C72.0607 30.5705 71.8853 31.5344 72.0304 32.4757C72.1756 33.417 72.6325 34.2782 73.3241 34.9145C73.7477 35.3034 74.0865 35.7796 74.3184 36.3119C74.5504 36.8442 74.6703 37.4207 74.6703 38.0038C74.6703 38.5869 74.5504 39.1634 74.3184 39.6957C74.0865 40.228 73.7477 40.7041 73.3241 41.093C72.6325 41.7293 72.1756 42.5906 72.0304 43.5319C71.8853 44.4732 72.0607 45.4371 72.5271 46.2613C72.8125 46.7653 72.9911 47.3255 73.0512 47.9052C73.1113 48.4848 73.0515 49.0709 72.8758 49.6253C72.7002 50.1797 72.4125 50.6898 72.0316 51.1225C71.6507 51.5551 71.1852 51.9005 70.6654 52.1361C69.8144 52.5228 69.1193 53.1986 68.6972 54.0496C68.2751 54.9005 68.1519 55.8747 68.3482 56.8079C68.4671 57.3776 68.4677 57.9665 68.3499 58.5364C68.232 59.1063 67.9985 59.6443 67.6644 60.1154C67.3302 60.5865 66.9031 60.9801 66.4108 61.2705C65.9184 61.5609 65.3719 61.7417 64.8069 61.801C63.8829 61.8994 63.0202 62.3212 62.3638 62.9955C61.7075 63.6698 61.2976 64.5555 61.2031 65.5034C61.1437 66.0828 60.9662 66.6429 60.6822 67.1475C60.3982 67.652 60.014 68.0897 59.5546 68.4322C59.0951 68.7747 58.5705 69.0143 58.015 69.1355C57.4594 69.2567 56.8852 69.2568 56.3296 69.1357C55.4197 68.9333 54.4695 69.0592 53.6397 69.4922C52.8098 69.9253 52.1511 70.6389 51.775 71.5125C51.5446 72.0444 51.2077 72.5206 50.7861 72.9101C50.3645 73.2996 49.8677 73.5938 49.328 73.7733C48.7883 73.9529 48.2178 74.0139 47.6535 73.9524C47.0893 73.8909 46.544 73.7082 46.0532 73.4163C45.2479 72.9392 44.3071 72.7607 43.3887 72.9106C42.4703 73.0605 41.6301 73.5298 41.0089 74.2397C40.6293 74.6724 40.1653 75.0183 39.6469 75.2551C39.1286 75.492 38.5675 75.6143 38 75.6143C37.4325 75.6143 36.8714 75.492 36.3531 75.2551C35.8347 75.0183 35.3707 74.6724 34.9911 74.2397C34.3699 73.5298 33.5297 73.0605 32.6113 72.9106C31.6929 72.7607 30.7521 72.9392 29.9468 73.4163C29.4559 73.7082 28.9107 73.8909 28.3464 73.9524C27.7822 74.0139 27.2117 73.9529 26.672 73.7733C26.1323 73.5938 25.6355 73.2996 25.2139 72.9101C24.7923 72.5206 24.4554 72.0444 24.225 71.5125C23.8488 70.6389 23.1902 69.9253 22.3603 69.4922C21.5305 69.0592 20.5803 68.9333 19.6704 69.1357C19.1148 69.2568 18.5406 69.2567 17.985 69.1355C17.4295 69.0143 16.9049 68.7747 16.4454 68.4322C15.986 68.0897 15.6018 67.652 15.3178 67.1475C15.0338 66.6429 14.8563 66.0828 14.7969 65.5034C14.7024 64.5555 14.2925 63.6698 13.6362 62.9955C12.9798 62.3212 12.117 61.8994 11.193 61.801C10.628 61.7417 10.0816 61.5609 9.58924 61.2705C9.0969 60.9801 8.66975 60.5865 8.33564 60.1154C8.00153 59.6443 7.76793 59.1063 7.65011 58.5364C7.53228 57.9665 7.53285 57.3776 7.65179 56.8079C7.84809 55.8747 7.72483 54.9005 7.30277 54.0496C6.88071 53.1986 6.18564 52.5228 5.33463 52.1361C4.81481 51.9005 4.34926 51.5551 3.96838 51.1225C3.58749 50.6898 3.29982 50.1797 3.12414 49.6253C2.94846 49.0709 2.88872 48.4848 2.94882 47.9052C3.00891 47.3255 3.18749 46.7653 3.4729 46.2613C3.93933 45.4371 4.11473 44.4732 3.96956 43.5319C3.82439 42.5906 3.36752 41.7293 2.67584 41.093C2.25232 40.7041 1.91352 40.228 1.68157 39.6957C1.44961 39.1634 1.32971 38.5869 1.32971 38.0038C1.32971 37.4207 1.44961 36.8442 1.68157 36.3119C1.91352 35.7796 2.25232 35.3034 2.67584 34.9145C3.36752 34.2782 3.82439 33.417 3.96956 32.4757C4.11473 31.5344 3.93933 30.5705 3.4729 29.7463C3.18749 29.2422 3.00891 28.6821 2.94882 28.1024C2.88872 27.5228 2.94846 26.9366 3.12414 26.3823C3.29982 25.8279 3.58749 25.3177 3.96838 24.8851C4.34926 24.4525 4.81481 24.1071 5.33463 23.8715C6.18633 23.4856 6.88206 22.81 7.30425 21.9588C7.72644 21.1076 7.84919 20.133 7.65179 19.1996C7.53195 18.6296 7.53069 18.04 7.64809 17.4694C7.76549 16.8988 7.99892 16.3601 8.33312 15.8883C8.66732 15.4166 9.09478 15.0224 9.58758 14.7316C10.0804 14.4408 10.6274 14.26 11.193 14.2008C12.117 14.1024 12.9798 13.6805 13.6362 13.0062C14.2925 12.3319 14.7024 11.4463 14.7969 10.4983C14.8564 9.91578 15.0352 9.35268 15.3217 8.84594C15.6081 8.3392 15.9957 7.90026 16.459 7.55787C16.9224 7.21548 17.451 6.97737 18.0103 6.85915C18.5696 6.74092 19.147 6.74524 19.7045 6.87183C20.6145 7.07431 21.5646 6.94839 22.3945 6.51533C23.2243 6.08228 23.883 5.36865 24.2592 4.49504C24.49 3.96717 24.8259 3.49468 25.2453 3.10795C25.6648 2.72122 26.1585 2.4288 26.6947 2.24949C27.2309 2.07019 27.7978 2.00796 28.3588 2.06682C28.9199 2.12568 29.4628 2.30433 29.9525 2.59126C30.7578 3.06835 31.6986 3.2469 32.617 3.09698C33.5354 2.94706 34.3756 2.47779 34.9968 1.76785C35.3763 1.33616 35.84 0.99102 36.3579 0.754786C36.8757 0.518553 37.4361 0.396484 38.0028 0.396484C38.5696 0.396484 39.13 0.518553 39.6478 0.754786C40.1657 0.99102 40.6294 1.33616 41.0089 1.76785Z" fill="url(#paint0_linear_108_670)"></path><path d="M65.103 14.5627C65.052 15.5139 65.3219 16.4541 65.8673 17.2252C66.4127 17.9962 67.2003 18.5511 68.0977 18.7966C68.6468 18.9469 69.1588 19.214 69.6005 19.5807C70.0423 19.9474 70.4038 20.4053 70.6616 20.9248C70.9194 21.4443 71.0676 22.0136 71.0967 22.5957C71.1258 23.1778 71.0351 23.7597 70.8305 24.3035C70.4959 25.1924 70.4701 26.1724 70.7573 27.0786C71.0446 27.9848 71.6273 28.7618 72.4075 29.279C72.8842 29.596 73.2906 30.0124 73.6001 30.5011C73.9096 30.9898 74.1153 31.5398 74.2039 32.1154C74.2925 32.6911 74.262 33.2794 74.1144 33.8421C73.9667 34.4048 73.7052 34.9294 73.3469 35.3816C72.7559 36.1232 72.433 37.0516 72.433 38.0095C72.433 38.9674 72.7559 39.8958 73.3469 40.6374C73.7052 41.0897 73.9667 41.6142 74.1144 42.1769C74.262 42.7397 74.2925 43.328 74.2039 43.9036C74.1153 44.4792 73.9096 45.0292 73.6001 45.5179C73.2906 46.0066 72.8842 46.423 72.4075 46.74C71.6281 47.258 71.046 48.035 70.7589 48.9409C70.4718 49.8468 70.497 50.8265 70.8305 51.7155C71.0351 52.2593 71.1258 52.8412 71.0967 53.4233C71.0676 54.0054 70.9194 54.5747 70.6616 55.0942C70.4038 55.6137 70.0423 56.0717 69.6005 56.4383C69.1588 56.805 68.6468 57.0722 68.0977 57.2224C67.1993 57.4668 66.4104 58.0212 65.8639 58.7924C65.3174 59.5635 65.0466 60.5043 65.0973 61.4563C65.1277 62.0381 65.0383 62.62 64.8351 63.1641C64.6318 63.7082 64.3192 64.2023 63.9175 64.6143C63.5158 65.0263 63.0341 65.347 62.5037 65.5555C61.9732 65.764 61.406 65.8556 60.8387 65.8245C59.9142 65.7698 58.9995 66.0429 58.2479 66.5979C57.4964 67.153 56.9538 67.9562 56.7111 68.8728C56.5651 69.4358 56.3052 69.961 55.9484 70.4143C55.5916 70.8675 55.1458 71.2386 54.64 71.5036C54.1341 71.7685 53.5796 71.9213 53.0124 71.952C52.4453 71.9827 51.8782 71.8906 51.348 71.6818C50.4806 71.3371 49.5239 71.3098 48.6392 71.6045C47.7546 71.8992 46.996 72.4978 46.4916 73.2994C46.1837 73.7889 45.7785 74.2063 45.3026 74.5243C44.8267 74.8422 44.2907 75.0536 43.7297 75.1446C43.1687 75.2355 42.5953 75.204 42.047 75.0521C41.4987 74.9002 40.9878 74.6313 40.5477 74.263C39.8243 73.6578 38.9193 73.3272 37.9858 73.3272C37.0522 73.3272 36.1472 73.6578 35.4238 74.263C34.9849 74.6278 34.4763 74.8942 33.9308 75.0447C33.3853 75.1953 32.8151 75.2267 32.257 75.137C31.6989 75.0473 31.1654 74.8384 30.6909 74.5239C30.2165 74.2093 29.8117 73.7962 29.5027 73.3111C28.9983 72.5095 28.2397 71.9109 27.3551 71.6162C26.4704 71.3215 25.5137 71.3488 24.6463 71.6935C24.1161 71.9023 23.549 71.9944 22.9818 71.9637C22.4147 71.933 21.8602 71.7802 21.3544 71.5153C20.8485 71.2503 20.4027 70.8792 20.0459 70.4259C19.6891 69.9727 19.4292 69.4475 19.2832 68.8845C19.0449 67.9635 18.5042 67.155 17.7522 66.5954C17.0003 66.0358 16.0831 65.7594 15.1556 65.8128C14.5884 65.8439 14.0211 65.7523 13.4906 65.5438C12.9602 65.3353 12.4785 65.0146 12.0768 64.6026C11.6751 64.1906 11.3625 63.6965 11.1592 63.1524C10.956 62.6083 10.8666 62.0264 10.897 61.4446C10.9477 60.4926 10.677 59.5519 10.1305 58.7807C9.58396 58.0095 8.79506 57.4551 7.89662 57.2108C7.34757 57.0605 6.8355 56.7933 6.39375 56.4266C5.95201 56.06 5.59049 55.602 5.33271 55.0825C5.07492 54.5631 4.92667 53.9938 4.89758 53.4116C4.86848 52.8295 4.95919 52.2476 5.16382 51.7038C5.49727 50.8148 5.52254 49.8352 5.23541 48.9293C4.94827 48.0234 4.36619 47.2463 3.58678 46.7283C3.10572 46.4134 2.69501 45.9976 2.38163 45.5084C2.06825 45.0191 1.85929 44.4674 1.76843 43.8895C1.67757 43.3115 1.70687 42.7204 1.85443 42.1549C2.00199 41.5894 2.26446 41.0623 2.62461 40.6082C3.21566 39.8666 3.53853 38.9382 3.53853 37.9803C3.53853 37.0224 3.21566 36.094 2.62461 35.3524C2.26631 34.9002 2.00483 34.3756 1.85718 33.8129C1.70953 33.2502 1.67902 32.6619 1.76763 32.0862C1.85623 31.5106 2.06198 30.9606 2.37148 30.4719C2.68098 29.9832 3.08729 29.5668 3.564 29.2498C4.34422 28.7326 4.92697 27.9556 5.21419 27.0494C5.50142 26.1432 5.4756 25.1632 5.14106 24.2743C4.93643 23.7305 4.8457 23.1486 4.8748 22.5665C4.9039 21.9844 5.05216 21.4151 5.30994 20.8956C5.56773 20.3762 5.92925 19.9182 6.37099 19.5515C6.81274 19.1848 7.32479 18.9177 7.87385 18.7674C8.77228 18.5231 9.56118 17.9686 10.1077 17.1975C10.6542 16.4263 10.9249 15.4855 10.8742 14.5335C10.8478 13.9525 10.9406 13.3723 11.1468 12.8305C11.3529 12.2886 11.6677 11.7972 12.0708 11.3882C12.4739 10.9791 12.9563 10.6615 13.4867 10.4558C14.0172 10.2502 14.5838 10.1612 15.1499 10.1946C16.0774 10.248 16.9946 9.97154 17.7465 9.41195C18.4985 8.85236 19.0392 8.04385 19.2775 7.12283C19.4235 6.55983 19.6834 6.03465 20.0402 5.58141C20.397 5.12817 20.8428 4.75703 21.3487 4.4921C21.8545 4.22717 22.409 4.07439 22.9762 4.04368C23.5433 4.01298 24.1104 4.10504 24.6407 4.31389C25.5074 4.6591 26.4636 4.68728 27.3482 4.39368C28.2328 4.10009 28.9918 3.50267 29.497 2.7021C29.8051 2.21284 30.2101 1.79563 30.6859 1.47766C31.1616 1.15968 31.6973 0.948073 32.258 0.856616C32.8188 0.765159 33.392 0.795906 33.9404 0.946854C34.4888 1.0978 35.0001 1.36556 35.4409 1.7327C36.1643 2.33791 37.0693 2.66844 38.0029 2.66844C38.9364 2.66844 39.8414 2.33791 40.5648 1.7327C41.0056 1.36556 41.5169 1.0978 42.0653 0.946854C42.6137 0.795906 43.1869 0.765159 43.7477 0.856616C44.3084 0.948073 44.8441 1.15968 45.3198 1.47766C45.7956 1.79563 46.2006 2.21284 46.5086 2.7021C47.0139 3.50267 47.7729 4.10009 48.6575 4.39368C49.5421 4.68728 50.4983 4.6591 51.365 4.31389C51.8943 4.10797 52.4598 4.01819 53.0249 4.05036C53.5901 4.08252 54.1424 4.23591 54.6462 4.50061C55.15 4.76531 55.5941 5.13545 55.9497 5.58712C56.3054 6.03879 56.5648 6.56196 56.7111 7.12283C56.9494 8.04385 57.4901 8.85236 58.2421 9.41195C58.9941 9.97154 59.9112 10.248 60.8387 10.1946C61.4064 10.1626 61.9743 10.2536 62.5054 10.4617C63.0366 10.6698 63.519 10.9904 63.9213 11.4025C64.3236 11.8146 64.6367 12.309 64.8404 12.8535C65.044 13.398 65.1334 13.9804 65.103 14.5627Z" fill="url(#paint1_linear_108_670)"></path><g style="mix-blend-mode:multiply" opacity="0.15"><path d="M37.9972 71.5417C56.0582 71.5417 70.6996 56.5236 70.6996 37.9979C70.6996 19.4722 56.0582 4.4541 37.9972 4.4541C19.9362 4.4541 5.2948 19.4722 5.2948 37.9979C5.2948 56.5236 19.9362 71.5417 37.9972 71.5417Z" fill="black"></path></g><path d="M68.1768 44.79C71.8317 27.6962 61.2849 10.7998 44.6199 7.05085C27.9549 3.30191 11.4823 14.1201 7.82738 31.2139C4.17248 48.3077 14.7193 65.2042 31.3843 68.9531C48.0494 72.702 64.5219 61.8839 68.1768 44.79Z" fill="url(#paint2_linear_108_670)"></path><g style="mix-blend-mode:multiply" opacity="0.15"><path d="M37.9971 6.31104C31.8873 6.31104 25.9147 8.16943 20.8345 11.6512C15.7544 15.133 11.7949 20.0818 9.45675 25.8718C7.11861 31.6618 6.50685 38.0329 7.69882 44.1796C8.89079 50.3262 11.833 55.9722 16.1533 60.4037C20.4736 64.8351 25.978 67.853 31.9704 69.0757C37.9629 70.2983 44.1742 69.6708 49.819 67.2725C55.4637 64.8742 60.2884 60.8128 63.6828 55.602C67.0773 50.3911 68.889 44.2648 68.889 37.9978C68.8898 33.8364 68.0913 29.7156 66.5391 25.8709C64.9869 22.0261 62.7114 18.5327 59.8427 15.5902C56.974 12.6476 53.5682 10.3136 49.8198 8.72148C46.0715 7.12935 42.0541 6.31027 37.9971 6.31104ZM37.9971 67.6289C32.2783 67.6278 26.6882 65.8872 21.9336 62.6274C17.1791 59.3676 13.4737 54.7349 11.286 49.315C9.09826 43.8952 8.52644 37.9317 9.64283 32.1785C10.7592 26.4254 13.5137 21.141 17.5579 16.9935C21.6022 12.846 26.7546 10.0217 32.3636 8.87773C37.9727 7.73376 43.7865 8.32147 49.0699 10.5666C54.3534 12.8117 58.8692 16.6133 62.0463 21.4908C65.2234 26.3683 66.9192 32.1026 66.9192 37.9686C66.9229 41.8666 66.1775 45.7271 64.7257 49.3294C63.2738 52.9317 61.1439 56.2052 58.4578 58.9625C55.7717 61.7199 52.5821 63.9072 49.0713 65.3992C45.5605 66.8913 41.7974 67.6589 37.9971 67.6581V67.6289Z" fill="black"></path></g><path fill-rule="evenodd" clip-rule="evenodd" d="M37.968 9.93752L37.9972 9.9375L38.0265 9.93752C38.3409 9.93785 38.5955 10.1996 38.5952 10.5221C38.5949 10.8446 38.3397 11.1058 38.0253 11.1055L37.9972 11.1055L37.9692 11.1055C37.6548 11.1058 37.3996 10.8446 37.3993 10.5221C37.3989 10.1996 37.6536 9.93785 37.968 9.93752ZM42.0622 10.8295C42.1161 10.5118 42.411 10.299 42.7208 10.3543L42.7781 10.3646C43.0877 10.4206 43.2945 10.7235 43.2399 11.0411C43.1853 11.3588 42.8901 11.5709 42.5804 11.5149L42.5255 11.505C42.2157 11.4497 42.0083 11.1473 42.0622 10.8295ZM33.9323 10.8295C33.9862 11.1473 33.7788 11.4497 33.469 11.505L33.4141 11.5149C33.1044 11.5709 32.8091 11.3588 32.7545 11.0411C32.7 10.7235 32.9067 10.4206 33.2164 10.3646L33.2737 10.3543C33.5835 10.299 33.8783 10.5118 33.9323 10.8295ZM46.5996 11.9623C46.7068 11.6592 47.0334 11.5026 47.329 11.6126L47.3835 11.6329C47.6788 11.7436 47.8308 12.0789 47.7229 12.3818C47.615 12.6848 47.2882 12.8407 46.9928 12.73L46.9406 12.7105C46.645 12.6005 46.4923 12.2655 46.5996 11.9623ZM29.3949 11.9623C29.5021 12.2655 29.3495 12.6005 29.0539 12.7105L29.0016 12.73C28.7063 12.8407 28.3794 12.6848 28.2715 12.3818C28.1637 12.0789 28.3156 11.7436 28.611 11.6329L28.6655 11.6126C28.9611 11.5026 29.2876 11.6592 29.3949 11.9623ZM25.1193 13.892C25.2765 14.1714 25.1832 14.5285 24.9108 14.6897L24.8626 14.7184C24.5906 14.8802 24.2422 14.7852 24.0845 14.5062C23.9267 14.2272 24.0193 13.8699 24.2913 13.7081L24.3416 13.6782C24.614 13.517 24.9621 13.6127 25.1193 13.892ZM50.8751 13.892C51.0323 13.6127 51.3805 13.517 51.6528 13.6782L51.7032 13.7081C51.9752 13.8699 52.0678 14.2272 51.91 14.5062C51.7522 14.7852 51.4039 14.8802 51.1319 14.7184L51.0836 14.6897C50.8113 14.5285 50.718 14.1714 50.8751 13.892ZM21.2368 16.5552C21.4388 16.8023 21.4072 17.1707 21.1662 17.3778L21.1235 17.4146C20.8829 17.6223 20.5238 17.5907 20.3213 17.3439C20.1188 17.0972 20.1497 16.7288 20.3902 16.5211L20.4347 16.4827C20.6757 16.2755 21.0348 16.308 21.2368 16.5552ZM54.7577 16.5552C54.9597 16.308 55.3187 16.2755 55.5597 16.4827L55.6043 16.5211C55.8448 16.7288 55.8757 17.0972 55.6732 17.3439C55.4707 17.5907 55.1115 17.6223 54.871 17.4146L54.8283 17.3778C54.5873 17.1707 54.5557 16.8023 54.7577 16.5552ZM58.1329 19.867C58.3735 19.6593 58.7326 19.6909 58.9351 19.9377L58.9725 19.9834C59.1745 20.2305 59.1429 20.5989 58.9019 20.806C58.661 21.0132 58.3019 20.9808 58.0999 20.7336L58.064 20.6898C57.8615 20.4431 57.8924 20.0747 58.1329 19.867ZM17.8615 19.867C18.1021 20.0747 18.1329 20.4431 17.9304 20.6898L17.8946 20.7336C17.6926 20.9808 17.3335 21.0132 17.0925 20.806C16.8515 20.5989 16.8199 20.2305 17.0219 19.9834L17.0593 19.9377C17.2618 19.6909 17.621 19.6593 17.8615 19.867ZM15.095 23.727C15.367 23.8888 15.4596 24.2461 15.3018 24.5251L15.2739 24.5746C15.1167 24.8539 14.7686 24.9497 14.4962 24.7885C14.2239 24.6272 14.1305 24.2701 14.2877 23.9908L14.3169 23.9391C14.4746 23.6601 14.823 23.5652 15.095 23.727ZM60.8995 23.727C61.1715 23.5652 61.5198 23.6602 61.6776 23.9391L61.7067 23.9908C61.8639 24.2701 61.7706 24.6273 61.4982 24.7885C61.2259 24.9497 60.8777 24.854 60.7205 24.5746L60.6926 24.5251C60.5349 24.2461 60.6275 23.8888 60.8995 23.727ZM13.0239 28.0218C13.3192 28.1324 13.4712 28.4677 13.3633 28.7707L13.3443 28.8243C13.2371 29.1275 12.9105 29.2841 12.6149 29.174C12.3193 29.064 12.1667 28.7291 12.2739 28.4259L12.2938 28.37C12.4017 28.067 12.7285 27.9111 13.0239 28.0218ZM62.9706 28.0218C63.2659 27.9111 63.5928 28.067 63.7007 28.37L63.7205 28.4259C63.8278 28.7291 63.6751 29.064 63.3795 29.174C63.084 29.2841 62.7574 29.1275 62.6502 28.8243L62.6311 28.7707C62.5233 28.4677 62.6752 28.1325 62.9706 28.0218ZM11.7168 32.6201C12.0265 32.6761 12.2333 32.979 12.1787 33.2966L12.169 33.353C12.1151 33.6707 11.8203 33.8835 11.5105 33.8282C11.2007 33.7728 10.9933 33.4704 11.0473 33.1527L11.0573 33.0939C11.1119 32.7762 11.4072 32.5642 11.7168 32.6201ZM64.2776 32.6201C64.5873 32.5642 64.8826 32.7763 64.9372 33.0939L64.9472 33.1527C65.0011 33.4704 64.7937 33.7728 64.4839 33.8282C64.1742 33.8835 63.8793 33.6707 63.8254 33.353L63.8158 33.2966C63.7612 32.979 63.968 32.6761 64.2776 32.6201ZM11.2108 37.3844C11.5252 37.3847 11.7799 37.6464 11.7795 37.969L11.7795 37.9977L11.7795 38.0265C11.7799 38.349 11.5252 38.6107 11.2108 38.6111C10.8964 38.6114 10.6412 38.3502 10.6409 38.0277L10.6409 37.9977L10.6409 37.9677C10.6412 37.6452 10.8964 37.384 11.2108 37.3844ZM64.7836 37.3844C65.0981 37.384 65.3532 37.6452 65.3536 37.9677L65.3536 37.9977L65.3536 38.0277C65.3532 38.3502 65.0981 38.6114 64.7836 38.6111C64.4692 38.6107 64.2146 38.349 64.2149 38.0265V37.969C64.2146 37.6464 64.4692 37.3847 64.7836 37.3844ZM11.5105 42.1673C11.8203 42.112 12.1151 42.3247 12.169 42.6425L12.1787 42.6988C12.2333 43.0164 12.0265 43.3193 11.7168 43.3753C11.4072 43.4313 11.1119 43.2192 11.0573 42.9016L11.0473 42.8428C10.9933 42.525 11.2007 42.2226 11.5105 42.1673ZM64.4839 42.1673C64.7937 42.2226 65.0011 42.525 64.9472 42.8428L64.9372 42.9016C64.8826 43.2192 64.5873 43.4313 64.2776 43.3753C63.968 43.3193 63.7612 43.0164 63.8158 42.6988L63.8254 42.6425C63.8793 42.3247 64.1742 42.112 64.4839 42.1673ZM12.6149 46.8214C12.9105 46.7114 13.2371 46.868 13.3443 47.1712L13.3633 47.2248C13.4712 47.5277 13.3192 47.863 13.0239 47.9737C12.7285 48.0843 12.4017 47.9284 12.2938 47.6255L12.2739 47.5696C12.1667 47.2664 12.3193 46.9314 12.6149 46.8214ZM63.3795 46.8214C63.6751 46.9314 63.8278 47.2664 63.7205 47.5696L63.7007 47.6255C63.5928 47.9284 63.2659 48.0843 62.9706 47.9737C62.6752 47.863 62.5233 47.5277 62.6311 47.2248L62.6502 47.1712C62.7574 46.868 63.084 46.7114 63.3795 46.8214ZM14.4962 51.207C14.7685 51.0457 15.1167 51.1415 15.2739 51.4208L15.3018 51.4703C15.4596 51.7493 15.367 52.1066 15.095 52.2685C14.823 52.4303 14.4746 52.3353 14.3169 52.0563L14.2877 52.0047C14.1305 51.7253 14.2239 51.3682 14.4962 51.207ZM61.4982 51.207C61.7706 51.3682 61.8639 51.7253 61.7067 52.0047L61.6776 52.0563C61.5198 52.3353 61.1715 52.4303 60.8995 52.2685C60.6275 52.1067 60.5349 51.7493 60.6926 51.4703L60.7205 51.4208C60.8777 51.1415 61.2259 51.0458 61.4982 51.207ZM17.0925 55.1894C17.3335 54.9822 17.6926 55.0147 17.8946 55.2618L17.9304 55.3056C18.1329 55.5524 18.1021 55.9208 17.8615 56.1285C17.621 56.3362 17.2618 56.3045 17.0593 56.0578L17.0219 56.0121C16.8199 55.7649 16.8515 55.3966 17.0925 55.1894ZM58.9019 55.1894C59.1429 55.3966 59.1745 55.7649 58.9725 56.0121L58.9351 56.0578C58.7326 56.3045 58.3735 56.3362 58.1329 56.1285C57.8924 55.9208 57.8615 55.5524 58.064 55.3056L58.0999 55.2618C58.3019 55.0147 58.661 54.9822 58.9019 55.1894ZM55.6732 58.6515C55.8757 58.8983 55.8448 59.2667 55.6043 59.4744L55.5597 59.5127C55.3187 59.7199 54.9597 59.6875 54.7577 59.4403C54.5557 59.1931 54.5873 58.8248 54.8283 58.6176L54.871 58.5808C55.1115 58.3731 55.4707 58.4048 55.6732 58.6515ZM20.3213 58.6515C20.5238 58.4048 20.8829 58.3731 21.1235 58.5808L21.1662 58.6176C21.4072 58.8248 21.4388 59.1931 21.2368 59.4403C21.0348 59.6875 20.6757 59.7199 20.4347 59.5127L20.3902 59.4744C20.1496 59.2667 20.1188 58.8983 20.3213 58.6515ZM24.0845 61.4892C24.2422 61.2102 24.5906 61.1153 24.8626 61.2771L24.9108 61.3057C25.1832 61.4669 25.2765 61.8241 25.1193 62.1034C24.9621 62.3827 24.614 62.4785 24.3416 62.3173L24.2913 62.2874C24.0193 62.1256 23.9267 61.7682 24.0845 61.4892ZM51.91 61.4892C52.0678 61.7682 51.9752 62.1256 51.7032 62.2874L51.6528 62.3173C51.3805 62.4785 51.0323 62.3827 50.8751 62.1034C50.718 61.8241 50.8113 61.4669 51.0836 61.3057L51.1319 61.2771C51.4039 61.1153 51.7523 61.2102 51.91 61.4892ZM28.2715 63.6136C28.3794 63.3107 28.7063 63.1548 29.0016 63.2654L29.0539 63.285C29.3495 63.395 29.5021 63.7299 29.3949 64.0331C29.2876 64.3363 28.9611 64.4929 28.6655 64.3829L28.611 64.3625C28.3156 64.2519 28.1637 63.9166 28.2715 63.6136ZM47.7229 63.6136C47.8308 63.9166 47.6788 64.2519 47.3835 64.3625L47.329 64.3829C47.0334 64.4929 46.7068 64.3363 46.5996 64.0331C46.4923 63.7299 46.645 63.395 46.9406 63.285L46.9928 63.2654C47.2882 63.1548 47.615 63.3107 47.7229 63.6136ZM32.7545 64.9543C32.8091 64.6367 33.1044 64.4246 33.4141 64.4806L33.469 64.4905C33.7788 64.5458 33.9862 64.8482 33.9323 65.1659C33.8783 65.4837 33.5835 65.6964 33.2737 65.6411L33.2164 65.6308C32.9067 65.5748 32.7 65.2719 32.7545 64.9543ZM43.2399 64.9543C43.2945 65.2719 43.0877 65.5748 42.7781 65.6308L42.7208 65.6411C42.411 65.6964 42.1161 65.4837 42.0622 65.1659C42.0083 64.8482 42.2157 64.5458 42.5255 64.4905L42.5804 64.4806C42.8901 64.4246 43.1853 64.6367 43.2399 64.9543ZM37.3993 65.4733C37.3996 65.1508 37.6548 64.8896 37.9692 64.89H38.0253C38.3397 64.8896 38.5949 65.1508 38.5952 65.4733C38.5955 65.7959 38.3409 66.0576 38.0265 66.0579L37.9972 66.058L37.968 66.0579C37.6536 66.0576 37.3989 65.7959 37.3993 65.4733Z" fill="white"></path><g style="mix-blend-mode:multiply" opacity="0.15"><path d="M62.1241 41.7927C64.1687 28.1196 55.0199 15.3352 41.6898 13.2381C28.3596 11.1409 15.896 20.5251 13.8514 34.1982C11.8069 47.8713 20.9556 60.6557 34.2858 62.7528C47.6159 64.85 60.0796 55.4658 62.1241 41.7927Z" fill="black"></path></g><path fill-rule="evenodd" clip-rule="evenodd" d="M8.03593 31.2608C4.40629 48.2365 14.8802 65.0162 31.4301 68.7392C47.9799 72.4622 64.3387 61.7188 67.9683 44.7431C71.5979 27.7674 61.124 10.9878 44.5742 7.26476C28.0243 3.54173 11.6656 14.2851 8.03593 31.2608ZM31.3386 69.167C14.5584 65.3922 3.93868 48.379 7.61884 31.167C11.299 13.955 27.8854 3.06209 44.6656 6.83694C61.4459 10.6118 72.0656 27.625 68.3854 44.8369C64.7052 62.0489 48.1188 72.9419 31.3386 69.167Z" fill="white"></path><g style="mix-blend-mode:multiply" opacity="0.2"><path d="M37.9971 49.4497C25.728 49.4497 14.5805 52.0659 6.31384 56.3348C6.69462 56.6699 7.13287 56.9293 7.60622 57.0998C7.46496 58.1597 7.72849 59.2345 8.34174 60.0997C8.95499 60.9649 9.87051 61.5535 10.897 61.7425C10.9114 62.4431 11.0992 63.1286 11.4428 63.7343C11.7864 64.3401 12.2745 64.8463 12.8612 65.2055C29.2016 59.7705 46.7984 59.7705 63.1388 65.2055C63.7255 64.8463 64.2135 64.3401 64.5571 63.7343C64.9007 63.1286 65.0885 62.4431 65.103 61.7425C66.1294 61.5535 67.0449 60.9649 67.6582 60.0997C68.2714 59.2345 68.535 58.1597 68.3937 57.0998C68.867 56.9293 69.3053 56.6699 69.6861 56.3348C61.4194 52.0659 50.2719 49.4497 37.9971 49.4497Z" fill="black"></path></g><path d="M60.2536 42.9793C62.9323 30.3777 55.1444 17.9347 42.8589 15.1871C30.5733 12.4395 18.4424 20.4278 15.7638 33.0294C13.0851 45.631 20.873 58.0741 33.1585 60.8217C45.444 63.5693 57.5749 55.581 60.2536 42.9793Z" fill="#272530"></path><path d="M22.5512 26.9316C20.5772 29.8319 19.4162 33.2317 19.1943 36.7615C18.9723 40.2912 19.698 43.8159 21.2924 46.9522C22.8868 50.0885 25.289 52.7164 28.2376 54.5503C31.1863 56.3842 34.5687 57.3539 38.0171 57.3539C41.4655 57.3539 44.8478 56.3842 47.7965 54.5503C50.7452 52.7164 53.1473 50.0885 54.7417 46.9522C56.3362 43.8159 57.0619 40.2912 56.8399 36.7615C56.618 33.2317 55.4569 29.8319 53.483 26.9316H22.5512Z" fill="white"></path><path d="M71.1151 65.2057C72.0431 63.9735 70.9842 59.4301 70.9842 59.4301C70.9842 59.4301 75.3168 58.3497 76 56.7788C67.665 50.1857 53.7619 45.8643 37.9972 45.8643C22.2324 45.8643 8.33501 50.1799 0 56.773C0.649037 58.2738 4.91331 59.4243 4.91331 59.4243C4.91331 59.4243 3.91129 63.9092 4.91331 65.1998C13.2711 60.4637 25.005 57.5439 37.9972 57.5439C50.9893 57.5439 62.7289 60.4637 71.1151 65.2057Z" fill="url(#paint3_linear_108_670)"></path><g style="mix-blend-mode:multiply" opacity="0.15"><path d="M37.9972 51.8379C25.0107 51.8379 13.2882 54.7578 4.89625 59.4939C4.78808 60.0253 3.97963 64.0022 4.89625 65.2052C13.2711 60.4633 25.005 57.5434 37.9972 57.5434C50.9893 57.5434 62.7289 60.4633 71.1152 65.1993C72.0432 63.9671 70.9842 59.4238 70.9842 59.4238C62.6094 54.7461 50.9267 51.8379 37.9972 51.8379Z" fill="black"></path></g><path d="M14.5293 57.2517C14.4192 57.4851 14.2599 57.6905 14.063 57.8531C13.8661 58.0157 13.6365 58.1314 13.3907 58.1919C13.0627 58.3183 12.7131 58.3752 12.363 58.359C12.013 58.3429 11.6698 58.2541 11.3541 58.0979C11.0385 57.9418 10.7571 57.7216 10.5268 57.4507C10.2966 57.1798 10.1223 56.8637 10.0145 56.5217C9.88981 56.1767 9.83385 55.8094 9.85001 55.4417C9.86616 55.0741 9.9541 54.7135 10.1086 54.3813C10.2631 54.0491 10.481 53.7521 10.7494 53.5079C11.0178 53.2637 11.3313 53.0772 11.6713 52.9595C12.9011 52.5507 13.3394 52.9595 13.5102 53.0471C13.5102 52.8135 13.5102 52.6967 13.5102 52.4631C14.0169 52.3054 14.2731 52.2295 14.7798 52.0835L15.3776 54.2559C14.8083 54.4311 14.4895 54.5187 13.8974 54.7056C13.8588 54.5801 13.7961 54.4638 13.7128 54.3637C13.6296 54.2636 13.5276 54.1817 13.4128 54.1228C13.2981 54.064 13.173 54.0294 13.045 54.0212C12.917 54.0129 12.7886 54.0312 12.6676 54.0749C12.5079 54.1406 12.3626 54.2386 12.2405 54.363C12.1183 54.4874 12.0217 54.6356 11.9564 54.799C11.8911 54.9624 11.8585 55.1375 11.8603 55.314C11.8622 55.4906 11.8986 55.6649 11.9673 55.8268C12.0004 55.9974 12.0674 56.1591 12.164 56.302C12.2607 56.4449 12.385 56.5658 12.5292 56.6573C12.6734 56.7488 12.8344 56.8089 13.0022 56.8338C13.17 56.8587 13.341 56.8479 13.5045 56.802C13.9657 56.6502 14.108 56.4225 14.1707 56.2181L14.0796 55.9086L13.5842 56.0662C13.4875 55.7509 13.4419 55.5932 13.3451 55.2837C14.4382 54.9333 14.9848 54.7698 16.0893 54.4603L16.2999 55.2487L15.9697 55.3421C16.1747 56.0838 16.2715 56.4517 16.4764 57.1875C15.8331 57.3744 15.5143 57.4678 14.8766 57.6663L14.5293 57.2517Z" fill="black"></path><path d="M18.435 51.12C18.5204 51.5054 18.566 51.704 18.6571 52.0835L18.1959 52.1945C18.3496 52.8369 18.4236 53.1639 18.5773 53.8063C18.8563 55.0034 19.215 55.1845 19.716 55.0618C20.217 54.9392 20.5074 54.6881 20.2284 53.3975C20.0918 52.7668 20.0291 52.4456 19.8925 51.8149L19.4313 51.92C19.3402 51.5229 19.3004 51.336 19.215 50.9331C20.2341 50.6937 20.7465 50.5827 21.7713 50.3491L21.9535 51.3244L21.4923 51.4178L21.8453 53.2398C22.1926 54.9918 21.5322 56.0079 20.0291 56.3408C18.4122 56.697 17.3191 56.148 16.8807 54.4603C16.6929 53.7304 16.6018 53.3625 16.4082 52.6325L15.9356 52.761L15.6794 51.8032C16.7953 51.5288 17.3362 51.3886 18.435 51.12Z" fill="black"></path><path d="M26.2291 55.0383C26.1722 54.6412 26.1437 54.4543 26.0811 54.0455C26.3999 53.9929 26.5536 53.9696 26.8725 53.9287C26.77 53.7302 26.7244 53.6309 26.6277 53.4382C25.9445 53.5374 25.6029 53.59 24.9197 53.701C24.8798 53.917 24.8627 54.028 24.8286 54.2441L25.4719 54.1389C25.5288 54.5361 25.563 54.7229 25.6199 55.1317C24.5838 55.3011 24.0657 55.3887 23.0295 55.5931L22.8473 54.6061L23.4166 54.501C23.6273 53.0936 23.7411 52.387 23.986 50.9971L23.633 51.0614L23.4679 50.0861C24.8001 49.8467 25.4719 49.7416 26.8155 49.5605C27.6524 51.2015 28.0624 52.0308 28.8423 53.6893L29.4117 53.625C29.4515 54.0221 29.4743 54.209 29.5142 54.6236C28.199 54.7521 27.5386 54.8339 26.2291 55.0383ZM26.1893 52.5739L25.3922 51.0205C25.2613 51.7096 25.2043 52.0541 25.0848 52.7724L26.1893 52.5739Z" fill="black"></path><path d="M32.1502 48.9882C34.1884 48.848 34.6097 49.5721 34.6438 50.4306C34.6438 51.0146 34.1542 51.4701 33.4539 51.5985C33.7307 51.6072 33.9958 51.7146 34.2036 51.9022C34.4115 52.0898 34.549 52.3459 34.5926 52.6264C34.5926 52.9592 34.6609 53.1461 34.8147 53.1403C34.9684 53.1344 35.0025 53.041 34.9968 52.8891C34.9911 52.7373 34.9968 52.7373 34.9968 52.638H35.5662V53.0643C35.5878 53.23 35.5732 53.3984 35.5232 53.5575C35.4733 53.7166 35.3893 53.8621 35.2774 53.9836C35.1655 54.1051 35.0286 54.1994 34.8766 54.2596C34.7246 54.3198 34.5615 54.3444 34.399 54.3316C33.323 54.3841 32.7707 53.8936 32.691 53.0001C32.6455 52.3052 32.543 52.1417 31.7915 52.2L31.8769 53.368L32.3893 53.333C32.3893 53.7359 32.4291 53.917 32.4576 54.3433C31.393 54.4192 30.8578 54.4659 29.7988 54.5768C29.759 54.1739 29.7362 53.9929 29.6964 53.5724L30.1632 53.5198L29.8501 50.197L29.3661 50.2437C29.3263 49.8466 29.3035 49.6597 29.2637 49.2451C30.4422 49.1225 31.0115 49.0699 32.1502 48.9882ZM31.7687 51.3241H32.1502C32.6512 51.289 32.9586 51.0555 32.9358 50.6467C32.9131 50.2379 32.6113 49.9868 32.1046 50.0218L31.6719 50.051C31.7118 50.5357 31.7289 50.8043 31.7687 51.3241Z" fill="black"></path><path d="M39.0618 54.1509C39.0618 53.748 39.0618 53.5669 39.0618 53.1465H39.8532C39.7848 52.9362 39.7564 52.8311 39.6881 52.6209C38.9992 52.6209 38.6519 52.6209 37.9801 52.6209L37.8093 53.1406H38.4583V54.1451C37.4107 54.1451 36.8869 54.1451 35.8394 54.1451L35.8109 53.1406H36.3802C36.8015 51.7858 37.0236 51.1142 37.4847 49.7594H37.1261C37.1261 49.3623 37.1261 49.1754 37.1261 48.7725C38.4754 48.7725 39.1529 48.7725 40.5022 48.7725C41.0715 50.5244 41.3448 51.412 41.8572 53.1815H42.4265C42.4265 53.5845 42.3981 53.7655 42.3753 54.186C41.0374 54.186 40.3769 54.1684 39.0618 54.1509ZM39.4091 51.7099C39.1927 51.0441 39.0846 50.7113 38.8397 50.0455C38.612 50.7054 38.4981 51.0325 38.2704 51.6982C38.7316 51.704 38.9536 51.704 39.3977 51.704L39.4091 51.7099Z" fill="black"></path><path d="M48.991 50.5357C48.769 52.2877 48.6608 53.1344 48.4217 54.8689C47.7157 54.7754 47.3628 54.7287 46.6568 54.6528C45.9394 53.3972 45.5694 52.7724 44.7951 51.5343C44.7325 52.3052 44.6983 52.7023 44.6414 53.4615L45.279 53.5199L45.1936 54.5009C44.1859 54.4075 43.6792 54.3725 42.6658 54.3082L42.7227 53.3213L43.2123 53.3564C43.2977 52.0015 43.3433 51.3299 43.4287 49.9809L42.922 49.9459L42.9789 48.959C43.9866 49.0232 44.4933 49.0583 45.4953 49.1517C46.2583 50.3197 46.634 50.9504 47.3286 52.165C47.4083 51.4409 47.4482 51.0788 47.5336 50.3547L46.9642 50.2905C47.0041 49.8934 47.0269 49.7065 47.0667 49.3035C48.12 49.4203 48.6494 49.4846 49.697 49.6364C49.6458 50.0277 49.6173 50.2204 49.5661 50.6175L48.991 50.5357Z" fill="black"></path><path d="M55.4586 52.6676C54.9576 52.5567 54.7128 52.5041 54.2118 52.4048L54.3997 51.4413L53.6823 51.3011C53.4375 52.6092 53.3179 53.2633 53.0788 54.5714L53.762 54.7057C53.6823 55.1028 53.6481 55.2897 53.5684 55.7043C52.3558 55.4591 51.7523 55.3481 50.5339 55.1495C50.5965 54.7466 50.6307 54.5656 50.6933 54.1451L51.3708 54.2561C51.5815 52.9421 51.6896 52.288 51.906 50.9741L51.1659 50.8515L51.0178 51.8209L49.771 51.6282L50.0443 49.6543C52.3842 49.9988 53.5513 50.2383 55.8685 50.7171C55.6977 51.4997 55.618 51.8909 55.4586 52.6676Z" fill="black"></path><path d="M61.3796 52.1302C61.2031 52.7843 61.112 53.1055 60.9298 53.7595L59.478 53.3508L59.6488 52.6909C59.0795 52.5449 58.8346 52.469 58.2938 52.3346C58.1913 52.7434 58.1458 52.9186 58.0433 53.3624C58.6809 53.5201 58.9998 53.6077 59.6374 53.7829C59.5349 54.1742 59.4837 54.3669 59.3755 54.764C58.7492 54.5946 58.4361 54.507 57.8042 54.3494C57.6903 54.8341 57.6277 55.0793 57.5138 55.564C58.0376 55.6925 58.2938 55.7626 58.8176 55.9028L58.9884 55.2078C59.5577 55.3597 59.8424 55.4414 60.406 55.6049C60.2238 56.2707 60.1327 56.6035 59.9448 57.2693C58.0148 56.6853 57.0413 56.4575 55.0828 56.0195L55.2991 55.0209L55.8115 55.1377C56.0962 53.8413 56.2385 53.1931 56.5289 51.8967L55.988 51.774L56.1986 50.7812C58.2881 51.2601 59.3243 51.5287 61.3796 52.1302Z" fill="black"></path><path d="M66.9078 53.9523C66.68 54.5947 66.5718 54.9101 66.3384 55.5466C65.7691 55.3364 65.4844 55.2371 64.9151 55.0385C65.0005 54.7757 65.0403 54.6473 65.1257 54.3903L63.7935 53.9348C63.6626 54.3378 63.5999 54.5188 63.4747 54.9451C64.1066 55.1495 64.4198 55.2605 65.0403 55.4765C64.9151 55.8619 64.8468 56.0605 64.7215 56.4401C64.101 56.224 63.7935 56.1189 63.1729 55.9145C63.0249 56.3934 62.9509 56.627 62.7972 57.0825L64.1123 57.5438C64.2034 57.2752 64.249 57.1409 64.3344 56.8722C64.9037 57.0649 65.177 57.1642 65.7292 57.3745L65.1599 59.0038C63.2583 58.303 62.3132 57.9818 60.3718 57.4036L60.6451 56.4284L61.1575 56.5802C61.5276 55.3072 61.7268 54.6648 62.0798 53.3917C61.8692 53.3275 61.7667 53.2924 61.5503 53.234C61.6642 52.8428 61.7154 52.6501 61.8293 52.2588C63.8618 52.872 64.8809 53.2048 66.9078 53.9523Z" fill="black"></path><path d="M14.5293 57.2517C14.4192 57.4851 14.2599 57.6905 14.063 57.8531C13.8661 58.0157 13.6365 58.1314 13.3907 58.1919C13.0627 58.3183 12.7131 58.3752 12.363 58.359C12.013 58.3429 11.6698 58.2541 11.3541 58.0979C11.0385 57.9418 10.7571 57.7216 10.5268 57.4507C10.2966 57.1798 10.1223 56.8637 10.0145 56.5217C9.88981 56.1767 9.83385 55.8094 9.85001 55.4417C9.86616 55.0741 9.9541 54.7135 10.1086 54.3813C10.2631 54.0491 10.481 53.7521 10.7494 53.5079C11.0178 53.2637 11.3313 53.0772 11.6713 52.9595C12.9011 52.5507 13.3394 52.9595 13.5102 53.0471C13.5102 52.8135 13.5102 52.6967 13.5102 52.4631C14.0169 52.3054 14.2731 52.2295 14.7798 52.0835L15.3776 54.2559C14.8083 54.4311 14.4895 54.5187 13.8974 54.7056C13.8588 54.5801 13.7961 54.4638 13.7128 54.3637C13.6296 54.2636 13.5276 54.1817 13.4128 54.1228C13.2981 54.064 13.173 54.0294 13.045 54.0212C12.917 54.0129 12.7886 54.0312 12.6676 54.0749C12.5079 54.1406 12.3626 54.2386 12.2405 54.363C12.1183 54.4874 12.0217 54.6356 11.9564 54.799C11.8911 54.9624 11.8585 55.1375 11.8603 55.314C11.8622 55.4906 11.8986 55.6649 11.9673 55.8268C12.0004 55.9974 12.0674 56.1591 12.164 56.302C12.2607 56.4449 12.385 56.5658 12.5292 56.6573C12.6734 56.7488 12.8344 56.8089 13.0022 56.8338C13.17 56.8587 13.341 56.8479 13.5045 56.802C13.9657 56.6502 14.108 56.4225 14.1707 56.2181L14.0796 55.9086L13.5842 56.0662C13.4875 55.7509 13.4419 55.5932 13.3451 55.2837C14.4382 54.9333 14.9848 54.7698 16.0893 54.4603L16.2999 55.2487L15.9697 55.3421C16.1747 56.0838 16.2715 56.4517 16.4764 57.1875C15.8331 57.3744 15.5143 57.4678 14.8766 57.6663L14.5293 57.2517Z" fill="white"></path><path d="M18.435 51.12C18.5204 51.5054 18.566 51.704 18.6571 52.0835L18.1959 52.1945C18.3496 52.8369 18.4236 53.1639 18.5773 53.8063C18.8563 55.0034 19.215 55.1845 19.716 55.0618C20.217 54.9392 20.5074 54.6881 20.2284 53.3975C20.0918 52.7668 20.0291 52.4456 19.8925 51.8149L19.4313 51.92C19.3402 51.5229 19.3004 51.336 19.215 50.9331C20.2341 50.6937 20.7465 50.5827 21.7713 50.3491L21.9535 51.3244L21.4923 51.4178L21.8453 53.2398C22.1926 54.9918 21.5322 56.0079 20.0291 56.3408C18.4122 56.697 17.3191 56.148 16.8807 54.4603C16.6929 53.7304 16.6018 53.3625 16.4082 52.6325L15.9356 52.761L15.6794 51.8032C16.7953 51.5288 17.3362 51.3886 18.435 51.12Z" fill="white"></path><path d="M26.2291 55.0383C26.1722 54.6412 26.1437 54.4543 26.0811 54.0455C26.3999 53.9929 26.5536 53.9696 26.8725 53.9287C26.77 53.7302 26.7244 53.6309 26.6277 53.4382C25.9445 53.5374 25.6029 53.59 24.9197 53.701C24.8798 53.917 24.8627 54.028 24.8286 54.2441L25.4719 54.1389C25.5288 54.5361 25.563 54.7229 25.6199 55.1317C24.5838 55.3011 24.0657 55.3887 23.0295 55.5931L22.8473 54.6061L23.4166 54.501C23.6273 53.0936 23.7411 52.387 23.986 50.9971L23.633 51.0614L23.4679 50.0861C24.8001 49.8467 25.4719 49.7416 26.8155 49.5605C27.6524 51.2015 28.0624 52.0308 28.8423 53.6893L29.4117 53.625C29.4515 54.0221 29.4743 54.209 29.5142 54.6236C28.199 54.7521 27.5386 54.8339 26.2291 55.0383ZM26.1893 52.5739L25.3922 51.0205C25.2613 51.7096 25.2043 52.0541 25.0848 52.7724L26.1893 52.5739Z" fill="white"></path><path d="M32.1502 48.9882C34.1884 48.848 34.6097 49.5721 34.6438 50.4306C34.6438 51.0146 34.1542 51.4701 33.4539 51.5985C33.7307 51.6072 33.9958 51.7146 34.2036 51.9022C34.4115 52.0898 34.549 52.3459 34.5926 52.6264C34.5926 52.9592 34.6609 53.1461 34.8147 53.1403C34.9684 53.1344 35.0025 53.041 34.9968 52.8891C34.9911 52.7373 34.9968 52.7373 34.9968 52.638H35.5662V53.0643C35.5878 53.23 35.5732 53.3984 35.5232 53.5575C35.4733 53.7166 35.3893 53.8621 35.2774 53.9836C35.1655 54.1051 35.0286 54.1994 34.8766 54.2596C34.7246 54.3198 34.5615 54.3444 34.399 54.3316C33.323 54.3841 32.7707 53.8936 32.691 53.0001C32.6455 52.3052 32.543 52.1417 31.7915 52.2L31.8769 53.368L32.3893 53.333C32.3893 53.7359 32.4291 53.917 32.4576 54.3433C31.393 54.4192 30.8578 54.4659 29.7988 54.5768C29.759 54.1739 29.7362 53.9929 29.6964 53.5724L30.1632 53.5198L29.8501 50.197L29.3661 50.2437C29.3263 49.8466 29.3035 49.6597 29.2637 49.2451C30.4422 49.1225 31.0115 49.0699 32.1502 48.9882ZM31.7687 51.3241H32.1502C32.6512 51.289 32.9586 51.0555 32.9358 50.6467C32.9131 50.2379 32.6113 49.9868 32.1046 50.0218L31.6719 50.051C31.7118 50.5357 31.7289 50.8043 31.7687 51.3241Z" fill="white"></path><path d="M39.0618 54.1509C39.0618 53.748 39.0618 53.5669 39.0618 53.1465H39.8532C39.7848 52.9362 39.7564 52.8311 39.6881 52.6209C38.9992 52.6209 38.6519 52.6209 37.9801 52.6209L37.8093 53.1406H38.4583V54.1451C37.4107 54.1451 36.8869 54.1451 35.8394 54.1451L35.8109 53.1406H36.3802C36.8015 51.7858 37.0236 51.1142 37.4847 49.7594H37.1261C37.1261 49.3623 37.1261 49.1754 37.1261 48.7725C38.4754 48.7725 39.1529 48.7725 40.5022 48.7725C41.0715 50.5244 41.3448 51.412 41.8572 53.1815H42.4265C42.4265 53.5845 42.3981 53.7655 42.3753 54.186C41.0374 54.186 40.3769 54.1684 39.0618 54.1509ZM39.4091 51.7099C39.1927 51.0441 39.0846 50.7113 38.8397 50.0455C38.612 50.7054 38.4981 51.0325 38.2704 51.6982C38.7316 51.704 38.9536 51.704 39.3977 51.704L39.4091 51.7099Z" fill="white"></path><path d="M48.991 50.5357C48.769 52.2877 48.6608 53.1344 48.4217 54.8689C47.7157 54.7754 47.3628 54.7287 46.6568 54.6528C45.9394 53.3972 45.5694 52.7724 44.7951 51.5343C44.7325 52.3052 44.6983 52.7023 44.6414 53.4615L45.279 53.5199L45.1936 54.5009C44.1859 54.4075 43.6792 54.3725 42.6658 54.3082L42.7227 53.3213L43.2123 53.3564C43.2977 52.0015 43.3433 51.3299 43.4287 49.9809L42.922 49.9459L42.9789 48.959C43.9866 49.0232 44.4933 49.0583 45.4953 49.1517C46.2583 50.3197 46.634 50.9504 47.3286 52.165C47.4083 51.4409 47.4482 51.0788 47.5336 50.3547L46.9642 50.2905C47.0041 49.8934 47.0269 49.7065 47.0667 49.3035C48.12 49.4203 48.6494 49.4846 49.697 49.6364C49.6458 50.0277 49.6173 50.2204 49.5661 50.6175L48.991 50.5357Z" fill="white"></path><path d="M55.4586 52.6676C54.9576 52.5567 54.7128 52.5041 54.2118 52.4048L54.3997 51.4413L53.6823 51.3011C53.4375 52.6092 53.3179 53.2633 53.0788 54.5714L53.762 54.7057C53.6823 55.1028 53.6481 55.2897 53.5684 55.7043C52.3558 55.4591 51.7523 55.3481 50.5339 55.1495C50.5965 54.7466 50.6307 54.5656 50.6933 54.1451L51.3708 54.2561C51.5815 52.9421 51.6896 52.288 51.906 50.9741L51.1659 50.8515L51.0178 51.8209L49.771 51.6282L50.0443 49.6543C52.3842 49.9988 53.5513 50.2383 55.8685 50.7171C55.6977 51.4997 55.618 51.8909 55.4586 52.6676Z" fill="white"></path><path d="M61.3796 52.1302C61.2031 52.7843 61.112 53.1055 60.9298 53.7595L59.478 53.3508L59.6488 52.6909C59.0795 52.5449 58.8346 52.469 58.2938 52.3346C58.1913 52.7434 58.1458 52.9186 58.0433 53.3624C58.6809 53.5201 58.9998 53.6077 59.6374 53.7829C59.5349 54.1742 59.4837 54.3669 59.3755 54.764C58.7492 54.5946 58.4361 54.507 57.8042 54.3494C57.6903 54.8341 57.6277 55.0793 57.5138 55.564C58.0376 55.6925 58.2938 55.7626 58.8176 55.9028L58.9884 55.2078C59.5577 55.3597 59.8424 55.4414 60.406 55.6049C60.2238 56.2707 60.1327 56.6035 59.9448 57.2693C58.0148 56.6853 57.0413 56.4575 55.0828 56.0195L55.2991 55.0209L55.8115 55.1377C56.0962 53.8413 56.2385 53.1931 56.5289 51.8967L55.988 51.774L56.1986 50.7812C58.2881 51.2601 59.3243 51.5287 61.3796 52.1302Z" fill="white"></path><path d="M66.9078 53.9523C66.68 54.5947 66.5718 54.9101 66.3384 55.5466C65.7691 55.3364 65.4844 55.2371 64.9151 55.0385C65.0005 54.7757 65.0403 54.6473 65.1257 54.3903L63.7935 53.9348C63.6626 54.3378 63.5999 54.5188 63.4747 54.9451C64.1066 55.1495 64.4198 55.2605 65.0403 55.4765C64.9151 55.8619 64.8468 56.0605 64.7215 56.4401C64.101 56.224 63.7935 56.1189 63.1729 55.9145C63.0249 56.3934 62.9509 56.627 62.7972 57.0825L64.1123 57.5438C64.2034 57.2752 64.249 57.1409 64.3344 56.8722C64.9037 57.0649 65.177 57.1642 65.7292 57.3745L65.1599 59.0038C63.2583 58.303 62.3132 57.9818 60.3718 57.4036L60.6451 56.4284L61.1575 56.5802C61.5276 55.3072 61.7268 54.6648 62.0798 53.3917C61.8692 53.3275 61.7667 53.2924 61.5503 53.234C61.6642 52.8428 61.7154 52.6501 61.8293 52.2588C63.8618 52.872 64.8809 53.2048 66.9078 53.9523Z" fill="white"></path><path d="M53.4345 41.4242V40.8374C53.4345 40.4317 53.5157 40.0604 53.6781 39.7235C53.8441 39.383 54.0842 39.1114 54.3985 38.9085C54.7164 38.7021 55.1013 38.5988 55.5533 38.5988C56.0124 38.5988 56.3973 38.7021 56.7081 38.9085C57.0188 39.1114 57.2536 39.383 57.4126 39.7235C57.5715 40.0604 57.6509 40.4317 57.6509 40.8374V41.4242C57.6509 41.8298 57.5697 42.2029 57.4073 42.5434C57.2483 42.8803 57.0117 43.152 56.6975 43.3584C56.3867 43.5613 56.0053 43.6627 55.5533 43.6627C55.0942 43.6627 54.7075 43.5613 54.3932 43.3584C54.079 43.152 53.8406 42.8803 53.6781 42.5434C53.5157 42.2029 53.4345 41.8298 53.4345 41.4242ZM54.5151 40.8374V41.4242C54.5151 41.761 54.5928 42.0635 54.7481 42.3315C54.9035 42.5959 55.1719 42.7282 55.5533 42.7282C55.9241 42.7282 56.1854 42.5959 56.3373 42.3315C56.4926 42.0635 56.5703 41.761 56.5703 41.4242V40.8374C56.5703 40.5005 56.4962 40.1998 56.3479 39.9354C56.1995 39.6674 55.9347 39.5334 55.5533 39.5334C55.1825 39.5334 54.9159 39.6674 54.7534 39.9354C54.5945 40.1998 54.5151 40.5005 54.5151 40.8374ZM48.0315 35.0563V34.4695C48.0315 34.0638 48.1127 33.6925 48.2752 33.3557C48.4411 33.0152 48.6813 32.7435 48.9956 32.5407C49.3134 32.3342 49.6983 32.231 50.1503 32.231C50.6094 32.231 50.9943 32.3342 51.3051 32.5407C51.6158 32.7435 51.8507 33.0152 52.0096 33.3557C52.1685 33.6925 52.2479 34.0638 52.2479 34.4695V35.0563C52.2479 35.462 52.1667 35.8351 52.0043 36.1756C51.8454 36.5124 51.6088 36.7841 51.2945 36.9906C50.9837 37.1934 50.6023 37.2948 50.1503 37.2948C49.6912 37.2948 49.3045 37.1934 48.9903 36.9906C48.676 36.7841 48.4376 36.5124 48.2752 36.1756C48.1127 35.8351 48.0315 35.462 48.0315 35.0563ZM49.1121 34.4695V35.0563C49.1121 35.3932 49.1898 35.6956 49.3452 35.9637C49.5005 36.2281 49.7689 36.3603 50.1503 36.3603C50.5211 36.3603 50.7824 36.2281 50.9343 35.9637C51.0897 35.6956 51.1673 35.3932 51.1673 35.0563V34.4695C51.1673 34.1326 51.0932 33.832 50.9449 33.5676C50.7966 33.2995 50.5317 33.1655 50.1503 33.1655C49.7795 33.1655 49.5129 33.2995 49.3505 33.5676C49.1915 33.832 49.1121 34.1326 49.1121 34.4695ZM48.4341 43.5106L55.8923 32.3831H57.1L49.6418 43.5106H48.4341Z" fill="#272530"></path><path d="M42.1199 43.6627C41.3218 43.6627 40.642 43.4399 40.0805 42.9944C39.519 42.5452 39.09 41.895 38.7933 41.0438C38.4967 40.189 38.3484 39.1566 38.3484 37.9468C38.3484 36.7442 38.4967 35.7173 38.7933 34.8661C39.0935 34.0113 39.5243 33.3593 40.0858 32.9101C40.6508 32.4573 41.3289 32.231 42.1199 32.231C42.9109 32.231 43.5872 32.4573 44.1487 32.9101C44.7137 33.3593 45.1445 34.0113 45.4411 34.8661C45.7413 35.7173 45.8914 36.7442 45.8914 37.9468C45.8914 39.1566 45.7431 40.189 45.4464 41.0438C45.1498 41.895 44.7207 42.5452 44.1592 42.9944C43.5978 43.4399 42.918 43.6627 42.1199 43.6627ZM42.1199 42.4674C42.9109 42.4674 43.5254 42.0762 43.9633 41.2938C44.4011 40.5114 44.6201 39.3957 44.6201 37.9468C44.6201 36.9833 44.5194 36.1629 44.3182 35.4855C44.1204 34.8082 43.8344 34.292 43.46 33.937C43.0892 33.582 42.6425 33.4046 42.1199 33.4046C41.3359 33.4046 40.7232 33.8012 40.2818 34.5945C39.8404 35.3841 39.6197 36.5016 39.6197 37.9468C39.6197 38.9103 39.7186 39.729 39.9163 40.4027C40.1141 41.0764 40.3983 41.589 40.7691 41.9403C41.1435 42.2917 41.5937 42.4674 42.1199 42.4674Z" fill="#272530"></path><path d="M32.7971 43.6627C31.999 43.6627 31.3193 43.4399 30.7578 42.9944C30.1963 42.5452 29.7672 41.895 29.4706 41.0438C29.174 40.189 29.0256 39.1566 29.0256 37.9468C29.0256 36.7442 29.174 35.7173 29.4706 34.8661C29.7708 34.0113 30.2016 33.3593 30.7631 32.9101C31.3281 32.4573 32.0061 32.231 32.7971 32.231C33.5882 32.231 34.2644 32.4573 34.8259 32.9101C35.3909 33.3593 35.8217 34.0113 36.1184 34.8661C36.4185 35.7173 36.5686 36.7442 36.5686 37.9468C36.5686 39.1566 36.4203 40.189 36.1237 41.0438C35.827 41.895 35.398 42.5452 34.8365 42.9944C34.275 43.4399 33.5952 43.6627 32.7971 43.6627ZM32.7971 42.4674C33.5882 42.4674 34.2026 42.0762 34.6405 41.2938C35.0784 40.5114 35.2973 39.3957 35.2973 37.9468C35.2973 36.9833 35.1967 36.1629 34.9954 35.4855C34.7976 34.8082 34.5116 34.292 34.1373 33.937C33.7665 33.582 33.3198 33.4046 32.7971 33.4046C32.0132 33.4046 31.4005 33.8012 30.9591 34.5945C30.5176 35.3841 30.2969 36.5016 30.2969 37.9468C30.2969 38.9103 30.3958 39.729 30.5936 40.4027C30.7913 41.0764 31.0756 41.589 31.4464 41.9403C31.8207 42.2917 32.271 42.4674 32.7971 42.4674Z" fill="#272530"></path><path d="M26.1388 32.3833V43.5108H24.8251V33.796H24.7616L22.113 35.5998V34.2306L24.8251 32.3833H26.1388Z" fill="#272530"></path><path d="M8.11304 29.9623H67.8928C67.1328 26.9756 65.9472 24.1204 64.3743 21.4888H11.6315C10.0586 24.1204 8.87306 26.9756 8.11304 29.9623Z" fill="#272530"></path><path d="M59.9923 23.8115V28.0756H59.5051L57.2398 24.7276H57.1992V28.0756H56.6958V23.8115H57.183L59.4564 27.1678H59.497V23.8115H59.9923Z" fill="white"></path><path d="M55.8493 25.9438C55.8493 26.3935 55.7701 26.7822 55.6118 27.1097C55.4535 27.4373 55.2363 27.6899 54.9602 27.8676C54.6842 28.0453 54.3689 28.1341 54.0143 28.1341C53.6598 28.1341 53.3445 28.0453 53.0684 27.8676C52.7923 27.6899 52.5751 27.4373 52.4168 27.1097C52.2585 26.7822 52.1793 26.3935 52.1793 25.9438C52.1793 25.494 52.2585 25.1054 52.4168 24.7778C52.5751 24.4502 52.7923 24.1976 53.0684 24.0199C53.3445 23.8423 53.6598 23.7534 54.0143 23.7534C54.3689 23.7534 54.6842 23.8423 54.9602 24.0199C55.2363 24.1976 55.4535 24.4502 55.6118 24.7778C55.7701 25.1054 55.8493 25.494 55.8493 25.9438ZM55.3621 25.9438C55.3621 25.5745 55.3019 25.2629 55.1815 25.0089C55.0624 24.7549 54.9007 24.5627 54.6963 24.4322C54.4934 24.3017 54.266 24.2365 54.0143 24.2365C53.7626 24.2365 53.5346 24.3017 53.3303 24.4322C53.1273 24.5627 52.9656 24.7549 52.8451 25.0089C52.726 25.2629 52.6665 25.5745 52.6665 25.9438C52.6665 26.313 52.726 26.6246 52.8451 26.8786C52.9656 27.1326 53.1273 27.3249 53.3303 27.4554C53.5346 27.5858 53.7626 27.6511 54.0143 27.6511C54.266 27.6511 54.4934 27.5858 54.6963 27.4554C54.9007 27.3249 55.0624 27.1326 55.1815 26.8786C55.3019 26.6246 55.3621 26.313 55.3621 25.9438Z" fill="white"></path><path d="M51.3323 23.8115V28.0756H50.8289V23.8115H51.3323Z" fill="white"></path><path d="M46.9341 24.2696V23.8115H50.0519V24.2696H48.7447V28.0756H48.2413V24.2696H46.9341Z" fill="white"></path><path d="M46.3481 25.1443H45.8446C45.8149 24.9957 45.7628 24.8653 45.6883 24.7528C45.6153 24.6404 45.526 24.546 45.4204 24.4697C45.3162 24.3919 45.2005 24.3336 45.0733 24.2948C44.9461 24.2559 44.8135 24.2365 44.6754 24.2365C44.4237 24.2365 44.1957 24.3017 43.9914 24.4322C43.7884 24.5627 43.6267 24.7549 43.5062 25.0089C43.3872 25.2629 43.3276 25.5745 43.3276 25.9438C43.3276 26.313 43.3872 26.6246 43.5062 26.8786C43.6267 27.1326 43.7884 27.3249 43.9914 27.4554C44.1957 27.5858 44.4237 27.6511 44.6754 27.6511C44.8135 27.6511 44.9461 27.6317 45.0733 27.5928C45.2005 27.5539 45.3162 27.4963 45.4204 27.42C45.526 27.3422 45.6153 27.2472 45.6883 27.1347C45.7628 27.0209 45.8149 26.8904 45.8446 26.7433H46.3481C46.3102 26.9612 46.2411 27.1562 46.141 27.3284C46.0409 27.5005 45.9164 27.6469 45.7675 27.7677C45.6187 27.8871 45.4515 27.978 45.2661 28.0404C45.0821 28.1029 44.8852 28.1341 44.6754 28.1341C44.3209 28.1341 44.0056 28.0453 43.7295 27.8676C43.4535 27.6899 43.2363 27.4373 43.0779 27.1097C42.9196 26.7822 42.8405 26.3935 42.8405 25.9438C42.8405 25.494 42.9196 25.1054 43.0779 24.7778C43.2363 24.4502 43.4535 24.1976 43.7295 24.0199C44.0056 23.8423 44.3209 23.7534 44.6754 23.7534C44.8852 23.7534 45.0821 23.7846 45.2661 23.8471C45.4515 23.9096 45.6187 24.0012 45.7675 24.1219C45.9164 24.2413 46.0409 24.3871 46.141 24.5592C46.2411 24.7299 46.3102 24.9249 46.3481 25.1443Z" fill="white"></path><path d="M39.5059 28.0756H38.9781L40.5046 23.8115H41.0242L42.5507 28.0756H42.0229L40.7807 24.4861H40.7482L39.5059 28.0756ZM39.7008 26.41H41.8281V26.868H39.7008V26.41Z" fill="white"></path><path d="M36.4996 28.0756V23.8115H38.9923V24.2696H37.003V25.7104H38.8056V26.1684H37.003V28.0756H36.4996Z" fill="white"></path><path d="M35.128 24.8777C35.1036 24.6668 35.0048 24.503 34.8316 24.3864C34.6584 24.2698 34.4459 24.2115 34.1942 24.2115C34.0102 24.2115 33.8492 24.242 33.7111 24.3031C33.5745 24.3642 33.4675 24.4481 33.3904 24.555C33.3146 24.6619 33.2767 24.7834 33.2767 24.9194C33.2767 25.0332 33.3031 25.1311 33.3559 25.213C33.41 25.2935 33.4791 25.3608 33.563 25.4149C33.6469 25.4677 33.7348 25.5114 33.8268 25.5461C33.9189 25.5794 34.0034 25.6065 34.0806 25.6273L34.5028 25.7439C34.611 25.773 34.7315 25.8133 34.8641 25.8647C34.9981 25.916 35.1259 25.9861 35.2477 26.0749C35.3709 26.1624 35.4724 26.2748 35.5522 26.4122C35.6321 26.5497 35.672 26.7183 35.672 26.9182C35.672 27.1486 35.6131 27.3568 35.4954 27.5428C35.379 27.7288 35.2085 27.8766 34.9839 27.9863C34.7606 28.096 34.4892 28.1508 34.1699 28.1508C33.8722 28.1508 33.6144 28.1015 33.3965 28.003C33.18 27.9044 33.0095 27.767 32.885 27.5907C32.7618 27.4144 32.6921 27.2097 32.6759 26.9765H33.1955C33.2091 27.1375 33.2619 27.2708 33.3539 27.3762C33.4473 27.4804 33.565 27.5581 33.7071 27.6094C33.8505 27.6594 34.0048 27.6844 34.1699 27.6844C34.362 27.6844 34.5346 27.6525 34.6875 27.5886C34.8404 27.5234 34.9615 27.4332 35.0508 27.318C35.1402 27.2014 35.1848 27.0653 35.1848 26.9099C35.1848 26.7683 35.1462 26.6531 35.0691 26.5642C34.992 26.4754 34.8905 26.4032 34.7646 26.3477C34.6388 26.2922 34.5028 26.2436 34.3566 26.202L33.8451 26.052C33.5203 25.9563 33.2632 25.8195 33.0738 25.6419C32.8843 25.4642 32.7896 25.2317 32.7896 24.9444C32.7896 24.7056 32.8525 24.4974 32.9784 24.3197C33.1056 24.1407 33.2761 24.0019 33.4899 23.9033C33.705 23.8034 33.9452 23.7534 34.2105 23.7534C34.4784 23.7534 34.7166 23.8027 34.925 23.9012C35.1334 23.9984 35.2985 24.1317 35.4203 24.301C35.5434 24.4703 35.6084 24.6626 35.6151 24.8777H35.128Z" fill="white"></path><path d="M31.8452 23.8115V28.0756H31.3418V23.8115H31.8452Z" fill="white"></path><path d="M27.447 24.2696V23.8115H30.5649V24.2696H29.2577V28.0756H28.7543V24.2696H27.447Z" fill="white"></path><path d="M24.4677 28.0756H23.9399L25.4664 23.8115H25.986L27.5125 28.0756H26.9847L25.7425 24.4861H25.71L24.4677 28.0756ZM24.6626 26.41H26.7899V26.868H24.6626V26.41Z" fill="white"></path><path d="M22.9255 24.8777C22.9011 24.6668 22.8023 24.503 22.6291 24.3864C22.4559 24.2698 22.2434 24.2115 21.9917 24.2115C21.8077 24.2115 21.6466 24.242 21.5086 24.3031C21.3719 24.3642 21.265 24.4481 21.1879 24.555C21.1121 24.6619 21.0742 24.7834 21.0742 24.9194C21.0742 25.0332 21.1006 25.1311 21.1534 25.213C21.2075 25.2935 21.2765 25.3608 21.3604 25.4149C21.4443 25.4677 21.5323 25.5114 21.6243 25.5461C21.7163 25.5794 21.8009 25.6065 21.8781 25.6273L22.3003 25.7439C22.4085 25.773 22.529 25.8133 22.6616 25.8647C22.7955 25.916 22.9234 25.9861 23.0452 26.0749C23.1684 26.1624 23.2699 26.2748 23.3497 26.4122C23.4295 26.5497 23.4695 26.7183 23.4695 26.9182C23.4695 27.1486 23.4106 27.3568 23.2929 27.5428C23.1765 27.7288 23.006 27.8766 22.7813 27.9863C22.5581 28.096 22.2867 28.1508 21.9674 28.1508C21.6697 28.1508 21.4119 28.1015 21.194 28.003C20.9775 27.9044 20.807 27.767 20.6825 27.5907C20.5593 27.4144 20.4896 27.2097 20.4734 26.9765H20.993C21.0066 27.1375 21.0593 27.2708 21.1514 27.3762C21.2447 27.4804 21.3625 27.5581 21.5046 27.6094C21.648 27.6594 21.8023 27.6844 21.9674 27.6844C22.1595 27.6844 22.3321 27.6525 22.485 27.5886C22.6379 27.5234 22.759 27.4332 22.8483 27.318C22.9376 27.2014 22.9823 27.0653 22.9823 26.9099C22.9823 26.7683 22.9437 26.6531 22.8666 26.5642C22.7895 26.4754 22.688 26.4032 22.5621 26.3477C22.4363 26.2922 22.3003 26.2436 22.1541 26.202L21.6426 26.052C21.3178 25.9563 21.0607 25.8195 20.8712 25.6419C20.6818 25.4642 20.5871 25.2317 20.5871 24.9444C20.5871 24.7056 20.65 24.4974 20.7758 24.3197C20.903 24.1407 21.0736 24.0019 21.2874 23.9033C21.5025 23.8034 21.7427 23.7534 22.008 23.7534C22.2759 23.7534 22.5141 23.8027 22.7225 23.9012C22.9309 23.9984 23.096 24.1317 23.2178 24.301C23.3409 24.4703 23.4059 24.6626 23.4126 24.8777H22.9255Z" fill="white"></path><defs><linearGradient id="paint0_linear_108_670" x1="37.9971" y1="0.185264" x2="37.9971" y2="78.5261" gradientUnits="userSpaceOnUse"><stop stop-color="#B48C48"></stop><stop offset="0.08" stop-color="#B48C48"></stop><stop offset="0.22" stop-color="#AD8745"></stop><stop offset="0.34" stop-color="#9C7024"></stop><stop offset="0.49" stop-color="#AD8745"></stop><stop offset="0.71" stop-color="#AD8745"></stop><stop offset="0.84" stop-color="#9C7024"></stop><stop offset="1" stop-color="#AD8745"></stop></linearGradient><linearGradient id="paint1_linear_108_670" x1="37.9972" y1="1.65678" x2="37.9972" y2="77.6734" gradientUnits="userSpaceOnUse"><stop stop-color="#F9D18B"></stop><stop offset="0.14" stop-color="#FFE6BA"></stop><stop offset="1" stop-color="#EEBD66"></stop></linearGradient><linearGradient id="paint2_linear_108_670" x1="7.11237" y1="37.9957" x2="68.8905" y2="37.9957" gradientUnits="userSpaceOnUse"><stop stop-color="#B48C48"></stop><stop offset="0.08" stop-color="#B48C48"></stop><stop offset="0.22" stop-color="#AD8745"></stop><stop offset="0.34" stop-color="#9C7024"></stop><stop offset="0.49" stop-color="#AD8745"></stop><stop offset="0.71" stop-color="#AD8745"></stop><stop offset="0.84" stop-color="#9C7024"></stop><stop offset="1" stop-color="#AD8745"></stop></linearGradient><linearGradient id="paint3_linear_108_670" x1="0" y1="55.5408" x2="76" y2="55.5408" gradientUnits="userSpaceOnUse"><stop stop-color="#4C75B0"></stop><stop offset="1" stop-color="#2C4D80"></stop></linearGradient></defs></svg>