<svg xmlns="http://www.w3.org/2000/svg" width="158" height="35" viewBox="0 0 158 35" fill="none"><path d="M35.8357 31.8648C36.0471 31.9771 36.2175 31.9375 36.3803 31.9377C39.4326 31.9414 42.4859 31.8933 45.5369 31.9536C50.2416 32.0466 53.7808 27.9333 53.7691 23.8992C53.7595 20.5641 52.3724 17.9267 49.4267 16.1506C48.9576 15.8678 48.4416 15.6753 47.9167 15.5131C46.9235 15.2062 46.4175 14.5745 46.3553 13.5464C46.1722 10.5177 44.9543 7.93363 42.7554 5.82298C40.6551 3.80704 38.1051 2.70393 35.1603 2.45497C29.9304 2.01286 25.2108 4.98842 23.2064 9.27245C23.0102 9.69187 22.8712 10.1372 22.711 10.5724C22.5248 11.0782 22.4205 11.1155 21.9663 10.7936C21.123 10.1958 20.2517 9.64522 19.2597 9.31237C16.6175 8.42579 14.1718 8.67149 12.0602 10.595C11.1348 11.4379 10.5019 12.4628 10.3026 13.7145C10.246 14.0702 10.3446 14.2275 10.7305 14.2659C11.2752 14.3202 11.82 14.4076 12.3534 14.529C13.0393 14.685 13.4163 15.2626 13.2974 15.8972C13.1654 16.6019 12.667 16.9778 11.9233 16.9067C11.5903 16.8749 11.2608 16.8037 10.9313 16.7422C7.9203 16.1802 5.10178 17.7922 3.61537 20.1347C0.46389 25.1014 3.98425 31.3615 9.60417 31.8958C10.9051 32.0195 12.2269 31.9366 13.5392 31.9428C14.5769 31.9477 15.615 31.9285 16.6523 31.9509C17.0546 31.9596 17.3383 31.8289 17.609 31.5434C20.5669 28.4239 23.531 25.31 26.5007 22.2012C29.6997 18.8524 32.906 15.5102 36.1107 12.1666C36.2773 11.9927 36.4437 11.8131 36.6357 11.6688C37.1086 11.3132 37.7498 11.3114 38.216 11.6417C38.6588 11.9554 38.7841 12.4515 38.5753 13.0472C38.4427 13.4257 38.1819 13.7173 37.9096 14.0014C34.0481 18.0318 30.182 22.0581 26.3261 26.0937C24.0231 28.504 21.7309 30.9242 19.4447 33.3498C18.7659 34.07 18.0031 34.4454 16.9519 34.4117C14.8328 34.3439 12.7098 34.4034 10.5887 34.3873C5.30725 34.3473 1.00051 30.7417 0.135032 25.6508C-0.700592 20.7354 2.42123 15.8859 7.30924 14.5316C7.65696 14.4353 7.79958 14.3012 7.83043 13.9372C8.15499 10.1077 11.3605 7.01106 15.3391 6.50336C17.1934 6.26675 18.9863 6.55073 20.6892 7.33466C21.2604 7.59762 21.2489 7.57328 21.5805 7.04545C24.0841 3.06045 27.6682 0.641612 32.4419 0.110182C37.2981 -0.430458 41.4883 1.015 44.8574 4.52416C47.0223 6.77914 48.2897 9.47464 48.6723 12.5515C48.7322 13.0326 48.9093 13.2826 49.3987 13.474C52.0027 14.4924 53.8496 16.3267 55.0124 18.7941C56.7515 22.4845 56.7072 26.1557 54.4388 29.6116C52.3726 32.7597 49.3359 34.376 45.4802 34.3893C40.444 34.4067 35.4077 34.3958 30.3715 34.3942C30.2408 34.3942 30.0565 34.4667 29.9902 34.334C29.9059 34.1653 30.1082 34.0823 30.2043 33.9811C33.6076 30.3905 37.013 26.8018 40.4205 23.2151C41.3971 22.1871 42.3734 21.1586 43.3643 20.1438C44.0341 19.4578 44.8966 19.4585 45.4325 20.1173C45.8489 20.6291 45.8041 21.2801 45.2686 21.8671C44.5676 22.6357 43.8427 23.3833 43.1273 24.1392C40.7634 26.637 38.399 29.1345 36.0354 31.6325C35.9743 31.6969 35.9194 31.767 35.8357 31.8648Z" fill="url(#paint0_linear_22_21)"></path><path d="M24.2504 34.3925C23.7926 34.3925 23.3348 34.3942 22.877 34.3911C22.7739 34.3904 22.6427 34.4204 22.5839 34.3163C22.5091 34.1837 22.634 34.0906 22.7105 34.0088C23.1947 33.4913 23.6854 32.9795 24.1756 32.4674C28.0245 28.4465 31.877 24.4289 35.7212 20.4037C37.0544 19.0077 38.3696 17.5953 39.6878 16.1857C40.0507 15.7976 40.4739 15.5684 41.0226 15.6484C41.9894 15.7896 42.4077 16.8007 41.8203 17.6507C41.5408 18.0552 41.1748 18.4048 40.8316 18.7643C37.144 22.6262 33.4525 26.4847 29.7636 30.3454C28.6384 31.523 27.5052 32.6937 26.4023 33.8911C26.0536 34.2696 25.6824 34.451 25.1653 34.396C24.8637 34.3639 24.5556 34.3901 24.2504 34.3901C24.2504 34.3909 24.2504 34.3917 24.2504 34.3925Z" fill="url(#paint1_linear_22_21)"></path><path d="M15.0623 29.4921C14.2498 29.4767 13.7109 28.7384 13.9553 27.9542C14.1048 27.4747 14.3954 27.0689 14.741 26.7058C18.5548 22.698 22.3711 18.6924 26.1874 14.6869C27.1026 13.7264 28.0126 12.761 28.9402 11.8121C29.3964 11.3454 30.1308 11.2847 30.6594 11.6282C31.1455 11.9441 31.2833 12.5641 31.0088 13.1891C30.8927 13.4535 30.7233 13.6825 30.5234 13.8897C29.7173 14.7252 28.902 15.5524 28.1023 16.3936C25.1838 19.4634 22.2707 22.5381 19.3543 25.6099C18.2956 26.725 17.2328 27.8363 16.1731 28.9506C15.8714 29.2678 15.5273 29.4974 15.0623 29.4921Z" fill="url(#paint2_linear_22_21)"></path><path d="M80.2693 26.288C78.9733 26.288 77.7653 26.08 76.6453 25.664C75.5413 25.232 74.5813 24.624 73.7653 23.84C72.9493 23.056 72.3093 22.136 71.8453 21.08C71.3973 20.024 71.1733 18.864 71.1733 17.6C71.1733 16.336 71.3973 15.176 71.8453 14.12C72.3093 13.064 72.9493 12.144 73.7653 11.36C74.5973 10.576 75.5653 9.976 76.6693 9.56C77.7733 9.128 78.9813 8.912 80.2933 8.912C81.7493 8.912 83.0613 9.168 84.2293 9.68C85.4133 10.176 86.4053 10.912 87.2053 11.888L84.7093 14.192C84.1333 13.536 83.4933 13.048 82.7893 12.728C82.0853 12.392 81.3173 12.224 80.4853 12.224C79.7013 12.224 78.9813 12.352 78.3253 12.608C77.6693 12.864 77.1013 13.232 76.6213 13.712C76.1413 14.192 75.7653 14.76 75.4933 15.416C75.2373 16.072 75.1093 16.8 75.1093 17.6C75.1093 18.4 75.2373 19.128 75.4933 19.784C75.7653 20.44 76.1413 21.008 76.6213 21.488C77.1013 21.968 77.6693 22.336 78.3253 22.592C78.9813 22.848 79.7013 22.976 80.4853 22.976C81.3173 22.976 82.0853 22.816 82.7893 22.496C83.4933 22.16 84.1333 21.656 84.7093 20.984L87.2053 23.288C86.4053 24.264 85.4133 25.008 84.2293 25.52C83.0613 26.032 81.7413 26.288 80.2693 26.288ZM89.5669 26V8.192H93.3109V26H89.5669ZM102.93 26.192C101.554 26.192 100.33 25.904 99.2576 25.328C98.2016 24.752 97.3616 23.968 96.7376 22.976C96.1296 21.968 95.8256 20.824 95.8256 19.544C95.8256 18.248 96.1296 17.104 96.7376 16.112C97.3616 15.104 98.2016 14.32 99.2576 13.76C100.33 13.184 101.554 12.896 102.93 12.896C104.29 12.896 105.506 13.184 106.578 13.76C107.65 14.32 108.49 15.096 109.098 16.088C109.706 17.08 110.01 18.232 110.01 19.544C110.01 20.824 109.706 21.968 109.098 22.976C108.49 23.968 107.65 24.752 106.578 25.328C105.506 25.904 104.29 26.192 102.93 26.192ZM102.93 23.12C103.554 23.12 104.114 22.976 104.61 22.688C105.106 22.4 105.498 21.992 105.786 21.464C106.074 20.92 106.218 20.28 106.218 19.544C106.218 18.792 106.074 18.152 105.786 17.624C105.498 17.096 105.106 16.688 104.61 16.4C104.114 16.112 103.554 15.968 102.93 15.968C102.306 15.968 101.746 16.112 101.25 16.4C100.754 16.688 100.354 17.096 100.05 17.624C99.7616 18.152 99.6176 18.792 99.6176 19.544C99.6176 20.28 99.7616 20.92 100.05 21.464C100.354 21.992 100.754 22.4 101.25 22.688C101.746 22.976 102.306 23.12 102.93 23.12ZM117.96 26.192C116.888 26.192 115.928 25.984 115.08 25.568C114.248 25.152 113.6 24.52 113.136 23.672C112.672 22.808 112.44 21.712 112.44 20.384V13.088H116.184V19.832C116.184 20.904 116.408 21.696 116.856 22.208C117.32 22.704 117.968 22.952 118.8 22.952C119.376 22.952 119.888 22.832 120.336 22.592C120.784 22.336 121.136 21.952 121.392 21.44C121.648 20.912 121.776 20.256 121.776 19.472V13.088H125.52V26H121.968V22.448L122.616 23.48C122.184 24.376 121.544 25.056 120.696 25.52C119.864 25.968 118.952 26.192 117.96 26.192ZM134.533 26.192C133.317 26.192 132.221 25.92 131.245 25.376C130.269 24.816 129.493 24.04 128.917 23.048C128.357 22.056 128.077 20.888 128.077 19.544C128.077 18.184 128.357 17.008 128.917 16.016C129.493 15.024 130.269 14.256 131.245 13.712C132.221 13.168 133.317 12.896 134.533 12.896C135.621 12.896 136.573 13.136 137.389 13.616C138.205 14.096 138.837 14.824 139.285 15.8C139.733 16.776 139.957 18.024 139.957 19.544C139.957 21.048 139.741 22.296 139.309 23.288C138.877 24.264 138.253 24.992 137.437 25.472C136.637 25.952 135.669 26.192 134.533 26.192ZM135.181 23.12C135.789 23.12 136.341 22.976 136.837 22.688C137.333 22.4 137.725 21.992 138.013 21.464C138.317 20.92 138.469 20.28 138.469 19.544C138.469 18.792 138.317 18.152 138.013 17.624C137.725 17.096 137.333 16.688 136.837 16.4C136.341 16.112 135.789 15.968 135.181 15.968C134.557 15.968 133.997 16.112 133.501 16.4C133.005 16.688 132.605 17.096 132.301 17.624C132.013 18.152 131.869 18.792 131.869 19.544C131.869 20.28 132.013 20.92 132.301 21.464C132.605 21.992 133.005 22.4 133.501 22.688C133.997 22.976 134.557 23.12 135.181 23.12ZM138.565 26V23.36L138.637 19.52L138.397 15.704V8.192H142.141V26H138.565ZM144.718 26V23.744L152.35 14.72L152.998 15.968H144.886V13.088H156.022V15.344L148.39 24.368L147.718 23.12H156.238V26H144.718Z" fill="#0F1137"></path><defs><linearGradient id="paint0_linear_22_21" x1="0" y1="17.207" x2="56.2374" y2="17.207" gradientUnits="userSpaceOnUse"><stop stop-color="#0568EA"></stop><stop offset="1" stop-color="#08B5F7"></stop></linearGradient><linearGradient id="paint1_linear_22_21" x1="22.5609" y1="25.0191" x2="42.0903" y2="25.0191" gradientUnits="userSpaceOnUse"><stop stop-color="#0568EA"></stop><stop offset="1" stop-color="#08B5F7"></stop></linearGradient><linearGradient id="paint2_linear_22_21" x1="13.896" y1="20.4508" x2="31.1483" y2="20.4508" gradientUnits="userSpaceOnUse"><stop stop-color="#0568EA"></stop><stop offset="1" stop-color="#08B5F7"></stop></linearGradient></defs></svg>