<svg xmlns="http://www.w3.org/2000/svg" width="90" height="76" viewBox="0 0 90 76" fill="none"><path d="M0 35.4146C0 35.4146 14.9106 26.938 45.2683 26.938C75.6261 26.938 90 35.4146 90 35.4146C90 35.4146 81.8484 46.6135 44.9966 46.6135C8.14476 46.6135 0 35.4146 0 35.4146Z" fill="#1D3354"></path><path d="M44.9966 75.7495C66.0133 75.7495 83.0508 58.8495 83.0508 38.0022C83.0508 17.1549 66.0133 0.254883 44.9966 0.254883C23.9798 0.254883 6.94238 17.1549 6.94238 38.0022C6.94238 58.8495 23.9798 75.7495 44.9966 75.7495Z" fill="url(#paint0_linear_108_376)"></path><path fill-rule="evenodd" clip-rule="evenodd" d="M44.9966 0.507317C24.1205 0.507317 7.19709 17.2942 7.19709 38.002C7.19709 58.7097 24.1205 75.4966 44.9966 75.4966C65.8726 75.4966 82.796 58.7097 82.796 38.002C82.796 17.2942 65.8726 0.507317 44.9966 0.507317ZM6.68762 38.002C6.68762 17.0151 23.8391 0.00195312 44.9966 0.00195312C66.154 0.00195312 83.3055 17.0151 83.3055 38.002C83.3055 58.9888 66.154 76.002 44.9966 76.002C23.8391 76.002 6.68762 58.9888 6.68762 38.002Z" fill="white"></path><path d="M23.4697 57.2196C23.1708 57.9518 22.8991 58.693 22.6545 59.4432L23.4085 60.4135C23.6667 60.7302 23.9452 61.0267 24.2169 61.3434C23.4085 61.3434 22.5662 61.3906 21.7443 61.3434C21.3095 62.0172 20.8815 62.691 20.4536 63.3648C20.1275 62.5158 19.7743 61.7275 19.523 60.8785C18.7146 60.5415 17.879 60.2046 17.0911 59.7734C17.7975 59.4005 18.4972 59.0232 19.1901 58.6414C19.2309 57.8058 19.2716 57.004 19.3667 56.2021C19.9577 56.7816 20.5555 57.3409 21.1668 57.88C21.9548 57.6643 22.7157 57.4487 23.4697 57.2196Z" fill="white"></path><g style="mix-blend-mode:multiply" opacity="0.1"><path d="M23.4697 57.2188C23.1708 57.951 22.899 58.6922 22.6545 59.4423L23.4085 60.4126C23.6667 60.7293 23.9452 61.0258 24.2169 61.3425C23.4085 61.3425 22.5662 61.3897 21.7442 61.3425C21.3095 62.0163 20.8815 62.6902 20.4536 63.364C20.1275 62.515 19.7743 61.7266 19.5229 60.8776L23.4697 57.2188Z" fill="black"></path></g><path d="M31.0845 63.0615C31.0438 63.8297 31.0302 64.618 31.037 65.4199C31.7163 65.905 32.3956 66.2824 33.1292 66.7271C32.3752 67.0034 31.594 67.2661 30.7924 67.5222C30.5954 68.2836 30.4052 69.0518 30.2286 69.8199C29.6105 69.1461 29.0738 68.4386 28.5304 67.7648C27.6473 67.7176 26.771 67.6031 25.8607 67.502C26.4109 66.9225 26.9612 66.343 27.4978 65.7501C27.2397 64.9819 27.0563 64.1531 26.8729 63.3782L27.9869 63.9173C28.3605 64.0857 28.7477 64.234 29.1214 64.3957C29.8007 63.9577 30.4392 63.5399 31.0845 63.0615Z" fill="white"></path><g style="mix-blend-mode:multiply" opacity="0.1"><path d="M31.0845 63.0615C31.0438 63.8297 31.0302 64.618 31.037 65.4199C31.7163 65.905 32.3956 66.2824 33.1292 66.7271C32.3752 67.0034 31.594 67.2661 30.7924 67.5222C30.5954 68.2836 30.4053 69.0518 30.2286 69.8199C29.6105 69.1461 29.0738 68.4386 28.5304 67.7648L31.0845 63.0615Z" fill="black"></path></g><path d="M40.1872 66.127C40.4045 66.8749 40.6491 67.6296 40.914 68.391C41.7088 68.5729 42.5036 68.7953 43.3187 68.9368C42.7006 69.4826 42.0485 69.9408 41.3692 70.4394C41.4303 71.2278 41.505 72.0094 41.5865 72.8045L40.4249 72.1307L39.3109 71.3962C38.455 71.6455 37.5923 71.8275 36.7024 71.9959C37.0352 71.2749 37.3817 70.5539 37.6738 69.8262C37.1847 69.1524 36.7228 68.4786 36.3152 67.8048C37.1303 67.9463 37.9659 67.9665 38.7742 68.0473C39.2565 67.4274 39.7388 66.7671 40.1872 66.127Z" fill="white"></path><g style="mix-blend-mode:multiply" opacity="0.1"><path d="M40.1872 66.127C40.4046 66.8749 40.6491 67.6296 40.914 68.391C41.7088 68.5729 42.5036 68.7953 43.3188 68.9368C42.7006 69.4826 42.0485 69.9408 41.3692 70.4394C41.4303 71.2278 41.505 72.0094 41.5865 72.8045L40.4249 72.1307L39.3109 71.3962L40.1872 66.127Z" fill="black"></path></g><path d="M49.8129 66.127C50.2612 66.7671 50.7435 67.4274 51.2326 68.0339C52.041 67.953 52.8765 67.9328 53.6917 67.7913C53.2773 68.4988 52.8154 69.1389 52.3331 69.8127C52.6455 70.5405 52.9716 71.2615 53.3045 71.9824C52.4146 71.814 51.5519 71.632 50.696 71.3827L49.5819 72.1172L48.4203 72.791C48.5018 71.9959 48.5766 71.2143 48.6377 70.4259C47.9584 69.9273 47.2791 69.4691 46.6881 68.9233C47.5033 68.7818 48.298 68.5594 49.0928 68.3775C49.351 67.6296 49.5955 66.8749 49.8129 66.127Z" fill="white"></path><g style="mix-blend-mode:multiply" opacity="0.1"><path d="M49.8127 66.127C50.2611 66.7671 50.7434 67.4274 51.2325 68.0339C52.0408 67.953 52.8764 67.9328 53.6915 67.7913C53.2772 68.4988 52.8152 69.1389 52.3329 69.8127C52.6454 70.5405 52.9715 71.2615 53.3043 71.9824C52.4144 71.814 51.5517 71.632 50.6958 71.3827L49.8127 66.127Z" fill="black"></path></g><path d="M58.9153 63.0615C59.5606 63.5399 60.1992 63.9577 60.8785 64.4092C61.2521 64.2474 61.6393 64.0992 62.0129 63.9308L63.1269 63.3917C62.9435 64.1666 62.7601 64.9954 62.502 65.7635C63.0386 66.3565 63.5889 66.936 64.1391 67.5155C63.2288 67.6165 62.3525 67.7311 61.4695 67.7783C60.926 68.4521 60.3826 69.1865 59.7712 69.8334C59.5946 69.0653 59.4044 68.2971 59.2074 67.5357C58.399 67.2796 57.6246 67.0168 56.8706 66.7406C57.5499 66.2958 58.2971 65.9185 58.9629 65.4334C58.9696 64.6181 58.9561 63.8297 58.9153 63.0615Z" fill="white"></path><g style="mix-blend-mode:multiply" opacity="0.1"><path d="M58.9154 63.0615C59.5607 63.5399 60.1993 63.9577 60.8786 64.4092C61.2522 64.2474 61.6394 64.0992 62.013 63.9308L63.1271 63.3917C62.9436 64.1666 62.7602 64.9954 62.5021 65.7635C63.0387 66.3565 63.589 66.936 64.1392 67.5155C63.2289 67.6165 62.3527 67.7311 61.4696 67.7783L58.9154 63.0615Z" fill="black"></path></g><path d="M66.5303 57.2188C67.2843 57.4479 68.0451 57.6636 68.8331 57.8927C69.4445 57.3536 70.0423 56.7943 70.6332 56.2148C70.7283 57.0167 70.7691 57.8185 70.8099 58.6541C71.5028 59.0359 72.2024 59.4132 72.9089 59.7861C72.1209 60.2039 71.2854 60.5542 70.477 60.8911C70.2257 61.7402 69.8724 62.5285 69.5464 63.3775C69.1184 62.7037 68.6905 62.0299 68.2557 61.3561C67.4338 61.4032 66.5914 61.3561 65.7831 61.3561C66.048 61.0394 66.3333 60.7429 66.5914 60.4262L67.3455 59.4559C67.1009 58.7012 66.8292 57.9556 66.5303 57.2188Z" fill="white"></path><g style="mix-blend-mode:multiply" opacity="0.1"><path d="M66.5303 57.2188C67.2843 57.4479 68.0451 57.6636 68.8331 57.8927C69.4445 57.3536 70.0422 56.7943 70.6332 56.2148C70.7283 57.0167 70.7691 57.8185 70.8099 58.6541C71.5027 59.0359 72.2024 59.4132 72.9089 59.7861C72.1209 60.2039 71.2854 60.5542 70.477 60.8911L66.5303 57.2188Z" fill="black"></path></g><path d="M44.9965 64.2815C59.6279 64.2815 71.489 52.516 71.489 38.0026C71.489 23.4891 59.6279 11.7236 44.9965 11.7236C30.365 11.7236 18.5039 23.4891 18.5039 38.0026C18.5039 52.516 30.365 64.2815 44.9965 64.2815Z" fill="url(#paint1_linear_108_376)"></path><path fill-rule="evenodd" clip-rule="evenodd" d="M44.9966 11.9761C30.5058 11.9761 18.7587 23.6284 18.7587 38.0023C18.7587 52.3762 30.5058 64.0285 44.9966 64.0285C59.4873 64.0285 71.2344 52.3762 71.2344 38.0023C71.2344 23.6284 59.4873 11.9761 44.9966 11.9761ZM18.2493 38.0023C18.2493 23.3493 30.2244 11.4707 44.9966 11.4707C59.7687 11.4707 71.7439 23.3493 71.7439 38.0023C71.7439 52.6553 59.7687 64.5339 44.9966 64.5339C30.2244 64.5339 18.2493 52.6553 18.2493 38.0023Z" fill="white"></path><path d="M44.9965 13.5693L46.2872 25.8665L50.1252 14.1084L48.8074 26.3988L55.0297 15.6851L51.1645 27.4365L59.4927 18.2456L53.25 28.9391L63.3239 21.6619L54.9754 30.8393L66.3536 25.7991L56.2593 33.0562L68.4458 30.4687L57.0608 35.4887L69.5191 35.4752L57.3258 38.0289L69.5191 40.5827L57.0608 40.5693L68.4458 45.5892L56.2593 43.0017L66.3536 50.2588L54.9754 45.2186L63.3239 54.396L53.25 47.1188L59.4927 57.8123L51.1645 48.6214L55.0297 60.3728L48.8074 49.6591L50.1252 61.9495L46.2872 50.1914L44.9965 62.4886L43.7126 50.1914L39.8746 61.9495L41.1925 49.6591L34.9701 60.3728L38.8353 48.6214L30.5071 57.8123L36.7499 47.1188L26.6759 54.396L35.0245 45.2186L23.6462 50.2588L33.7406 43.0017L21.554 45.5892L32.939 40.5693L20.4807 40.5827L32.6741 38.0289L20.4807 35.4752L32.939 35.4887L21.554 30.4687L33.7406 33.0562L23.6462 25.7991L35.0245 30.8393L26.6759 21.6619L36.7499 28.9391L30.5071 18.2456L38.8353 27.4365L34.9701 15.6851L41.1925 26.3988L39.8746 14.1084L43.7126 25.8665L44.9965 13.5693Z" fill="url(#paint2_linear_108_376)"></path><g style="mix-blend-mode:multiply" opacity="0.2"><path d="M4.99951 40.5083C5.44276 47.6924 7.85752 54.6197 11.9827 60.5409C33.6371 66.1023 56.3626 66.1023 78.0171 60.5409C82.1374 54.6183 84.5475 47.6911 84.9867 40.5083C73.493 44.4838 59.7576 46.8085 44.9829 46.8085C30.2082 46.8085 16.4932 44.4838 4.99951 40.5083Z" fill="black"></path></g><path d="M15.9974 32.1933C16.3749 31.4224 16.6752 30.6167 16.8941 29.7877C17.2609 28.4401 17.193 27.5439 16.6903 27.362C16.1876 27.18 15.7325 27.6248 15.0668 29.033C14.272 30.7311 13.6403 31.9035 12.9066 31.7688C12.173 31.634 11.7586 29.8214 12.4447 27.5102C12.6775 26.6365 13.0514 25.8059 13.5519 25.0508C13.6946 25.2934 13.7693 25.4146 13.9188 25.6505C13.4982 26.2932 13.1776 26.9951 12.9677 27.7326C12.499 29.3295 12.8047 30.0909 13.1512 30.1718C13.6402 30.2796 14.0139 29.5923 14.7407 28.1503C15.6306 26.3849 16.405 25.7179 17.125 26.0211C17.8451 26.3243 18.0557 27.618 17.4171 30.0303C17.1936 30.9332 16.8842 31.8131 16.4933 32.6582L15.9974 32.1933Z" fill="black"></path><path d="M18.4157 22.7398C18.7962 23.4136 18.9999 23.7775 19.4143 24.4513C19.1834 24.9162 19.0679 25.1588 18.8573 25.6439C17.6423 23.8549 16.62 21.9442 15.8073 19.9434C16.1605 19.3303 16.3507 19.0338 16.7379 18.4543C18.8544 18.347 20.9762 18.4986 23.0553 18.9057C22.7293 19.2898 22.5662 19.492 22.2538 19.8963C21.4794 19.7952 21.0922 19.7615 20.3042 19.7143C19.5995 20.6746 18.9682 21.686 18.4157 22.7398ZM19.7132 19.6133C18.9864 19.6133 18.6195 19.6133 17.8791 19.6133C17.5048 19.6139 17.1307 19.596 16.7583 19.5594C16.9349 19.8693 17.1183 20.1927 17.2881 20.5431C17.5938 21.217 17.7568 21.5606 18.0965 22.2209C18.5795 21.3188 19.1195 20.4479 19.7132 19.6133Z" fill="black"></path><path d="M21.0514 14.0817C20.2798 14.8432 19.5561 15.6511 18.8845 16.5007L18.4293 16.1368C20.0425 14.0243 21.9686 12.166 24.1422 10.625L24.5022 11.0899C23.6402 11.7114 22.8188 12.3865 22.0432 13.1114C23.3406 14.459 23.986 15.1867 25.2902 16.5681C24.937 16.8848 24.7672 17.0532 24.4343 17.3901L21.0514 14.0817Z" fill="black"></path><path d="M26.2344 9.18945C27.4096 10.9616 27.9938 11.8847 29.1622 13.6232C28.775 13.8658 28.5848 13.9938 28.2044 14.2566L25.1 9.93739C25.5483 9.62744 25.7793 9.4792 26.2344 9.18945Z" fill="black"></path><path d="M30.3374 11.9657C31.0411 11.8485 31.7263 11.64 32.3753 11.3458C33.4622 10.8539 33.9784 10.2812 33.7746 9.7893C33.5709 9.29741 33.0003 9.21656 31.7368 9.49956C30.188 9.84321 29.0875 9.96449 28.7139 9.31763C28.3403 8.67076 29.1758 7.3905 31.0575 6.62235C31.7682 6.30236 32.5285 6.10415 33.306 6.03613L33.1565 6.70995C32.496 6.76536 31.8491 6.92694 31.2409 7.18836C29.9502 7.74089 29.6785 8.38102 29.8415 8.70445C30.0725 9.14243 30.7314 9.06832 32.0832 8.80553C33.7475 8.48209 34.6781 8.65728 34.9363 9.39175C35.1944 10.1262 34.4743 11.083 32.5791 11.9455C31.885 12.274 31.1526 12.5161 30.3986 12.6665L30.3374 11.9657Z" fill="black"></path><path d="M35.3982 5.17313C37.2039 4.64937 39.0552 4.29518 40.9277 4.11523L40.9956 4.68124C39.5968 4.82132 38.2098 5.06002 36.8451 5.3955L37.2798 7.09351C38.4722 6.78774 39.6842 6.56262 40.9073 6.41969L40.9752 6.97896C39.7762 7.11076 38.5872 7.3201 37.4157 7.60562L38.0067 9.92355C37.5584 10.0246 37.3274 10.0785 36.8994 10.1998C36.2881 8.21205 35.9892 7.20133 35.3982 5.17313Z" fill="black"></path><path d="M43.4886 7.53218C43.1353 8.206 42.9723 8.54965 42.6598 9.23694C42.1911 9.23694 41.9805 9.29758 41.4846 9.35149C42.2498 7.43484 43.22 5.60507 44.3784 3.89355C45.0577 3.89355 45.3566 3.89355 46.0087 3.89355C47.1541 5.61709 48.1084 7.45832 48.855 9.38518C48.3727 9.32454 48.1281 9.29758 47.6458 9.25715C47.3266 8.58334 47.1568 8.21947 46.8035 7.53892C45.6998 7.46592 44.5925 7.46367 43.4886 7.53218ZM46.5793 6.99986C46.2397 6.37995 46.0563 6.06999 45.6827 5.45682C45.4925 5.14316 45.3202 4.81923 45.1664 4.48652C45.0102 4.80321 44.8471 5.11991 44.6569 5.44334C44.2765 6.05651 44.0931 6.36647 43.7467 6.98638C44.8607 6.94595 45.4381 6.94596 46.5793 7.03355V6.99986Z" fill="black"></path><path d="M55.9537 10.9886C55.1748 10.8807 54.4067 10.7072 53.6576 10.4698C51.2801 9.79597 49.5818 8.61679 49.8264 6.91203C50.0709 5.20726 52.4892 4.42563 55.5936 5.36898C56.3985 5.59015 57.1622 5.93823 57.8557 6.39992L57.3462 6.79747C56.7642 6.4154 56.1276 6.12238 55.4578 5.92825C53.1482 5.22074 51.382 5.74632 51.1306 7.10069C50.8793 8.45507 51.973 9.35798 54.0584 9.99811C54.6693 10.1906 55.297 10.326 55.9333 10.4024C55.9401 10.6382 55.9469 10.7528 55.9537 10.9886Z" fill="black"></path><path d="M61.3609 8.46834C60.4438 7.96497 59.498 7.515 58.5282 7.1207L58.766 6.58838C61.1998 7.52783 63.4869 8.8051 65.5589 10.382L65.2057 10.8469C64.3603 10.2149 63.4754 9.63652 62.5564 9.1152L60.077 13.1581C59.683 12.9223 59.4792 12.8077 59.0716 12.5921L61.3609 8.46834Z" fill="black"></path><path d="M67.5424 11.9795L64.0236 15.9752C63.6704 15.672 63.4938 15.5238 63.127 15.2408C64.4855 13.5899 65.1648 12.7611 66.4827 11.1035C66.9106 11.4472 67.1212 11.6224 67.5424 11.9795Z" fill="black"></path><path d="M72.6236 22.464C71.0136 23.3467 69.2271 21.999 67.8006 20.1123C66.3741 18.2256 65.8374 16.2648 66.965 15.1126C68.0927 13.9604 70.4974 14.5331 72.2703 16.8915C74.0433 19.2498 74.0025 21.7025 72.6236 22.464ZM67.9364 16.0694C67.1077 16.851 67.1349 18.293 68.2897 19.8293C69.4445 21.3656 70.8574 21.8508 71.8899 21.2241C72.7934 20.6783 73.1942 19.0477 71.7813 17.1812C70.3683 15.3147 68.7923 15.2743 67.9364 16.0694Z" fill="black"></path><path d="M70.9661 25.2262L75.7687 22.9487C76.0404 23.5484 76.1695 23.8517 76.448 24.4783C76.1084 25.9903 75.6543 27.4746 75.0894 28.9188C74.7897 29.762 74.3907 30.5671 73.9006 31.3176V31.3512C74.5754 31.0724 75.2762 30.8603 75.9929 30.7179L78.1598 30.2395C78.2957 30.8459 78.3568 31.1558 78.4655 31.7825L73.2417 32.6922C73.1398 32.1194 73.0855 31.8431 72.9632 31.2906C73.621 29.9632 74.173 28.5866 74.6139 27.1736C74.9264 26.2302 75.2185 25.2936 75.5242 24.5322V24.485C74.8891 24.8499 74.2311 25.174 73.5542 25.4553L71.462 26.3448C71.2582 25.9001 71.1631 25.6777 70.9661 25.2262Z" fill="black"></path><path d="M15.9974 32.1933C16.3749 31.4224 16.6752 30.6167 16.8941 29.7877C17.2609 28.4401 17.193 27.5439 16.6903 27.362C16.1876 27.18 15.7325 27.6248 15.0668 29.033C14.272 30.7311 13.6403 31.9035 12.9066 31.7688C12.173 31.634 11.7586 29.8214 12.4447 27.5102C12.6775 26.6365 13.0514 25.8059 13.5519 25.0508C13.6946 25.2934 13.7693 25.4146 13.9188 25.6505C13.4982 26.2932 13.1776 26.9951 12.9677 27.7326C12.499 29.3295 12.8047 30.0909 13.1512 30.1718C13.6402 30.2796 14.0139 29.5923 14.7407 28.1503C15.6306 26.3849 16.405 25.7179 17.125 26.0211C17.8451 26.3243 18.0557 27.618 17.4171 30.0303C17.1936 30.9332 16.8842 31.8131 16.4933 32.6582L15.9974 32.1933Z" fill="#272530"></path><path d="M18.4157 22.7398C18.7962 23.4136 18.9999 23.7775 19.4143 24.4513C19.1834 24.9162 19.0679 25.1588 18.8573 25.6439C17.6423 23.8549 16.62 21.9442 15.8073 19.9434C16.1605 19.3303 16.3507 19.0338 16.7379 18.4543C18.8544 18.347 20.9762 18.4986 23.0553 18.9057C22.7293 19.2898 22.5662 19.492 22.2538 19.8963C21.4794 19.7952 21.0922 19.7615 20.3042 19.7143C19.5995 20.6746 18.9682 21.686 18.4157 22.7398ZM19.7132 19.6133C18.9864 19.6133 18.6195 19.6133 17.8791 19.6133C17.5048 19.6139 17.1307 19.596 16.7583 19.5594C16.9349 19.8693 17.1183 20.1927 17.2881 20.5431C17.5938 21.217 17.7568 21.5606 18.0965 22.2209C18.5795 21.3188 19.1195 20.4479 19.7132 19.6133Z" fill="#272530"></path><path d="M21.0514 14.0817C20.2798 14.8432 19.5561 15.6511 18.8845 16.5007L18.4293 16.1368C20.0425 14.0243 21.9686 12.166 24.1422 10.625L24.5022 11.0899C23.6402 11.7114 22.8188 12.3865 22.0432 13.1114C23.3406 14.459 23.986 15.1867 25.2902 16.5681C24.937 16.8848 24.7672 17.0532 24.4343 17.3901L21.0514 14.0817Z" fill="#272530"></path><path d="M26.2344 9.18945C27.4096 10.9616 27.9938 11.8847 29.1622 13.6232C28.775 13.8658 28.5848 13.9938 28.2044 14.2566L25.1 9.93739C25.5483 9.62744 25.7793 9.4792 26.2344 9.18945Z" fill="#272530"></path><path d="M30.3374 11.9657C31.0411 11.8485 31.7263 11.64 32.3753 11.3458C33.4622 10.8539 33.9784 10.2812 33.7746 9.7893C33.5709 9.29741 33.0003 9.21656 31.7368 9.49956C30.188 9.84321 29.0875 9.96449 28.7139 9.31763C28.3403 8.67076 29.1758 7.3905 31.0575 6.62235C31.7682 6.30236 32.5285 6.10415 33.306 6.03613L33.1565 6.70995C32.496 6.76536 31.8491 6.92694 31.2409 7.18836C29.9502 7.74089 29.6785 8.38102 29.8415 8.70445C30.0725 9.14243 30.7314 9.06832 32.0832 8.80553C33.7475 8.48209 34.6781 8.65728 34.9363 9.39175C35.1944 10.1262 34.4743 11.083 32.5791 11.9455C31.885 12.274 31.1526 12.5161 30.3986 12.6665L30.3374 11.9657Z" fill="#272530"></path><path d="M35.3982 5.17313C37.2039 4.64937 39.0552 4.29518 40.9277 4.11523L40.9956 4.68124C39.5968 4.82132 38.2098 5.06002 36.8451 5.3955L37.2798 7.09351C38.4722 6.78774 39.6842 6.56262 40.9073 6.41969L40.9752 6.97896C39.7762 7.11076 38.5872 7.3201 37.4157 7.60562L38.0067 9.92355C37.5584 10.0246 37.3274 10.0785 36.8994 10.1998C36.2881 8.21205 35.9892 7.20133 35.3982 5.17313Z" fill="#272530"></path><path d="M43.4886 7.53218C43.1353 8.206 42.9723 8.54965 42.6598 9.23694C42.1911 9.23694 41.9805 9.29758 41.4846 9.35149C42.2498 7.43484 43.22 5.60507 44.3784 3.89355C45.0577 3.89355 45.3566 3.89355 46.0087 3.89355C47.1541 5.61709 48.1084 7.45832 48.855 9.38518C48.3727 9.32454 48.1281 9.29758 47.6458 9.25715C47.3266 8.58334 47.1568 8.21947 46.8035 7.53892C45.6998 7.46592 44.5925 7.46367 43.4886 7.53218ZM46.5793 6.99986C46.2397 6.37995 46.0563 6.06999 45.6827 5.45682C45.4925 5.14316 45.3202 4.81923 45.1664 4.48652C45.0102 4.80321 44.8471 5.11991 44.6569 5.44334C44.2765 6.05651 44.0931 6.36647 43.7467 6.98638C44.8607 6.94595 45.4381 6.94596 46.5793 7.03355V6.99986Z" fill="#272530"></path><path d="M55.9537 10.9886C55.1748 10.8807 54.4067 10.7072 53.6576 10.4698C51.2801 9.79597 49.5818 8.61679 49.8264 6.91203C50.0709 5.20726 52.4892 4.42563 55.5936 5.36898C56.3985 5.59015 57.1622 5.93823 57.8557 6.39992L57.3462 6.79747C56.7642 6.4154 56.1276 6.12238 55.4578 5.92825C53.1482 5.22074 51.382 5.74632 51.1306 7.10069C50.8793 8.45507 51.973 9.35798 54.0584 9.99811C54.6693 10.1906 55.297 10.326 55.9333 10.4024C55.9401 10.6382 55.9469 10.7528 55.9537 10.9886Z" fill="#272530"></path><path d="M61.3609 8.46834C60.4438 7.96497 59.498 7.515 58.5282 7.1207L58.766 6.58838C61.1998 7.52783 63.4869 8.8051 65.5589 10.382L65.2057 10.8469C64.3603 10.2149 63.4754 9.63652 62.5564 9.1152L60.077 13.1581C59.683 12.9223 59.4792 12.8077 59.0716 12.5921L61.3609 8.46834Z" fill="#272530"></path><path d="M67.5424 11.9795L64.0236 15.9752C63.6704 15.672 63.4938 15.5238 63.127 15.2408C64.4855 13.5899 65.1648 12.7611 66.4827 11.1035C66.9106 11.4472 67.1212 11.6224 67.5424 11.9795Z" fill="#272530"></path><path d="M72.6236 22.464C71.0136 23.3467 69.2271 21.999 67.8006 20.1123C66.3741 18.2256 65.8374 16.2648 66.965 15.1126C68.0927 13.9604 70.4974 14.5331 72.2703 16.8915C74.0433 19.2498 74.0025 21.7025 72.6236 22.464ZM67.9364 16.0694C67.1077 16.851 67.1349 18.293 68.2897 19.8293C69.4445 21.3656 70.8574 21.8508 71.8899 21.2241C72.7934 20.6783 73.1942 19.0477 71.7813 17.1812C70.3683 15.3147 68.7923 15.2743 67.9364 16.0694Z" fill="#272530"></path><path d="M70.9661 25.2262L75.7687 22.9487C76.0404 23.5484 76.1695 23.8517 76.448 24.4783C76.1084 25.9903 75.6543 27.4746 75.0894 28.9188C74.7897 29.762 74.3907 30.5671 73.9006 31.3176V31.3512C74.5754 31.0724 75.2762 30.8603 75.9929 30.7179L78.1598 30.2395C78.2957 30.8459 78.3568 31.1558 78.4655 31.7825L73.2417 32.6922C73.1398 32.1194 73.0855 31.8431 72.9632 31.2906C73.621 29.9632 74.173 28.5866 74.6139 27.1736C74.9264 26.2302 75.2185 25.2936 75.5242 24.5322V24.485C74.8891 24.8499 74.2311 25.174 73.5542 25.4553L71.462 26.3448C71.2582 25.9001 71.1631 25.6777 70.9661 25.2262Z" fill="#272530"></path><path d="M44.9966 55.6093C54.7997 55.6093 62.7466 47.7264 62.7466 38.0024C62.7466 28.2784 54.7997 20.3955 44.9966 20.3955C35.1935 20.3955 27.2466 28.2784 27.2466 38.0024C27.2466 47.7264 35.1935 55.6093 44.9966 55.6093Z" fill="#272530"></path><path d="M53.216 39.8345L58.6288 31.9717H59.9764L54.5635 39.8345H53.216ZM53.9068 36.2176C53.5217 36.2176 53.182 36.1315 52.8876 35.9593C52.5932 35.7795 52.3592 35.5287 52.1855 35.2067C52.0194 34.8772 51.9364 34.4915 51.9364 34.0497C51.9364 33.6079 52.0194 33.226 52.1855 32.904C52.3592 32.582 52.5932 32.3311 52.8876 32.1514C53.182 31.9717 53.5217 31.8818 53.9068 31.8818C54.2918 31.8818 54.6315 31.9717 54.9259 32.1514C55.2203 32.3311 55.4506 32.582 55.6167 32.904C55.7827 33.226 55.8658 33.6079 55.8658 34.0497C55.8658 34.4915 55.7827 34.8772 55.6167 35.2067C55.4506 35.5287 55.2203 35.7795 54.9259 35.9593C54.6315 36.1315 54.2918 36.2176 53.9068 36.2176ZM53.9068 35.2965C54.1559 35.2965 54.3559 35.1954 54.5069 34.9933C54.6579 34.7836 54.7334 34.4691 54.7334 34.0497C54.7334 33.6304 54.6579 33.3196 54.5069 33.1174C54.3559 32.9077 54.1559 32.8029 53.9068 32.8029C53.6652 32.8029 53.4651 32.9077 53.3066 33.1174C53.1556 33.3196 53.0801 33.6304 53.0801 34.0497C53.0801 34.4616 53.1556 34.7723 53.3066 34.982C53.4651 35.1917 53.6652 35.2965 53.9068 35.2965ZM59.2856 39.9243C58.9081 39.9243 58.5684 39.8382 58.2664 39.666C57.972 39.4863 57.7418 39.2354 57.5757 38.9134C57.4096 38.5839 57.3266 38.1983 57.3266 37.7565C57.3266 37.3146 57.4096 36.9327 57.5757 36.6107C57.7418 36.2887 57.972 36.0379 58.2664 35.8582C58.5684 35.6784 58.9081 35.5886 59.2856 35.5886C59.6782 35.5886 60.0216 35.6784 60.3161 35.8582C60.6105 36.0379 60.8407 36.2887 61.0068 36.6107C61.1729 36.9327 61.256 37.3146 61.256 37.7565C61.256 38.1983 61.1729 38.5839 61.0068 38.9134C60.8407 39.2354 60.6105 39.4863 60.3161 39.666C60.0216 39.8382 59.6782 39.9243 59.2856 39.9243ZM59.2856 39.0033C59.5347 39.0033 59.7348 38.9022 59.8858 38.7C60.0367 38.4903 60.1122 38.1758 60.1122 37.7565C60.1122 37.3446 60.0367 37.0338 59.8858 36.8242C59.7348 36.6145 59.5347 36.5096 59.2856 36.5096C59.044 36.5096 58.844 36.6145 58.6854 36.8242C58.5344 37.0263 58.459 37.3371 58.459 37.7565C58.459 38.1758 58.5344 38.4903 58.6854 38.7C58.844 38.9022 59.044 39.0033 59.2856 39.0033Z" fill="white"></path><path d="M47.7839 39.9693C47.1346 39.9693 46.5534 39.812 46.04 39.4975C45.5267 39.1755 45.1228 38.7112 44.8284 38.1047C44.5339 37.4981 44.3867 36.7643 44.3867 35.9031C44.3867 35.0419 44.5339 34.3081 44.8284 33.7015C45.1228 33.095 45.5267 32.6344 46.04 32.3199C46.5534 31.9979 47.1346 31.8369 47.7839 31.8369C48.4407 31.8369 49.022 31.9979 49.5278 32.3199C50.0411 32.6344 50.445 33.095 50.7394 33.7015C51.0338 34.3081 51.181 35.0419 51.181 35.9031C51.181 36.7643 51.0338 37.4981 50.7394 38.1047C50.445 38.7112 50.0411 39.1755 49.5278 39.4975C49.022 39.812 48.4407 39.9693 47.7839 39.9693ZM47.7839 38.4304C48.0934 38.4304 48.3614 38.3443 48.5879 38.1721C48.8219 37.9998 49.0031 37.7265 49.1314 37.3521C49.2673 36.9777 49.3353 36.4947 49.3353 35.9031C49.3353 35.3115 49.2673 34.8285 49.1314 34.4541C49.0031 34.0797 48.8219 33.8064 48.5879 33.6341C48.3614 33.4619 48.0934 33.3758 47.7839 33.3758C47.4819 33.3758 47.2139 33.4619 46.9799 33.6341C46.7534 33.8064 46.5722 34.0797 46.4363 34.4541C46.308 34.8285 46.2438 35.3115 46.2438 35.9031C46.2438 36.4947 46.308 36.9777 46.4363 37.3521C46.5722 37.7265 46.7534 37.9998 46.9799 38.1721C47.2139 38.3443 47.4819 38.4304 47.7839 38.4304Z" fill="white"></path><path d="M40.0982 39.9693C39.449 39.9693 38.8677 39.812 38.3543 39.4975C37.841 39.1755 37.4371 38.7112 37.1427 38.1047C36.8483 37.4981 36.701 36.7643 36.701 35.9031C36.701 35.0419 36.8483 34.3081 37.1427 33.7015C37.4371 33.095 37.841 32.6344 38.3543 32.3199C38.8677 31.9979 39.449 31.8369 40.0982 31.8369C40.755 31.8369 41.3363 31.9979 41.8421 32.3199C42.3554 32.6344 42.7593 33.095 43.0537 33.7015C43.3482 34.3081 43.4954 35.0419 43.4954 35.9031C43.4954 36.7643 43.3482 37.4981 43.0537 38.1047C42.7593 38.7112 42.3554 39.1755 41.8421 39.4975C41.3363 39.812 40.755 39.9693 40.0982 39.9693ZM40.0982 38.4304C40.4077 38.4304 40.6757 38.3443 40.9022 38.1721C41.1362 37.9998 41.3174 37.7265 41.4458 37.3521C41.5816 36.9777 41.6496 36.4947 41.6496 35.9031C41.6496 35.3115 41.5816 34.8285 41.4458 34.4541C41.3174 34.0797 41.1362 33.8064 40.9022 33.6341C40.6757 33.4619 40.4077 33.3758 40.0982 33.3758C39.7962 33.3758 39.5282 33.4619 39.2942 33.6341C39.0677 33.8064 38.8866 34.0797 38.7507 34.4541C38.6223 34.8285 38.5582 35.3115 38.5582 35.9031C38.5582 36.4947 38.6223 36.9777 38.7507 37.3521C38.8866 37.7265 39.0677 37.9998 39.2942 38.1721C39.5282 38.3443 39.7962 38.4304 40.0982 38.4304Z" fill="white"></path><path d="M33.4895 39.8345V32.6456L34.2822 33.4319H31.9042V31.9717H35.324V39.8345H33.4895Z" fill="white"></path><path d="M83.9407 55.548C87.5558 49.4072 89.6337 42.4959 90 35.394C77.5892 40.5218 61.979 43.5877 44.9966 43.5877C28.0142 43.5877 12.3904 40.5218 0 35.394C0.366297 42.4959 2.44416 49.4072 6.05931 55.548C17.3356 59.3079 30.6838 61.4843 44.9966 61.4843C59.3094 61.4843 72.6643 59.3281 83.9407 55.548Z" fill="url(#paint3_linear_108_376)"></path><g style="mix-blend-mode:multiply" opacity="0.15"><path d="M1.71863 45.5283C2.74525 49.0388 4.20307 52.4107 6.05932 55.5682C17.3356 59.3281 30.6838 61.5045 44.9966 61.5045C59.3094 61.5045 72.6644 59.3281 83.9407 55.5682C85.7969 52.4107 87.2548 49.0388 88.2814 45.5283C76.1627 50.245 61.2046 53.0414 44.9966 53.0414C28.7886 53.0414 13.8373 50.2383 1.71863 45.5283Z" fill="black"></path></g><path d="M12.0031 50.7911C11.7269 50.957 11.4154 51.0568 11.0935 51.0825C10.7716 51.1083 10.4481 51.0593 10.1487 50.9394C9.71301 50.8114 9.30969 50.5933 8.96527 50.2994C8.62086 50.0055 8.34321 49.6425 8.15063 49.2343C7.95804 48.8261 7.85489 48.3821 7.84802 47.9315C7.84116 47.4809 7.93071 47.0339 8.11076 46.6202C8.83761 44.5987 10.7736 43.7497 12.2681 44.2349C12.6323 44.303 12.9728 44.4627 13.257 44.6986C13.5413 44.9346 13.7597 45.2389 13.8916 45.5825L14.306 44.9693L15.7393 45.3938L14.9377 48.1565C14.2584 47.9543 13.8712 47.8533 13.1647 47.6377C13.2183 47.4882 13.2414 47.3296 13.2328 47.1712C13.2242 47.0128 13.184 46.8576 13.1145 46.7148C13.045 46.5719 12.9476 46.4441 12.8279 46.3388C12.7083 46.2335 12.5688 46.1528 12.4175 46.1014C11.6295 45.852 10.8076 46.4854 10.4951 47.449C10.1826 48.4126 10.4272 49.3222 11.3035 49.5985C11.4834 49.6817 11.6837 49.7113 11.8802 49.6838C12.0768 49.6563 12.2611 49.5728 12.4107 49.4435C12.4651 49.2885 12.4854 49.2076 12.533 49.0527L11.9216 48.864L12.2409 47.8668C13.5587 48.2778 14.2176 48.4732 15.5423 48.8438C15.4336 49.2481 15.3724 49.4435 15.2638 49.8478L14.8562 49.7332C14.5845 50.6766 14.4486 51.1415 14.1769 52.0848C13.3482 51.849 12.9406 51.7277 12.139 51.4784L12.0031 50.7911Z" fill="black"></path><path d="M20.5827 46.6805C20.4672 47.1724 20.4061 47.415 20.2906 47.9069L19.7539 47.7789C19.5569 48.6009 19.4551 49.0052 19.2513 49.8003C18.8777 51.3299 19.1698 51.7409 19.8219 51.8959C20.474 52.0509 20.9087 51.8959 21.2824 50.2585C21.459 49.4499 21.5541 49.0457 21.7375 48.2371L21.2008 48.1158C21.3163 47.6104 21.3775 47.3611 21.4929 46.8557C22.6477 47.1185 23.2252 47.2398 24.3868 47.4757C24.2916 47.9675 24.2373 48.2169 24.1422 48.7087L23.6056 48.6009L23.1232 50.9256C22.6545 53.1964 21.3775 54.0386 19.4483 53.567C17.4104 53.0549 16.5137 51.714 17.0843 49.5712C17.3357 48.6346 17.4579 48.1697 17.7093 47.2398L17.159 47.0916C17.2881 46.5997 17.356 46.3571 17.4919 45.8652C18.7214 46.2291 19.3396 46.3841 20.5827 46.6805Z" fill="black"></path><path d="M28.2587 55.1099C28.3335 54.5978 28.3742 54.3484 28.449 53.8431L29.4407 53.9846C29.3864 53.7083 29.366 53.5736 29.3184 53.3108C28.4693 53.1895 28.0414 53.1221 27.199 52.9873L26.873 53.6072L27.6814 53.7353L27.4776 55.0021C26.119 54.7932 25.4736 54.6786 24.1422 54.4293L24.38 53.1693L25.0593 53.2973C25.9288 51.7138 26.3567 50.9187 27.1787 49.315L26.7711 49.2476C26.8594 48.749 26.9002 48.4997 26.9885 48.0078C28.5033 48.2639 29.2573 48.3852 30.779 48.5873C31.1797 50.8783 31.3971 52.0238 31.8726 54.3148L32.5995 54.4023C32.5451 54.9077 32.518 55.1638 32.4568 55.6691C30.7925 55.467 29.9638 55.3592 28.2587 55.1099ZM29.1079 52.0844C28.9584 51.2084 28.8905 50.7705 28.7546 49.8945C28.3607 50.6896 28.1637 51.0872 27.7629 51.8755L29.1079 52.0844Z" fill="black"></path><path d="M37.6194 49.2683C39.929 49.43 40.3366 50.3261 40.2891 51.4379C40.2482 51.8155 40.0654 52.1639 39.777 52.4137C39.4887 52.6634 39.1161 52.7962 38.7335 52.7856C39.0848 52.8419 39.4053 53.0182 39.6397 53.2839C39.8741 53.5496 40.0076 53.8881 40.0173 54.241C40.0173 54.6588 40.0513 54.9149 40.2415 54.9149C40.4317 54.9149 40.486 54.807 40.4928 54.6116V54.2882H41.1721V54.8273C41.191 55.0367 41.1616 55.2476 41.0863 55.4442C41.0109 55.6407 40.8915 55.8177 40.7371 55.9617C40.5827 56.1058 40.3974 56.2132 40.195 56.2758C39.9926 56.3384 39.7786 56.3546 39.569 56.3231C38.1764 56.2558 37.5311 55.5348 37.633 54.3893C37.6941 53.5066 37.5922 53.2842 36.6752 53.2168L36.5597 54.7262L37.1982 54.7734C37.1575 55.2855 37.1439 55.5415 37.1031 56.0604C35.7446 55.966 35.0653 55.9054 33.7067 55.7706L33.8425 54.4836L34.4267 54.5443L34.8343 50.3059L34.2705 50.252C34.3248 49.7399 34.352 49.4839 34.3995 48.9785C35.6834 49.1268 36.3287 49.1807 37.6194 49.2683ZM36.7567 52.1792L37.2186 52.2128C37.8096 52.26 38.2172 52.0107 38.2512 51.4919C38.2712 51.3717 38.2633 51.2486 38.2282 51.1318C38.193 51.0151 38.1316 50.9079 38.0484 50.8182C37.9652 50.7286 37.8626 50.659 37.7482 50.6146C37.6339 50.5702 37.5108 50.5522 37.3884 50.562L36.8858 50.5283C36.845 51.1549 36.8246 51.5053 36.7567 52.1792Z" fill="black"></path><path d="M46.3551 56.3504C46.3551 55.8383 46.3551 55.5822 46.3551 55.0701H47.3469C47.2586 54.8073 47.211 54.6793 47.1159 54.3963C46.26 54.3963 45.8321 54.3963 44.9829 54.3963C44.8946 54.6658 44.8471 54.7939 44.7588 55.0701H45.5875C45.5875 55.5822 45.5875 55.8383 45.5875 56.3504C44.2289 56.3504 43.5496 56.3504 42.191 56.3167L42.225 55.0364H42.9383C43.5361 53.3317 43.8214 52.4759 44.3784 50.7644H43.964V49.5044C45.4924 49.5044 46.26 49.5044 47.7884 49.4707C48.5492 51.6741 48.95 52.7657 49.8263 54.9556H50.56C50.56 55.4677 50.5939 55.717 50.6211 56.2291C48.9093 56.3032 48.0534 56.3302 46.3551 56.3504ZM46.7016 53.2306C46.4163 52.3883 46.2736 51.9706 46.0223 51.1283C45.7642 51.9706 45.6351 52.3951 45.343 53.2373L46.7016 53.2306Z" fill="black"></path><path d="M58.4942 49.9419L59.2074 55.4604C58.2972 55.575 57.8488 55.6289 56.9386 55.7232C55.7023 54.3756 55.0977 53.6681 53.9361 52.2733L54.1399 54.7192L54.9415 54.6519C54.989 55.1572 55.0094 55.4065 55.0569 55.9052C53.7595 56.0264 53.1074 56.0736 51.8099 56.1477C51.7759 55.6491 51.7624 55.3931 51.7284 54.8944L52.3805 54.8742C52.265 53.156 52.2107 52.2935 52.0952 50.5753L51.511 50.6157L51.4363 49.3556C52.5775 49.2883 53.1481 49.2478 54.2825 49.1468C55.383 50.4944 55.9536 51.1682 57.1152 52.4687C57.0133 51.5456 56.959 51.0806 56.8571 50.1575L56.1778 50.2316L56.0419 48.9783C57.2375 48.857 57.8353 48.7829 59.024 48.6279L59.1939 49.8745L58.4942 49.9419Z" fill="black"></path><path d="M67.2843 49.767C66.6933 49.895 66.3944 49.9489 65.8034 50.0634L65.5657 48.8371L64.7301 48.9988C65.0426 50.6631 65.1988 51.4987 65.5181 53.163L66.374 53.0013L66.6254 54.2748C65.0698 54.578 64.2886 54.7128 62.7262 54.9486C62.6447 54.4365 62.6039 54.1805 62.5156 53.6684L63.3715 53.5269C63.0862 51.8558 62.9436 51.0203 62.6922 49.3492L61.8363 49.4907C61.911 49.9826 61.9518 50.2319 62.0333 50.7238L60.5456 50.9462C60.3962 49.9422 60.3215 49.4368 60.1788 48.4328C62.8281 48.0555 64.1527 47.8196 66.7816 47.2671L67.2843 49.767Z" fill="black"></path><path d="M73.7512 45.5757C73.9822 46.4045 74.1044 46.8222 74.3422 47.651L72.6304 48.116L72.4062 47.2737C71.7745 47.4422 71.462 47.523 70.8302 47.678C70.9593 48.1968 71.0272 48.4596 71.1563 48.9852C71.9171 48.7965 72.2975 48.7022 73.0515 48.5001L73.3912 49.7533C72.6236 49.9555 72.2431 50.0566 71.4755 50.2452L71.8627 51.7883C72.542 51.6266 72.8477 51.5457 73.4999 51.3705L73.2689 50.4946L75.0147 50.0161L75.6261 52.1387C73.1398 52.8125 71.8831 53.1494 69.3765 53.7087C69.261 53.1966 69.1999 52.9473 69.0912 52.4352L69.7365 52.2937L68.7855 48.1631L68.1606 48.2979C68.0519 47.7993 67.9976 47.5432 67.8821 47.0446C70.2392 46.519 71.4008 46.2293 73.7512 45.5757Z" fill="black"></path><path d="M80.7343 43.3447L81.4748 45.3662L79.7901 45.9524L79.5048 45.1236C78.8867 45.3392 78.5742 45.4403 77.956 45.6357C78.1259 46.1545 78.2074 46.4106 78.3772 46.9227C79.1244 46.6801 79.498 46.5588 80.2385 46.3028L80.6664 47.5291C79.9124 47.7852 79.532 47.9132 78.778 48.1558L79.2739 49.6719L80.8838 49.1396L80.5917 48.2771C81.271 48.0412 81.6242 47.9267 82.3103 47.6774C82.616 48.5062 82.7655 48.9239 83.0644 49.7527C80.6257 50.6287 79.3893 51.0262 76.9099 51.7742L76.5363 50.5344L77.1816 50.3389L75.9385 46.296L75.3272 46.4847C75.1777 45.9861 75.103 45.7368 74.9603 45.2449C77.2835 44.5441 78.4383 44.1668 80.7343 43.3447Z" fill="black"></path><path d="M12.0031 50.7911C11.7269 50.957 11.4154 51.0568 11.0935 51.0825C10.7716 51.1083 10.4481 51.0593 10.1487 50.9394C9.71301 50.8114 9.30969 50.5933 8.96527 50.2994C8.62086 50.0055 8.34321 49.6425 8.15063 49.2343C7.95804 48.8261 7.85489 48.3821 7.84802 47.9315C7.84116 47.4809 7.93071 47.0339 8.11076 46.6202C8.83761 44.5987 10.7736 43.7497 12.2681 44.2349C12.6323 44.303 12.9728 44.4627 13.257 44.6986C13.5413 44.9346 13.7597 45.2389 13.8916 45.5825L14.306 44.9693L15.7393 45.3938L14.9377 48.1565C14.2584 47.9543 13.8712 47.8533 13.1647 47.6377C13.2183 47.4882 13.2414 47.3296 13.2328 47.1712C13.2242 47.0128 13.184 46.8576 13.1145 46.7148C13.045 46.5719 12.9476 46.4441 12.8279 46.3388C12.7083 46.2335 12.5688 46.1528 12.4175 46.1014C11.6295 45.852 10.8076 46.4854 10.4951 47.449C10.1826 48.4126 10.4272 49.3222 11.3035 49.5985C11.4834 49.6817 11.6837 49.7113 11.8802 49.6838C12.0768 49.6563 12.2611 49.5728 12.4107 49.4435C12.4651 49.2885 12.4854 49.2076 12.533 49.0527L11.9216 48.864L12.2409 47.8668C13.5587 48.2778 14.2176 48.4732 15.5423 48.8438C15.4336 49.2481 15.3724 49.4435 15.2638 49.8478L14.8562 49.7332C14.5845 50.6766 14.4486 51.1415 14.1769 52.0848C13.3482 51.849 12.9406 51.7277 12.139 51.4784L12.0031 50.7911Z" fill="white"></path><path d="M20.5827 46.6805C20.4672 47.1724 20.4061 47.415 20.2906 47.9069L19.7539 47.7789C19.5569 48.6009 19.4551 49.0052 19.2513 49.8003C18.8777 51.3299 19.1698 51.7409 19.8219 51.8959C20.474 52.0509 20.9087 51.8959 21.2824 50.2585C21.459 49.4499 21.5541 49.0457 21.7375 48.2371L21.2008 48.1158C21.3163 47.6104 21.3775 47.3611 21.4929 46.8557C22.6477 47.1185 23.2252 47.2398 24.3868 47.4757C24.2916 47.9675 24.2373 48.2169 24.1422 48.7087L23.6056 48.6009L23.1232 50.9256C22.6545 53.1964 21.3775 54.0386 19.4483 53.567C17.4104 53.0549 16.5137 51.714 17.0843 49.5712C17.3357 48.6346 17.4579 48.1697 17.7093 47.2398L17.159 47.0916C17.2881 46.5997 17.356 46.3571 17.4919 45.8652C18.7214 46.2291 19.3396 46.3841 20.5827 46.6805Z" fill="white"></path><path d="M28.2587 55.1099C28.3335 54.5978 28.3742 54.3484 28.449 53.8431L29.4407 53.9846C29.3864 53.7083 29.366 53.5736 29.3184 53.3108C28.4693 53.1895 28.0414 53.1221 27.199 52.9873L26.873 53.6072L27.6814 53.7353L27.4776 55.0021C26.119 54.7932 25.4736 54.6786 24.1422 54.4293L24.38 53.1693L25.0593 53.2973C25.9288 51.7138 26.3567 50.9187 27.1787 49.315L26.7711 49.2476C26.8594 48.749 26.9002 48.4997 26.9885 48.0078C28.5033 48.2639 29.2573 48.3852 30.779 48.5873C31.1797 50.8783 31.3971 52.0238 31.8726 54.3148L32.5995 54.4023C32.5451 54.9077 32.518 55.1638 32.4568 55.6691C30.7925 55.467 29.9638 55.3592 28.2587 55.1099ZM29.1079 52.0844C28.9584 51.2084 28.8905 50.7705 28.7546 49.8945C28.3607 50.6896 28.1637 51.0872 27.7629 51.8755L29.1079 52.0844Z" fill="white"></path><path d="M37.6194 49.2683C39.929 49.43 40.3366 50.3261 40.2891 51.4379C40.2482 51.8155 40.0654 52.1639 39.777 52.4137C39.4887 52.6634 39.1161 52.7962 38.7335 52.7856C39.0848 52.8419 39.4053 53.0182 39.6397 53.2839C39.8741 53.5496 40.0076 53.8881 40.0173 54.241C40.0173 54.6588 40.0513 54.9149 40.2415 54.9149C40.4317 54.9149 40.486 54.807 40.4928 54.6116V54.2882H41.1721V54.8273C41.191 55.0367 41.1616 55.2476 41.0863 55.4442C41.0109 55.6407 40.8915 55.8177 40.7371 55.9617C40.5827 56.1058 40.3974 56.2132 40.195 56.2758C39.9926 56.3384 39.7786 56.3546 39.569 56.3231C38.1764 56.2558 37.5311 55.5348 37.633 54.3893C37.6941 53.5066 37.5922 53.2842 36.6752 53.2168L36.5597 54.7262L37.1982 54.7734C37.1575 55.2855 37.1439 55.5415 37.1031 56.0604C35.7446 55.966 35.0653 55.9054 33.7067 55.7706L33.8425 54.4836L34.4267 54.5443L34.8343 50.3059L34.2705 50.252C34.3248 49.7399 34.352 49.4839 34.3995 48.9785C35.6834 49.1268 36.3287 49.1807 37.6194 49.2683ZM36.7567 52.1792L37.2186 52.2128C37.8096 52.26 38.2172 52.0107 38.2512 51.4919C38.2712 51.3717 38.2633 51.2486 38.2282 51.1318C38.193 51.0151 38.1316 50.9079 38.0484 50.8182C37.9652 50.7286 37.8626 50.659 37.7482 50.6146C37.6339 50.5702 37.5108 50.5522 37.3884 50.562L36.8858 50.5283C36.845 51.1549 36.8246 51.5053 36.7567 52.1792Z" fill="white"></path><path d="M46.3551 56.3504C46.3551 55.8383 46.3551 55.5822 46.3551 55.0701H47.3469C47.2586 54.8073 47.211 54.6793 47.1159 54.3963C46.26 54.3963 45.8321 54.3963 44.9829 54.3963C44.8946 54.6658 44.8471 54.7939 44.7588 55.0701H45.5875C45.5875 55.5822 45.5875 55.8383 45.5875 56.3504C44.2289 56.3504 43.5496 56.3504 42.191 56.3167L42.225 55.0364H42.9383C43.5361 53.3317 43.8214 52.4759 44.3784 50.7644H43.964V49.5044C45.4924 49.5044 46.26 49.5044 47.7884 49.4707C48.5492 51.6741 48.95 52.7657 49.8263 54.9556H50.56C50.56 55.4677 50.5939 55.717 50.6211 56.2291C48.9093 56.3032 48.0534 56.3302 46.3551 56.3504ZM46.7016 53.2306C46.4163 52.3883 46.2736 51.9706 46.0223 51.1283C45.7642 51.9706 45.6351 52.3951 45.343 53.2373L46.7016 53.2306Z" fill="white"></path><path d="M58.4942 49.9419L59.2074 55.4604C58.2972 55.575 57.8488 55.6289 56.9386 55.7232C55.7023 54.3756 55.0977 53.6681 53.9361 52.2733L54.1399 54.7192L54.9415 54.6519C54.989 55.1572 55.0094 55.4065 55.0569 55.9052C53.7595 56.0264 53.1074 56.0736 51.8099 56.1477C51.7759 55.6491 51.7624 55.3931 51.7284 54.8944L52.3805 54.8742C52.265 53.156 52.2107 52.2935 52.0952 50.5753L51.511 50.6157L51.4363 49.3556C52.5775 49.2883 53.1481 49.2478 54.2825 49.1468C55.383 50.4944 55.9536 51.1682 57.1152 52.4687C57.0133 51.5456 56.959 51.0806 56.8571 50.1575L56.1778 50.2316L56.0419 48.9783C57.2375 48.857 57.8353 48.7829 59.024 48.6279L59.1939 49.8745L58.4942 49.9419Z" fill="white"></path><path d="M67.2843 49.767C66.6933 49.895 66.3944 49.9489 65.8034 50.0634L65.5657 48.8371L64.7301 48.9988C65.0426 50.6631 65.1988 51.4987 65.5181 53.163L66.374 53.0013L66.6254 54.2748C65.0698 54.578 64.2886 54.7128 62.7262 54.9486C62.6447 54.4365 62.6039 54.1805 62.5156 53.6684L63.3715 53.5269C63.0862 51.8558 62.9436 51.0203 62.6922 49.3492L61.8363 49.4907C61.911 49.9826 61.9518 50.2319 62.0333 50.7238L60.5456 50.9462C60.3962 49.9422 60.3215 49.4368 60.1788 48.4328C62.8281 48.0555 64.1527 47.8196 66.7816 47.2671L67.2843 49.767Z" fill="white"></path><path d="M73.7512 45.5757C73.9822 46.4045 74.1044 46.8222 74.3422 47.651L72.6304 48.116L72.4062 47.2737C71.7745 47.4422 71.462 47.523 70.8302 47.678C70.9593 48.1968 71.0272 48.4596 71.1563 48.9852C71.9171 48.7965 72.2975 48.7022 73.0515 48.5001L73.3912 49.7533C72.6236 49.9555 72.2431 50.0566 71.4755 50.2452L71.8627 51.7883C72.542 51.6266 72.8477 51.5457 73.4999 51.3705L73.2689 50.4946L75.0147 50.0161L75.6261 52.1387C73.1398 52.8125 71.8831 53.1494 69.3765 53.7087C69.261 53.1966 69.1999 52.9473 69.0912 52.4352L69.7365 52.2937L68.7855 48.1631L68.1606 48.2979C68.0519 47.7993 67.9976 47.5432 67.8821 47.0446C70.2392 46.519 71.4008 46.2293 73.7512 45.5757Z" fill="white"></path><path d="M80.7343 43.3447L81.4748 45.3662L79.7901 45.9524L79.5048 45.1236C78.8867 45.3392 78.5742 45.4403 77.956 45.6357C78.1259 46.1545 78.2074 46.4106 78.3772 46.9227C79.1244 46.6801 79.498 46.5588 80.2385 46.3028L80.6664 47.5291C79.9124 47.7852 79.532 47.9132 78.778 48.1558L79.2739 49.6719L80.8838 49.1396L80.5917 48.2771C81.271 48.0412 81.6242 47.9267 82.3103 47.6774C82.616 48.5062 82.7655 48.9239 83.0644 49.7527C80.6257 50.6287 79.3893 51.0262 76.9099 51.7742L76.5363 50.5344L77.1816 50.3389L75.9385 46.296L75.3272 46.4847C75.1777 45.9861 75.103 45.7368 74.9603 45.2449C77.2835 44.5441 78.4383 44.1668 80.7343 43.3447Z" fill="white"></path><path d="M12.0031 50.7911C11.7269 50.957 11.4154 51.0568 11.0935 51.0825C10.7716 51.1083 10.4481 51.0593 10.1487 50.9394C9.71301 50.8114 9.30969 50.5933 8.96527 50.2994C8.62086 50.0055 8.34321 49.6425 8.15063 49.2343C7.95804 48.8261 7.85489 48.3821 7.84802 47.9315C7.84116 47.4809 7.93071 47.0339 8.11076 46.6202C8.83761 44.5987 10.7736 43.7497 12.2681 44.2349C12.6323 44.303 12.9728 44.4627 13.257 44.6986C13.5413 44.9346 13.7597 45.2389 13.8916 45.5825L14.306 44.9693L15.7393 45.3938L14.9377 48.1565C14.2584 47.9543 13.8712 47.8533 13.1647 47.6377C13.2183 47.4882 13.2414 47.3296 13.2328 47.1712C13.2242 47.0128 13.184 46.8576 13.1145 46.7148C13.045 46.5719 12.9476 46.4441 12.8279 46.3388C12.7083 46.2335 12.5688 46.1528 12.4175 46.1014C11.6295 45.852 10.8076 46.4854 10.4951 47.449C10.1826 48.4126 10.4272 49.3222 11.3035 49.5985C11.4834 49.6817 11.6837 49.7113 11.8802 49.6838C12.0768 49.6563 12.2611 49.5728 12.4107 49.4435C12.4651 49.2885 12.4854 49.2076 12.533 49.0527L11.9216 48.864L12.2409 47.8668C13.5587 48.2778 14.2176 48.4732 15.5423 48.8438C15.4336 49.2481 15.3724 49.4435 15.2638 49.8478L14.8562 49.7332C14.5845 50.6766 14.4486 51.1415 14.1769 52.0848C13.3482 51.849 12.9406 51.7277 12.139 51.4784L12.0031 50.7911Z" fill="white"></path><path d="M20.5827 46.6805C20.4672 47.1724 20.4061 47.415 20.2906 47.9069L19.7539 47.7789C19.5569 48.6009 19.4551 49.0052 19.2513 49.8003C18.8777 51.3299 19.1698 51.7409 19.8219 51.8959C20.474 52.0509 20.9087 51.8959 21.2824 50.2585C21.459 49.4499 21.5541 49.0457 21.7375 48.2371L21.2008 48.1158C21.3163 47.6104 21.3775 47.3611 21.4929 46.8557C22.6477 47.1185 23.2252 47.2398 24.3868 47.4757C24.2916 47.9675 24.2373 48.2169 24.1422 48.7087L23.6056 48.6009L23.1232 50.9256C22.6545 53.1964 21.3775 54.0386 19.4483 53.567C17.4104 53.0549 16.5137 51.714 17.0843 49.5712C17.3357 48.6346 17.4579 48.1697 17.7093 47.2398L17.159 47.0916C17.2881 46.5997 17.356 46.3571 17.4919 45.8652C18.7214 46.2291 19.3396 46.3841 20.5827 46.6805Z" fill="white"></path><path d="M28.2587 55.1099C28.3335 54.5978 28.3742 54.3484 28.449 53.8431L29.4407 53.9846C29.3864 53.7083 29.366 53.5736 29.3184 53.3108C28.4693 53.1895 28.0414 53.1221 27.199 52.9873L26.873 53.6072L27.6814 53.7353L27.4776 55.0021C26.119 54.7932 25.4736 54.6786 24.1422 54.4293L24.38 53.1693L25.0593 53.2973C25.9288 51.7138 26.3567 50.9187 27.1787 49.315L26.7711 49.2476C26.8594 48.749 26.9002 48.4997 26.9885 48.0078C28.5033 48.2639 29.2573 48.3852 30.779 48.5873C31.1797 50.8783 31.3971 52.0238 31.8726 54.3148L32.5995 54.4023C32.5451 54.9077 32.518 55.1638 32.4568 55.6691C30.7925 55.467 29.9638 55.3592 28.2587 55.1099ZM29.1079 52.0844C28.9584 51.2084 28.8905 50.7705 28.7546 49.8945C28.3607 50.6896 28.1637 51.0872 27.7629 51.8755L29.1079 52.0844Z" fill="white"></path><path d="M37.6194 49.2683C39.929 49.43 40.3366 50.3261 40.2891 51.4379C40.2482 51.8155 40.0654 52.1639 39.777 52.4137C39.4887 52.6634 39.1161 52.7962 38.7335 52.7856C39.0848 52.8419 39.4053 53.0182 39.6397 53.2839C39.8741 53.5496 40.0076 53.8881 40.0173 54.241C40.0173 54.6588 40.0513 54.9149 40.2415 54.9149C40.4317 54.9149 40.486 54.807 40.4928 54.6116V54.2882H41.1721V54.8273C41.191 55.0367 41.1616 55.2476 41.0863 55.4442C41.0109 55.6407 40.8915 55.8177 40.7371 55.9617C40.5827 56.1058 40.3974 56.2132 40.195 56.2758C39.9926 56.3384 39.7786 56.3546 39.569 56.3231C38.1764 56.2558 37.5311 55.5348 37.633 54.3893C37.6941 53.5066 37.5922 53.2842 36.6752 53.2168L36.5597 54.7262L37.1982 54.7734C37.1575 55.2855 37.1439 55.5415 37.1031 56.0604C35.7446 55.966 35.0653 55.9054 33.7067 55.7706L33.8425 54.4836L34.4267 54.5443L34.8343 50.3059L34.2705 50.252C34.3248 49.7399 34.352 49.4839 34.3995 48.9785C35.6834 49.1268 36.3287 49.1807 37.6194 49.2683ZM36.7567 52.1792L37.2186 52.2128C37.8096 52.26 38.2172 52.0107 38.2512 51.4919C38.2712 51.3717 38.2633 51.2486 38.2282 51.1318C38.193 51.0151 38.1316 50.9079 38.0484 50.8182C37.9652 50.7286 37.8626 50.659 37.7482 50.6146C37.6339 50.5702 37.5108 50.5522 37.3884 50.562L36.8858 50.5283C36.845 51.1549 36.8246 51.5053 36.7567 52.1792Z" fill="white"></path><path d="M46.3551 56.3504C46.3551 55.8383 46.3551 55.5822 46.3551 55.0701H47.3469C47.2586 54.8073 47.211 54.6793 47.1159 54.3963C46.26 54.3963 45.8321 54.3963 44.9829 54.3963C44.8946 54.6658 44.8471 54.7939 44.7588 55.0701H45.5875C45.5875 55.5822 45.5875 55.8383 45.5875 56.3504C44.2289 56.3504 43.5496 56.3504 42.191 56.3167L42.225 55.0364H42.9383C43.5361 53.3317 43.8214 52.4759 44.3784 50.7644H43.964V49.5044C45.4924 49.5044 46.26 49.5044 47.7884 49.4707C48.5492 51.6741 48.95 52.7657 49.8263 54.9556H50.56C50.56 55.4677 50.5939 55.717 50.6211 56.2291C48.9093 56.3032 48.0534 56.3302 46.3551 56.3504ZM46.7016 53.2306C46.4163 52.3883 46.2736 51.9706 46.0223 51.1283C45.7642 51.9706 45.6351 52.3951 45.343 53.2373L46.7016 53.2306Z" fill="white"></path><path d="M58.4942 49.9419L59.2074 55.4604C58.2972 55.575 57.8488 55.6289 56.9386 55.7232C55.7023 54.3756 55.0977 53.6681 53.9361 52.2733L54.1399 54.7192L54.9415 54.6519C54.989 55.1572 55.0094 55.4065 55.0569 55.9052C53.7595 56.0264 53.1074 56.0736 51.8099 56.1477C51.7759 55.6491 51.7624 55.3931 51.7284 54.8944L52.3805 54.8742C52.265 53.156 52.2107 52.2935 52.0952 50.5753L51.511 50.6157L51.4363 49.3556C52.5775 49.2883 53.1481 49.2478 54.2825 49.1468C55.383 50.4944 55.9536 51.1682 57.1152 52.4687C57.0133 51.5456 56.959 51.0806 56.8571 50.1575L56.1778 50.2316L56.0419 48.9783C57.2375 48.857 57.8353 48.7829 59.024 48.6279L59.1939 49.8745L58.4942 49.9419Z" fill="white"></path><path d="M67.2843 49.767C66.6933 49.895 66.3944 49.9489 65.8034 50.0634L65.5657 48.8371L64.7301 48.9988C65.0426 50.6631 65.1988 51.4987 65.5181 53.163L66.374 53.0013L66.6254 54.2748C65.0698 54.578 64.2886 54.7128 62.7262 54.9486C62.6447 54.4365 62.6039 54.1805 62.5156 53.6684L63.3715 53.5269C63.0862 51.8558 62.9436 51.0203 62.6922 49.3492L61.8363 49.4907C61.911 49.9826 61.9518 50.2319 62.0333 50.7238L60.5456 50.9462C60.3962 49.9422 60.3215 49.4368 60.1788 48.4328C62.8281 48.0555 64.1527 47.8196 66.7816 47.2671L67.2843 49.767Z" fill="white"></path><path d="M73.7512 45.5757C73.9822 46.4045 74.1044 46.8222 74.3422 47.651L72.6304 48.116L72.4062 47.2737C71.7745 47.4422 71.462 47.523 70.8302 47.678C70.9593 48.1968 71.0272 48.4596 71.1563 48.9852C71.9171 48.7965 72.2975 48.7022 73.0515 48.5001L73.3912 49.7533C72.6236 49.9555 72.2431 50.0566 71.4755 50.2452L71.8627 51.7883C72.542 51.6266 72.8477 51.5457 73.4999 51.3705L73.2689 50.4946L75.0147 50.0161L75.6261 52.1387C73.1398 52.8125 71.8831 53.1494 69.3765 53.7087C69.261 53.1966 69.1999 52.9473 69.0912 52.4352L69.7365 52.2937L68.7855 48.1631L68.1606 48.2979C68.0519 47.7993 67.9976 47.5432 67.8821 47.0446C70.2392 46.519 71.4008 46.2293 73.7512 45.5757Z" fill="white"></path><path d="M80.7343 43.3447L81.4748 45.3662L79.7901 45.9524L79.5048 45.1236C78.8867 45.3392 78.5742 45.4403 77.956 45.6357C78.1259 46.1545 78.2074 46.4106 78.3772 46.9227C79.1244 46.6801 79.498 46.5588 80.2385 46.3028L80.6664 47.5291C79.9124 47.7852 79.532 47.9132 78.778 48.1558L79.2739 49.6719L80.8838 49.1396L80.5917 48.2771C81.271 48.0412 81.6242 47.9267 82.3103 47.6774C82.616 48.5062 82.7655 48.9239 83.0644 49.7527C80.6257 50.6287 79.3893 51.0262 76.9099 51.7742L76.5363 50.5344L77.1816 50.3389L75.9385 46.296L75.3272 46.4847C75.1777 45.9861 75.103 45.7368 74.9603 45.2449C77.2835 44.5441 78.4383 44.1668 80.7343 43.3447Z" fill="white"></path><path d="M12.0031 50.7911C11.7269 50.957 11.4154 51.0568 11.0935 51.0825C10.7716 51.1083 10.4481 51.0593 10.1487 50.9394C9.71301 50.8114 9.30969 50.5933 8.96527 50.2994C8.62086 50.0055 8.34321 49.6425 8.15063 49.2343C7.95804 48.8261 7.85489 48.3821 7.84802 47.9315C7.84116 47.4809 7.93071 47.0339 8.11076 46.6202C8.83761 44.5987 10.7736 43.7497 12.2681 44.2349C12.6323 44.303 12.9728 44.4627 13.257 44.6986C13.5413 44.9346 13.7597 45.2389 13.8916 45.5825L14.306 44.9693L15.7393 45.3938L14.9377 48.1565C14.2584 47.9543 13.8712 47.8533 13.1647 47.6377C13.2183 47.4882 13.2414 47.3296 13.2328 47.1712C13.2242 47.0128 13.184 46.8576 13.1145 46.7148C13.045 46.5719 12.9476 46.4441 12.8279 46.3388C12.7083 46.2335 12.5688 46.1528 12.4175 46.1014C11.6295 45.852 10.8076 46.4854 10.4951 47.449C10.1826 48.4126 10.4272 49.3222 11.3035 49.5985C11.4834 49.6817 11.6837 49.7113 11.8802 49.6838C12.0768 49.6563 12.2611 49.5728 12.4107 49.4435C12.4651 49.2885 12.4854 49.2076 12.533 49.0527L11.9216 48.864L12.2409 47.8668C13.5587 48.2778 14.2176 48.4732 15.5423 48.8438C15.4336 49.2481 15.3724 49.4435 15.2638 49.8478L14.8562 49.7332C14.5845 50.6766 14.4486 51.1415 14.1769 52.0848C13.3482 51.849 12.9406 51.7277 12.139 51.4784L12.0031 50.7911Z" fill="white"></path><path d="M20.5827 46.6805C20.4672 47.1724 20.4061 47.415 20.2906 47.9069L19.7539 47.7789C19.5569 48.6009 19.4551 49.0052 19.2513 49.8003C18.8777 51.3299 19.1698 51.7409 19.8219 51.8959C20.474 52.0509 20.9087 51.8959 21.2824 50.2585C21.459 49.4499 21.5541 49.0457 21.7375 48.2371L21.2008 48.1158C21.3163 47.6104 21.3775 47.3611 21.4929 46.8557C22.6477 47.1185 23.2252 47.2398 24.3868 47.4757C24.2916 47.9675 24.2373 48.2169 24.1422 48.7087L23.6056 48.6009L23.1232 50.9256C22.6545 53.1964 21.3775 54.0386 19.4483 53.567C17.4104 53.0549 16.5137 51.714 17.0843 49.5712C17.3357 48.6346 17.4579 48.1697 17.7093 47.2398L17.159 47.0916C17.2881 46.5997 17.356 46.3571 17.4919 45.8652C18.7214 46.2291 19.3396 46.3841 20.5827 46.6805Z" fill="white"></path><path d="M28.2587 55.1099C28.3335 54.5978 28.3742 54.3484 28.449 53.8431L29.4407 53.9846C29.3864 53.7083 29.366 53.5736 29.3184 53.3108C28.4693 53.1895 28.0414 53.1221 27.199 52.9873L26.873 53.6072L27.6814 53.7353L27.4776 55.0021C26.119 54.7932 25.4736 54.6786 24.1422 54.4293L24.38 53.1693L25.0593 53.2973C25.9288 51.7138 26.3567 50.9187 27.1787 49.315L26.7711 49.2476C26.8594 48.749 26.9002 48.4997 26.9885 48.0078C28.5033 48.2639 29.2573 48.3852 30.779 48.5873C31.1797 50.8783 31.3971 52.0238 31.8726 54.3148L32.5995 54.4023C32.5451 54.9077 32.518 55.1638 32.4568 55.6691C30.7925 55.467 29.9638 55.3592 28.2587 55.1099ZM29.1079 52.0844C28.9584 51.2084 28.8905 50.7705 28.7546 49.8945C28.3607 50.6896 28.1637 51.0872 27.7629 51.8755L29.1079 52.0844Z" fill="white"></path><path d="M37.6194 49.2683C39.929 49.43 40.3366 50.3261 40.2891 51.4379C40.2482 51.8155 40.0654 52.1639 39.777 52.4137C39.4887 52.6634 39.1161 52.7962 38.7335 52.7856C39.0848 52.8419 39.4053 53.0182 39.6397 53.2839C39.8741 53.5496 40.0076 53.8881 40.0173 54.241C40.0173 54.6588 40.0513 54.9149 40.2415 54.9149C40.4317 54.9149 40.486 54.807 40.4928 54.6116V54.2882H41.1721V54.8273C41.191 55.0367 41.1616 55.2476 41.0863 55.4442C41.0109 55.6407 40.8915 55.8177 40.7371 55.9617C40.5827 56.1058 40.3974 56.2132 40.195 56.2758C39.9926 56.3384 39.7786 56.3546 39.569 56.3231C38.1764 56.2558 37.5311 55.5348 37.633 54.3893C37.6941 53.5066 37.5922 53.2842 36.6752 53.2168L36.5597 54.7262L37.1982 54.7734C37.1575 55.2855 37.1439 55.5415 37.1031 56.0604C35.7446 55.966 35.0653 55.9054 33.7067 55.7706L33.8425 54.4836L34.4267 54.5443L34.8343 50.3059L34.2705 50.252C34.3248 49.7399 34.352 49.4839 34.3995 48.9785C35.6834 49.1268 36.3287 49.1807 37.6194 49.2683ZM36.7567 52.1792L37.2186 52.2128C37.8096 52.26 38.2172 52.0107 38.2512 51.4919C38.2712 51.3717 38.2633 51.2486 38.2282 51.1318C38.193 51.0151 38.1316 50.9079 38.0484 50.8182C37.9652 50.7286 37.8626 50.659 37.7482 50.6146C37.6339 50.5702 37.5108 50.5522 37.3884 50.562L36.8858 50.5283C36.845 51.1549 36.8246 51.5053 36.7567 52.1792Z" fill="white"></path><path d="M46.3551 56.3504C46.3551 55.8383 46.3551 55.5822 46.3551 55.0701H47.3469C47.2586 54.8073 47.211 54.6793 47.1159 54.3963C46.26 54.3963 45.8321 54.3963 44.9829 54.3963C44.8946 54.6658 44.8471 54.7939 44.7588 55.0701H45.5875C45.5875 55.5822 45.5875 55.8383 45.5875 56.3504C44.2289 56.3504 43.5496 56.3504 42.191 56.3167L42.225 55.0364H42.9383C43.5361 53.3317 43.8214 52.4759 44.3784 50.7644H43.964V49.5044C45.4924 49.5044 46.26 49.5044 47.7884 49.4707C48.5492 51.6741 48.95 52.7657 49.8263 54.9556H50.56C50.56 55.4677 50.5939 55.717 50.6211 56.2291C48.9093 56.3032 48.0534 56.3302 46.3551 56.3504ZM46.7016 53.2306C46.4163 52.3883 46.2736 51.9706 46.0223 51.1283C45.7642 51.9706 45.6351 52.3951 45.343 53.2373L46.7016 53.2306Z" fill="white"></path><path d="M58.4942 49.9419L59.2074 55.4604C58.2972 55.575 57.8488 55.6289 56.9386 55.7232C55.7023 54.3756 55.0977 53.6681 53.9361 52.2733L54.1399 54.7192L54.9415 54.6519C54.989 55.1572 55.0094 55.4065 55.0569 55.9052C53.7595 56.0264 53.1074 56.0736 51.8099 56.1477C51.7759 55.6491 51.7624 55.3931 51.7284 54.8944L52.3805 54.8742C52.265 53.156 52.2107 52.2935 52.0952 50.5753L51.511 50.6157L51.4363 49.3556C52.5775 49.2883 53.1481 49.2478 54.2825 49.1468C55.383 50.4944 55.9536 51.1682 57.1152 52.4687C57.0133 51.5456 56.959 51.0806 56.8571 50.1575L56.1778 50.2316L56.0419 48.9783C57.2375 48.857 57.8353 48.7829 59.024 48.6279L59.1939 49.8745L58.4942 49.9419Z" fill="white"></path><path d="M67.2843 49.767C66.6933 49.895 66.3944 49.9489 65.8034 50.0634L65.5657 48.8371L64.7301 48.9988C65.0426 50.6631 65.1988 51.4987 65.5181 53.163L66.374 53.0013L66.6254 54.2748C65.0698 54.578 64.2886 54.7128 62.7262 54.9486C62.6447 54.4365 62.6039 54.1805 62.5156 53.6684L63.3715 53.5269C63.0862 51.8558 62.9436 51.0203 62.6922 49.3492L61.8363 49.4907C61.911 49.9826 61.9518 50.2319 62.0333 50.7238L60.5456 50.9462C60.3962 49.9422 60.3215 49.4368 60.1788 48.4328C62.8281 48.0555 64.1527 47.8196 66.7816 47.2671L67.2843 49.767Z" fill="white"></path><path d="M73.7512 45.5757C73.9822 46.4045 74.1044 46.8222 74.3422 47.651L72.6304 48.116L72.4062 47.2737C71.7745 47.4422 71.462 47.523 70.8302 47.678C70.9593 48.1968 71.0272 48.4596 71.1563 48.9852C71.9171 48.7965 72.2975 48.7022 73.0515 48.5001L73.3912 49.7533C72.6236 49.9555 72.2431 50.0566 71.4755 50.2452L71.8627 51.7883C72.542 51.6266 72.8477 51.5457 73.4999 51.3705L73.2689 50.4946L75.0147 50.0161L75.6261 52.1387C73.1398 52.8125 71.8831 53.1494 69.3765 53.7087C69.261 53.1966 69.1999 52.9473 69.0912 52.4352L69.7365 52.2937L68.7855 48.1631L68.1606 48.2979C68.0519 47.7993 67.9976 47.5432 67.8821 47.0446C70.2392 46.519 71.4008 46.2293 73.7512 45.5757Z" fill="white"></path><path d="M80.7343 43.3447L81.4748 45.3662L79.7901 45.9524L79.5048 45.1236C78.8867 45.3392 78.5742 45.4403 77.956 45.6357C78.1259 46.1545 78.2074 46.4106 78.3772 46.9227C79.1244 46.6801 79.498 46.5588 80.2385 46.3028L80.6664 47.5291C79.9124 47.7852 79.532 47.9132 78.778 48.1558L79.2739 49.6719L80.8838 49.1396L80.5917 48.2771C81.271 48.0412 81.6242 47.9267 82.3103 47.6774C82.616 48.5062 82.7655 48.9239 83.0644 49.7527C80.6257 50.6287 79.3893 51.0262 76.9099 51.7742L76.5363 50.5344L77.1816 50.3389L75.9385 46.296L75.3272 46.4847C75.1777 45.9861 75.103 45.7368 74.9603 45.2449C77.2835 44.5441 78.4383 44.1668 80.7343 43.3447Z" fill="white"></path><defs><linearGradient id="paint0_linear_108_376" x1="27.8783" y1="4.46625" x2="63.0035" y2="74.3886" gradientUnits="userSpaceOnUse"><stop stop-color="#F9D18B"></stop><stop offset="0.14" stop-color="#FFE6BA"></stop><stop offset="1" stop-color="#EEBD66"></stop></linearGradient><linearGradient id="paint1_linear_108_376" x1="15.7731" y1="9.00814" x2="85.0327" y2="78.8308" gradientUnits="userSpaceOnUse"><stop stop-color="#F1B752"></stop><stop offset="0.08" stop-color="#F1B752"></stop><stop offset="0.14" stop-color="#FFE6BA"></stop><stop offset="0.22" stop-color="#EAB250"></stop><stop offset="0.34" stop-color="#D99725"></stop><stop offset="0.49" stop-color="#EAB250"></stop><stop offset="0.64" stop-color="#FFDCA1"></stop><stop offset="0.71" stop-color="#EAB250"></stop><stop offset="0.84" stop-color="#D99725"></stop><stop offset="1" stop-color="#EAB250"></stop></linearGradient><linearGradient id="paint2_linear_108_376" x1="20.4807" y1="38.0289" x2="69.5191" y2="38.0289" gradientUnits="userSpaceOnUse"><stop stop-color="#F9D18B"></stop><stop offset="0.14" stop-color="#FFE6BA"></stop><stop offset="1" stop-color="#EEBD66"></stop></linearGradient><linearGradient id="paint3_linear_108_376" x1="5.10831" y1="13.4208" x2="90.7438" y2="78.4504" gradientUnits="userSpaceOnUse"><stop stop-color="#4C75B0"></stop><stop offset="1" stop-color="#2C4D80"></stop></linearGradient></defs></svg>