<svg xmlns="http://www.w3.org/2000/svg" width="76" height="76" viewBox="0 0 76 76" fill="none"><g clip-path="url(#clip0_108_197)"><path d="M34.7378 74.259C34.3037 74.7508 33.7497 75.1221 33.1297 75.3366C32.5098 75.551 31.8448 75.6015 31.1996 75.483C30.5543 75.3645 29.9507 75.081 29.4474 74.6603C28.9441 74.2395 28.5582 73.6957 28.3272 73.0816C27.8132 73.492 27.2018 73.7624 26.5525 73.8668C25.9031 73.9711 25.2378 73.9058 24.6211 73.6771C24.0044 73.4485 23.4573 73.0642 23.033 72.5618C22.6086 72.0593 22.3214 71.4556 22.1992 70.8094V70.774C21.6213 71.0824 20.9739 71.2367 20.3191 71.2222C19.6643 71.2077 19.0243 71.0249 18.4607 70.6913C17.8971 70.3578 17.4288 69.8847 17.101 69.3177C16.7732 68.7507 16.597 68.1089 16.5892 67.454V67.4186C15.9685 67.6228 15.3057 67.6638 14.6645 67.5378C14.0234 67.4118 13.4254 67.1229 12.9282 66.699C12.4309 66.275 12.0511 65.7303 11.8253 65.1172C11.5994 64.504 11.5351 63.8431 11.6385 63.1979V63.1508C10.9881 63.2436 10.3247 63.1665 9.71287 62.9271C9.10103 62.6877 8.56153 62.2941 8.14678 61.7846C7.73203 61.2751 7.45615 60.6669 7.34593 60.0192C7.23572 59.3715 7.29494 58.7063 7.51781 58.0883V58.0412C6.86528 58.0111 6.23144 57.8137 5.67722 57.4679C5.123 57.1222 4.66702 56.6397 4.3531 56.0668C4.03919 55.494 3.87788 54.85 3.88469 54.1968C3.8915 53.5436 4.0662 52.9032 4.39199 52.337L4.42142 52.284C3.78472 52.1382 3.19622 51.8311 2.71246 51.3922C2.2287 50.9534 1.86594 50.3975 1.65903 49.7779C1.45212 49.1584 1.40802 48.496 1.53097 47.8545C1.65392 47.213 1.93978 46.6139 2.36109 46.1148L2.40229 46.0677C1.80235 45.8107 1.2785 45.4039 0.881006 44.8863C0.483512 44.3686 0.22571 43.7575 0.132334 43.1115C0.0389583 42.4656 0.113142 41.8065 0.347767 41.1975C0.582391 40.5884 0.969585 40.0499 1.4722 39.6336L1.52518 39.5923C0.985715 39.2312 0.547518 38.7381 0.252201 38.16C-0.0431154 37.5818 -0.185748 36.9378 -0.162157 36.289C-0.138565 35.6403 0.0504692 35.0083 0.386997 34.4531C0.723525 33.898 1.19637 33.438 1.76065 33.117L1.8254 33.0817C1.34719 32.6286 0.994684 32.0592 0.802298 31.4292C0.609912 30.7992 0.584232 30.13 0.727765 29.4871C0.871298 28.8441 1.17913 28.2494 1.62121 27.761C2.06328 27.2726 2.62448 26.9072 3.24998 26.7005H3.32062C2.94061 26.172 2.70244 25.5548 2.62882 24.908C2.55521 24.2612 2.64862 23.6063 2.90014 23.0058C3.15165 22.4054 3.55288 21.8794 4.06551 21.4782C4.57814 21.0769 5.18506 20.8137 5.82834 20.7138H5.89898C5.62007 20.1267 5.49628 19.478 5.53944 18.8295C5.5826 18.1809 5.79125 17.5543 6.14549 17.0093C6.49973 16.4644 6.98773 16.0194 7.56291 15.7167C8.13808 15.414 8.78124 15.2638 9.43098 15.2804H9.50751V15.251C9.33886 14.6234 9.33383 13.9632 9.49289 13.3332C9.65194 12.7031 9.96978 12.1244 10.4161 11.6521C10.8624 11.1799 11.4222 10.8298 12.0423 10.6354C12.6623 10.441 13.3218 10.4087 13.9578 10.5416H14.0344V10.5063C13.9672 9.85294 14.0705 9.19334 14.3341 8.59174C14.5976 7.99014 15.0125 7.46706 15.5383 7.07345C16.0641 6.67984 16.6829 6.42913 17.3344 6.34574C17.9859 6.26234 18.6478 6.3491 19.2558 6.59757H19.3265V6.55635C19.3944 5.91312 19.6252 5.29783 19.9971 4.76867C20.3691 4.23951 20.8698 3.81396 21.4521 3.53227C22.0343 3.25058 22.6788 3.12206 23.3246 3.15885C23.9703 3.19564 24.596 3.39653 25.1425 3.74253L25.2014 3.78374V3.73663C25.3824 3.11363 25.7196 2.54721 26.181 2.09107C26.6423 1.63493 27.2126 1.30421 27.8376 1.13026C28.4626 0.956317 29.1217 0.944911 29.7524 1.09714C30.383 1.24936 30.9644 1.56017 31.4412 2.00008L31.4883 2.04127V1.99418C31.7766 1.40844 32.2106 0.90662 32.7486 0.536889C33.2866 0.167159 33.9107 -0.058065 34.5608 -0.117169C35.211 -0.176274 35.8654 -0.0672776 36.4613 0.199368C37.0572 0.466015 37.5745 0.881354 37.9637 1.40552L37.999 1.4585L38.0343 1.40552C38.4235 0.881354 38.9408 0.466015 39.5367 0.199368C40.1326 -0.0672776 40.787 -0.176274 41.4372 -0.117169C42.0873 -0.058065 42.7114 0.167159 43.2494 0.536889C43.7874 0.90662 44.2214 1.40844 44.5097 1.99418V2.04127L44.5567 2.00008C45.0336 1.56017 45.6149 1.24936 46.2456 1.09714C46.8763 0.944911 47.5354 0.956317 48.1604 1.13026C48.7854 1.30421 49.3557 1.63493 49.817 2.09107C50.2784 2.54721 50.6156 3.11363 50.7966 3.73663V3.78374L50.8555 3.74253C51.4038 3.39506 52.0318 3.1935 52.6799 3.15699C53.328 3.12047 53.9747 3.2502 54.5586 3.53388C55.1425 3.81756 55.6442 4.24577 56.016 4.77785C56.3879 5.30993 56.6176 5.92821 56.6833 6.57401V6.61522H56.748C57.35 6.37123 58.0043 6.28523 58.6489 6.36541C59.2934 6.44558 59.9068 6.68926 60.4306 7.07329C60.9545 7.45731 61.3714 7.96894 61.6417 8.55951C61.9121 9.15008 62.027 9.79998 61.9754 10.4475V10.4828H62.0519C62.6877 10.3516 63.3465 10.3851 63.9657 10.5801C64.5849 10.7751 65.1439 11.1251 65.5898 11.5969C66.0357 12.0687 66.3536 12.6467 66.5133 13.2759C66.6729 13.9051 66.6692 14.5648 66.5022 15.1921V15.2215H66.5788C67.2279 15.2066 67.8702 15.3578 68.4444 15.6609C69.0187 15.9641 69.5059 16.409 69.8598 16.9534C70.2137 17.4978 70.4225 18.1237 70.4665 18.7715C70.5104 19.4194 70.3879 20.0677 70.1108 20.6549H70.1873C70.8309 20.7542 71.4383 21.0171 71.9512 21.4184C72.4641 21.8198 72.8653 22.3461 73.1164 22.947C73.3675 23.5479 73.4601 24.2032 73.3853 24.8501C73.3105 25.4971 73.0708 26.114 72.6891 26.6417H72.7598C73.3745 26.8558 73.9241 27.2239 74.356 27.7108C74.788 28.1978 75.088 28.7873 75.2273 29.4231C75.3667 30.059 75.3407 30.7199 75.1519 31.3429C74.9632 31.9659 74.6179 32.5301 74.149 32.9816L74.2079 33.0169C74.7725 33.3374 75.2458 33.7969 75.5829 34.3518C75.92 34.9067 76.1096 35.5385 76.1338 36.1873C76.1579 36.8361 76.0159 37.4803 75.7211 38.0587C75.4262 38.6372 74.9884 39.1306 74.4492 39.4923L74.5022 39.5335C75.0049 39.9498 75.392 40.4883 75.6267 41.0974C75.8613 41.7064 75.9355 42.3655 75.8421 43.0115C75.7487 43.6574 75.4909 44.2685 75.0934 44.7862C74.6959 45.3038 74.1721 45.7107 73.5721 45.9676L73.6133 46.0147C74.0347 46.5138 74.3205 47.1129 74.4435 47.7544C74.5664 48.3959 74.5223 49.0583 74.3154 49.6778C74.1085 50.2974 73.7457 50.8533 73.262 51.2922C72.7782 51.7311 72.1897 52.0381 71.553 52.1839L71.5824 52.2369C71.91 52.8028 72.0861 53.4436 72.0938 54.0974C72.1014 54.7512 71.9403 55.396 71.6261 55.9694C71.3119 56.5428 70.8551 57.0255 70.2999 57.3709C69.7447 57.7163 69.1099 57.9127 68.4566 57.9411V57.9882C68.6777 58.6036 68.7366 59.2657 68.6277 59.9105C68.5187 60.5553 68.2456 61.1612 67.8345 61.6699C67.4235 62.1785 66.8884 62.5727 66.2808 62.8146C65.6732 63.0564 65.0135 63.1378 64.3654 63.0507V63.1979C64.4739 63.8431 64.4145 64.5054 64.1927 65.1209C63.9709 65.7364 63.5943 66.2844 63.0992 66.7121C62.6041 67.1398 62.0071 67.4327 61.3659 67.5627C60.7247 67.6926 60.0608 67.6552 59.4382 67.454V67.4893C59.4305 68.1442 59.2542 68.786 58.9264 69.353C58.5986 69.92 58.1304 70.3931 57.5667 70.7266C57.0031 71.0602 56.3631 71.243 55.7083 71.2575C55.0536 71.272 54.4061 71.1177 53.8282 70.8094V70.8447C53.7054 71.4878 53.4189 72.0884 52.9963 72.5885C52.5738 73.0885 52.0294 73.4713 51.4158 73.6997C50.8022 73.9281 50.1401 73.9944 49.4934 73.8923C48.8467 73.7903 48.2372 73.5232 47.7238 73.1169C47.4928 73.731 47.1069 74.2748 46.6036 74.6956C46.1003 75.1164 45.4966 75.3998 44.8514 75.5183C44.2061 75.6368 43.5412 75.5864 42.9212 75.3719C42.3012 75.1574 41.7473 74.7862 41.3132 74.2943C40.9744 74.8665 40.4918 75.34 39.9132 75.6678C39.3346 75.9956 38.6803 76.1662 38.0154 76.1626C37.3504 76.159 36.698 75.9814 36.1229 75.6474C35.5479 75.3135 35.0704 74.8348 34.7378 74.259Z" fill="url(#paint0_linear_108_197)"></path><path d="M63 63.002C76.8071 49.1948 76.8071 26.8091 63 13.002C49.1929 -0.805169 26.8071 -0.805174 13 13.002C-0.80712 26.8091 -0.80712 49.1948 13 63.002C26.8071 76.8091 49.1929 76.8091 63 63.002Z" fill="url(#paint1_linear_108_197)"></path><path d="M70.8116 45.3465C74.8587 27.2258 63.4499 9.25528 45.3292 5.20815C27.2085 1.16102 9.23791 12.5699 5.19077 30.6906C1.14364 48.8113 12.5525 66.7818 30.6732 70.829C48.7939 74.8761 66.7645 63.4672 70.8116 45.3465Z" fill="url(#paint2_linear_108_197)"></path><path d="M69.1053 44.9474C72.942 27.7691 62.1264 10.7331 44.9481 6.8964C27.7698 3.05974 10.7337 13.8753 6.89709 31.0536C3.06042 48.2319 13.876 65.2679 31.0543 69.1046C48.2326 72.9413 65.2686 62.1257 69.1053 44.9474Z" fill="#272530"></path><path fill-rule="evenodd" clip-rule="evenodd" d="M7.11254 31.1014C3.30245 48.1607 14.0431 65.0787 31.1024 68.8888C48.1618 72.6989 65.0798 61.9583 68.8899 44.8989C72.7 27.8396 61.9593 10.9216 44.9 7.11152C27.8406 3.30143 10.9226 14.0421 7.11254 31.1014ZM31.0062 69.3197C13.7089 65.4565 2.81842 48.3025 6.68165 31.0052C10.5449 13.7079 27.6989 2.8174 44.9962 6.68064C62.2935 10.5439 73.184 27.6979 69.3208 44.9952C65.4575 62.2925 48.3035 73.183 31.0062 69.3197Z" fill="white"></path><path fill-rule="evenodd" clip-rule="evenodd" d="M37.9681 9.95314L37.9991 9.95312L38.0301 9.95314C38.3552 9.95349 38.6184 10.2173 38.6181 10.5424C38.6177 10.8676 38.3539 11.1308 38.0288 11.1305L37.9991 11.1305L37.9694 11.1305C37.6443 11.1308 37.3804 10.8676 37.3801 10.5424C37.3797 10.2173 37.643 9.95349 37.9681 9.95314ZM34.3133 10.7806C34.3634 11.1019 34.1436 11.4029 33.8224 11.453L33.7639 11.4622C33.4428 11.513 33.1413 11.2939 33.0904 10.9728C33.0396 10.6517 33.2587 10.3502 33.5798 10.2994L33.6409 10.2898C33.9621 10.2396 34.2632 10.4594 34.3133 10.7806ZM41.6849 10.7806C41.735 10.4594 42.036 10.2396 42.3572 10.2898L42.4183 10.2994C42.7395 10.3502 42.9586 10.6517 42.9077 10.9728C42.8569 11.2939 42.5554 11.513 42.2343 11.4622L42.1758 11.453C41.8545 11.4029 41.6347 11.1019 41.6849 10.7806ZM30.0989 11.6885C30.199 11.9978 30.0293 12.3297 29.72 12.4298L29.6638 12.448C29.3547 12.5488 29.0224 12.3799 28.9217 12.0708C28.8209 11.7617 28.9898 11.4294 29.2989 11.3287L29.3576 11.3096C29.667 11.2095 29.9989 11.3792 30.0989 11.6885ZM45.8992 11.6885C45.9993 11.3792 46.3312 11.2095 46.6405 11.3096L46.6992 11.3287C47.0083 11.4294 47.1772 11.7617 47.0765 12.0708C46.9757 12.3799 46.6435 12.5488 46.3344 12.448L46.2781 12.4298C45.9688 12.3297 45.7992 11.9978 45.8992 11.6885ZM26.0806 13.2489C26.2282 13.5386 26.1129 13.8931 25.8232 14.0406L25.7706 14.0675C25.4812 14.2156 25.1265 14.1011 24.9783 13.8117C24.8302 13.5223 24.9447 13.1676 25.2341 13.0195L25.289 12.9914C25.5787 12.8439 25.9331 12.9592 26.0806 13.2489ZM49.9175 13.2489C50.065 12.9592 50.4195 12.8439 50.7092 12.9914L50.7641 13.0195C51.0535 13.1676 51.168 13.5223 51.0198 13.8117C50.8717 14.1011 50.517 14.2156 50.2276 14.0675L50.175 14.0406C49.8853 13.8931 49.77 13.5386 49.9175 13.2489ZM22.3575 15.4211C22.5486 15.6842 22.4902 16.0523 22.2271 16.2433L22.1793 16.2781C21.9167 16.4696 21.5484 16.412 21.3569 16.1494C21.1653 15.8867 21.2229 15.5185 21.4855 15.3269L21.5353 15.2906C21.7984 15.0996 22.1665 15.158 22.3575 15.4211ZM53.6406 15.4211C53.8316 15.158 54.1998 15.0996 54.4628 15.2906L54.5126 15.3269C54.7753 15.5185 54.8329 15.8867 54.6413 16.1494C54.4497 16.412 54.0815 16.4697 53.8188 16.2781L53.7711 16.2433C53.508 16.0523 53.4496 15.6842 53.6406 15.4211ZM19.019 18.1479C19.2487 18.3781 19.2483 18.7508 19.0181 18.9804L18.9764 19.0222C18.7467 19.2523 18.374 19.2527 18.1439 19.0231C17.9137 18.7934 17.9133 18.4207 18.143 18.1906L18.1865 18.147C18.4167 17.9174 18.7894 17.9178 19.019 18.1479ZM56.9791 18.1479C57.2088 17.9178 57.5815 17.9174 57.8116 18.147L57.8552 18.1906C58.0848 18.4207 58.0844 18.7934 57.8543 19.0231C57.6241 19.2527 57.2514 19.2523 57.0218 19.0222L56.98 18.9804C56.7499 18.7508 56.7495 18.3781 56.9791 18.1479ZM16.1454 21.3609C16.408 21.5525 16.4656 21.9207 16.274 22.1834L16.2393 22.2311C16.0483 22.4942 15.6801 22.5526 15.4171 22.3616C15.154 22.1706 15.0956 21.8024 15.2866 21.5394L15.3229 21.4896C15.5144 21.2269 15.8827 21.1693 16.1454 21.3609ZM59.8528 21.3609C60.1155 21.1693 60.4837 21.2269 60.6753 21.4896L60.7116 21.5394C60.9026 21.8024 60.8442 22.1706 60.5811 22.3616C60.318 22.5526 59.9499 22.4942 59.7589 22.2311L59.7241 22.1834C59.5326 21.9207 59.5902 21.5525 59.8528 21.3609ZM13.8077 24.9824C14.0971 25.1305 14.2116 25.4852 14.0634 25.7746L14.0366 25.8272C13.8891 26.1169 13.5346 26.2322 13.2449 26.0847C12.9552 25.9372 12.8399 25.5827 12.9874 25.293L13.0154 25.2381C13.1636 24.9487 13.5183 24.8342 13.8077 24.9824ZM62.1905 24.9824C62.4799 24.8342 62.8346 24.9487 62.9827 25.2381L63.0108 25.293C63.1583 25.5827 63.043 25.9372 62.7533 26.0847C62.4635 26.2322 62.1091 26.1169 61.9616 25.8272L61.9347 25.7746C61.7866 25.4852 61.9011 25.1305 62.1905 24.9824ZM12.0668 28.9257C12.3759 29.0265 12.5448 29.3587 12.444 29.6678L12.4258 29.7241C12.3257 30.0334 11.9938 30.203 11.6845 30.103C11.3752 30.0029 11.2055 29.671 11.3056 29.3617L11.3246 29.303C11.4254 28.9939 11.7577 28.825 12.0668 28.9257ZM63.9314 28.9257C64.2405 28.825 64.5728 28.9939 64.6735 29.303L64.6926 29.3617C64.7926 29.671 64.623 30.0029 64.3137 30.103C64.0043 30.203 63.6725 30.0334 63.5724 29.7241L63.5541 29.6678C63.4534 29.3587 63.6223 29.0265 63.9314 28.9257ZM10.9688 33.0945C11.2899 33.1453 11.509 33.4468 11.4582 33.7679L11.449 33.8265C11.3989 34.1477 11.0978 34.3675 10.7766 34.3173C10.4554 34.2672 10.2356 33.9662 10.2857 33.645L10.2953 33.5839C10.3462 33.2627 10.6477 33.0436 10.9688 33.0945ZM65.0294 33.0945C65.3505 33.0436 65.652 33.2628 65.7028 33.5839L65.7124 33.645C65.7626 33.9662 65.5428 34.2672 65.2216 34.3173C64.9003 34.3675 64.5993 34.1477 64.5492 33.8265L64.54 33.7679C64.4892 33.4468 64.7083 33.1453 65.0294 33.0945ZM10.5384 37.3841C10.8635 37.3845 11.1268 37.6483 11.1264 37.9734L11.1264 38.0031L11.1264 38.0328C11.1268 38.3579 10.8635 38.6218 10.5384 38.6221C10.2133 38.6225 9.94946 38.3592 9.94911 38.0341L9.9491 38.0031L9.94911 37.9721C9.94946 37.647 10.2133 37.3838 10.5384 37.3841ZM65.4597 37.3841C65.7849 37.3838 66.0487 37.647 66.049 37.9721L66.0491 38.0031L66.049 38.0341C66.0487 38.3592 65.7849 38.6225 65.4597 38.6221C65.1346 38.6218 64.8714 38.3579 64.8717 38.0328L64.8717 38.0031L64.8717 37.9734C64.8714 37.6483 65.1346 37.3845 65.4597 37.3841ZM10.7766 41.6889C11.0978 41.6388 11.3989 41.8586 11.449 42.1798L11.4582 42.2383C11.509 42.5594 11.2899 42.8609 10.9688 42.9118C10.6477 42.9626 10.3462 42.7435 10.2953 42.4224L10.2857 42.3613C10.2356 42.0401 10.4554 41.739 10.7766 41.6889ZM65.2216 41.6889C65.5428 41.739 65.7626 42.0401 65.7124 42.3613L65.7028 42.4224C65.652 42.7435 65.3505 42.9626 65.0294 42.9118C64.7083 42.8609 64.4892 42.5594 64.54 42.2383L64.5492 42.1798C64.5993 41.8586 64.9003 41.6388 65.2216 41.6889ZM64.3137 45.9033C64.623 46.0033 64.7926 46.3352 64.6926 46.6446L64.6735 46.7033C64.5728 47.0124 64.2405 47.1813 63.9314 47.0805C63.6223 46.9798 63.4534 46.6475 63.5541 46.3384L63.5724 46.2822C63.6725 45.9729 64.0044 45.8032 64.3137 45.9033ZM11.6845 45.9033C11.9938 45.8032 12.3257 45.9729 12.4258 46.2822L12.444 46.3384C12.5448 46.6475 12.3759 46.9798 12.0668 47.0805C11.7577 47.1813 11.4254 47.0124 11.3246 46.7033L11.3056 46.6446C11.2055 46.3352 11.3752 46.0033 11.6845 45.9033ZM13.2449 49.9216C13.5346 49.774 13.8891 49.8893 14.0366 50.179L14.0634 50.2316C14.2116 50.521 14.0971 50.8757 13.8077 51.0239C13.5183 51.172 13.1636 51.0575 13.0154 50.7681L12.9874 50.7132C12.8399 50.4235 12.9552 50.0691 13.2449 49.9216ZM62.7533 49.9215C63.043 50.0691 63.1583 50.4235 63.0108 50.7132L62.9827 50.7681C62.8346 51.0575 62.4799 51.172 62.1905 51.0239C61.9011 50.8757 61.7866 50.521 61.9347 50.2316L61.9616 50.179C62.1091 49.8893 62.4636 49.774 62.7533 49.9215ZM15.4171 53.6447C15.6801 53.4536 16.0483 53.512 16.2393 53.7751L16.274 53.8228C16.4656 54.0855 16.408 54.4538 16.1453 54.6453C15.8827 54.8369 15.5144 54.7793 15.3229 54.5167L15.2866 54.4669C15.0956 54.2038 15.154 53.8357 15.4171 53.6447ZM60.5811 53.6447C60.8442 53.8357 60.9026 54.2038 60.7116 54.4669L60.6753 54.5167C60.4837 54.7793 60.1155 54.8369 59.8528 54.6453C59.5902 54.4538 59.5326 54.0855 59.7241 53.8228L59.7589 53.7751C59.9499 53.512 60.318 53.4536 60.5811 53.6447ZM18.1439 56.9832C18.374 56.7535 18.7467 56.7539 18.9764 56.9841L19.0181 57.0258C19.2483 57.2555 19.2487 57.6282 19.019 57.8583C18.7894 58.0885 18.4167 58.0889 18.1865 57.8592L18.143 57.8157C17.9133 57.5855 17.9137 57.2128 18.1439 56.9832ZM57.8543 56.9832C58.0844 57.2128 58.0848 57.5855 57.8552 57.8157L57.8116 57.8592C57.5815 58.0889 57.2088 58.0885 56.9791 57.8583C56.7495 57.6282 56.7499 57.2555 56.98 57.0258L57.0218 56.9841C57.2514 56.7539 57.6241 56.7535 57.8543 56.9832ZM21.3569 59.8568C21.5484 59.5942 21.9167 59.5366 22.1793 59.7282L22.2271 59.7629C22.4902 59.9539 22.5486 60.3221 22.3575 60.5851C22.1665 60.8482 21.7984 60.9066 21.5353 60.7156L21.4855 60.6793C21.2229 60.4878 21.1653 60.1195 21.3569 59.8568ZM54.6413 59.8569C54.8329 60.1195 54.7753 60.4878 54.5126 60.6794L54.4628 60.7156C54.1998 60.9066 53.8316 60.8482 53.6406 60.5851C53.4496 60.3221 53.508 59.9539 53.7711 59.7629L53.8188 59.7282C54.0815 59.5366 54.4497 59.5942 54.6413 59.8569ZM24.9783 62.1945C25.1265 61.9051 25.4812 61.7906 25.7706 61.9388L25.8232 61.9656C26.1129 62.1131 26.2282 62.4676 26.0806 62.7573C25.9331 63.047 25.5787 63.1623 25.289 63.0148L25.2341 62.9868C24.9447 62.8386 24.8302 62.4839 24.9783 62.1945ZM51.0198 62.1945C51.168 62.4839 51.0535 62.8386 50.7641 62.9868L50.7092 63.0148C50.4195 63.1623 50.065 63.047 49.9175 62.7573C49.77 62.4676 49.8853 62.1131 50.175 61.9656L50.2276 61.9388C50.517 61.7906 50.8717 61.9051 51.0198 62.1945ZM28.9217 63.9354C29.0224 63.6263 29.3547 63.4574 29.6638 63.5582L29.72 63.5764C30.0293 63.6765 30.199 64.0084 30.0989 64.3177C29.9989 64.627 29.667 64.7967 29.3576 64.6966L29.2989 64.6776C28.9898 64.5768 28.8209 64.2445 28.9217 63.9354ZM47.0765 63.9354C47.1772 64.2445 47.0083 64.5768 46.6992 64.6776L46.6405 64.6966C46.3312 64.7967 45.9993 64.627 45.8992 64.3177C45.7992 64.0084 45.9688 63.6765 46.2781 63.5764L46.3344 63.5582C46.6435 63.4574 46.9757 63.6263 47.0765 63.9354ZM33.0904 65.0334C33.1413 64.7123 33.4428 64.4932 33.7639 64.544L33.8224 64.5532C34.1436 64.6033 34.3634 64.9044 34.3133 65.2256C34.2632 65.5468 33.9621 65.7666 33.6409 65.7165L33.5798 65.7069C33.2587 65.656 33.0396 65.3545 33.0904 65.0334ZM42.9077 65.0334C42.9586 65.3545 42.7394 65.656 42.4183 65.7069L42.3572 65.7165C42.036 65.7666 41.735 65.5468 41.6849 65.2256C41.6347 64.9044 41.8545 64.6033 42.1757 64.5532L42.2343 64.544C42.5554 64.4932 42.8569 64.7123 42.9077 65.0334ZM37.3801 65.4638C37.3804 65.1387 37.6443 64.8754 37.9694 64.8758L37.9991 64.8758L38.0288 64.8758C38.3539 64.8754 38.6177 65.1387 38.6181 65.4638C38.6184 65.7889 38.3552 66.0527 38.0301 66.0531L37.9991 66.0531L37.9681 66.0531C37.643 66.0527 37.3797 65.7889 37.3801 65.4638Z" fill="white"></path><g style="mix-blend-mode:multiply" opacity="0.15"><path d="M61.1564 43.3552C64.1207 30.5662 56.1563 17.7956 43.3673 14.8313C30.5783 11.867 17.8078 19.8314 14.8435 32.6204C11.8791 45.4094 19.8436 58.1799 32.6325 61.1442C45.4215 64.1086 58.1921 56.1441 61.1564 43.3552Z" fill="black"></path></g><path d="M37.9991 60.1256C50.2168 60.1256 60.1212 50.2212 60.1212 38.0035C60.1212 25.7858 50.2168 15.8813 37.9991 15.8813C25.7814 15.8813 15.877 25.7858 15.877 38.0035C15.877 50.2212 25.7814 60.1256 37.9991 60.1256Z" fill="url(#paint3_linear_108_197)"></path><path fill-rule="evenodd" clip-rule="evenodd" d="M37.999 16.1017C25.9032 16.1017 16.0976 25.9072 16.0976 38.003C16.0976 50.0988 25.9032 59.9044 37.999 59.9044C50.0948 59.9044 59.9003 50.0988 59.9003 38.003C59.9003 25.9072 50.0948 16.1017 37.999 16.1017ZM15.6561 38.003C15.6561 25.6634 25.6594 15.6602 37.999 15.6602C50.3386 15.6602 60.3418 25.6634 60.3418 38.003C60.3418 50.3426 50.3386 60.3459 37.999 60.3459C25.6594 60.3459 15.6561 50.3426 15.6561 38.003Z" fill="white"></path><g style="mix-blend-mode:multiply" opacity="0.15"><path d="M51.444 23.9984C47.8271 20.5302 43.0099 18.5938 37.9989 18.5938C32.9878 18.5938 28.1706 20.5302 24.5537 23.9984H51.444Z" fill="black"></path></g><g style="mix-blend-mode:multiply" opacity="0.15"><path d="M23.8945 51.3359C25.7098 53.2527 27.8968 54.7793 30.3218 55.8226C32.7468 56.8659 35.3591 57.404 37.999 57.404C40.6389 57.404 43.2512 56.8659 45.6762 55.8226C48.1012 54.7793 50.2882 53.2527 52.1035 51.3359H23.8945Z" fill="black"></path></g><path d="M49.9111 34.7257V34.2293C49.9111 33.8861 49.9816 33.5719 50.1225 33.287C50.2665 32.9989 50.4749 32.7691 50.7477 32.5975C51.0234 32.4228 51.3575 32.3355 51.7497 32.3355C52.1481 32.3355 52.4821 32.4228 52.7518 32.5975C53.0214 32.7691 53.2252 32.9989 53.3631 33.287C53.501 33.5719 53.57 33.8861 53.57 34.2293V34.7257C53.57 35.0689 53.4995 35.3845 53.3585 35.6726C53.2206 35.9576 53.0153 36.1874 52.7426 36.3621C52.4729 36.5337 52.142 36.6195 51.7497 36.6195C51.3513 36.6195 51.0158 36.5337 50.7431 36.3621C50.4703 36.1874 50.2635 35.9576 50.1225 35.6726C49.9816 35.3845 49.9111 35.0689 49.9111 34.7257ZM50.8488 34.2293V34.7257C50.8488 35.0107 50.9162 35.2666 51.051 35.4933C51.1859 35.717 51.4188 35.8289 51.7497 35.8289C52.0715 35.8289 52.2982 35.717 52.43 35.4933C52.5648 35.2666 52.6323 35.0107 52.6323 34.7257V34.2293C52.6323 33.9443 52.5679 33.6899 52.4392 33.4662C52.3105 33.2395 52.0807 33.1261 51.7497 33.1261C51.4279 33.1261 51.1966 33.2395 51.0556 33.4662C50.9177 33.6899 50.8488 33.9443 50.8488 34.2293ZM45.2225 29.3385V28.842C45.2225 28.4988 45.293 28.1847 45.434 27.8997C45.578 27.6117 45.7864 27.3819 46.0591 27.2102C46.3349 27.0356 46.6689 26.9482 47.0612 26.9482C47.4595 26.9482 47.7936 27.0356 48.0632 27.2102C48.3329 27.3819 48.5367 27.6117 48.6746 27.8997C48.8125 28.1847 48.8814 28.4988 48.8814 28.842V29.3385C48.8814 29.6817 48.8109 29.9973 48.67 30.2854C48.5321 30.5704 48.3268 30.8002 48.054 30.9749C47.7844 31.1465 47.4534 31.2323 47.0612 31.2323C46.6628 31.2323 46.3273 31.1465 46.0545 30.9749C45.7818 30.8002 45.5749 30.5704 45.434 30.2854C45.293 29.9973 45.2225 29.6817 45.2225 29.3385ZM46.1602 28.842V29.3385C46.1602 29.6235 46.2277 29.8793 46.3625 30.1061C46.4973 30.3298 46.7302 30.4417 47.0612 30.4417C47.3829 30.4417 47.6097 30.3298 47.7415 30.1061C47.8763 29.8793 47.9437 29.6235 47.9437 29.3385V28.842C47.9437 28.5571 47.8794 28.3027 47.7507 28.079C47.622 27.8522 47.3921 27.7389 47.0612 27.7389C46.7394 27.7389 46.5081 27.8522 46.3671 28.079C46.2292 28.3027 46.1602 28.5571 46.1602 28.842ZM45.5719 36.4908L52.0439 27.0769H53.0919L46.6199 36.4908H45.5719Z" fill="white"></path><path d="M40.0927 36.6195C39.4002 36.6195 38.8103 36.431 38.323 36.0541C37.8358 35.6741 37.4635 35.1241 37.2061 34.4039C36.9487 33.6807 36.8199 32.8074 36.8199 31.7839C36.8199 30.7665 36.9487 29.8977 37.2061 29.1776C37.4665 28.4544 37.8404 27.9028 38.3276 27.5228C38.8179 27.1398 39.4063 26.9482 40.0927 26.9482C40.7792 26.9482 41.366 27.1398 41.8532 27.5228C42.3435 27.9028 42.7174 28.4544 42.9748 29.1776C43.2353 29.8977 43.3655 30.7665 43.3655 31.7839C43.3655 32.8074 43.2368 33.6807 42.9794 34.4039C42.722 35.1241 42.3497 35.6741 41.8624 36.0541C41.3752 36.431 40.7853 36.6195 40.0927 36.6195ZM40.0927 35.6082C40.7792 35.6082 41.3124 35.2773 41.6923 34.6154C42.0723 33.9535 42.2623 33.0096 42.2623 31.7839C42.2623 30.9687 42.175 30.2747 42.0003 29.7016C41.8287 29.1286 41.5805 28.6919 41.2557 28.3916C40.9339 28.0913 40.5463 27.9411 40.0927 27.9411C39.4124 27.9411 38.8808 28.2767 38.4977 28.9478C38.1147 29.6158 37.9231 30.5612 37.9231 31.7839C37.9231 32.599 38.0089 33.2916 38.1805 33.8615C38.3521 34.4315 38.5988 34.8651 38.9206 35.1624C39.2454 35.4596 39.6361 35.6082 40.0927 35.6082Z" fill="white"></path><path d="M32.0026 36.6195C31.3101 36.6195 30.7202 36.431 30.2329 36.0541C29.7457 35.6741 29.3734 35.1241 29.116 34.4039C28.8586 33.6807 28.7299 32.8074 28.7299 31.7839C28.7299 30.7665 28.8586 29.8977 29.116 29.1776C29.3764 28.4544 29.7503 27.9028 30.2375 27.5228C30.7278 27.1398 31.3162 26.9482 32.0026 26.9482C32.6891 26.9482 33.2759 27.1398 33.7631 27.5228C34.2534 27.9028 34.6273 28.4544 34.8847 29.1776C35.1452 29.8977 35.2754 30.7665 35.2754 31.7839C35.2754 32.8074 35.1467 33.6807 34.8893 34.4039C34.6319 35.1241 34.2596 35.6741 33.7723 36.0541C33.2851 36.431 32.6952 36.6195 32.0026 36.6195ZM32.0026 35.6082C32.6891 35.6082 33.2223 35.2773 33.6023 34.6154C33.9822 33.9535 34.1722 33.0096 34.1722 31.7839C34.1722 30.9687 34.0849 30.2747 33.9102 29.7016C33.7386 29.1286 33.4904 28.6919 33.1656 28.3916C32.8438 28.0913 32.4562 27.9411 32.0026 27.9411C31.3223 27.9411 30.7907 28.2767 30.4076 28.9478C30.0246 29.6158 29.833 30.5612 29.833 31.7839C29.833 32.599 29.9188 33.2916 30.0905 33.8615C30.2621 34.4315 30.5087 34.8651 30.8305 35.1624C31.1553 35.4596 31.546 35.6082 32.0026 35.6082Z" fill="white"></path><path d="M26.2247 27.0771V36.491H25.0848V28.2723H25.0296L22.7313 29.7983V28.64L25.0848 27.0771H26.2247Z" fill="white"></path><path d="M16.4243 48.481H59.5677C61.1677 45.8211 62.1401 42.8314 62.411 39.7393H13.5869C13.8586 42.8304 14.8288 45.8195 16.4243 48.481Z" fill="#272530"></path><path d="M56.5236 43.2649H58.6503V44.06H56.5236V43.2649ZM56.5994 45.0823H59.0037V45.9027H55.5834V41.4854H58.9216V42.3057H56.5994V45.0823Z" fill="white"></path><path d="M52.2901 43.2649H54.4168V44.06H52.2901V43.2649ZM52.3658 45.0823H54.7702V45.9027H51.3499V41.4854H54.6881V42.3057H52.3658V45.0823Z" fill="white"></path><path d="M48.3639 45.9027V42.3183H46.9503V41.4854H50.7997V42.3183H49.3862V45.9027H48.3639Z" fill="white"></path><path d="M42.3523 45.9027V41.4854H43.1979L45.8041 44.6658H45.394V41.4854H46.4036V45.9027H45.5643L42.9518 42.7222H43.362V45.9027H42.3523Z" fill="white"></path><path d="M36.9402 45.9027L38.9091 41.4854H39.9187L41.8939 45.9027H40.8211L39.2057 42.0028H39.6095L37.9877 45.9027H36.9402ZM37.9246 44.9561L38.196 44.1799H40.4678L40.7454 44.9561H37.9246Z" fill="white"></path><path d="M32.8804 45.9027V41.4854H34.7925C35.1879 41.4854 35.5287 41.5506 35.8148 41.681C36.1008 41.8072 36.3217 41.9902 36.4774 42.23C36.633 42.4698 36.7109 42.7559 36.7109 43.0882C36.7109 43.4164 36.633 43.7003 36.4774 43.9401C36.3217 44.1757 36.1008 44.3566 35.8148 44.4828C35.5287 44.6091 35.1879 44.6722 34.7925 44.6722H33.4483L33.9027 44.2241V45.9027H32.8804ZM35.6885 45.9027L34.5842 44.2998H35.6759L36.7929 45.9027H35.6885ZM33.9027 44.3377L33.4483 43.8581H34.7357C35.0512 43.8581 35.2868 43.7908 35.4424 43.6562C35.5981 43.5173 35.6759 43.328 35.6759 43.0882C35.6759 42.8442 35.5981 42.6549 35.4424 42.5203C35.2868 42.3857 35.0512 42.3183 34.7357 42.3183H33.4483L33.9027 41.8324V44.3377Z" fill="white"></path><path d="M27.4684 45.9027L29.4373 41.4854H30.4469L32.4221 45.9027H31.3493L29.7339 42.0028H30.1377L28.5159 45.9027H27.4684ZM28.4528 44.9561L28.7242 44.1799H30.996L31.2736 44.9561H28.4528Z" fill="white"></path><path d="M25.1307 45.9784C24.5038 45.9784 24.0137 45.8038 23.6603 45.4547C23.3069 45.1055 23.1302 44.607 23.1302 43.9591V41.4854H24.1526V43.9212C24.1526 44.3419 24.2388 44.6448 24.4113 44.8299C24.5838 45.015 24.8257 45.1076 25.137 45.1076C25.4483 45.1076 25.6902 45.015 25.8627 44.8299C26.0352 44.6448 26.1214 44.3419 26.1214 43.9212V41.4854H27.1311V43.9591C27.1311 44.607 26.9544 45.1055 26.601 45.4547C26.2476 45.8038 25.7575 45.9784 25.1307 45.9784Z" fill="white"></path><path d="M20.4327 45.9785C20.0835 45.9785 19.7617 45.9238 19.4672 45.8144C19.1769 45.7008 18.9224 45.5409 18.7036 45.3348C18.4891 45.1287 18.3208 44.8868 18.1988 44.6091C18.081 44.3314 18.0221 44.0264 18.0221 43.6941C18.0221 43.3617 18.081 43.0567 18.1988 42.779C18.3208 42.5014 18.4912 42.2595 18.7099 42.0533C18.9287 41.8472 19.1853 41.6894 19.4798 41.5801C19.7743 41.4665 20.0983 41.4097 20.4516 41.4097C20.8429 41.4097 21.1942 41.4749 21.5055 41.6053C21.821 41.7357 22.0861 41.925 22.3006 42.1732L21.6443 42.779C21.4845 42.6108 21.3099 42.4867 21.1206 42.4067C20.9312 42.3226 20.7251 42.2805 20.5021 42.2805C20.2876 42.2805 20.0919 42.3142 19.9152 42.3815C19.7386 42.4488 19.585 42.5456 19.4546 42.6718C19.3284 42.798 19.2295 42.9473 19.158 43.1198C19.0907 43.2923 19.057 43.4837 19.057 43.6941C19.057 43.9002 19.0907 44.0895 19.158 44.262C19.2295 44.4345 19.3284 44.586 19.4546 44.7164C19.585 44.8426 19.7365 44.9393 19.9089 45.0067C20.0856 45.074 20.2792 45.1076 20.4895 45.1076C20.6914 45.1076 20.8871 45.0761 21.0764 45.013C21.2699 44.9457 21.4571 44.8342 21.638 44.6785L22.2186 45.4168C21.9788 45.5977 21.699 45.7366 21.3793 45.8333C21.0638 45.9301 20.7482 45.9785 20.4327 45.9785ZM21.2846 45.2843V43.6247H22.2186V45.4168L21.2846 45.2843Z" fill="white"></path></g><defs><linearGradient id="paint0_linear_108_197" x1="8.88352" y1="8.76386" x2="109.239" y2="109.12" gradientUnits="userSpaceOnUse"><stop stop-color="#F1B752"></stop><stop offset="0.14" stop-color="#FFE6BA"></stop><stop offset="0.49" stop-color="#EAB250"></stop><stop offset="0.64" stop-color="#FFDCA1"></stop><stop offset="0.71" stop-color="#EAB250"></stop><stop offset="0.84" stop-color="#D99725"></stop><stop offset="1" stop-color="#EAB250"></stop></linearGradient><linearGradient id="paint1_linear_108_197" x1="2.64196" y1="38.006" x2="73.3526" y2="38.006" gradientUnits="userSpaceOnUse"><stop stop-color="#B48C48"></stop><stop offset="0.08" stop-color="#B48C48"></stop><stop offset="0.22" stop-color="#AD8745"></stop><stop offset="0.34" stop-color="#9C7024"></stop><stop offset="0.49" stop-color="#AD8745"></stop><stop offset="0.71" stop-color="#AD8745"></stop><stop offset="0.84" stop-color="#9C7024"></stop><stop offset="1" stop-color="#AD8745"></stop></linearGradient><linearGradient id="paint2_linear_108_197" x1="4.39318" y1="38.0191" x2="71.6307" y2="38.0191" gradientUnits="userSpaceOnUse"><stop stop-color="#F9D18B"></stop><stop offset="0.14" stop-color="#FFE6BA"></stop><stop offset="1" stop-color="#EEBD66"></stop></linearGradient><linearGradient id="paint3_linear_108_197" x1="21.3633" y1="21.3677" x2="56.7305" y2="56.7348" gradientUnits="userSpaceOnUse"><stop stop-color="#4C75B0"></stop><stop offset="1" stop-color="#2C4D80"></stop></linearGradient><clipPath id="clip0_108_197"><rect width="76" height="76" fill="white" transform="translate(0 0.00195312)"></rect></clipPath></defs></svg>