<svg xmlns="http://www.w3.org/2000/svg" width="50" height="50" viewBox="0 0 50 50" fill="none"><path d="M30.2077 27.0835C30.7827 27.0835 31.2494 26.6168 31.2494 26.0418V21.8752C31.2494 21.3002 30.7827 20.8335 30.2077 20.8335C29.6327 20.8335 29.166 21.3002 29.166 21.8752V26.0419C29.1661 26.6169 29.6327 27.0835 30.2077 27.0835Z" fill="currentColor"/><path d="M38.5417 27.0835C39.1167 27.0835 39.5834 26.6168 39.5834 26.0418V21.8752C39.5834 21.3002 39.1167 20.8335 38.5417 20.8335C37.9667 20.8335 37.5 21.3002 37.5 21.8752V26.0419C37.5 26.6169 37.9667 27.0835 38.5417 27.0835Z" fill="currentColor"/><path d="M42.7077 27.0835C43.2827 27.0835 43.7494 26.6168 43.7494 26.0418V21.8752C43.7494 21.3002 43.2827 20.8335 42.7077 20.8335C42.1327 20.8335 41.666 21.3002 41.666 21.8752V26.0419C41.6661 26.6169 42.1327 27.0835 42.7077 27.0835Z" fill="currentColor"/><path d="M43.6474 38.0895C43.4724 37.7291 43.1078 37.5 42.7078 37.5H34.3744C33.7994 37.5 33.3327 37.9667 33.3327 38.5417C33.3327 39.1167 33.7994 39.5834 34.3744 39.5834H40.539L33.5598 48.3084C33.3098 48.6209 33.2618 49.048 33.4348 49.4104C33.6098 49.7709 33.9743 50 34.3743 50H42.7076C43.2826 50 43.7493 49.5333 43.7493 48.9583C43.7493 48.3833 43.2826 47.9166 42.7076 47.9166H36.5431L43.5223 39.1916C43.7724 38.8792 43.8202 38.452 43.6474 38.0895Z" fill="currentColor"/><path d="M48.9584 39.5831H46.7376L49.8251 34.9519C50.0376 34.6311 50.0584 34.2206 49.8771 33.8811C49.6959 33.5436 49.3438 33.3311 48.9584 33.3311H44.7917C44.2167 33.3311 43.75 33.7978 43.75 34.3728C43.75 34.9478 44.2167 35.4145 44.7917 35.4145H47.0125L43.925 40.0457C43.7125 40.3665 43.6917 40.777 43.8729 41.1165C44.0542 41.454 44.4062 41.6665 44.7917 41.6665H48.9584C49.5334 41.6665 50.0001 41.1998 50.0001 40.6248C50.0001 40.0498 49.5334 39.5831 48.9584 39.5831Z" fill="white"/><path d="M34.3757 27.0835C34.9507 27.0835 35.4173 26.6168 35.4173 26.0418V21.8752C35.4173 21.3002 34.9507 20.8335 34.3757 20.8335C33.8007 20.8335 33.334 21.3002 33.334 21.8752V26.0419C33.334 26.6169 33.8007 27.0835 34.3757 27.0835Z" fill="currentColor"/><path d="M42.7077 4.1665C42.1327 4.1665 41.666 4.6332 41.666 5.2082V9.3748C41.666 9.9498 42.1327 10.4165 42.7077 10.4165C43.2827 10.4165 43.7494 9.9498 43.7494 9.3748V5.20811C43.7494 4.63311 43.2827 4.1665 42.7077 4.1665Z" fill="currentColor"/><path d="M4.16602 23.9585C4.16602 25.6814 5.56807 27.0835 7.29102 27.0835C9.01397 27.0835 10.416 25.6814 10.416 23.9585C10.416 22.2355 9.01397 20.8335 7.29102 20.8335C5.56807 20.8335 4.16602 22.2356 4.16602 23.9585ZM7.29102 22.9169C7.86602 22.9169 8.33272 23.3856 8.33272 23.9586C8.33272 24.5315 7.86602 25.0003 7.29102 25.0003C6.71602 25.0003 6.24932 24.5314 6.24932 23.9585C6.24932 23.3856 6.71602 22.9169 7.29102 22.9169Z" fill="currentColor"/><path d="M38.5417 4.1665C37.9667 4.1665 37.5 4.6332 37.5 5.2082V9.3748C37.5 9.9498 37.9667 10.4165 38.5417 10.4165C39.1167 10.4165 39.5834 9.9498 39.5834 9.3748V5.20811C39.5833 4.63311 39.1167 4.1665 38.5417 4.1665Z" fill="currentColor"/><path d="M44.7917 14.5833C47.6625 14.5833 50 12.2479 50 9.375V5.2083C50 2.33545 47.6625 0 44.7917 0H5.2083C2.3375 0 0 2.33545 0 5.2083V9.375C0 12.2479 2.3375 14.5833 5.2083 14.5833H18.75V16.6666H5.2083C2.3375 16.6667 0 19.0021 0 21.875V26.0417C0 28.9146 2.3375 31.25 5.2083 31.25H18.75V33.3333H17.7083C17.1333 33.3333 16.6666 33.8 16.6666 34.375V35.4167H15.625C15.05 35.4167 14.5833 35.8834 14.5833 36.4584V37.5H5.2083C4.6333 37.5 4.1666 37.9667 4.1666 38.5417C4.1666 39.1167 4.6333 39.5834 5.2083 39.5834H14.5833V40.625C14.5833 41.2 15.05 41.6667 15.625 41.6667H23.9583C24.5333 41.6667 25 41.2 25 40.625V39.5833H30.2083C30.7833 39.5833 31.25 39.1166 31.25 38.5416C31.25 37.9666 30.7833 37.5 30.2083 37.5H25V36.4583C25 35.8833 24.5333 35.4166 23.9583 35.4166H22.9166V34.375C22.9166 33.8 22.4499 33.3333 21.8749 33.3333H20.8332V31.25H44.7915C47.6625 31.25 50 28.9146 50 26.0417V21.875C50 19.0021 47.6625 16.6667 44.7917 16.6667H20.8333V14.5834L44.7917 14.5833ZM21.875 37.5H22.9167V39.5833H16.6667V37.5H17.7084C18.2834 37.5 18.7501 37.0333 18.7501 36.4583V35.4166H20.8334V36.4583C20.8333 37.0333 21.3 37.5 21.875 37.5ZM44.7917 18.75C46.5146 18.75 47.9167 20.1521 47.9167 21.875V26.0417C47.9167 27.7646 46.5146 29.1667 44.7917 29.1667H5.2083C3.48535 29.1667 2.0833 27.7646 2.0833 26.0417V21.875C2.0833 20.1521 3.48535 18.75 5.2083 18.75H44.7917ZM5.2083 12.5C3.48535 12.5 2.0833 11.0979 2.0833 9.375V5.2083C2.0833 3.48535 3.48535 2.0833 5.2083 2.0833H44.7916C46.5145 2.0833 47.9166 3.48535 47.9166 5.2083V9.375C47.9166 11.0979 46.5145 12.5 44.7916 12.5H5.2083Z" fill="currentColor"/><path d="M34.3757 4.1665C33.8007 4.1665 33.334 4.6332 33.334 5.2082V9.3748C33.334 9.9498 33.8007 10.4165 34.3757 10.4165C34.9507 10.4165 35.4173 9.9498 35.4173 9.3748V5.20811C35.4173 4.63311 34.9507 4.1665 34.3757 4.1665Z" fill="currentColor"/><path d="M7.29102 4.1665C5.56807 4.1665 4.16602 5.56855 4.16602 7.2915C4.16602 9.01445 5.56807 10.4165 7.29102 10.4165C9.01397 10.4165 10.416 9.01445 10.416 7.2915C10.416 5.56855 9.01387 4.1665 7.29102 4.1665ZM7.29102 8.33311C6.71602 8.33311 6.24932 7.86436 6.24932 7.29141C6.24932 6.71855 6.71602 6.2498 7.29102 6.2498C7.86602 6.2498 8.33272 6.71855 8.33272 7.2915C8.33262 7.86436 7.86602 8.33311 7.29102 8.33311Z" fill="currentColor"/><path d="M30.2077 4.1665C29.6327 4.1665 29.166 4.6332 29.166 5.2082V9.3748C29.166 9.9498 29.6327 10.4165 30.2077 10.4165C30.7827 10.4165 31.2494 9.9498 31.2494 9.3748V5.20811C31.2494 4.63311 30.7827 4.1665 30.2077 4.1665Z" fill="currentColor"/></svg>