<svg xmlns="http://www.w3.org/2000/svg" width="50" height="50" viewBox="0 0 50 50" fill="none"><path d="M42.7065 4.16748C42.1315 4.16748 41.6648 4.63416 41.6648 5.20914V9.37567C41.6648 9.95064 42.1315 10.4173 42.7065 10.4173C43.2814 10.4173 43.7481 9.95064 43.7481 9.37567V5.20914C43.7481 4.63416 43.2814 4.16748 42.7065 4.16748Z" fill="currentColor"/><path d="M38.5402 4.16748C37.9652 4.16748 37.4985 4.63416 37.4985 5.20914V9.37567C37.4985 9.95064 37.9652 10.4173 38.5402 10.4173C39.1152 10.4173 39.5818 9.95064 39.5818 9.37567V5.20914C39.5818 4.63416 39.1152 4.16748 38.5402 4.16748Z" fill="currentColor"/><path d="M7.29138 4.16748C5.5685 4.16748 4.1665 5.56947 4.1665 7.29235C4.1665 9.01523 5.5685 10.4172 7.29138 10.4172C9.01425 10.4172 10.4162 9.01523 10.4162 7.29235C10.4162 5.56957 9.01416 4.16748 7.29138 4.16748ZM7.29138 8.33401C6.7164 8.33401 6.24972 7.86733 6.24972 7.29235C6.24972 6.71738 6.7164 6.2507 7.29138 6.2507C7.86635 6.2507 8.33303 6.71738 8.33303 7.29235C8.33303 7.86733 7.86635 8.33401 7.29138 8.33401Z" fill="currentColor"/><path d="M30.2069 4.16748C29.632 4.16748 29.1653 4.63416 29.1653 5.20914V9.37567C29.1653 9.95064 29.632 10.4173 30.2069 10.4173C30.7819 10.4173 31.2486 9.95064 31.2486 9.37567V5.20914C31.2486 4.63416 30.7819 4.16748 30.2069 4.16748Z" fill="currentColor"/><path d="M34.3737 4.16748C33.7987 4.16748 33.332 4.63416 33.332 5.20914V9.37567C33.332 9.95064 33.7987 10.4173 34.3737 10.4173C34.9487 10.4173 35.4153 9.95064 35.4153 9.37567V5.20914C35.4153 4.63416 34.9487 4.16748 34.3737 4.16748Z" fill="currentColor"/><path d="M29.1655 21.8753V26.0418C29.1655 26.6168 29.6322 27.0834 30.2072 27.0834C30.7822 27.0834 31.2487 26.6167 31.2487 26.0417V21.8752C31.2487 21.3002 30.7821 20.8335 30.2071 20.8335C29.6321 20.8335 29.1655 21.3003 29.1655 21.8753Z" fill="currentColor"/><path d="M28.5071 37.4994H24.999V36.4578C24.999 35.8828 24.5323 35.4161 23.9573 35.4161H22.9157V34.3745C22.9157 33.7995 22.449 33.3328 21.874 33.3328H20.8323V31.2496H36.4588C37.0358 31.2496 37.5004 30.7829 37.5004 30.2079C37.5004 29.633 37.0337 29.1663 36.4588 29.1663H5.20809C3.48521 29.1663 2.08322 27.7643 2.08322 26.0414V21.8749C2.08322 20.152 3.48521 18.75 5.20809 18.75H44.7898C46.5126 18.75 47.9146 20.152 47.9146 21.8749V26.0414C47.9146 27.1934 47.2689 28.2496 46.2293 28.7955C45.721 29.0622 45.5251 29.6913 45.7918 30.2017C46.0585 30.71 46.6875 30.9037 47.198 30.6392C48.923 29.731 49.998 27.9706 49.998 26.0415V21.875C49.998 19.0043 47.6605 16.6669 44.7899 16.6669H20.8324V14.5837H44.7898C47.6604 14.5837 49.9979 12.2463 49.9979 9.37559V5.20906C49.9979 2.33838 47.6604 0.000976562 44.7898 0.000976562H5.20809C2.3374 0.000976562 0 2.33838 0 5.20906V9.37559C0 12.2463 2.3374 14.5837 5.20809 14.5837H18.7492V16.6669H5.20809C2.3374 16.6669 0 19.0043 0 21.8751V26.0416C0 28.9123 2.3374 31.2497 5.20809 31.2497H18.7492V33.3329H17.7076C17.1326 33.3329 16.6659 33.7996 16.6659 34.3746V35.4162H15.6244C15.0494 35.4162 14.5827 35.8829 14.5827 36.4579V37.4995H5.20809C4.63311 37.4995 4.16643 37.9662 4.16643 38.5412C4.16643 39.1162 4.63311 39.5829 5.20809 39.5829H14.5827V40.6245C14.5827 41.1995 15.0494 41.6662 15.6244 41.6662H23.9573C24.5323 41.6662 24.999 41.1995 24.999 40.6245V39.5829H28.5071C29.0821 39.5829 29.5488 39.1162 29.5488 38.5412C29.5488 37.9662 29.0821 37.4994 28.5071 37.4994ZM5.20809 12.5005C3.48521 12.5005 2.08322 11.0985 2.08322 9.37559V5.20906C2.08322 3.48619 3.48521 2.08419 5.20809 2.08419H44.7898C46.5126 2.08419 47.9146 3.48619 47.9146 5.20906V9.37559C47.9146 11.0985 46.5126 12.5005 44.7898 12.5005H5.20809ZM22.9158 39.5827H16.666V37.4994H17.7077C18.2826 37.4994 18.7493 37.0328 18.7493 36.4578V35.4161H20.8325V36.4578C20.8325 37.0328 21.2992 37.4994 21.8742 37.4994H22.9159L22.9158 39.5827Z" fill="currentColor"/><path d="M4.1665 23.9584C4.1665 25.6812 5.5685 27.0832 7.29138 27.0832C9.01425 27.0832 10.4162 25.6812 10.4162 23.9584C10.4162 22.2355 9.01425 20.8335 7.29138 20.8335C5.5685 20.8335 4.1665 22.2355 4.1665 23.9584ZM8.33293 23.9584C8.33293 24.5333 7.86625 25 7.29128 25C6.7163 25 6.24972 24.5333 6.24972 23.9584C6.24972 23.3834 6.7164 22.9167 7.29138 22.9167C7.86635 22.9167 8.33293 23.3834 8.33293 23.9584Z" fill="currentColor"/><path d="M40.6253 31.2495C40.0504 31.2495 39.5837 31.7162 39.5837 32.2912V33.3328C34.9881 33.3328 31.2507 37.0702 31.2507 41.6658C31.2507 46.2614 34.9881 49.9987 39.5837 49.9987C44.1793 49.9987 47.9167 46.2614 47.9167 41.6658H48.9583C49.5353 41.6658 50 41.1991 50 40.6241C49.9979 35.4556 45.7939 31.2495 40.6253 31.2495ZM39.5838 47.9154C36.1381 47.9154 33.334 45.1113 33.334 41.6657C33.334 38.22 36.1381 35.4159 39.5838 35.4159V40.624C39.5838 41.199 40.0505 41.6657 40.6254 41.6657H45.8335C45.8335 45.1114 43.0295 47.9154 39.5838 47.9154ZM41.667 39.5825V33.4077C44.8544 33.864 47.3835 36.3931 47.8418 39.5825H41.667Z" fill="currentColor"/><path d="M33.332 21.8752V26.0417C33.332 26.6167 33.7987 27.0833 34.3737 27.0833C34.9487 27.0833 35.4153 26.6167 35.4153 26.0417V21.8752C35.4153 21.3002 34.9487 20.8335 34.3737 20.8335C33.7987 20.8335 33.332 21.3002 33.332 21.8752Z" fill="currentColor"/><path d="M41.665 21.8752V26.0417C41.665 26.6167 42.1317 27.0833 42.7067 27.0833C43.2817 27.0833 43.7484 26.6167 43.7484 26.0417V21.8752C43.7484 21.3002 43.2817 20.8335 42.7067 20.8335C42.1316 20.8335 41.665 21.3002 41.665 21.8752Z" fill="currentColor"/><path d="M37.4985 21.8752V26.0417C37.4985 26.6167 37.9652 27.0833 38.5402 27.0833C39.1152 27.0833 39.5818 26.6167 39.5818 26.0417V21.8752C39.5818 21.3002 39.1152 20.8335 38.5402 20.8335C37.9652 20.8335 37.4985 21.3002 37.4985 21.8752Z" fill="currentColor"/></svg>