<svg xmlns="http://www.w3.org/2000/svg" width="50" height="50" viewBox="0 0 50 50" fill="none"><path d="M43.7494 21.8752C43.7494 21.3002 43.2827 20.8335 42.7077 20.8335C42.1327 20.8335 41.666 21.3002 41.666 21.8752V21.9647C41.666 22.5397 42.1327 22.9605 42.7077 22.9605C43.2827 22.9606 43.7494 22.4502 43.7494 21.8752Z" fill="currentColor"/><path d="M35.4173 26.0419V21.8752C35.4173 21.3002 34.9507 20.8335 34.3757 20.8335C33.8007 20.8335 33.334 21.3002 33.334 21.8752V26.0419C33.334 26.6169 33.8007 27.0836 34.3757 27.0836C34.9507 27.0835 35.4173 26.6169 35.4173 26.0419Z" fill="currentColor"/><path d="M43.7494 33.3333C46.0474 33.3333 47.9161 31.4645 47.9161 29.1666C47.9161 26.8687 46.0474 25 43.7494 25C41.4515 25 39.5827 26.8687 39.5827 29.1667C39.5827 29.2959 39.6098 29.4187 39.6202 29.5459L29.866 34.4229C29.1285 33.7521 28.1577 33.3334 27.0827 33.3334C24.7848 33.3334 22.916 35.2021 22.916 37.5001C22.916 39.798 24.7848 41.6668 27.0827 41.6668C28.1577 41.6668 29.1285 41.248 29.8682 40.5772L39.6224 45.4543C39.6099 45.5813 39.5828 45.7043 39.5828 45.8335C39.5827 48.1312 41.4515 50 43.7494 50C46.0474 50 47.9161 48.1313 47.9161 45.8333C47.9161 43.5354 46.0474 41.6666 43.7494 41.6666C42.3286 41.6666 41.0744 42.3833 40.3202 43.4729L31.014 38.8187C31.1557 38.4021 31.2494 37.9646 31.2494 37.5C31.2494 37.0354 31.1557 36.5958 31.014 36.1792L40.3202 31.5271C41.0724 32.6167 42.3286 33.3333 43.7494 33.3333ZM43.7494 27.0833C44.8974 27.0833 45.8327 28.0187 45.8327 29.1666C45.8327 30.3145 44.8973 31.2499 43.7494 31.2499C42.6015 31.2499 41.6661 30.3145 41.6661 29.1666C41.6661 28.0187 42.6015 27.0833 43.7494 27.0833ZM27.0827 39.5833C25.9349 39.5833 24.9994 38.6479 24.9994 37.5C24.9994 36.3521 25.9349 35.4167 27.0827 35.4167C28.2307 35.4167 29.166 36.3521 29.166 37.5C29.1661 38.6479 28.2307 39.5833 27.0827 39.5833ZM43.7494 43.75C44.8974 43.75 45.8327 44.6854 45.8327 45.8333C45.8327 46.9813 44.8973 47.9166 43.7494 47.9166C42.6015 47.9166 41.6661 46.9812 41.6661 45.8333C41.6661 44.6854 42.6015 43.75 43.7494 43.75Z" fill="currentColor"/><path d="M39.5833 24.1085V21.8752C39.5833 21.3002 39.1166 20.8335 38.5416 20.8335C37.9666 20.8335 37.5 21.3002 37.5 21.8752V24.1085C37.5 24.6835 37.9667 25.1502 38.5417 25.1502C39.1167 25.1502 39.5833 24.6856 39.5833 24.1085Z" fill="currentColor"/><path d="M42.7077 4.1665C42.1327 4.1665 41.666 4.6332 41.666 5.2082V9.3748C41.666 9.9498 42.1327 10.4165 42.7077 10.4165C43.2827 10.4165 43.7494 9.9498 43.7494 9.3748V5.20811C43.7494 4.63311 43.2827 4.1665 42.7077 4.1665Z" fill="currentColor"/><path d="M29.166 21.8752V26.0419C29.166 26.6169 29.6327 27.0836 30.2077 27.0836C30.7827 27.0836 31.2493 26.6169 31.2493 26.0419V21.8752C31.2493 21.3002 30.7827 20.8335 30.2077 20.8335C29.6327 20.8335 29.166 21.3002 29.166 21.8752Z" fill="currentColor"/><path d="M7.29102 4.1665C5.56807 4.1665 4.16602 5.56855 4.16602 7.2915C4.16602 9.01445 5.56807 10.4165 7.29102 10.4165C9.01397 10.4165 10.416 9.01445 10.416 7.2915C10.416 5.56855 9.01387 4.1665 7.29102 4.1665ZM7.29102 8.33311C6.71602 8.33311 6.24932 7.8665 6.24932 7.2915C6.24932 6.7165 6.71602 6.2498 7.29102 6.2498C7.86602 6.2498 8.33272 6.7165 8.33272 7.2915C8.33272 7.8665 7.86602 8.33311 7.29102 8.33311Z" fill="currentColor"/><path d="M4.16602 23.9585C4.16602 25.6814 5.56807 27.0835 7.29102 27.0835C9.01397 27.0835 10.416 25.6814 10.416 23.9585C10.416 22.2355 9.01397 20.8335 7.29102 20.8335C5.56807 20.8335 4.16602 22.2356 4.16602 23.9585ZM8.33262 23.9585C8.33262 24.5335 7.86592 25.0002 7.29092 25.0002C6.71592 25.0002 6.24932 24.5335 6.24932 23.9585C6.24932 23.3835 6.71602 22.9168 7.29102 22.9168C7.86602 22.9168 8.33262 23.3835 8.33262 23.9585Z" fill="currentColor"/><path d="M44.7917 14.5833C47.6625 14.5833 50 12.2458 50 9.375V5.2083C50 2.3375 47.6625 0 44.7917 0H5.2083C2.3375 0 0 2.3375 0 5.2083V9.375C0 12.2458 2.3375 14.5833 5.2083 14.5833H18.75V16.6666H5.2083C2.3375 16.6667 0 19.0042 0 21.875V26.0417C0 28.9125 2.3375 31.25 5.2083 31.25H18.75V33.3333H17.7083C17.1333 33.3333 16.6666 33.8 16.6666 34.375V35.4167H15.625C15.05 35.4167 14.5833 35.8834 14.5833 36.4584V37.5H5.2083C4.6333 37.5 4.1666 37.9667 4.1666 38.5417C4.1666 39.1167 4.6333 39.5834 5.2083 39.5834H14.5833V40.625C14.5833 41.2 15.05 41.6667 15.625 41.6667H20.5229C21.0979 41.6667 21.5646 41.2 21.5646 40.625C21.5646 40.05 21.0979 39.5833 20.5229 39.5833H16.6667V37.5H17.7084C18.2834 37.5 18.7501 37.0333 18.7501 36.4583V35.4166H20.523C21.098 35.4166 21.5647 34.9499 21.5647 34.3749C21.5647 33.9104 21.2543 33.5291 20.8335 33.3957V31.25H31.3064C31.8835 31.25 32.3481 30.7833 32.3481 30.2083C32.3481 29.6333 31.8814 29.1666 31.3064 29.1666H5.2083C3.48535 29.1666 2.0833 27.7645 2.0833 26.0416V21.875C2.0833 20.1521 3.48535 18.75 5.2083 18.75H44.7916C46.5145 18.75 47.9166 20.1521 47.9166 21.875V24.0792C47.9166 24.6542 48.3833 25.1209 48.9583 25.1209C49.5333 25.1209 50 24.6542 50 24.0792V21.875C50 19.0042 47.6625 16.6667 44.7917 16.6667H20.8333V14.5834L44.7917 14.5833ZM5.2083 12.5C3.48535 12.5 2.0833 11.0979 2.0833 9.375V5.2083C2.0833 3.48535 3.48535 2.0833 5.2083 2.0833H44.7916C46.5145 2.0833 47.9166 3.48535 47.9166 5.2083V9.375C47.9166 11.0979 46.5145 12.5 44.7916 12.5H5.2083Z" fill="currentColor"/><path d="M30.2077 4.1665C29.6327 4.1665 29.166 4.6332 29.166 5.2082V9.3748C29.166 9.9498 29.6327 10.4165 30.2077 10.4165C30.7827 10.4165 31.2494 9.9498 31.2494 9.3748V5.20811C31.2494 4.63311 30.7827 4.1665 30.2077 4.1665Z" fill="currentColor"/><path d="M38.5417 4.1665C37.9667 4.1665 37.5 4.6332 37.5 5.2082V9.3748C37.5 9.9498 37.9667 10.4165 38.5417 10.4165C39.1167 10.4165 39.5834 9.9498 39.5834 9.3748V5.20811C39.5833 4.63311 39.1167 4.1665 38.5417 4.1665Z" fill="currentColor"/><path d="M34.3757 4.1665C33.8007 4.1665 33.334 4.6332 33.334 5.2082V9.3748C33.334 9.9498 33.8007 10.4165 34.3757 10.4165C34.9507 10.4165 35.4173 9.9498 35.4173 9.3748V5.20811C35.4173 4.63311 34.9507 4.1665 34.3757 4.1665Z" fill="currentColor"/></svg>