<svg xmlns="http://www.w3.org/2000/svg" width="454" height="443" viewBox="0 0 454 443" fill="none"><path d="M357.651 330.103C366.382 339.505 370.921 351.724 370.438 364.544C369.967 377.346 364.523 389.22 355.121 397.952L321.025 429.612C314.477 435.686 306.558 439.688 298.109 441.415C290.521 442.966 282.497 442.695 274.639 440.447C184.208 414.753 124.656 361.323 97.2072 331.772C36.3809 266.273 11.7551 194.519 1.79875 145.879C-1.55225 129.482 3.82525 112.804 16.203 101.292L50.3139 69.6291C59.7004 60.9009 71.9191 56.3625 84.7551 56.8422C97.5561 57.3125 109.428 62.7415 118.144 72.147L150.806 107.311C168.817 126.722 167.686 157.148 148.291 175.157L130.625 191.554C125.326 196.474 123.891 204.476 127.24 210.552C138.307 230.745 151.882 249.544 167.567 266.442C183.208 283.283 200.933 298.179 220.221 310.732C226.19 314.607 234.113 313.821 239.508 308.815L257.159 292.421C276.516 274.388 306.977 275.528 325.001 294.92L357.667 330.1L357.651 330.103ZM226.404 160.63C261.654 158.913 291.714 186.216 293.427 221.45C293.86 230.278 301.36 237.091 310.188 236.658C311.028 236.617 311.841 236.516 312.64 236.353C320.243 234.799 325.787 227.885 325.396 219.898C322.821 167.023 277.73 126.102 224.868 128.658C216.062 129.119 209.227 136.591 209.656 145.403C210.089 154.231 217.589 161.044 226.401 160.614L226.404 160.63ZM221.751 64.7402C213.001 65.1565 206.11 72.672 206.542 81.501C206.972 90.313 214.471 97.125 223.303 96.709C257.455 95.053 290.198 106.799 315.52 129.778C340.841 152.758 355.696 184.212 357.352 218.364C357.781 227.177 365.281 233.989 374.112 233.572C374.937 233.534 375.765 233.431 376.565 233.267C384.168 231.713 389.712 224.799 389.32 216.812C387.259 174.12 368.69 134.802 337.034 106.079C305.378 77.3549 264.442 62.6784 221.751 64.7402ZM218.649 0.818657C209.862 1.29166 203.009 8.75096 203.441 17.5792C203.87 26.3917 211.37 33.204 220.201 32.7873C325.939 27.656 416.139 109.509 421.273 215.263C421.702 224.075 429.202 230.888 438.034 230.471C438.859 230.433 439.687 230.329 440.486 230.166C448.089 228.612 453.633 221.698 453.242 213.71C447.268 90.344 342.034 -5.14284 218.652 0.834356L218.649 0.818657Z" fill="currentColor"/></svg>