<svg xmlns="http://www.w3.org/2000/svg" width="60" height="60" viewBox="0 0 60 60" fill="none"><path d="M5 33.75C5 34.44 5.56004 35.0001 6.25004 35.0001C6.94004 35.0001 7.49996 34.44 7.49996 33.75C7.49996 33.06 6.93992 32.5 6.24992 32.5C5.55992 32.5 5 33.06 5 33.75Z" fill="url(#paint0_linear_76_57)"/><path d="M48.75 35C49.1925 35 49.6025 34.7651 49.8275 34.385C50.87 32.6175 60 16.9475 60 11.25C60 5.0475 54.9525 0 48.75 0C42.5475 0 37.5 5.0475 37.5 11.25C37.5 16.9475 46.63 32.6175 47.6725 34.385C47.8975 34.765 48.3075 35 48.75 35ZM48.75 2.49996C53.575 2.49996 57.5 6.42492 57.5 11.25C57.5 15.02 51.92 25.655 48.75 31.2475C45.58 25.655 40 15.02 40 11.25C40 6.42504 43.925 2.49996 48.75 2.49996Z" fill="url(#paint1_linear_76_57)"/><path d="M33.75 32.5C33.06 32.5 32.5 33.06 32.5 33.75C32.5 34.44 33.06 35.0001 33.75 35.0001H42.975C43.6675 35.0001 44.2251 34.44 44.2251 33.75C44.2251 33.06 43.665 32.5 42.975 32.5H33.75Z" fill="url(#paint2_linear_76_57)"/><path d="M54.9999 11.25C54.9999 7.805 52.1974 5 48.75 5C45.3024 5 42.5 7.805 42.5 11.25C42.5 14.6949 45.3025 17.4999 48.75 17.4999C52.1975 17.4999 54.9999 14.6949 54.9999 11.25ZM45 11.25C45 9.18242 46.6824 7.49996 48.75 7.49996C50.8175 7.49996 52.5 9.18242 52.5 11.25C52.5 13.3175 50.8175 15 48.75 15C46.6824 15 45 13.3175 45 11.25Z" fill="url(#paint3_linear_76_57)"/><path d="M6.25004 52.5C5.56004 52.5 5 53.06 5 53.75C5 54.44 5.56004 55.0001 6.25004 55.0001C6.94004 55.0001 7.50008 54.44 7.50008 53.75C7.50008 53.06 6.94004 52.5 6.25004 52.5Z" fill="url(#paint4_linear_76_57)"/><path d="M43.75 42.5H33.75C33.06 42.5 32.5 43.06 32.5 43.75C32.5 44.44 33.06 45.0001 33.75 45.0001H43.75C44.44 45.0001 45 44.44 45 43.75C45 43.0599 44.44 42.5 43.75 42.5Z" fill="url(#paint5_linear_76_57)"/><path d="M6.25004 42.5C5.56004 42.5 5 43.06 5 43.75C5 44.44 5.56004 45.0001 6.25004 45.0001C6.94004 45.0001 7.50008 44.4399 7.50008 43.7499C7.50008 43.0599 6.94004 42.5 6.25004 42.5Z" fill="url(#paint6_linear_76_57)"/><path d="M46.25 37.5H3.75C3.06246 37.5 2.49996 36.9399 2.49996 36.2499V31.2499C2.49996 30.5599 3.06246 29.9998 3.75 29.9998H40.245C40.935 29.9998 41.495 29.4398 41.495 28.7498C41.495 28.0598 40.935 27.4998 40.245 27.4998H3.75C1.68246 27.4998 0 29.1822 0 31.2498V36.2498C0 37.2123 0.375 38.0848 0.975 38.7498C0.375 39.4149 0 40.2875 0 41.25V46.25C0 47.2125 0.375 48.0849 0.975 48.75C0.375 49.415 0 50.2875 0 51.2499V56.25C0 58.3175 1.68246 60 3.75 60H46.25C48.3176 60 50 58.3175 50 56.25V51.2499C50 50.2875 49.625 49.4149 49.025 48.75C49.625 48.0849 50 47.2125 50 46.25V41.25C50 39.1824 48.3175 37.5 46.25 37.5ZM47.5 56.25C47.5 56.94 46.9375 57.5 46.2499 57.5H3.75C3.06246 57.5 2.49996 56.94 2.49996 56.25V51.2499C2.49996 50.5599 3.06246 49.9999 3.75 49.9999H46.25C46.9376 49.9999 47.5001 50.5599 47.5001 51.2499L47.5 56.25ZM47.5 46.25C47.5 46.94 46.9375 47.5 46.2499 47.5H3.75C3.06246 47.5 2.49996 46.94 2.49996 46.25V41.25C2.49996 40.56 3.06246 39.9999 3.75 39.9999H46.25C46.9376 39.9999 47.5001 40.56 47.5001 41.25L47.5 46.25Z" fill="url(#paint7_linear_76_57)"/><path d="M43.75 52.5H33.75C33.06 52.5 32.5 53.06 32.5 53.75C32.5 54.44 33.06 55.0001 33.75 55.0001H43.75C44.44 55.0001 45 54.44 45 53.75C45 53.06 44.44 52.5 43.75 52.5Z" fill="url(#paint8_linear_76_57)"/><defs><linearGradient id="paint0_linear_76_57" x1="5" y1="33.75" x2="7.49996" y2="33.75" gradientUnits="userSpaceOnUse"><stop stop-color="#0568EA"/><stop offset="1" stop-color="#08B5F7"/></linearGradient><linearGradient id="paint1_linear_76_57" x1="37.5" y1="17.5" x2="60" y2="17.5" gradientUnits="userSpaceOnUse"><stop stop-color="#0568EA"/><stop offset="1" stop-color="#08B5F7"/></linearGradient><linearGradient id="paint2_linear_76_57" x1="32.5" y1="33.75" x2="44.2251" y2="33.75" gradientUnits="userSpaceOnUse"><stop stop-color="#0568EA"/><stop offset="1" stop-color="#08B5F7"/></linearGradient><linearGradient id="paint3_linear_76_57" x1="42.5" y1="11.25" x2="54.9999" y2="11.25" gradientUnits="userSpaceOnUse"><stop stop-color="#0568EA"/><stop offset="1" stop-color="#08B5F7"/></linearGradient><linearGradient id="paint4_linear_76_57" x1="5" y1="53.75" x2="7.50008" y2="53.75" gradientUnits="userSpaceOnUse"><stop stop-color="#0568EA"/><stop offset="1" stop-color="#08B5F7"/></linearGradient><linearGradient id="paint5_linear_76_57" x1="32.5" y1="43.75" x2="45" y2="43.75" gradientUnits="userSpaceOnUse"><stop stop-color="#0568EA"/><stop offset="1" stop-color="#08B5F7"/></linearGradient><linearGradient id="paint6_linear_76_57" x1="5" y1="43.75" x2="7.50008" y2="43.75" gradientUnits="userSpaceOnUse"><stop stop-color="#0568EA"/><stop offset="1" stop-color="#08B5F7"/></linearGradient><linearGradient id="paint7_linear_76_57" x1="0" y1="43.7499" x2="50" y2="43.7499" gradientUnits="userSpaceOnUse"><stop stop-color="#0568EA"/><stop offset="1" stop-color="#08B5F7"/></linearGradient><linearGradient id="paint8_linear_76_57" x1="32.5" y1="53.75" x2="45" y2="53.75" gradientUnits="userSpaceOnUse"><stop stop-color="#0568EA"/><stop offset="1" stop-color="#08B5F7"/></linearGradient></defs></svg>