<svg xmlns="http://www.w3.org/2000/svg" width="60" height="60" viewBox="0 0 60 60" fill="none"><path d="M33.205 56.8575C30.5425 57.285 27.78 57.5 25 57.5C11.74 57.5 2.49996 52.8875 2.49996 48.75V41.205C6.50742 44.96 14.9625 47.5 25 47.5C26.31 47.5 27.585 47.4475 28.8424 47.3599C29.5324 47.3149 30.0524 46.7174 30.0049 46.0274C29.9599 45.3374 29.3575 44.8199 28.6724 44.8649C27.4724 44.9474 26.2523 44.9999 24.9998 44.9999C11.7398 44.9999 2.49984 40.3874 2.49984 36.2498V28.7048C6.5073 32.4599 14.9624 34.9998 24.9998 34.9998C28.5648 34.9998 32.0348 34.6698 35.3174 34.0223C35.9974 33.8873 36.4373 33.2324 36.3023 32.5548C36.1673 31.8748 35.4974 31.4248 34.8348 31.5698C31.7098 32.1873 28.3998 32.4998 24.9998 32.4998C11.7398 32.4998 2.49984 27.8873 2.49984 23.7498V16.2048C6.50754 19.96 14.9625 22.5 25 22.5C35.0374 22.5 43.4925 19.96 47.5 16.205V23.75C47.5 25.4475 46.0099 26.8751 44.76 27.7751C44.2 28.1801 44.0725 28.9601 44.475 29.5201C44.72 29.8601 45.1025 30.0401 45.49 30.0401C45.745 30.0401 46 29.9626 46.2199 29.8025C46.705 29.4551 47.1049 29.085 47.5 28.715V28.95C47.5 29.64 48.06 30.2 48.75 30.2C49.44 30.2 50 29.64 50 28.95V11.25C50 4.9425 39.0176 0 25.0001 0C10.9826 0 0 4.9425 0 11.25V48.75C0 55.0575 10.9825 60 25 60C27.9124 60 30.805 59.7725 33.6 59.3275C34.28 59.2174 34.745 58.5775 34.6375 57.895C34.5275 57.2125 33.89 56.76 33.205 56.8575ZM25 2.49996C38.26 2.49996 47.5 7.11246 47.5 11.25C47.5 15.3875 38.26 20 25 20C11.74 20 2.49996 15.3875 2.49996 11.25C2.49996 7.11246 11.74 2.49996 25 2.49996Z" fill="url(#paint0_linear_1_857)"/><path d="M46.25 32.5C38.6699 32.5 32.5 38.67 32.5 46.2499C32.5 53.8298 38.6699 60 46.25 60C53.83 60 59.9999 53.83 59.9999 46.25C59.9999 38.6701 53.8299 32.5 46.25 32.5ZM46.25 57.5C40.0475 57.5 35 52.4525 35 46.25C35 40.0475 40.0475 35 46.25 35C52.4525 35 57.5 40.0475 57.5 46.25C57.5 52.4525 52.4525 57.5 46.25 57.5Z" fill="url(#paint1_linear_1_857)"/><path d="M47.4999 45.2525V40.155C48.8774 40.49 49.9199 41.3525 50.0049 42.365C50.0598 43.0526 50.7224 43.5476 51.3549 43.505C52.0424 43.4475 52.5524 42.8426 52.4949 42.155C52.2699 39.5025 49.5875 37.5 46.2549 37.5H46.2524C46.2524 37.5 46.2524 37.5 46.25 37.5H46.2475C42.8 37.505 40 39.745 40 42.5C40 44.8451 41.64 46.425 45 47.2475V52.3451C43.6225 52.01 42.58 51.1475 42.495 50.135C42.4401 49.4475 41.7625 48.9326 41.145 48.995C40.4575 49.0526 39.9475 49.6575 40.005 50.345C40.23 52.9976 42.9126 55.0001 46.245 55.0001H46.2475C46.2475 55.0001 46.2475 55.0001 46.25 55.0001H46.2524C49.7 54.995 52.4999 52.755 52.4999 50C52.4999 47.66 50.8649 46.0825 47.4999 45.2525ZM44.9999 44.6675C43.3349 44.1875 42.5 43.4925 42.5 42.5C42.5 41.4375 43.5625 40.5125 44.9999 40.16V44.6675ZM47.4999 52.34V47.8325C49.1649 48.3125 49.9998 49.0076 49.9998 50C50 51.0625 48.9374 51.9875 47.4999 52.34Z" fill="url(#paint2_linear_1_857)"/><defs><linearGradient id="paint0_linear_1_857" x1="0" y1="30" x2="50" y2="30" gradientUnits="userSpaceOnUse"><stop stop-color="#0568EA"/><stop offset="1" stop-color="#08B5F7"/></linearGradient><linearGradient id="paint1_linear_1_857" x1="32.5" y1="46.25" x2="59.9999" y2="46.25" gradientUnits="userSpaceOnUse"><stop stop-color="#0568EA"/><stop offset="1" stop-color="#08B5F7"/></linearGradient><linearGradient id="paint2_linear_1_857" x1="40" y1="46.25" x2="52.4999" y2="46.25" gradientUnits="userSpaceOnUse"><stop stop-color="#0568EA"/><stop offset="1" stop-color="#08B5F7"/></linearGradient></defs></svg>