<svg xmlns="http://www.w3.org/2000/svg" width="60" height="60" viewBox="0 0 60 60" fill="none"><path d="M43.75 52.5H33.75C33.06 52.5 32.5 53.06 32.5 53.75C32.5 54.44 33.06 55.0001 33.75 55.0001H43.75C44.44 55.0001 45 54.44 45 53.75C45 53.06 44.44 52.5 43.75 52.5Z" fill="url(#paint0_linear_1_884)"/><path d="M6.25004 52.5C5.56004 52.5 5 53.06 5 53.75C5 54.44 5.56004 55.0001 6.25004 55.0001C6.94004 55.0001 7.50008 54.44 7.50008 53.75C7.50008 53.06 6.94004 52.5 6.25004 52.5Z" fill="url(#paint1_linear_1_884)"/><path d="M58.75 0H13.75C13.06 0 12.5 0.560039 12.5 1.25004V33.75C12.5 34.44 13.06 35 13.75 35C14.44 35 15.0001 34.44 15.0001 33.75V2.49996H57.5001V40H53.7501C53.0601 40 52.5001 40.56 52.5001 41.25C52.5001 41.94 53.0601 42.5 53.7501 42.5H58.7502C59.4402 42.5 60.0002 41.94 60.0002 41.25V1.25004C60.0001 0.560039 59.44 0 58.75 0Z" fill="url(#paint2_linear_1_884)"/><path d="M43.75 42.5H33.75C33.06 42.5 32.5 43.0601 32.5 43.7501C32.5 44.4401 33.06 45.0001 33.75 45.0001H43.75C44.44 45.0001 45 44.4401 45 43.7501C45 43.06 44.44 42.5 43.75 42.5Z" fill="url(#paint3_linear_1_884)"/><path d="M52.0321 7.77752C51.4921 7.35002 50.7097 7.43252 50.2747 7.97252L41.3446 19.1376L39.7921 16.8101C39.5521 16.4501 39.1372 16.2276 38.7071 16.2551C38.2745 16.2676 37.8796 16.5076 37.6646 16.8826L33.6671 23.8751L29.7896 18.0576C29.552 17.7026 29.162 17.5001 28.7195 17.5001C28.2896 17.5126 27.897 17.7401 27.677 18.1076L20.177 30.6076C19.8221 31.2001 20.0145 31.9676 20.607 32.3227C20.807 32.4427 21.0295 32.5002 21.2495 32.5002C21.672 32.5002 22.0871 32.2852 22.317 31.8952L28.802 21.0877L32.7071 26.9452C32.9471 27.3027 33.3346 27.5326 33.7921 27.5002C34.2247 27.4876 34.6196 27.2476 34.8346 26.8726L38.8321 19.8802L40.2097 21.9477C40.4322 22.2802 40.7997 22.4852 41.1972 22.5027C41.5697 22.5202 41.9772 22.3452 42.2272 22.0352L52.2271 9.53521C52.6571 8.99498 52.5721 8.21005 52.0321 7.77752Z" fill="url(#paint4_linear_1_884)"/><path d="M46.25 37.5H3.75C1.68246 37.5 0 39.1825 0 41.25V46.25C0 47.2125 0.375 48.085 0.975 48.75C0.375 49.415 0 50.2875 0 51.25V56.25C0 58.3175 1.68246 60 3.75 60H46.25C48.3176 60 50 58.3175 50 56.25V51.25C50 50.2875 49.625 49.4149 49.025 48.75C49.625 48.085 50 47.2125 50 46.25V41.25C50 39.1825 48.3175 37.5 46.25 37.5ZM47.5 56.25C47.5 56.94 46.9375 57.5 46.2499 57.5H3.75C3.06246 57.5 2.49996 56.94 2.49996 56.25V51.25C2.49996 50.56 3.06246 49.9999 3.75 49.9999H46.25C46.9376 49.9999 47.5001 50.56 47.5001 51.25V56.25H47.5ZM47.5 46.25C47.5 46.94 46.9375 47.5001 46.2499 47.5001H3.75C3.06246 47.5001 2.49996 46.94 2.49996 46.25V41.25C2.49996 40.56 3.06246 40 3.75 40H46.25C46.9376 40 47.5001 40.56 47.5001 41.25V46.25H47.5Z" fill="url(#paint5_linear_1_884)"/><path d="M6.25004 42.5C5.56004 42.5 5 43.0601 5 43.7501C5 44.4401 5.56004 45.0001 6.25004 45.0001C6.94004 45.0001 7.50008 44.44 7.50008 43.75C7.50008 43.06 6.94004 42.5 6.25004 42.5Z" fill="url(#paint6_linear_1_884)"/><defs><linearGradient id="paint0_linear_1_884" x1="32.5" y1="53.75" x2="45" y2="53.75" gradientUnits="userSpaceOnUse"><stop stop-color="#0568EA"/><stop offset="1" stop-color="#08B5F7"/></linearGradient><linearGradient id="paint1_linear_1_884" x1="5" y1="53.75" x2="7.50008" y2="53.75" gradientUnits="userSpaceOnUse"><stop stop-color="#0568EA"/><stop offset="1" stop-color="#08B5F7"/></linearGradient><linearGradient id="paint2_linear_1_884" x1="12.5" y1="21.25" x2="60.0002" y2="21.25" gradientUnits="userSpaceOnUse"><stop stop-color="#0568EA"/><stop offset="1" stop-color="#08B5F7"/></linearGradient><linearGradient id="paint3_linear_1_884" x1="32.5" y1="43.7501" x2="45" y2="43.7501" gradientUnits="userSpaceOnUse"><stop stop-color="#0568EA"/><stop offset="1" stop-color="#08B5F7"/></linearGradient><linearGradient id="paint4_linear_1_884" x1="19.999" y1="20.0025" x2="52.5009" y2="20.0025" gradientUnits="userSpaceOnUse"><stop stop-color="#0568EA"/><stop offset="1" stop-color="#08B5F7"/></linearGradient><linearGradient id="paint5_linear_1_884" x1="0" y1="48.75" x2="50" y2="48.75" gradientUnits="userSpaceOnUse"><stop stop-color="#0568EA"/><stop offset="1" stop-color="#08B5F7"/></linearGradient><linearGradient id="paint6_linear_1_884" x1="5" y1="43.7501" x2="7.50008" y2="43.7501" gradientUnits="userSpaceOnUse"><stop stop-color="#0568EA"/><stop offset="1" stop-color="#08B5F7"/></linearGradient></defs></svg>