<svg xmlns="http://www.w3.org/2000/svg" width="60" height="60" viewBox="0 0 60 60" fill="none"><path d="M46.25 32.5C38.6675 32.5 32.5 38.67 32.5 46.25C32.5 53.8299 38.6675 60 46.25 60C53.8325 60 59.9999 53.83 59.9999 46.2501C59.9999 38.6702 53.8325 32.5 46.25 32.5ZM46.25 57.5001C40.0475 57.5001 35 52.4526 35 46.2501C35 40.0476 40.0475 35.0001 46.25 35.0001C52.4525 35.0001 57.5 40.0476 57.5 46.2501C57.5 52.4526 52.4525 57.5001 46.25 57.5001Z" fill="url(#paint0_linear_1_889)"/><path d="M33.2075 56.8575C30.5426 57.285 27.78 57.5 25.0001 57.5C11.7401 57.5 2.50008 52.8875 2.50008 48.75V41.205C6.50754 44.96 14.9626 47.5 25.0001 47.5C26.3101 47.5 27.5876 47.4475 28.8425 47.3599C29.5301 47.3149 30.0525 46.7174 30.005 46.0274C29.9576 45.3374 29.37 44.8223 28.6725 44.8649C27.4725 44.9474 26.2525 44.9999 25 44.9999C11.74 44.9999 2.49996 40.3874 2.49996 36.2498V28.7048C6.50742 32.4599 14.9625 34.9998 25 34.9998C28.5649 34.9998 32.035 34.6698 35.3175 34.0223C35.995 33.8873 36.435 33.2324 36.3025 32.5548C36.1675 31.8748 35.505 31.4248 34.8325 31.5698C31.71 32.1873 28.4025 32.4998 25 32.4998C11.74 32.4998 2.49996 27.8873 2.49996 23.7498V16.2048C6.50754 19.96 14.9625 22.5 25 22.5C35.0374 22.5 43.4925 19.96 47.5 16.205V23.75C47.5 25.4475 46.0099 26.8751 44.7625 27.7751C44.2024 28.1801 44.0749 28.9601 44.4775 29.5201C44.7199 29.8601 45.105 30.0401 45.4924 30.0401C45.745 30.0401 46 29.9626 46.2199 29.8051C46.705 29.4577 47.1049 29.0876 47.5 28.7152V28.9501C47.5 29.6401 48.06 30.2002 48.75 30.2002C49.44 30.2002 50 29.6401 50 28.9501V11.25C50 4.9425 39.0176 0 25.0001 0C10.9826 0 0 4.9425 0 11.25V48.75C0 55.0575 10.9825 60 25 60C27.9124 60 30.805 59.7725 33.6 59.3275C34.2825 59.2174 34.745 58.5775 34.6375 57.895C34.53 57.215 33.885 56.7625 33.2075 56.8575ZM25 2.49996C38.26 2.49996 47.5 7.11246 47.5 11.25C47.5 15.3875 38.26 20 25 20C11.74 20 2.49996 15.3875 2.49996 11.25C2.49996 7.11246 11.74 2.49996 25 2.49996Z" fill="url(#paint1_linear_1_889)"/><path d="M51.25 45H41.25C40.56 45 40 45.56 40 46.25C40 46.94 40.56 47.5001 41.25 47.5001H51.25C51.94 47.5001 52.5 46.94 52.5 46.25C52.5 45.56 51.94 45 51.25 45Z" fill="url(#paint2_linear_1_889)"/><defs><linearGradient id="paint0_linear_1_889" x1="32.5" y1="46.25" x2="59.9999" y2="46.25" gradientUnits="userSpaceOnUse"><stop stop-color="#0568EA"/><stop offset="1" stop-color="#08B5F7"/></linearGradient><linearGradient id="paint1_linear_1_889" x1="0" y1="30" x2="50" y2="30" gradientUnits="userSpaceOnUse"><stop stop-color="#0568EA"/><stop offset="1" stop-color="#08B5F7"/></linearGradient><linearGradient id="paint2_linear_1_889" x1="40" y1="46.25" x2="52.5" y2="46.25" gradientUnits="userSpaceOnUse"><stop stop-color="#0568EA"/><stop offset="1" stop-color="#08B5F7"/></linearGradient></defs></svg>