<svg xmlns="http://www.w3.org/2000/svg" width="60" height="60" viewBox="0 0 60 60" fill="none"><path d="M60 41.25C60 39.1825 58.3175 37.5 56.25 37.5H18.75C16.6825 37.5 15 39.1825 15 41.25V46.25C15 47.2125 15.375 48.0851 15.975 48.75C15.375 49.415 15 50.2875 15 51.25V56.25C15 58.3175 16.6825 60 18.75 60H56.25C58.3175 60 60 58.3175 60 56.25V51.25C60 50.2875 59.625 49.4149 59.025 48.75C59.625 48.085 60 47.2125 60 46.25V41.25ZM57.5 56.25C57.5 56.94 56.94 57.5 56.25 57.5H18.75C18.06 57.5 17.5 56.94 17.5 56.25V51.25C17.5 50.56 18.06 49.9999 18.75 49.9999H56.25C56.94 49.9999 57.5 50.56 57.5 51.25V56.25ZM57.5 46.25C57.5 46.94 56.94 47.5001 56.25 47.5001H18.75C18.06 47.5001 17.5 46.94 17.5 46.25V41.25C17.5 40.56 18.06 40 18.75 40H56.25C56.94 40 57.5 40.56 57.5 41.25V46.25Z" fill="url(#paint0_linear_1_897)"/><path d="M11.6725 55.7175C6.015 54.0325 2.49996 51.3625 2.49996 48.75V41.2375C4.3575 42.9775 7.18242 44.4775 10.89 45.5899C11.01 45.625 11.1325 45.6424 11.25 45.6424C11.7875 45.6424 12.285 45.295 12.4475 44.7524C12.6476 44.0899 12.2726 43.3949 11.61 43.1948C5.99004 41.5098 2.49996 38.8499 2.49996 36.2498V28.7048C6.50742 32.4599 14.9625 34.9998 25 34.9998C35.0374 34.9998 43.4925 32.4598 47.5 28.7048V33.75C47.5 34.44 48.06 35 48.75 35C49.44 35 50 34.44 50 33.75V11.25C50 4.9425 39.0176 0 25.0001 0C10.9826 0 0 4.9425 0 11.25V48.75C0 52.6275 3.99504 56.0375 10.96 58.1125C11.08 58.1475 11.2 58.165 11.3175 58.165C11.8575 58.165 12.3525 57.8149 12.5125 57.2725C12.7125 56.61 12.335 55.915 11.6725 55.7175ZM25 2.49996C38.26 2.49996 47.5 7.11246 47.5 11.25C47.5 15.3875 38.26 20 25 20C11.74 20 2.49996 15.3875 2.49996 11.25C2.49996 7.11246 11.74 2.49996 25 2.49996ZM2.49996 16.205C6.50754 19.96 14.9625 22.5 25 22.5C35.0374 22.5 43.4925 19.96 47.5 16.205V23.75C47.5 27.8876 38.26 32.5001 25 32.5001C11.74 32.5001 2.49996 27.8876 2.49996 23.75V16.205Z" fill="url(#paint1_linear_1_897)"/><path d="M53.75 52.5H43.75C43.06 52.5 42.5 53.06 42.5 53.75C42.5 54.44 43.06 55.0001 43.75 55.0001H53.75C54.44 55.0001 55 54.44 55 53.75C55 53.06 54.44 52.5 53.75 52.5Z" fill="url(#paint2_linear_1_897)"/><path d="M21.25 42.5C20.56 42.5 20 43.06 20 43.75C20 44.44 20.56 45.0001 21.25 45.0001C21.94 45.0001 22.5001 44.4399 22.5001 43.7499C22.5001 43.0599 21.94 42.5 21.25 42.5Z" fill="url(#paint3_linear_1_897)"/><path d="M21.25 52.5C20.56 52.5 20 53.06 20 53.75C20 54.44 20.56 55.0001 21.25 55.0001C21.94 55.0001 22.5001 54.44 22.5001 53.75C22.5001 53.06 21.94 52.5 21.25 52.5Z" fill="url(#paint4_linear_1_897)"/><path d="M53.75 42.5H43.75C43.06 42.5 42.5 43.06 42.5 43.75C42.5 44.44 43.06 45.0001 43.75 45.0001H53.75C54.44 45.0001 55 44.44 55 43.75C54.9999 43.0599 54.44 42.5 53.75 42.5Z" fill="url(#paint5_linear_1_897)"/><defs><linearGradient id="paint0_linear_1_897" x1="15" y1="48.75" x2="60" y2="48.75" gradientUnits="userSpaceOnUse"><stop stop-color="#0568EA"/><stop offset="1" stop-color="#08B5F7"/></linearGradient><linearGradient id="paint1_linear_1_897" x1="0" y1="29.0825" x2="50" y2="29.0825" gradientUnits="userSpaceOnUse"><stop stop-color="#0568EA"/><stop offset="1" stop-color="#08B5F7"/></linearGradient><linearGradient id="paint2_linear_1_897" x1="42.5" y1="53.75" x2="55" y2="53.75" gradientUnits="userSpaceOnUse"><stop stop-color="#0568EA"/><stop offset="1" stop-color="#08B5F7"/></linearGradient><linearGradient id="paint3_linear_1_897" x1="20" y1="43.75" x2="22.5001" y2="43.75" gradientUnits="userSpaceOnUse"><stop stop-color="#0568EA"/><stop offset="1" stop-color="#08B5F7"/></linearGradient><linearGradient id="paint4_linear_1_897" x1="20" y1="53.75" x2="22.5001" y2="53.75" gradientUnits="userSpaceOnUse"><stop stop-color="#0568EA"/><stop offset="1" stop-color="#08B5F7"/></linearGradient><linearGradient id="paint5_linear_1_897" x1="42.5" y1="43.75" x2="55" y2="43.75" gradientUnits="userSpaceOnUse"><stop stop-color="#0568EA"/><stop offset="1" stop-color="#08B5F7"/></linearGradient></defs></svg>