<svg xmlns="http://www.w3.org/2000/svg" width="60" height="60" viewBox="0 0 60 60" fill="none"><path d="M38.7486 52.4977H28.749C28.059 52.4977 27.499 53.0578 27.499 53.7477C27.499 54.4377 28.059 54.9977 28.749 54.9977H38.7486C39.4385 54.9977 39.9986 54.4377 39.9986 53.7477C39.9986 53.0578 39.4385 52.4977 38.7486 52.4977Z" fill="url(#paint0_linear_1_907)"/><path d="M6.24999 52.4977C5.55756 52.4977 5 53.0577 5 53.7477C5 54.4401 5.55744 54.9977 6.24999 54.9977C6.94242 54.9977 7.49998 54.4402 7.49998 53.7477C7.49998 53.0576 6.93996 52.4977 6.24999 52.4977Z" fill="url(#paint1_linear_1_907)"/><path d="M13.7499 34.9983C14.4398 34.9983 14.9999 34.4383 14.9999 33.7408V21.2414C14.9999 19.174 16.6823 17.4916 18.7497 17.4916H28.2344L27.8693 17.8566C27.3819 18.3441 27.3819 19.1366 27.8693 19.6241C28.3568 20.1115 29.1493 20.1115 29.6368 19.6241L32.1292 17.1317C32.1541 17.1067 32.1792 17.0792 32.2042 17.0517C32.3667 16.8591 32.4642 16.6292 32.4916 16.3917C32.5016 16.3167 32.5041 16.2417 32.4991 16.1717C32.4816 15.8817 32.3616 15.5943 32.1416 15.3693C32.1391 15.3693 32.1391 15.3693 32.1391 15.3693C32.1391 15.3693 32.1391 15.3693 32.1367 15.3693C32.1367 15.3668 32.1342 15.3668 32.1342 15.3668L29.6343 12.867C29.1469 12.3795 28.3543 12.3795 27.8669 12.867C27.6244 13.112 27.5018 13.4319 27.5018 13.7519C27.5018 14.0719 27.6218 14.3919 27.8669 14.6369L28.2319 14.9993H18.7497C15.3023 14.9993 12.5 17.8042 12.5 21.249V33.7486C12.5 34.4384 13.0599 34.9983 13.7499 34.9983Z" fill="url(#paint2_linear_1_907)"/><path d="M6.24999 42.498C5.55756 42.498 5 43.0581 5 43.748C5 44.4405 5.55744 44.998 6.24999 44.998C6.94242 44.998 7.49998 44.4406 7.49998 43.748C7.49998 43.0581 6.93996 42.498 6.24999 42.498Z" fill="url(#paint3_linear_1_907)"/><path d="M41.2483 37.4984H3.74985C1.68239 37.4984 0 39.1807 0 41.2482V46.248C0 47.2105 0.374985 48.083 0.97496 48.7479C0.374985 49.4154 0 50.2853 0 51.2478V56.2476C0 58.315 1.68239 59.9974 3.74985 59.9974H41.2483C43.3158 59.9974 44.9982 58.315 44.9982 56.2476V51.2478C44.9982 50.2853 44.6232 49.4128 44.0232 48.7479C44.6232 48.0829 44.9982 47.2105 44.9982 46.248V41.2482C44.9982 39.1807 43.3158 37.4984 41.2483 37.4984ZM42.4983 56.2476C42.4983 56.9376 41.9358 57.4976 41.2483 57.4976H3.74985C3.06234 57.4976 2.49986 56.9376 2.49986 56.2476V51.2478C2.49986 50.5578 3.06234 49.9978 3.74985 49.9978H41.2483C41.9358 49.9978 42.4983 50.5578 42.4983 51.2478V56.2476ZM42.4983 46.2479C42.4983 46.9379 41.9358 47.4979 41.2483 47.4979H3.74985C3.06234 47.4979 2.49986 46.9379 2.49986 46.2479V41.2481C2.49986 40.5581 3.06234 39.9981 3.74985 39.9981H41.2483C41.9358 39.9981 42.4983 40.5581 42.4983 41.2481V46.2479Z" fill="url(#paint4_linear_1_907)"/><path d="M54.8381 19.6341L51.0858 18.6966L50.9283 18.0691C51.9008 16.9942 52.5933 15.6217 52.8807 14.1968C53.5482 13.8518 54.0306 13.1969 54.1307 12.4094L54.4007 10.2345C54.4832 9.57453 54.2807 8.90952 53.8433 8.40962C53.7083 8.25716 53.5532 8.12217 53.3882 8.00967L53.4507 6.68223L53.6782 6.45477C54.3231 5.76984 55.1956 4.3074 53.8156 2.19741C53.1607 1.19491 51.8107 0 49.1058 0C48.3108 0 46.5134 0 44.7685 1.09496C39.6237 1.27741 39.0187 4.04983 39.0187 6.14225C39.0187 6.55473 39.0937 7.3272 39.1637 7.97217C38.9786 8.08971 38.8087 8.23466 38.6612 8.40212C38.2162 8.90706 38.0112 9.57453 38.0963 10.2371L38.3662 12.412C38.4688 13.2244 38.9863 13.8994 39.7486 14.232C40.0286 15.5944 40.6836 16.9144 41.596 17.9618L41.4136 18.6967L37.6613 19.6342C34.6239 20.3941 32.499 23.1141 32.499 26.2489C32.499 26.5814 32.629 26.9014 32.864 27.1339C33.0991 27.3664 33.4166 27.4989 33.749 27.4989L58.7505 27.4939C59.4405 27.4939 60.0005 26.9339 60.0005 26.2439C60.0004 23.1114 57.878 20.3915 54.8381 19.6341ZM35.1815 24.9964C35.6114 23.5714 36.7639 22.4365 38.2738 22.0565L42.7536 20.9366C43.2011 20.8241 43.551 20.474 43.6635 20.0266L44.196 17.8943C44.306 17.4542 44.1684 16.9893 43.836 16.6793C42.8635 15.7644 42.2185 14.4269 42.1135 13.102C42.061 12.4545 41.506 12.0945 40.8536 12.0945L40.5311 10.1047C40.8911 10.1047 41.231 9.95221 41.4685 9.68222C41.7061 9.41469 41.816 9.05728 41.771 8.69976C41.676 7.94475 41.5235 6.57981 41.5235 6.1399C41.5235 4.84492 41.5235 3.62247 45.1783 3.58497C45.4333 3.58251 45.6832 3.50247 45.8932 3.35248C47.0807 2.49998 48.4531 2.49998 49.1106 2.49998C50.403 2.49998 51.258 2.84742 51.728 3.56493C52.2355 4.34244 52.028 4.56239 51.888 4.71485L51.3455 5.25728C51.1256 5.47724 50.9955 5.76972 50.9805 6.07979L50.848 8.80218C50.833 9.14212 50.8729 9.37965 51.1054 9.62714C51.3404 9.87463 51.5803 9.92467 51.9204 9.92713L51.7605 11.9595C51.108 11.9595 50.568 12.4596 50.5155 13.1095C50.4055 14.4569 49.713 15.8544 48.7081 16.7568C48.3656 17.0643 48.2181 17.5392 48.3306 17.9892L48.8406 20.0316C48.9531 20.4791 49.3006 20.8316 49.7505 20.9415L54.2303 22.0614C55.7353 22.4388 56.8852 23.5739 57.3152 25.0013L35.1815 24.9964Z" fill="url(#paint5_linear_1_907)"/><path d="M56.2473 29.9987C55.5573 29.9987 54.9973 30.5587 54.9973 31.2486V46.248C54.9973 46.938 54.4348 47.498 53.7473 47.498H51.7649L52.1274 47.1431C52.6149 46.6556 52.6149 45.8631 52.1274 45.3756C51.6399 44.8881 50.8474 44.8881 50.3599 45.3756L47.8676 47.868C47.8426 47.8929 47.8175 47.9205 47.7926 47.948C47.63 48.1405 47.5325 48.3704 47.5051 48.608C47.4952 48.6805 47.4926 48.7555 47.4976 48.8279C47.5151 49.118 47.6351 49.4054 47.8551 49.6304C47.8576 49.6304 47.8576 49.6304 47.8576 49.6304C47.8576 49.6304 47.8576 49.6304 47.8601 49.6304C47.8601 49.6329 47.8625 49.6329 47.8625 49.6329L50.3624 52.1327C50.6074 52.3752 50.9273 52.4977 51.2474 52.4977C51.5674 52.4977 51.8873 52.3777 52.1299 52.1327C52.3723 51.8877 52.4949 51.5678 52.4949 51.2477C52.4949 50.9277 52.3749 50.6078 52.1299 50.3628L51.7648 49.9978H53.7472C55.8147 49.9978 57.4971 48.3154 57.4971 46.2479V31.2485C57.4973 30.5586 56.9373 29.9987 56.2473 29.9987Z" fill="url(#paint6_linear_1_907)"/><path d="M38.7486 42.498H28.749C28.059 42.498 27.499 43.0581 27.499 43.748C27.499 44.438 28.059 44.998 28.749 44.998H38.7486C39.4385 44.998 39.9986 44.438 39.9986 43.748C39.9984 43.0581 39.4385 42.498 38.7486 42.498Z" fill="url(#paint7_linear_1_907)"/><defs><linearGradient id="paint0_linear_1_907" x1="27.499" y1="53.7477" x2="39.9986" y2="53.7477" gradientUnits="userSpaceOnUse"><stop stop-color="#0568EA"/><stop offset="1" stop-color="#08B5F7"/></linearGradient><linearGradient id="paint1_linear_1_907" x1="5" y1="53.7477" x2="7.49998" y2="53.7477" gradientUnits="userSpaceOnUse"><stop stop-color="#0568EA"/><stop offset="1" stop-color="#08B5F7"/></linearGradient><linearGradient id="paint2_linear_1_907" x1="12.5" y1="23.7498" x2="32.5016" y2="23.7498" gradientUnits="userSpaceOnUse"><stop stop-color="#0568EA"/><stop offset="1" stop-color="#08B5F7"/></linearGradient><linearGradient id="paint3_linear_1_907" x1="5" y1="43.748" x2="7.49998" y2="43.748" gradientUnits="userSpaceOnUse"><stop stop-color="#0568EA"/><stop offset="1" stop-color="#08B5F7"/></linearGradient><linearGradient id="paint4_linear_1_907" x1="0" y1="48.7479" x2="44.9982" y2="48.7479" gradientUnits="userSpaceOnUse"><stop stop-color="#0568EA"/><stop offset="1" stop-color="#08B5F7"/></linearGradient><linearGradient id="paint5_linear_1_907" x1="32.499" y1="13.7495" x2="60.0005" y2="13.7495" gradientUnits="userSpaceOnUse"><stop stop-color="#0568EA"/><stop offset="1" stop-color="#08B5F7"/></linearGradient><linearGradient id="paint6_linear_1_907" x1="47.4951" y1="41.2482" x2="57.4971" y2="41.2482" gradientUnits="userSpaceOnUse"><stop stop-color="#0568EA"/><stop offset="1" stop-color="#08B5F7"/></linearGradient><linearGradient id="paint7_linear_1_907" x1="27.499" y1="43.748" x2="39.9986" y2="43.748" gradientUnits="userSpaceOnUse"><stop stop-color="#0568EA"/><stop offset="1" stop-color="#08B5F7"/></linearGradient></defs></svg>