<svg xmlns="http://www.w3.org/2000/svg" width="60" height="60" viewBox="0 0 60 60" fill="none"><path d="M48.75 35C49.1925 35 49.6025 34.7651 49.8275 34.385C50.865 32.6175 60 16.9475 60 11.25C60 5.0475 54.9525 0 48.75 0C42.5475 0 37.5 5.0475 37.5 11.25C37.5 16.9475 46.6325 32.6175 47.6725 34.385C47.8975 34.765 48.3075 35 48.75 35ZM48.75 2.49996C53.575 2.49996 57.5 6.42492 57.5 11.25C57.5 15.02 51.92 25.655 48.75 31.2475C45.58 25.655 40 15.02 40 11.25C40 6.42504 43.925 2.49996 48.75 2.49996Z" fill="url(#paint0_linear_73_16)"/><path d="M31.25 40H45.8925C46.5825 40 47.1425 39.4399 47.1425 38.7499C47.1425 38.0599 46.5825 37.5 45.8925 37.5H31.25C30.56 37.5 30 38.06 30 38.75C30 39.44 30.56 40 31.25 40Z" fill="url(#paint1_linear_73_16)"/><path d="M54.9999 11.25C54.9999 7.805 52.1949 5 48.7499 5C45.305 5 42.5 7.805 42.5 11.25C42.5 14.6949 45.305 17.4999 48.7499 17.4999C52.1949 17.4999 54.9999 14.6949 54.9999 11.25ZM44.9999 11.25C44.9999 9.18242 46.6824 7.49996 48.7499 7.49996C50.8175 7.49996 52.4999 9.18242 52.4999 11.25C52.4999 13.3175 50.8175 15 48.7499 15C46.6824 15 44.9999 13.3175 44.9999 11.25Z" fill="url(#paint2_linear_73_16)"/><path d="M51.25 47.5H31.25C30.56 47.5 30 48.06 30 48.75C30 49.44 30.56 50.0001 31.25 50.0001H51.2501C51.9401 50.0001 52.5001 49.44 52.5001 48.75C52.5 48.06 51.94 47.5 51.25 47.5Z" fill="url(#paint3_linear_73_16)"/><path d="M5 36.25C5 38.3175 6.68246 40 8.75 40C10.8175 40 12.5 38.3175 12.5 36.25C12.5 34.1825 10.8175 32.5 8.75 32.5C6.68246 32.5 5 34.1826 5 36.25ZM9.99992 36.25C9.99992 36.94 9.43988 37.5 8.74988 37.5C8.05988 37.5 7.49996 36.94 7.49996 36.25C7.49996 35.56 8.06 35 8.75 35C9.44 35 9.99992 35.56 9.99992 36.25Z" fill="url(#paint4_linear_73_16)"/><path d="M8.75 47.5C6.68246 47.5 5 49.1825 5 51.25C5 53.3175 6.68246 55 8.75 55C10.8175 55 12.5 53.3175 12.5 51.25C12.5 49.1826 10.8174 47.5 8.75 47.5ZM8.75 52.5C8.06 52.5 7.49996 51.94 7.49996 51.25C7.49996 50.56 8.06 50 8.75 50C9.44 50 10 50.56 10 51.25C9.99992 51.94 9.44 52.5 8.75 52.5Z" fill="url(#paint5_linear_73_16)"/><path d="M31.25 35.0001H42.975C43.665 35.0001 44.225 34.44 44.225 33.75C44.225 33.06 43.665 32.5 42.975 32.5H31.25C30.56 32.5 30 33.06 30 33.75C30 34.44 30.56 35.0001 31.25 35.0001Z" fill="url(#paint6_linear_73_16)"/><path d="M51.25 52.5H31.25C30.56 52.5 30 53.06 30 53.75C30 54.44 30.56 55.0001 31.25 55.0001H51.2501C51.9401 55.0001 52.5001 54.44 52.5001 53.75C52.5001 53.06 51.94 52.5 51.25 52.5Z" fill="url(#paint7_linear_73_16)"/><path d="M57.4725 28.75C56.92 28.3375 56.135 28.4525 55.7225 29.005C55.31 29.56 55.425 30.3425 55.9775 30.755C56.945 31.475 57.5 32.5675 57.5 33.75V38.75C57.5 40.8175 55.8176 42.5 53.75 42.5H6.24996C4.18242 42.5 2.49996 40.8175 2.49996 38.75V33.7501C2.49996 31.6825 4.18242 30.0001 6.24996 30.0001H40.2424C40.9324 30.0001 41.4925 29.44 41.4925 28.75C41.4925 28.06 40.9324 27.5 40.2424 27.5H6.24996C2.805 27.5001 0 30.3051 0 33.7501V38.7501C0 40.8001 1.00746 42.6102 2.54004 43.7502C1.00746 44.89 0 46.7001 0 48.7501V53.7501C0 57.1951 2.805 60.0001 6.24996 60.0001H53.7499C57.195 60.0001 60 57.1951 60 53.7501V48.7501C60 46.7001 58.9925 44.89 57.46 43.75C58.9925 42.61 60 40.8001 60 38.7501V33.7501C60 31.7701 59.0775 29.9476 57.4725 28.75ZM57.5 48.7501V53.7501C57.5 55.8177 55.8176 57.5001 53.75 57.5001H6.24996C4.18242 57.5001 2.49996 55.8177 2.49996 53.7501V48.7501C2.49996 46.6825 4.18242 45.0001 6.24996 45.0001H53.7499C55.8175 45.0001 57.5 46.6825 57.5 48.7501Z" fill="url(#paint8_linear_73_16)"/><defs><linearGradient id="paint0_linear_73_16" x1="37.5" y1="17.5" x2="60" y2="17.5" gradientUnits="userSpaceOnUse"><stop stop-color="#0568EA"/><stop offset="1" stop-color="#08B5F7"/></linearGradient><linearGradient id="paint1_linear_73_16" x1="30" y1="38.75" x2="47.1425" y2="38.75" gradientUnits="userSpaceOnUse"><stop stop-color="#0568EA"/><stop offset="1" stop-color="#08B5F7"/></linearGradient><linearGradient id="paint2_linear_73_16" x1="42.5" y1="11.25" x2="54.9999" y2="11.25" gradientUnits="userSpaceOnUse"><stop stop-color="#0568EA"/><stop offset="1" stop-color="#08B5F7"/></linearGradient><linearGradient id="paint3_linear_73_16" x1="30" y1="48.75" x2="52.5001" y2="48.75" gradientUnits="userSpaceOnUse"><stop stop-color="#0568EA"/><stop offset="1" stop-color="#08B5F7"/></linearGradient><linearGradient id="paint4_linear_73_16" x1="5" y1="36.25" x2="12.5" y2="36.25" gradientUnits="userSpaceOnUse"><stop stop-color="#0568EA"/><stop offset="1" stop-color="#08B5F7"/></linearGradient><linearGradient id="paint5_linear_73_16" x1="5" y1="51.25" x2="12.5" y2="51.25" gradientUnits="userSpaceOnUse"><stop stop-color="#0568EA"/><stop offset="1" stop-color="#08B5F7"/></linearGradient><linearGradient id="paint6_linear_73_16" x1="30" y1="33.75" x2="44.225" y2="33.75" gradientUnits="userSpaceOnUse"><stop stop-color="#0568EA"/><stop offset="1" stop-color="#08B5F7"/></linearGradient><linearGradient id="paint7_linear_73_16" x1="30" y1="53.75" x2="52.5001" y2="53.75" gradientUnits="userSpaceOnUse"><stop stop-color="#0568EA"/><stop offset="1" stop-color="#08B5F7"/></linearGradient><linearGradient id="paint8_linear_73_16" x1="0" y1="43.75" x2="60" y2="43.75" gradientUnits="userSpaceOnUse"><stop stop-color="#0568EA"/><stop offset="1" stop-color="#08B5F7"/></linearGradient></defs></svg>