<svg xmlns="http://www.w3.org/2000/svg" width="60" height="60" viewBox="0 0 60 60" fill="none"><path d="M56.25 15H55V6.24996C55 2.805 52.1975 0 48.75 0H11.25C7.80246 0 5.00004 2.805 5.00004 6.24996V7.5H3.75C1.68246 7.5 0 9.18246 0 11.25C0 14.69 0.500039 18.105 1.48746 21.3975L6.48246 38.045C7.2825 40.71 9.69 42.5 12.4699 42.5H27.4999V50H26.25C25.56 50 25 50.5601 25 51.2501V52.5H23.7499C23.0599 52.5 22.4999 53.06 22.4999 53.75V55.0001H11.25C10.56 55.0001 9.99996 55.5601 9.99996 56.2501C9.99996 56.9401 10.56 57.5002 11.25 57.5002H22.5V58.7502C22.5 59.4402 23.06 60.0002 23.75 60.0002H33.75C34.44 60.0002 35 59.4402 35 58.7502V57.5002H46.25C46.94 57.5002 47.5001 56.9401 47.5001 56.2501C47.5001 55.5601 46.94 55.0001 46.25 55.0001H35V53.75C35 53.06 34.44 52.5 33.75 52.5H32.5V51.25C32.5 50.56 31.9399 49.9999 31.2499 49.9999H30V42.4999H47.785C50.3775 42.4999 52.7299 40.87 53.635 38.4449L59.0449 24.0274C59.6775 22.3325 60 20.5575 60 18.75C60 16.6825 58.3175 15 56.25 15ZM7.5 6.24996C7.5 4.18242 9.18246 2.49996 11.25 2.49996H48.75C50.8175 2.49996 52.5 4.18242 52.5 6.24996V15H23.0525C22.5125 15 22.035 14.6575 21.8675 14.145L20.505 10.065C19.995 8.52996 18.5625 7.5 16.9475 7.5H7.5V6.24996ZM31.25 55H32.5001V57.4999H25.0001V55H26.25C26.94 55 27.5 54.4399 27.5 53.7499V52.5H30V53.75C30 54.44 30.56 55 31.25 55ZM56.705 23.15L51.2951 37.5675C50.7551 39.0225 49.3426 40 47.7875 40H12.4725C10.8025 40 9.35754 38.925 8.87754 37.3275L3.88254 20.68C2.96754 17.62 2.49996 14.4475 2.49996 11.25C2.49996 10.56 3.06246 9.99996 3.75 9.99996H16.9475C17.4875 9.99996 17.9651 10.3425 18.1325 10.855L19.4951 14.935C20.0051 16.47 21.4376 17.5 23.0525 17.5H56.25C56.9375 17.5 57.5 18.0625 57.5 18.7525C57.5 20.2575 57.2325 21.7375 56.705 23.15Z" fill="url(#paint0_linear_1_2)"/><defs><linearGradient id="paint0_linear_1_2" x1="0" y1="30.0001" x2="60" y2="30.0001" gradientUnits="userSpaceOnUse"><stop stop-color="#0568EA"/><stop offset="1" stop-color="#08B5F7"/></linearGradient></defs></svg>