<svg xmlns="http://www.w3.org/2000/svg" width="60" height="60" viewBox="0 0 60 60" fill="none"><path d="M49.2651 40.1225C49.2501 40.115 49.245 40.1 49.23 40.0925C49.2276 40.09 49.2225 40.0925 49.2201 40.0925C49.02 40.01 48.8051 40.0025 48.5925 40.03C48.5376 40.0375 48.4875 40.0475 48.4326 40.06C48.2276 40.1125 48.0326 40.2 47.8725 40.36C47.8701 40.3625 47.8675 40.3625 47.8675 40.3625L47.865 40.3649L42.8676 45.3624C42.3801 45.8499 42.3801 46.6424 42.8676 47.1299C43.3551 47.6174 44.1476 47.6174 44.6351 47.1299L47.5001 44.2674V53.7498C47.5001 54.4398 48.0602 54.9999 48.7502 54.9999C49.4402 54.9999 50.0002 54.4398 50.0027 53.7498V44.2723L52.8652 47.1348C53.1102 47.3773 53.4302 47.4999 53.7502 47.4999C54.0702 47.4999 54.3902 47.3774 54.6327 47.1348C55.1202 46.6473 55.1202 45.8548 54.6327 45.3673L49.6327 40.3673C49.525 40.2599 49.3975 40.1849 49.2651 40.1225Z" fill="url(#paint0_linear_114_506)"/><path d="M58.75 52.5C58.06 52.5 57.4999 53.06 57.4999 53.75V57.5H40V53.75C40 53.06 39.4399 52.5 38.7499 52.5C38.0599 52.5 37.5 53.06 37.5 53.75V58.7501C37.5 59.4401 38.06 60.0001 38.75 60.0001H58.7501C59.4401 60.0001 60.0001 59.4401 60.0001 58.7501V53.75C60 53.06 59.44 52.5 58.75 52.5Z" fill="url(#paint1_linear_114_506)"/><path d="M33.5425 56.8075C30.7975 57.265 27.9225 57.4999 25 57.4999C11.74 57.4999 2.49996 52.8874 2.49996 48.7499V41.2049C6.50742 44.9599 14.9625 47.4998 25 47.4998C31.1149 47.4998 36.99 46.5248 41.5425 44.7548C42.1875 44.5073 42.505 43.7823 42.255 43.1399C42.005 42.4949 41.28 42.1748 40.6375 42.4274C36.3675 44.0875 30.815 45 25 45C11.74 45 2.49996 40.3875 2.49996 36.25V28.705C6.50742 32.46 14.9625 34.9999 25 34.9999C35.0374 34.9999 43.4925 32.4599 47.5 28.705V36.25C47.5 36.94 48.06 37.5 48.75 37.5C49.44 37.5 50 36.94 50 36.25V11.25C50 4.9425 39.0176 0 25.0001 0C10.9826 0 0 4.9425 0 11.25V48.75C0 55.0575 10.9825 60 25 60C28.0624 60 31.075 59.755 33.955 59.2725C34.6375 59.1575 35.0974 58.5125 34.9825 57.8325C34.8675 57.1525 34.2125 56.6875 33.5425 56.8075ZM25 2.49996C38.26 2.49996 47.5 7.11246 47.5 11.25C47.5 15.3875 38.26 20 25 20C11.74 20 2.49996 15.3875 2.49996 11.25C2.49996 7.11246 11.74 2.49996 25 2.49996ZM2.49996 16.205C6.50754 19.96 14.9625 22.5 25 22.5C35.0374 22.5 43.4925 19.96 47.5 16.205V23.75C47.5 27.8876 38.26 32.5001 25 32.5001C11.74 32.5001 2.49996 27.8876 2.49996 23.75V16.205Z" fill="url(#paint2_linear_114_506)"/><defs><linearGradient id="paint0_linear_114_506" x1="42.502" y1="47.5078" x2="54.9984" y2="47.5078" gradientUnits="userSpaceOnUse"><stop stop-color="#0568EA"/><stop offset="1" stop-color="#08B5F7"/></linearGradient><linearGradient id="paint1_linear_114_506" x1="37.5" y1="56.2501" x2="60.0001" y2="56.2501" gradientUnits="userSpaceOnUse"><stop stop-color="#0568EA"/><stop offset="1" stop-color="#08B5F7"/></linearGradient><linearGradient id="paint2_linear_114_506" x1="0" y1="30" x2="50" y2="30" gradientUnits="userSpaceOnUse"><stop stop-color="#0568EA"/><stop offset="1" stop-color="#08B5F7"/></linearGradient></defs></svg>