<svg xmlns="http://www.w3.org/2000/svg" width="60" height="60" viewBox="0 0 60 60" fill="none"><path d="M33.205 56.8575C30.5425 57.285 27.78 57.5 25 57.5C11.74 57.5 2.49996 52.8875 2.49996 48.75V41.205C6.50742 44.96 14.9625 47.5 25 47.5C26.31 47.5 27.585 47.4475 28.8424 47.3599C29.5324 47.3149 30.0524 46.7174 30.0049 46.0274C29.9599 45.3374 29.3575 44.8199 28.6724 44.8649C27.4724 44.9474 26.2523 44.9999 24.9998 44.9999C11.7398 44.9999 2.49984 40.3874 2.49984 36.2498V28.7048C6.5073 32.4599 14.9624 34.9998 24.9998 34.9998C28.5648 34.9998 32.0348 34.6698 35.3174 34.0223C35.9974 33.8873 36.4373 33.2324 36.3023 32.5548C36.1673 31.8748 35.4974 31.4248 34.8348 31.5698C31.7098 32.1873 28.3998 32.4998 24.9998 32.4998C11.7398 32.4998 2.49984 27.8873 2.49984 23.7498V16.2048C6.50754 19.96 14.9625 22.5 25 22.5C35.0374 22.5 43.4925 19.96 47.5 16.205V23.75C47.5 25.4475 46.0099 26.8751 44.76 27.7751C44.2 28.1801 44.0725 28.9601 44.475 29.5201C44.72 29.8601 45.1025 30.0401 45.49 30.0401C45.745 30.0401 46 29.9626 46.2199 29.8025C46.705 29.4551 47.1049 29.085 47.5 28.715V28.95C47.5 29.64 48.06 30.2 48.75 30.2C49.44 30.2 50 29.64 50 28.95V11.25C50 4.9425 39.0176 0 25.0001 0C10.9826 0 0 4.9425 0 11.25V48.75C0 55.0575 10.9825 60 25 60C27.9124 60 30.805 59.7725 33.6 59.3275C34.28 59.2174 34.745 58.5775 34.6375 57.895C34.5275 57.2125 33.89 56.76 33.205 56.8575ZM25 2.49996C38.26 2.49996 47.5 7.11246 47.5 11.25C47.5 15.3875 38.26 20 25 20C11.74 20 2.49996 15.3875 2.49996 11.25C2.49996 7.11246 11.74 2.49996 25 2.49996Z" fill="currentColor"/><path d="M46.25 32.5C38.67 32.5 32.5001 38.67 32.5001 46.2499C32.5001 53.8298 38.67 60 46.25 60C53.8301 60 60 53.83 60 46.25C60 38.6701 53.83 32.5 46.25 32.5ZM46.25 57.5C40.0475 57.5 35 52.4525 35 46.25C35 40.0475 40.0475 35 46.25 35C52.4525 35 57.5 40.0475 57.5 46.25C57.5 52.4525 52.4525 57.5 46.25 57.5Z" fill="currentColor"/><path d="M47.5 45.2525V40.155C48.8775 40.49 49.92 41.3525 50.005 42.365C50.0599 43.0526 50.7225 43.5476 51.355 43.505C52.0425 43.4475 52.5525 42.8426 52.495 42.155C52.27 39.5025 49.5876 37.5 46.255 37.5H46.2525C46.2525 37.5 46.2525 37.5 46.2501 37.5H46.2476C42.8001 37.505 40.0001 39.745 40.0001 42.5C40.0001 44.8451 41.6401 46.425 45.0001 47.2475V52.3451C43.6226 52.01 42.5801 51.1475 42.4951 50.135C42.4402 49.4475 41.7626 48.9326 41.1451 48.995C40.4576 49.0526 39.9476 49.6575 40.0051 50.345C40.2301 52.9976 42.9127 55.0001 46.2451 55.0001H46.2476C46.2476 55.0001 46.2476 55.0001 46.2501 55.0001H46.2525C49.7001 54.995 52.5 52.755 52.5 50C52.5 47.66 50.865 46.0825 47.5 45.2525ZM45 44.6675C43.335 44.1875 42.5 43.4925 42.5 42.5C42.5 41.4375 43.5626 40.5125 45 40.16V44.6675ZM47.5 52.34V47.8325C49.165 48.3125 49.9999 49.0076 49.9999 50C50 51.0625 48.9375 51.9875 47.5 52.34Z" fill="currentColor"/></svg>