<svg xmlns="http://www.w3.org/2000/svg" width="60" height="60" viewBox="0 0 60 60" fill="none"><path d="M51.2499 40C50.5599 40 49.9999 40.56 49.9999 41.25C49.9999 41.94 50.5599 42.5001 51.2499 42.5001C51.9399 42.5001 52.5 41.94 52.5 41.25C52.5 40.56 51.9399 40 51.2499 40Z" fill="currentColor"/><path d="M46.25 40C45.56 40 45 40.56 45 41.25C45 41.94 45.56 42.5001 46.25 42.5001C46.94 42.5001 47.5001 41.94 47.5001 41.25C47.5 40.56 46.94 40 46.25 40Z" fill="currentColor"/><path d="M8.75 20C6.68246 20 5 21.6825 5 23.75C5 25.8175 6.68246 27.5 8.75 27.5C10.8175 27.5 12.5 25.8175 12.5 23.75C12.5 21.6825 10.8174 20 8.75 20ZM8.75 24.9999C8.06 24.9999 7.49996 24.4399 7.49996 23.7499C7.49996 23.0599 8.06 22.5 8.75 22.5C9.44 22.5 10 23.06 10 23.75C10 24.44 9.44 24.9999 8.75 24.9999Z" fill="currentColor"/><path d="M8.75 35C6.68246 35 5 36.6825 5 38.75C5 40.8175 6.68246 42.5 8.75 42.5C10.8175 42.5 12.5 40.8175 12.5 38.75C12.5 36.6825 10.8174 35 8.75 35ZM8.75 39.9999C8.06 39.9999 7.49996 39.4399 7.49996 38.7499C7.49996 38.0599 8.06 37.5 8.75 37.5C9.44 37.5 10 38.06 10 38.75C10 39.44 9.44 39.9999 8.75 39.9999Z" fill="currentColor"/><path d="M36.2499 40C35.5599 40 34.9999 40.56 34.9999 41.25C34.9999 41.94 35.5599 42.5001 36.2499 42.5001C36.9399 42.5001 37.5 41.94 37.5 41.25C37.5 40.56 36.9399 40 36.2499 40Z" fill="currentColor"/><path d="M41.25 40C40.56 40 40 40.56 40 41.25C40 41.94 40.56 42.5001 41.25 42.5001C41.94 42.5001 42.5001 41.94 42.5001 41.25C42.5001 40.56 41.94 40 41.25 40Z" fill="currentColor"/><path d="M60 11.25V6.24996C60 2.805 57.195 0 53.75 0H6.24996C2.805 0 0 2.805 0 6.24996V11.25C0 13.3 1.00746 15.11 2.54004 16.25C1.00746 17.39 0 19.2 0 21.25V26.25C0 28.3 1.00746 30.11 2.54004 31.25C1.00746 32.39 0 34.2 0 36.25V41.25C0 44.695 2.805 47.5 6.24996 47.5H22.5V49.9999H21.25C20.56 49.9999 19.9999 50.56 19.9999 51.25V52.5H18.75C18.06 52.5 17.5 53.06 17.5 53.75V55.0001H6.24996C5.55996 55.0001 4.99992 55.5601 4.99992 56.2501C4.99992 56.9401 5.55996 57.5002 6.24996 57.5002H17.5V58.7502C17.5 59.4402 18.06 60.0002 18.75 60.0002H28.75C29.44 60.0002 30 59.4402 30 58.7502V57.5002H41.25C41.94 57.5002 42.5 56.9401 42.5 56.2501C42.5 55.5601 41.94 55.0001 41.25 55.0001H30V53.75C30 53.06 29.44 52.5 28.75 52.5H27.4999V51.25C27.4999 50.56 26.9399 49.9999 26.2499 49.9999H24.9998V47.5H53.7498C57.195 47.5 60 44.695 60 41.25V36.25C60 34.2 58.9925 32.3899 57.46 31.2499C58.9925 30.11 60 28.3 60 26.25V21.25C60 19.2 58.9925 17.3899 57.46 16.2499C58.9925 15.11 60 13.3 60 11.25ZM26.25 55H27.5V57.4999H20V55H21.2501C21.9401 55 22.5001 54.4399 22.5001 53.7499V52.5H25.0001V53.75C25 54.44 25.56 55 26.25 55ZM57.5 36.25V41.25C57.5 43.3175 55.8176 45 53.75 45H6.24996C4.18242 45 2.49996 43.3175 2.49996 41.25V36.25C2.49996 34.1824 4.18242 32.5 6.24996 32.5H53.7499C55.8175 32.5 57.5 34.1825 57.5 36.25ZM57.5 21.25V26.25C57.5 28.3175 55.8176 30 53.75 30H6.24996C4.18242 30 2.49996 28.3175 2.49996 26.25V21.25C2.49996 19.1824 4.18242 17.5 6.24996 17.5H53.7499C55.8175 17.5 57.5 19.1825 57.5 21.25ZM57.5 11.25C57.5 13.3175 55.8176 15 53.75 15H6.24996C4.18242 15 2.49996 13.3175 2.49996 11.25V6.24996C2.49996 4.18242 4.18242 2.49996 6.24996 2.49996H53.7499C55.8175 2.49996 57.4999 4.18242 57.4999 6.24996V11.25H57.5Z" fill="currentColor"/><path d="M36.2499 10C35.5599 10 34.9999 10.56 34.9999 11.25C34.9999 11.94 35.5599 12.5001 36.2499 12.5001C36.9399 12.5001 37.5 11.94 37.5 11.25C37.5 10.56 36.9399 10 36.2499 10Z" fill="currentColor"/><path d="M41.25 10C40.56 10 40 10.56 40 11.25C40 11.94 40.56 12.5001 41.25 12.5001C41.94 12.5001 42.5001 11.94 42.5001 11.25C42.5001 10.56 41.94 10 41.25 10Z" fill="currentColor"/><path d="M46.25 10C45.56 10 45 10.56 45 11.25C45 11.94 45.56 12.5001 46.25 12.5001C46.94 12.5001 47.5001 11.94 47.5001 11.25C47.5001 10.56 46.94 10 46.25 10Z" fill="currentColor"/><path d="M36.2499 25C35.5599 25 34.9999 25.56 34.9999 26.25C34.9999 26.94 35.5599 27.5001 36.2499 27.5001C36.9399 27.5001 37.5 26.94 37.5 26.25C37.5 25.56 36.9399 25 36.2499 25Z" fill="currentColor"/><path d="M51.2499 10C50.5599 10 49.9999 10.56 49.9999 11.25C49.9999 11.94 50.5599 12.5001 51.2499 12.5001C51.9399 12.5001 52.5 11.94 52.5 11.25C52.5 10.56 51.9399 10 51.2499 10Z" fill="currentColor"/><path d="M46.25 25C45.56 25 45 25.56 45 26.25C45 26.94 45.56 27.5001 46.25 27.5001C46.94 27.5001 47.5001 26.94 47.5001 26.25C47.5001 25.56 46.94 25 46.25 25Z" fill="currentColor"/><path d="M41.25 25C40.56 25 40 25.56 40 26.25C40 26.94 40.56 27.5001 41.25 27.5001C41.94 27.5001 42.5001 26.94 42.5001 26.25C42.5001 25.56 41.94 25 41.25 25Z" fill="currentColor"/><path d="M51.2499 25C50.5599 25 49.9999 25.56 49.9999 26.25C49.9999 26.94 50.5599 27.5001 51.2499 27.5001C51.9399 27.5001 52.5 26.94 52.5 26.25C52.5 25.56 51.9399 25 51.2499 25Z" fill="currentColor"/><path d="M8.75 5C6.68246 5 5 6.68246 5 8.75C5 10.8175 6.68246 12.5 8.75 12.5C10.8175 12.5 12.5 10.8175 12.5 8.75C12.5 6.68246 10.8174 5 8.75 5ZM8.75 9.99992C8.06 9.99992 7.49996 9.44 7.49996 8.75C7.49996 8.06 8.06 7.49996 8.75 7.49996C9.44 7.49996 10 8.06 10 8.75C10 9.44 9.44 9.99992 8.75 9.99992Z" fill="currentColor"/></svg>