<svg xmlns="http://www.w3.org/2000/svg" width="60" height="60" viewBox="0 0 60 60" fill="none"><path d="M43.75 52.5H33.75C33.06 52.5 32.5 53.06 32.5 53.75C32.5 54.44 33.06 55.0001 33.75 55.0001H43.75C44.44 55.0001 45 54.44 45 53.75C45 53.06 44.44 52.5 43.75 52.5Z" fill="currentColor"/><path d="M6.24996 52.5C5.55996 52.5 4.99992 53.06 4.99992 53.75C4.99992 54.44 5.55996 55.0001 6.24996 55.0001C6.93996 55.0001 7.5 54.44 7.5 53.75C7.5 53.06 6.93996 52.5 6.24996 52.5Z" fill="currentColor"/><path d="M58.75 0H13.75C13.06 0 12.4999 0.560039 12.4999 1.25004V33.75C12.4999 34.44 13.06 35 13.75 35C14.44 35 15 34.44 15 33.75V2.49996H57.5V40H53.75C53.06 40 52.5 40.56 52.5 41.25C52.5 41.94 53.06 42.5 53.75 42.5H58.7501C59.4401 42.5 60.0001 41.94 60.0001 41.25V1.25004C60 0.560039 59.44 0 58.75 0Z" fill="currentColor"/><path d="M43.75 42.5H33.75C33.06 42.5 32.5 43.0601 32.5 43.7501C32.5 44.4401 33.06 45.0001 33.75 45.0001H43.75C44.44 45.0001 45 44.4401 45 43.7501C45 43.06 44.44 42.5 43.75 42.5Z" fill="currentColor"/><path d="M52.0325 7.7775C51.4925 7.35 50.7101 7.4325 50.2751 7.9725L41.345 19.1375L39.7925 16.8101C39.5525 16.4501 39.1376 16.2275 38.7075 16.2551C38.275 16.2676 37.88 16.5076 37.665 16.8826L33.6675 23.8751L29.79 18.0575C29.5525 17.7026 29.1625 17.5001 28.72 17.5001C28.29 17.5126 27.8974 17.7401 27.6775 18.1076L20.1775 30.6076C19.8225 31.2001 20.0149 31.9676 20.6074 32.3227C20.8075 32.4427 21.0299 32.5002 21.25 32.5002C21.6724 32.5002 22.0875 32.2852 22.3174 31.8952L28.8025 21.0877L32.7075 26.9452C32.9475 27.3027 33.335 27.5326 33.7925 27.5002C34.2251 27.4876 34.62 27.2476 34.835 26.8726L38.8325 19.8802L40.2101 21.9477C40.4326 22.2802 40.8001 22.4852 41.1976 22.5027C41.5702 22.5202 41.9776 22.3452 42.2276 22.0352L52.2275 9.5352C52.6575 8.99496 52.5725 8.21004 52.0325 7.7775Z" fill="currentColor"/><path d="M46.25 37.5H3.75C1.68246 37.5 0 39.1825 0 41.25V46.25C0 47.2125 0.375 48.085 0.975 48.75C0.375 49.415 0 50.2875 0 51.25V56.25C0 58.3175 1.68246 60 3.75 60H46.25C48.3176 60 50 58.3175 50 56.25V51.25C50 50.2875 49.625 49.4149 49.025 48.75C49.625 48.085 50 47.2125 50 46.25V41.25C50 39.1825 48.3175 37.5 46.25 37.5ZM47.5 56.25C47.5 56.94 46.9375 57.5 46.2499 57.5H3.75C3.06246 57.5 2.49996 56.94 2.49996 56.25V51.25C2.49996 50.56 3.06246 49.9999 3.75 49.9999H46.25C46.9376 49.9999 47.5001 50.56 47.5001 51.25V56.25H47.5ZM47.5 46.25C47.5 46.94 46.9375 47.5001 46.2499 47.5001H3.75C3.06246 47.5001 2.49996 46.94 2.49996 46.25V41.25C2.49996 40.56 3.06246 40 3.75 40H46.25C46.9376 40 47.5001 40.56 47.5001 41.25V46.25H47.5Z" fill="currentColor"/><path d="M6.24996 42.5C5.55996 42.5 4.99992 43.0601 4.99992 43.7501C4.99992 44.4401 5.55996 45.0001 6.24996 45.0001C6.93996 45.0001 7.5 44.44 7.5 43.75C7.5 43.06 6.93996 42.5 6.24996 42.5Z" fill="currentColor"/></svg>