<svg xmlns="http://www.w3.org/2000/svg" width="60" height="60" viewBox="0 0 60 60" fill="none"><path d="M38.7485 52.4992H28.7489C28.0589 52.4992 27.4989 53.0592 27.4989 53.7492C27.4989 54.4392 28.0589 54.9992 28.7489 54.9992H38.7485C39.4384 54.9992 39.9984 54.4392 39.9984 53.7492C39.9984 53.0592 39.4384 52.4992 38.7485 52.4992Z" fill="currentColor"/><path d="M6.2497 52.4992C5.55727 52.4992 4.99971 53.0592 4.99971 53.7492C4.99971 54.4416 5.55715 54.9992 6.2497 54.9992C6.94213 54.9992 7.49969 54.4417 7.49969 53.7492C7.49969 53.0591 6.93967 52.4992 6.2497 52.4992Z" fill="currentColor"/><path d="M13.7494 34.9998C14.4394 34.9998 14.9994 34.4398 14.9994 33.7424V21.2429C14.9994 19.1755 16.6818 17.4931 18.7492 17.4931H28.2339L27.8689 17.8581C27.3814 18.3456 27.3814 19.1381 27.8689 19.6256C28.3563 20.1131 29.1488 20.1131 29.6363 19.6256L32.1287 17.1332C32.1536 17.1083 32.1787 17.0807 32.2037 17.0532C32.3662 16.8607 32.4637 16.6307 32.4911 16.3932C32.5011 16.3182 32.5037 16.2432 32.4986 16.1733C32.4812 15.8832 32.3612 15.5958 32.1411 15.3708C32.1386 15.3708 32.1386 15.3708 32.1386 15.3708C32.1386 15.3708 32.1386 15.3708 32.1362 15.3708C32.1362 15.3683 32.1337 15.3683 32.1337 15.3683L29.6339 12.8685C29.1464 12.381 28.3539 12.381 27.8664 12.8685C27.6239 13.1135 27.5014 13.4334 27.5014 13.7534C27.5014 14.0735 27.6214 14.3934 27.8664 14.6384L28.2314 15.0009H18.7492C15.3018 15.0009 12.4995 17.8057 12.4995 21.2506V33.7501C12.4995 34.4399 13.0594 34.9998 13.7494 34.9998Z" fill="currentColor"/><path d="M6.2497 42.4995C5.55727 42.4995 4.99971 43.0595 4.99971 43.7495C4.99971 44.4419 5.55715 44.9995 6.2497 44.9995C6.94213 44.9995 7.49969 44.442 7.49969 43.7495C7.49969 43.0595 6.93967 42.4995 6.2497 42.4995Z" fill="currentColor"/><path d="M41.2483 37.4998H3.74985C1.68239 37.4998 0 39.1822 0 41.2497V46.2495C0 47.2119 0.374985 48.0845 0.97496 48.7494C0.374985 49.4168 0 50.2868 0 51.2492V56.249C0 58.3165 1.68239 59.9989 3.74985 59.9989H41.2483C43.3158 59.9989 44.9982 58.3165 44.9982 56.249V51.2492C44.9982 50.2868 44.6232 49.4143 44.0232 48.7494C44.6232 48.0843 44.9982 47.2119 44.9982 46.2495V41.2497C44.9982 39.1822 43.3158 37.4998 41.2483 37.4998ZM42.4983 56.249C42.4983 56.939 41.9358 57.499 41.2483 57.499H3.74985C3.06234 57.499 2.49986 56.939 2.49986 56.249V51.2492C2.49986 50.5592 3.06234 49.9992 3.74985 49.9992H41.2483C41.9358 49.9992 42.4983 50.5592 42.4983 51.2492V56.249ZM42.4983 46.2494C42.4983 46.9394 41.9358 47.4994 41.2483 47.4994H3.74985C3.06234 47.4994 2.49986 46.9394 2.49986 46.2494V41.2495C2.49986 40.5596 3.06234 39.9996 3.74985 39.9996H41.2483C41.9358 39.9996 42.4983 40.5596 42.4983 41.2495V46.2494Z" fill="currentColor"/><path d="M54.8377 19.6355L51.0854 18.6981L50.9279 18.0706C51.9004 16.9957 52.5929 15.6232 52.8803 14.1983C53.5478 13.8533 54.0302 13.1983 54.1303 12.4109L54.4003 10.236C54.4828 9.57599 54.2803 8.91098 53.8429 8.41108C53.7079 8.25863 53.5528 8.12363 53.3878 8.01114L53.4503 6.68369L53.6778 6.45624C54.3227 5.77131 55.1952 4.30887 53.8152 2.19887C53.1603 1.19638 51.8103 0.00146484 49.1054 0.00146484C48.3104 0.00146484 46.513 0.00146484 44.7681 1.09642C39.6233 1.27887 39.0183 4.0513 39.0183 6.14371C39.0183 6.5562 39.0933 7.32866 39.1633 7.97364C38.9782 8.09117 38.8083 8.23613 38.6608 8.40358C38.2159 8.90852 38.0108 9.57599 38.0959 10.2385L38.3658 12.4135C38.4684 13.2259 38.9859 13.9009 39.7483 14.2334C40.0282 15.5959 40.6832 16.9159 41.5956 17.9632L41.4132 18.6982L37.6609 19.6357C34.6235 20.3956 32.4986 23.1155 32.4986 26.2504C32.4986 26.5828 32.6286 26.9029 32.8636 27.1354C33.0987 27.3678 33.4162 27.5004 33.7486 27.5004L58.7501 27.4953C59.4401 27.4953 60.0001 26.9353 60.0001 26.2453C60 23.1128 57.8776 20.393 54.8377 19.6355ZM35.1811 24.9978C35.611 23.5729 36.7635 22.438 38.2734 22.0579L42.7532 20.938C43.2007 20.8255 43.5506 20.4755 43.6631 20.0281L44.1956 17.8957C44.3056 17.4557 44.168 16.9907 43.8356 16.6808C42.8631 15.7658 42.2181 14.4284 42.1131 13.1034C42.0606 12.456 41.5056 12.096 40.8532 12.096L40.5307 10.1061C40.8907 10.1061 41.2306 9.95367 41.4681 9.68368C41.7057 9.41616 41.8156 9.05875 41.7706 8.70122C41.6756 7.94622 41.5231 6.58127 41.5231 6.14137C41.5231 4.84638 41.5231 3.62393 45.1779 3.58644C45.4329 3.58397 45.6829 3.50394 45.8928 3.35394C47.0803 2.50144 48.4527 2.50144 49.1102 2.50144C50.4026 2.50144 51.2576 2.84889 51.7276 3.5664C52.2351 4.3439 52.0276 4.56386 51.8876 4.71631L51.3451 5.25875C51.1252 5.4787 50.9951 5.77119 50.9801 6.08125L50.8476 8.80364C50.8326 9.14359 50.8725 9.38112 51.105 9.62861C51.34 9.8761 51.58 9.92614 51.92 9.9286L51.7601 11.961C51.1076 11.961 50.5676 12.461 50.5151 13.1109C50.4051 14.4584 49.7126 15.8558 48.7077 16.7582C48.3652 17.0657 48.2177 17.5407 48.3302 17.9906L48.8402 20.033C48.9527 20.4805 49.3002 20.833 49.7501 20.943L54.2299 22.0629C55.7349 22.4403 56.8848 23.5753 57.3148 25.0027L35.1811 24.9978Z" fill="currentColor"/><path d="M56.2477 30.0001C55.5577 30.0001 54.9977 30.5601 54.9977 31.2501V46.2495C54.9977 46.9395 54.4352 47.4995 53.7477 47.4995H51.7653L52.1278 47.1445C52.6153 46.6571 52.6153 45.8646 52.1278 45.3771C51.6403 44.8896 50.8478 44.8896 50.3603 45.3771L47.868 47.8694C47.843 47.8944 47.8179 47.9219 47.793 47.9495C47.6304 48.142 47.5329 48.3719 47.5055 48.6094C47.4955 48.682 47.493 48.757 47.498 48.8294C47.5155 49.1194 47.6355 49.4069 47.8555 49.6319C47.858 49.6319 47.858 49.6319 47.858 49.6319C47.858 49.6319 47.858 49.6319 47.8605 49.6319C47.8605 49.6343 47.8629 49.6343 47.8629 49.6343L50.3628 52.1342C50.6078 52.3766 50.9277 52.4992 51.2477 52.4992C51.5678 52.4992 51.8877 52.3792 52.1302 52.1342C52.3727 51.8891 52.4953 51.5692 52.4953 51.2492C52.4953 50.9292 52.3753 50.6093 52.1302 50.3642L51.7652 49.9992H53.7476C55.815 49.9992 57.4974 48.3168 57.4974 46.2494V31.25C57.4977 30.56 56.9377 30.0001 56.2477 30.0001Z" fill="currentColor"/><path d="M38.7485 42.4995H28.7489C28.0589 42.4995 27.4989 43.0595 27.4989 43.7495C27.4989 44.4395 28.0589 44.9995 28.7489 44.9995H38.7485C39.4384 44.9995 39.9984 44.4395 39.9984 43.7495C39.9983 43.0595 39.4384 42.4995 38.7485 42.4995Z" fill="currentColor"/></svg>